  0
SECTION
  2
BLOCKS
  0
ENDSEC
  0
SECTION
  2
ENTITIES
  0
LINE
  8
0
 10
354
 20
409
 11
360
 21
409
  0
LINE
  8
0
 10
360
 20
409
 11
360
 21
539
  0
LINE
  8
0
 10
360
 20
539
 11
354
 21
539
  0
LINE
  8
0
 10
354
 20
539
 11
354
 21
548
  0
LINE
  8
0
 10
354
 20
548
 11
46
 21
548
  0
LINE
  8
0
 10
46
 20
548
 11
46
 21
539
  0
LINE
  8
0
 10
46
 20
539
 11
40
 21
539
  0
LINE
  8
0
 10
40
 20
539
 11
40
 21
409
  0
LINE
  8
0
 10
40
 20
409
 11
46
 21
409
  0
LINE
  8
0
 10
46
 20
409
 11
46
 21
400
  0
LINE
  8
0
 10
46
 20
400
 11
354
 21
400
  0
LINE
  8
0
 10
354
 20
400
 11
354
 21
409
  0
LINE
  8
0
 10
50.1864
 20
541.924
 11
49.8849
 21
542.015
  0
LINE
  8
0
 10
49.8849
 20
542.015
 11
49.6071
 21
542.164
  0
LINE
  8
0
 10
49.6071
 20
542.164
 11
49.3635
 21
542.363
  0
LINE
  8
0
 10
49.3635
 20
542.363
 11
49.1636
 21
542.607
  0
LINE
  8
0
 10
49.1636
 20
542.607
 11
49.0151
 21
542.885
  0
LINE
  8
0
 10
49.0151
 20
542.885
 11
48.9236
 21
543.186
  0
LINE
  8
0
 10
48.9236
 20
543.186
 11
48.8927
 21
543.5
  0
LINE
  8
0
 10
48.8927
 20
543.5
 11
48.9236
 21
543.814
  0
LINE
  8
0
 10
48.9236
 20
543.814
 11
49.0151
 21
544.115
  0
LINE
  8
0
 10
49.0151
 20
544.115
 11
49.1636
 21
544.393
  0
LINE
  8
0
 10
49.1636
 20
544.393
 11
49.3635
 21
544.637
  0
LINE
  8
0
 10
49.3635
 20
544.637
 11
49.6071
 21
544.836
  0
LINE
  8
0
 10
49.6071
 20
544.836
 11
49.8849
 21
544.985
  0
LINE
  8
0
 10
49.8849
 20
544.985
 11
50.1864
 21
545.076
  0
LINE
  8
0
 10
50.1864
 20
545.076
 11
50.5
 21
545.107
  0
LINE
  8
0
 10
50.5
 20
545.107
 11
50.8136
 21
545.076
  0
LINE
  8
0
 10
50.8136
 20
545.076
 11
51.1151
 21
544.985
  0
LINE
  8
0
 10
51.1151
 20
544.985
 11
51.3929
 21
544.836
  0
LINE
  8
0
 10
51.3929
 20
544.836
 11
51.6365
 21
544.637
  0
LINE
  8
0
 10
51.6365
 20
544.637
 11
51.8364
 21
544.393
  0
LINE
  8
0
 10
51.8364
 20
544.393
 11
51.9849
 21
544.115
  0
LINE
  8
0
 10
51.9849
 20
544.115
 11
52.0764
 21
543.814
  0
LINE
  8
0
 10
52.0764
 20
543.814
 11
52.1073
 21
543.5
  0
LINE
  8
0
 10
52.1073
 20
543.5
 11
52.0764
 21
543.186
  0
LINE
  8
0
 10
52.0764
 20
543.186
 11
51.9849
 21
542.885
  0
LINE
  8
0
 10
51.9849
 20
542.885
 11
51.8364
 21
542.607
  0
LINE
  8
0
 10
51.8364
 20
542.607
 11
51.6365
 21
542.363
  0
LINE
  8
0
 10
51.6365
 20
542.363
 11
51.3929
 21
542.164
  0
LINE
  8
0
 10
51.3929
 20
542.164
 11
51.1151
 21
542.015
  0
LINE
  8
0
 10
51.1151
 20
542.015
 11
50.8136
 21
541.924
  0
LINE
  8
0
 10
50.8136
 20
541.924
 11
50.5
 21
541.893
  0
LINE
  8
0
 10
50.5
 20
541.893
 11
50.1864
 21
541.924
  0
LINE
  8
0
 10
349.186
 20
541.924
 11
348.885
 21
542.015
  0
LINE
  8
0
 10
348.885
 20
542.015
 11
348.607
 21
542.164
  0
LINE
  8
0
 10
348.607
 20
542.164
 11
348.363
 21
542.363
  0
LINE
  8
0
 10
348.363
 20
542.363
 11
348.164
 21
542.607
  0
LINE
  8
0
 10
348.164
 20
542.607
 11
348.015
 21
542.885
  0
LINE
  8
0
 10
348.015
 20
542.885
 11
347.924
 21
543.186
  0
LINE
  8
0
 10
347.924
 20
543.186
 11
347.893
 21
543.5
  0
LINE
  8
0
 10
347.893
 20
543.5
 11
347.924
 21
543.814
  0
LINE
  8
0
 10
347.924
 20
543.814
 11
348.015
 21
544.115
  0
LINE
  8
0
 10
348.015
 20
544.115
 11
348.164
 21
544.393
  0
LINE
  8
0
 10
348.164
 20
544.393
 11
348.363
 21
544.637
  0
LINE
  8
0
 10
348.363
 20
544.637
 11
348.607
 21
544.836
  0
LINE
  8
0
 10
348.607
 20
544.836
 11
348.885
 21
544.985
  0
LINE
  8
0
 10
348.885
 20
544.985
 11
349.186
 21
545.076
  0
LINE
  8
0
 10
349.186
 20
545.076
 11
349.5
 21
545.107
  0
LINE
  8
0
 10
349.5
 20
545.107
 11
349.814
 21
545.076
  0
LINE
  8
0
 10
349.814
 20
545.076
 11
350.115
 21
544.985
  0
LINE
  8
0
 10
350.115
 20
544.985
 11
350.393
 21
544.836
  0
LINE
  8
0
 10
350.393
 20
544.836
 11
350.637
 21
544.637
  0
LINE
  8
0
 10
350.637
 20
544.637
 11
350.836
 21
544.393
  0
LINE
  8
0
 10
350.836
 20
544.393
 11
350.985
 21
544.115
  0
LINE
  8
0
 10
350.985
 20
544.115
 11
351.076
 21
543.814
  0
LINE
  8
0
 10
351.076
 20
543.814
 11
351.107
 21
543.5
  0
LINE
  8
0
 10
351.107
 20
543.5
 11
351.076
 21
543.186
  0
LINE
  8
0
 10
351.076
 20
543.186
 11
350.985
 21
542.885
  0
LINE
  8
0
 10
350.985
 20
542.885
 11
350.836
 21
542.607
  0
LINE
  8
0
 10
350.836
 20
542.607
 11
350.637
 21
542.363
  0
LINE
  8
0
 10
350.637
 20
542.363
 11
350.393
 21
542.164
  0
LINE
  8
0
 10
350.393
 20
542.164
 11
350.115
 21
542.015
  0
LINE
  8
0
 10
350.115
 20
542.015
 11
349.814
 21
541.924
  0
LINE
  8
0
 10
349.814
 20
541.924
 11
349.5
 21
541.893
  0
LINE
  8
0
 10
349.5
 20
541.893
 11
349.186
 21
541.924
  0
LINE
  8
0
 10
50.1864
 20
402.924
 11
49.8849
 21
403.015
  0
LINE
  8
0
 10
49.8849
 20
403.015
 11
49.6071
 21
403.164
  0
LINE
  8
0
 10
49.6071
 20
403.164
 11
49.3635
 21
403.363
  0
LINE
  8
0
 10
49.3635
 20
403.363
 11
49.1636
 21
403.607
  0
LINE
  8
0
 10
49.1636
 20
403.607
 11
49.0151
 21
403.885
  0
LINE
  8
0
 10
49.0151
 20
403.885
 11
48.9236
 21
404.186
  0
LINE
  8
0
 10
48.9236
 20
404.186
 11
48.8927
 21
404.5
  0
LINE
  8
0
 10
48.8927
 20
404.5
 11
48.9236
 21
404.814
  0
LINE
  8
0
 10
48.9236
 20
404.814
 11
49.0151
 21
405.115
  0
LINE
  8
0
 10
49.0151
 20
405.115
 11
49.1636
 21
405.393
  0
LINE
  8
0
 10
49.1636
 20
405.393
 11
49.3635
 21
405.636
  0
LINE
  8
0
 10
49.3635
 20
405.636
 11
49.6071
 21
405.836
  0
LINE
  8
0
 10
49.6071
 20
405.836
 11
49.8849
 21
405.985
  0
LINE
  8
0
 10
49.8849
 20
405.985
 11
50.1864
 21
406.076
  0
LINE
  8
0
 10
50.1864
 20
406.076
 11
50.5
 21
406.107
  0
LINE
  8
0
 10
50.5
 20
406.107
 11
50.8136
 21
406.076
  0
LINE
  8
0
 10
50.8136
 20
406.076
 11
51.1151
 21
405.985
  0
LINE
  8
0
 10
51.1151
 20
405.985
 11
51.3929
 21
405.836
  0
LINE
  8
0
 10
51.3929
 20
405.836
 11
51.6365
 21
405.636
  0
LINE
  8
0
 10
51.6365
 20
405.636
 11
51.8364
 21
405.393
  0
LINE
  8
0
 10
51.8364
 20
405.393
 11
51.9849
 21
405.115
  0
LINE
  8
0
 10
51.9849
 20
405.115
 11
52.0764
 21
404.814
  0
LINE
  8
0
 10
52.0764
 20
404.814
 11
52.1073
 21
404.5
  0
LINE
  8
0
 10
52.1073
 20
404.5
 11
52.0764
 21
404.186
  0
LINE
  8
0
 10
52.0764
 20
404.186
 11
51.9849
 21
403.885
  0
LINE
  8
0
 10
51.9849
 20
403.885
 11
51.8364
 21
403.607
  0
LINE
  8
0
 10
51.8364
 20
403.607
 11
51.6365
 21
403.363
  0
LINE
  8
0
 10
51.6365
 20
403.363
 11
51.3929
 21
403.164
  0
LINE
  8
0
 10
51.3929
 20
403.164
 11
51.1151
 21
403.015
  0
LINE
  8
0
 10
51.1151
 20
403.015
 11
50.8136
 21
402.924
  0
LINE
  8
0
 10
50.8136
 20
402.924
 11
50.5
 21
402.893
  0
LINE
  8
0
 10
50.5
 20
402.893
 11
50.1864
 21
402.924
  0
LINE
  8
0
 10
349.186
 20
402.924
 11
348.885
 21
403.015
  0
LINE
  8
0
 10
348.885
 20
403.015
 11
348.607
 21
403.164
  0
LINE
  8
0
 10
348.607
 20
403.164
 11
348.363
 21
403.363
  0
LINE
  8
0
 10
348.363
 20
403.363
 11
348.164
 21
403.607
  0
LINE
  8
0
 10
348.164
 20
403.607
 11
348.015
 21
403.885
  0
LINE
  8
0
 10
348.015
 20
403.885
 11
347.924
 21
404.186
  0
LINE
  8
0
 10
347.924
 20
404.186
 11
347.893
 21
404.5
  0
LINE
  8
0
 10
347.893
 20
404.5
 11
347.924
 21
404.814
  0
LINE
  8
0
 10
347.924
 20
404.814
 11
348.015
 21
405.115
  0
LINE
  8
0
 10
348.015
 20
405.115
 11
348.164
 21
405.393
  0
LINE
  8
0
 10
348.164
 20
405.393
 11
348.363
 21
405.636
  0
LINE
  8
0
 10
348.363
 20
405.636
 11
348.607
 21
405.836
  0
LINE
  8
0
 10
348.607
 20
405.836
 11
348.885
 21
405.985
  0
LINE
  8
0
 10
348.885
 20
405.985
 11
349.186
 21
406.076
  0
LINE
  8
0
 10
349.186
 20
406.076
 11
349.5
 21
406.107
  0
LINE
  8
0
 10
349.5
 20
406.107
 11
349.814
 21
406.076
  0
LINE
  8
0
 10
349.814
 20
406.076
 11
350.115
 21
405.985
  0
LINE
  8
0
 10
350.115
 20
405.985
 11
350.393
 21
405.836
  0
LINE
  8
0
 10
350.393
 20
405.836
 11
350.637
 21
405.636
  0
LINE
  8
0
 10
350.637
 20
405.636
 11
350.836
 21
405.393
  0
LINE
  8
0
 10
350.836
 20
405.393
 11
350.985
 21
405.115
  0
LINE
  8
0
 10
350.985
 20
405.115
 11
351.076
 21
404.814
  0
LINE
  8
0
 10
351.076
 20
404.814
 11
351.107
 21
404.5
  0
LINE
  8
0
 10
351.107
 20
404.5
 11
351.076
 21
404.186
  0
LINE
  8
0
 10
351.076
 20
404.186
 11
350.985
 21
403.885
  0
LINE
  8
0
 10
350.985
 20
403.885
 11
350.836
 21
403.607
  0
LINE
  8
0
 10
350.836
 20
403.607
 11
350.637
 21
403.363
  0
LINE
  8
0
 10
350.637
 20
403.363
 11
350.393
 21
403.164
  0
LINE
  8
0
 10
350.393
 20
403.164
 11
350.115
 21
403.015
  0
LINE
  8
0
 10
350.115
 20
403.015
 11
349.814
 21
402.924
  0
LINE
  8
0
 10
349.814
 20
402.924
 11
349.5
 21
402.893
  0
LINE
  8
0
 10
349.5
 20
402.893
 11
349.186
 21
402.924
  0
LINE
  8
0
 10
714
 20
409
 11
720
 21
409
  0
LINE
  8
0
 10
720
 20
409
 11
720
 21
539
  0
LINE
  8
0
 10
720
 20
539
 11
714
 21
539
  0
LINE
  8
0
 10
714
 20
539
 11
714
 21
548
  0
LINE
  8
0
 10
714
 20
548
 11
406
 21
548
  0
LINE
  8
0
 10
406
 20
548
 11
406
 21
539
  0
LINE
  8
0
 10
406
 20
539
 11
400
 21
539
  0
LINE
  8
0
 10
400
 20
539
 11
400
 21
409
  0
LINE
  8
0
 10
400
 20
409
 11
406
 21
409
  0
LINE
  8
0
 10
406
 20
409
 11
406
 21
400
  0
LINE
  8
0
 10
406
 20
400
 11
714
 21
400
  0
LINE
  8
0
 10
714
 20
400
 11
714
 21
409
  0
LINE
  8
0
 10
410.186
 20
541.924
 11
409.885
 21
542.015
  0
LINE
  8
0
 10
409.885
 20
542.015
 11
409.607
 21
542.164
  0
LINE
  8
0
 10
409.607
 20
542.164
 11
409.363
 21
542.363
  0
LINE
  8
0
 10
409.363
 20
542.363
 11
409.164
 21
542.607
  0
LINE
  8
0
 10
409.164
 20
542.607
 11
409.015
 21
542.885
  0
LINE
  8
0
 10
409.015
 20
542.885
 11
408.924
 21
543.186
  0
LINE
  8
0
 10
408.924
 20
543.186
 11
408.893
 21
543.5
  0
LINE
  8
0
 10
408.893
 20
543.5
 11
408.924
 21
543.814
  0
LINE
  8
0
 10
408.924
 20
543.814
 11
409.015
 21
544.115
  0
LINE
  8
0
 10
409.015
 20
544.115
 11
409.164
 21
544.393
  0
LINE
  8
0
 10
409.164
 20
544.393
 11
409.363
 21
544.637
  0
LINE
  8
0
 10
409.363
 20
544.637
 11
409.607
 21
544.836
  0
LINE
  8
0
 10
409.607
 20
544.836
 11
409.885
 21
544.985
  0
LINE
  8
0
 10
409.885
 20
544.985
 11
410.186
 21
545.076
  0
LINE
  8
0
 10
410.186
 20
545.076
 11
410.5
 21
545.107
  0
LINE
  8
0
 10
410.5
 20
545.107
 11
410.814
 21
545.076
  0
LINE
  8
0
 10
410.814
 20
545.076
 11
411.115
 21
544.985
  0
LINE
  8
0
 10
411.115
 20
544.985
 11
411.393
 21
544.836
  0
LINE
  8
0
 10
411.393
 20
544.836
 11
411.637
 21
544.637
  0
LINE
  8
0
 10
411.637
 20
544.637
 11
411.836
 21
544.393
  0
LINE
  8
0
 10
411.836
 20
544.393
 11
411.985
 21
544.115
  0
LINE
  8
0
 10
411.985
 20
544.115
 11
412.076
 21
543.814
  0
LINE
  8
0
 10
412.076
 20
543.814
 11
412.107
 21
543.5
  0
LINE
  8
0
 10
412.107
 20
543.5
 11
412.076
 21
543.186
  0
LINE
  8
0
 10
412.076
 20
543.186
 11
411.985
 21
542.885
  0
LINE
  8
0
 10
411.985
 20
542.885
 11
411.836
 21
542.607
  0
LINE
  8
0
 10
411.836
 20
542.607
 11
411.637
 21
542.363
  0
LINE
  8
0
 10
411.637
 20
542.363
 11
411.393
 21
542.164
  0
LINE
  8
0
 10
411.393
 20
542.164
 11
411.115
 21
542.015
  0
LINE
  8
0
 10
411.115
 20
542.015
 11
410.814
 21
541.924
  0
LINE
  8
0
 10
410.814
 20
541.924
 11
410.5
 21
541.893
  0
LINE
  8
0
 10
410.5
 20
541.893
 11
410.186
 21
541.924
  0
LINE
  8
0
 10
709.186
 20
541.924
 11
708.885
 21
542.015
  0
LINE
  8
0
 10
708.885
 20
542.015
 11
708.607
 21
542.164
  0
LINE
  8
0
 10
708.607
 20
542.164
 11
708.363
 21
542.363
  0
LINE
  8
0
 10
708.363
 20
542.363
 11
708.164
 21
542.607
  0
LINE
  8
0
 10
708.164
 20
542.607
 11
708.015
 21
542.885
  0
LINE
  8
0
 10
708.015
 20
542.885
 11
707.924
 21
543.186
  0
LINE
  8
0
 10
707.924
 20
543.186
 11
707.893
 21
543.5
  0
LINE
  8
0
 10
707.893
 20
543.5
 11
707.924
 21
543.814
  0
LINE
  8
0
 10
707.924
 20
543.814
 11
708.015
 21
544.115
  0
LINE
  8
0
 10
708.015
 20
544.115
 11
708.164
 21
544.393
  0
LINE
  8
0
 10
708.164
 20
544.393
 11
708.363
 21
544.637
  0
LINE
  8
0
 10
708.363
 20
544.637
 11
708.607
 21
544.836
  0
LINE
  8
0
 10
708.607
 20
544.836
 11
708.885
 21
544.985
  0
LINE
  8
0
 10
708.885
 20
544.985
 11
709.186
 21
545.076
  0
LINE
  8
0
 10
709.186
 20
545.076
 11
709.5
 21
545.107
  0
LINE
  8
0
 10
709.5
 20
545.107
 11
709.814
 21
545.076
  0
LINE
  8
0
 10
709.814
 20
545.076
 11
710.115
 21
544.985
  0
LINE
  8
0
 10
710.115
 20
544.985
 11
710.393
 21
544.836
  0
LINE
  8
0
 10
710.393
 20
544.836
 11
710.637
 21
544.637
  0
LINE
  8
0
 10
710.637
 20
544.637
 11
710.836
 21
544.393
  0
LINE
  8
0
 10
710.836
 20
544.393
 11
710.985
 21
544.115
  0
LINE
  8
0
 10
710.985
 20
544.115
 11
711.076
 21
543.814
  0
LINE
  8
0
 10
711.076
 20
543.814
 11
711.107
 21
543.5
  0
LINE
  8
0
 10
711.107
 20
543.5
 11
711.076
 21
543.186
  0
LINE
  8
0
 10
711.076
 20
543.186
 11
710.985
 21
542.885
  0
LINE
  8
0
 10
710.985
 20
542.885
 11
710.836
 21
542.607
  0
LINE
  8
0
 10
710.836
 20
542.607
 11
710.637
 21
542.363
  0
LINE
  8
0
 10
710.637
 20
542.363
 11
710.393
 21
542.164
  0
LINE
  8
0
 10
710.393
 20
542.164
 11
710.115
 21
542.015
  0
LINE
  8
0
 10
710.115
 20
542.015
 11
709.814
 21
541.924
  0
LINE
  8
0
 10
709.814
 20
541.924
 11
709.5
 21
541.893
  0
LINE
  8
0
 10
709.5
 20
541.893
 11
709.186
 21
541.924
  0
LINE
  8
0
 10
563.061
 20
506.058
 11
561.561
 21
506.513
  0
LINE
  8
0
 10
561.561
 20
506.513
 11
560
 21
506.667
  0
LINE
  8
0
 10
560
 20
506.667
 11
558.439
 21
506.513
  0
LINE
  8
0
 10
558.439
 20
506.513
 11
556.939
 21
506.058
  0
LINE
  8
0
 10
556.939
 20
506.058
 11
556.882
 21
506.027
  0
LINE
  8
0
 10
556.882
 20
506.027
 11
534.753
 21
528.156
  0
LINE
  8
0
 10
534.753
 20
528.156
 11
538.333
 21
531.094
  0
LINE
  8
0
 10
538.333
 20
531.094
 11
545.075
 21
534.698
  0
LINE
  8
0
 10
545.075
 20
534.698
 11
552.391
 21
536.917
  0
LINE
  8
0
 10
552.391
 20
536.917
 11
560
 21
537.667
  0
LINE
  8
0
 10
560
 20
537.667
 11
567.609
 21
536.917
  0
LINE
  8
0
 10
567.609
 20
536.917
 11
574.925
 21
534.698
  0
LINE
  8
0
 10
574.925
 20
534.698
 11
581.667
 21
531.094
  0
LINE
  8
0
 10
581.667
 20
531.094
 11
585.247
 21
528.156
  0
LINE
  8
0
 10
585.247
 20
528.156
 11
563.118
 21
506.027
  0
LINE
  8
0
 10
563.118
 20
506.027
 11
563.061
 21
506.058
  0
LINE
  8
0
 10
595.24
 20
531.855
 11
594.75
 21
532.003
  0
LINE
  8
0
 10
594.75
 20
532.003
 11
594.299
 21
532.245
  0
LINE
  8
0
 10
594.299
 20
532.245
 11
593.903
 21
532.57
  0
LINE
  8
0
 10
593.903
 20
532.57
 11
593.578
 21
532.965
  0
LINE
  8
0
 10
593.578
 20
532.965
 11
593.337
 21
533.417
  0
LINE
  8
0
 10
593.337
 20
533.417
 11
593.188
 21
533.907
  0
LINE
  8
0
 10
593.188
 20
533.907
 11
593.138
 21
534.417
  0
LINE
  8
0
 10
593.138
 20
534.417
 11
593.188
 21
534.926
  0
LINE
  8
0
 10
593.188
 20
534.926
 11
593.337
 21
535.416
  0
LINE
  8
0
 10
593.337
 20
535.416
 11
593.578
 21
535.868
  0
LINE
  8
0
 10
593.578
 20
535.868
 11
593.903
 21
536.264
  0
LINE
  8
0
 10
593.903
 20
536.264
 11
594.299
 21
536.589
  0
LINE
  8
0
 10
594.299
 20
536.589
 11
594.75
 21
536.83
  0
LINE
  8
0
 10
594.75
 20
536.83
 11
595.24
 21
536.979
  0
LINE
  8
0
 10
595.24
 20
536.979
 11
595.75
 21
537.029
  0
LINE
  8
0
 10
595.75
 20
537.029
 11
596.26
 21
536.979
  0
LINE
  8
0
 10
596.26
 20
536.979
 11
596.75
 21
536.83
  0
LINE
  8
0
 10
596.75
 20
536.83
 11
597.201
 21
536.589
  0
LINE
  8
0
 10
597.201
 20
536.589
 11
597.597
 21
536.264
  0
LINE
  8
0
 10
597.597
 20
536.264
 11
597.922
 21
535.868
  0
LINE
  8
0
 10
597.922
 20
535.868
 11
598.163
 21
535.416
  0
LINE
  8
0
 10
598.163
 20
535.416
 11
598.312
 21
534.926
  0
LINE
  8
0
 10
598.312
 20
534.926
 11
598.362
 21
534.417
  0
LINE
  8
0
 10
598.362
 20
534.417
 11
598.312
 21
533.907
  0
LINE
  8
0
 10
598.312
 20
533.907
 11
598.163
 21
533.417
  0
LINE
  8
0
 10
598.163
 20
533.417
 11
597.922
 21
532.965
  0
LINE
  8
0
 10
597.922
 20
532.965
 11
597.597
 21
532.57
  0
LINE
  8
0
 10
597.597
 20
532.57
 11
597.201
 21
532.245
  0
LINE
  8
0
 10
597.201
 20
532.245
 11
596.75
 21
532.003
  0
LINE
  8
0
 10
596.75
 20
532.003
 11
596.26
 21
531.855
  0
LINE
  8
0
 10
596.26
 20
531.855
 11
595.75
 21
531.805
  0
LINE
  8
0
 10
595.75
 20
531.805
 11
595.24
 21
531.855
  0
LINE
  8
0
 10
523.74
 20
531.855
 11
523.25
 21
532.003
  0
LINE
  8
0
 10
523.25
 20
532.003
 11
522.799
 21
532.245
  0
LINE
  8
0
 10
522.799
 20
532.245
 11
522.403
 21
532.57
  0
LINE
  8
0
 10
522.403
 20
532.57
 11
522.078
 21
532.965
  0
LINE
  8
0
 10
522.078
 20
532.965
 11
521.837
 21
533.417
  0
LINE
  8
0
 10
521.837
 20
533.417
 11
521.688
 21
533.907
  0
LINE
  8
0
 10
521.688
 20
533.907
 11
521.638
 21
534.417
  0
LINE
  8
0
 10
521.638
 20
534.417
 11
521.688
 21
534.926
  0
LINE
  8
0
 10
521.688
 20
534.926
 11
521.837
 21
535.416
  0
LINE
  8
0
 10
521.837
 20
535.416
 11
522.078
 21
535.868
  0
LINE
  8
0
 10
522.078
 20
535.868
 11
522.403
 21
536.264
  0
LINE
  8
0
 10
522.403
 20
536.264
 11
522.799
 21
536.589
  0
LINE
  8
0
 10
522.799
 20
536.589
 11
523.25
 21
536.83
  0
LINE
  8
0
 10
523.25
 20
536.83
 11
523.74
 21
536.979
  0
LINE
  8
0
 10
523.74
 20
536.979
 11
524.25
 21
537.029
  0
LINE
  8
0
 10
524.25
 20
537.029
 11
524.76
 21
536.979
  0
LINE
  8
0
 10
524.76
 20
536.979
 11
525.25
 21
536.83
  0
LINE
  8
0
 10
525.25
 20
536.83
 11
525.701
 21
536.589
  0
LINE
  8
0
 10
525.701
 20
536.589
 11
526.097
 21
536.264
  0
LINE
  8
0
 10
526.097
 20
536.264
 11
526.422
 21
535.868
  0
LINE
  8
0
 10
526.422
 20
535.868
 11
526.663
 21
535.416
  0
LINE
  8
0
 10
526.663
 20
535.416
 11
526.812
 21
534.926
  0
LINE
  8
0
 10
526.812
 20
534.926
 11
526.862
 21
534.417
  0
LINE
  8
0
 10
526.862
 20
534.417
 11
526.812
 21
533.907
  0
LINE
  8
0
 10
526.812
 20
533.907
 11
526.663
 21
533.417
  0
LINE
  8
0
 10
526.663
 20
533.417
 11
526.422
 21
532.965
  0
LINE
  8
0
 10
526.422
 20
532.965
 11
526.097
 21
532.57
  0
LINE
  8
0
 10
526.097
 20
532.57
 11
525.701
 21
532.245
  0
LINE
  8
0
 10
525.701
 20
532.245
 11
525.25
 21
532.003
  0
LINE
  8
0
 10
525.25
 20
532.003
 11
524.76
 21
531.855
  0
LINE
  8
0
 10
524.76
 20
531.855
 11
524.25
 21
531.805
  0
LINE
  8
0
 10
524.25
 20
531.805
 11
523.74
 21
531.855
  0
LINE
  8
0
 10
625.283
 20
518.835
 11
625.283
 21
535.835
  0
LINE
  8
0
 10
625.283
 20
535.835
 11
706.563
 21
535.835
  0
LINE
  8
0
 10
706.563
 20
535.835
 11
706.563
 21
518.835
  0
LINE
  8
0
 10
706.563
 20
518.835
 11
625.283
 21
518.835
  0
LINE
  8
0
 10
457.686
 20
528.924
 11
457.385
 21
529.015
  0
LINE
  8
0
 10
457.385
 20
529.015
 11
457.107
 21
529.164
  0
LINE
  8
0
 10
457.107
 20
529.164
 11
456.863
 21
529.363
  0
LINE
  8
0
 10
456.863
 20
529.363
 11
456.664
 21
529.607
  0
LINE
  8
0
 10
456.664
 20
529.607
 11
456.515
 21
529.885
  0
LINE
  8
0
 10
456.515
 20
529.885
 11
456.424
 21
530.186
  0
LINE
  8
0
 10
456.424
 20
530.186
 11
456.393
 21
530.5
  0
LINE
  8
0
 10
456.393
 20
530.5
 11
456.424
 21
530.814
  0
LINE
  8
0
 10
456.424
 20
530.814
 11
456.515
 21
531.115
  0
LINE
  8
0
 10
456.515
 20
531.115
 11
456.664
 21
531.393
  0
LINE
  8
0
 10
456.664
 20
531.393
 11
456.863
 21
531.637
  0
LINE
  8
0
 10
456.863
 20
531.637
 11
457.107
 21
531.836
  0
LINE
  8
0
 10
457.107
 20
531.836
 11
457.385
 21
531.985
  0
LINE
  8
0
 10
457.385
 20
531.985
 11
457.686
 21
532.076
  0
LINE
  8
0
 10
457.686
 20
532.076
 11
458
 21
532.107
  0
LINE
  8
0
 10
458
 20
532.107
 11
458.314
 21
532.076
  0
LINE
  8
0
 10
458.314
 20
532.076
 11
458.615
 21
531.985
  0
LINE
  8
0
 10
458.615
 20
531.985
 11
458.893
 21
531.836
  0
LINE
  8
0
 10
458.893
 20
531.836
 11
459.137
 21
531.637
  0
LINE
  8
0
 10
459.137
 20
531.637
 11
459.336
 21
531.393
  0
LINE
  8
0
 10
459.336
 20
531.393
 11
459.485
 21
531.115
  0
LINE
  8
0
 10
459.485
 20
531.115
 11
459.576
 21
530.814
  0
LINE
  8
0
 10
459.576
 20
530.814
 11
459.607
 21
530.5
  0
LINE
  8
0
 10
459.607
 20
530.5
 11
459.576
 21
530.186
  0
LINE
  8
0
 10
459.576
 20
530.186
 11
459.485
 21
529.885
  0
LINE
  8
0
 10
459.485
 20
529.885
 11
459.336
 21
529.607
  0
LINE
  8
0
 10
459.336
 20
529.607
 11
459.137
 21
529.363
  0
LINE
  8
0
 10
459.137
 20
529.363
 11
458.893
 21
529.164
  0
LINE
  8
0
 10
458.893
 20
529.164
 11
458.615
 21
529.015
  0
LINE
  8
0
 10
458.615
 20
529.015
 11
458.314
 21
528.924
  0
LINE
  8
0
 10
458.314
 20
528.924
 11
458
 21
528.893
  0
LINE
  8
0
 10
458
 20
528.893
 11
457.686
 21
528.924
  0
LINE
  8
0
 10
431.936
 20
528.924
 11
431.635
 21
529.015
  0
LINE
  8
0
 10
431.635
 20
529.015
 11
431.357
 21
529.164
  0
LINE
  8
0
 10
431.357
 20
529.164
 11
431.113
 21
529.363
  0
LINE
  8
0
 10
431.113
 20
529.363
 11
430.914
 21
529.607
  0
LINE
  8
0
 10
430.914
 20
529.607
 11
430.765
 21
529.885
  0
LINE
  8
0
 10
430.765
 20
529.885
 11
430.674
 21
530.186
  0
LINE
  8
0
 10
430.674
 20
530.186
 11
430.643
 21
530.5
  0
LINE
  8
0
 10
430.643
 20
530.5
 11
430.674
 21
530.814
  0
LINE
  8
0
 10
430.674
 20
530.814
 11
430.765
 21
531.115
  0
LINE
  8
0
 10
430.765
 20
531.115
 11
430.914
 21
531.393
  0
LINE
  8
0
 10
430.914
 20
531.393
 11
431.113
 21
531.637
  0
LINE
  8
0
 10
431.113
 20
531.637
 11
431.357
 21
531.836
  0
LINE
  8
0
 10
431.357
 20
531.836
 11
431.635
 21
531.985
  0
LINE
  8
0
 10
431.635
 20
531.985
 11
431.936
 21
532.076
  0
LINE
  8
0
 10
431.936
 20
532.076
 11
432.25
 21
532.107
  0
LINE
  8
0
 10
432.25
 20
532.107
 11
432.564
 21
532.076
  0
LINE
  8
0
 10
432.564
 20
532.076
 11
432.865
 21
531.985
  0
LINE
  8
0
 10
432.865
 20
531.985
 11
433.143
 21
531.836
  0
LINE
  8
0
 10
433.143
 20
531.836
 11
433.387
 21
531.637
  0
LINE
  8
0
 10
433.387
 20
531.637
 11
433.586
 21
531.393
  0
LINE
  8
0
 10
433.586
 20
531.393
 11
433.735
 21
531.115
  0
LINE
  8
0
 10
433.735
 20
531.115
 11
433.826
 21
530.814
  0
LINE
  8
0
 10
433.826
 20
530.814
 11
433.857
 21
530.5
  0
LINE
  8
0
 10
433.857
 20
530.5
 11
433.826
 21
530.186
  0
LINE
  8
0
 10
433.826
 20
530.186
 11
433.735
 21
529.885
  0
LINE
  8
0
 10
433.735
 20
529.885
 11
433.586
 21
529.607
  0
LINE
  8
0
 10
433.586
 20
529.607
 11
433.387
 21
529.363
  0
LINE
  8
0
 10
433.387
 20
529.363
 11
433.143
 21
529.164
  0
LINE
  8
0
 10
433.143
 20
529.164
 11
432.865
 21
529.015
  0
LINE
  8
0
 10
432.865
 20
529.015
 11
432.564
 21
528.924
  0
LINE
  8
0
 10
432.564
 20
528.924
 11
432.25
 21
528.893
  0
LINE
  8
0
 10
432.25
 20
528.893
 11
431.936
 21
528.924
  0
LINE
  8
0
 10
406.186
 20
528.924
 11
405.885
 21
529.015
  0
LINE
  8
0
 10
405.885
 20
529.015
 11
405.607
 21
529.164
  0
LINE
  8
0
 10
405.607
 20
529.164
 11
405.363
 21
529.363
  0
LINE
  8
0
 10
405.363
 20
529.363
 11
405.164
 21
529.607
  0
LINE
  8
0
 10
405.164
 20
529.607
 11
405.015
 21
529.885
  0
LINE
  8
0
 10
405.015
 20
529.885
 11
404.924
 21
530.186
  0
LINE
  8
0
 10
404.924
 20
530.186
 11
404.893
 21
530.5
  0
LINE
  8
0
 10
404.893
 20
530.5
 11
404.924
 21
530.814
  0
LINE
  8
0
 10
404.924
 20
530.814
 11
405.015
 21
531.115
  0
LINE
  8
0
 10
405.015
 20
531.115
 11
405.164
 21
531.393
  0
LINE
  8
0
 10
405.164
 20
531.393
 11
405.363
 21
531.637
  0
LINE
  8
0
 10
405.363
 20
531.637
 11
405.607
 21
531.836
  0
LINE
  8
0
 10
405.607
 20
531.836
 11
405.885
 21
531.985
  0
LINE
  8
0
 10
405.885
 20
531.985
 11
406.186
 21
532.076
  0
LINE
  8
0
 10
406.186
 20
532.076
 11
406.5
 21
532.107
  0
LINE
  8
0
 10
406.5
 20
532.107
 11
406.814
 21
532.076
  0
LINE
  8
0
 10
406.814
 20
532.076
 11
407.115
 21
531.985
  0
LINE
  8
0
 10
407.115
 20
531.985
 11
407.393
 21
531.836
  0
LINE
  8
0
 10
407.393
 20
531.836
 11
407.637
 21
531.637
  0
LINE
  8
0
 10
407.637
 20
531.637
 11
407.836
 21
531.393
  0
LINE
  8
0
 10
407.836
 20
531.393
 11
407.985
 21
531.115
  0
LINE
  8
0
 10
407.985
 20
531.115
 11
408.076
 21
530.814
  0
LINE
  8
0
 10
408.076
 20
530.814
 11
408.107
 21
530.5
  0
LINE
  8
0
 10
408.107
 20
530.5
 11
408.076
 21
530.186
  0
LINE
  8
0
 10
408.076
 20
530.186
 11
407.985
 21
529.885
  0
LINE
  8
0
 10
407.985
 20
529.885
 11
407.836
 21
529.607
  0
LINE
  8
0
 10
407.836
 20
529.607
 11
407.637
 21
529.363
  0
LINE
  8
0
 10
407.637
 20
529.363
 11
407.393
 21
529.164
  0
LINE
  8
0
 10
407.393
 20
529.164
 11
407.115
 21
529.015
  0
LINE
  8
0
 10
407.115
 20
529.015
 11
406.814
 21
528.924
  0
LINE
  8
0
 10
406.814
 20
528.924
 11
406.5
 21
528.893
  0
LINE
  8
0
 10
406.5
 20
528.893
 11
406.186
 21
528.924
  0
LINE
  8
0
 10
413.891
 20
416.5
 11
413.891
 21
416.561
  0
LINE
  8
0
 10
413.891
 20
416.561
 11
409.561
 21
420.891
  0
LINE
  8
0
 10
409.561
 20
420.891
 11
403.5
 21
420.891
  0
LINE
  8
0
 10
403.5
 20
420.891
 11
403.5
 21
527.109
  0
LINE
  8
0
 10
403.5
 20
527.109
 11
409.561
 21
527.109
  0
LINE
  8
0
 10
409.561
 20
527.109
 11
413.891
 21
531.439
  0
LINE
  8
0
 10
413.891
 20
531.439
 11
413.891
 21
531.5
  0
LINE
  8
0
 10
413.891
 20
531.5
 11
424.859
 21
531.5
  0
LINE
  8
0
 10
424.859
 20
531.5
 11
424.859
 21
531.439
  0
LINE
  8
0
 10
424.859
 20
531.439
 11
429.189
 21
527.109
  0
LINE
  8
0
 10
429.189
 20
527.109
 11
435.311
 21
527.109
  0
LINE
  8
0
 10
435.311
 20
527.109
 11
439.641
 21
531.439
  0
LINE
  8
0
 10
439.641
 20
531.439
 11
439.641
 21
531.5
  0
LINE
  8
0
 10
439.641
 20
531.5
 11
450.609
 21
531.5
  0
LINE
  8
0
 10
450.609
 20
531.5
 11
450.609
 21
531.439
  0
LINE
  8
0
 10
450.609
 20
531.439
 11
454.939
 21
527.109
  0
LINE
  8
0
 10
454.939
 20
527.109
 11
461
 21
527.109
  0
LINE
  8
0
 10
461
 20
527.109
 11
461
 21
420.891
  0
LINE
  8
0
 10
461
 20
420.891
 11
454.939
 21
420.891
  0
LINE
  8
0
 10
454.939
 20
420.891
 11
450.609
 21
416.561
  0
LINE
  8
0
 10
450.609
 20
416.561
 11
450.609
 21
416.5
  0
LINE
  8
0
 10
450.609
 20
416.5
 11
439.641
 21
416.5
  0
LINE
  8
0
 10
439.641
 20
416.5
 11
439.641
 21
416.561
  0
LINE
  8
0
 10
439.641
 20
416.561
 11
435.311
 21
420.891
  0
LINE
  8
0
 10
435.311
 20
420.891
 11
429.189
 21
420.891
  0
LINE
  8
0
 10
429.189
 20
420.891
 11
424.859
 21
416.561
  0
LINE
  8
0
 10
424.859
 20
416.561
 11
424.859
 21
416.5
  0
LINE
  8
0
 10
424.859
 20
416.5
 11
413.891
 21
416.5
  0
LINE
  8
0
 10
527.573
 20
476.999
 11
523.969
 21
483.742
  0
LINE
  8
0
 10
523.969
 20
483.742
 11
521.749
 21
491.058
  0
LINE
  8
0
 10
521.749
 20
491.058
 11
521
 21
498.667
  0
LINE
  8
0
 10
521
 20
498.667
 11
521.749
 21
506.275
  0
LINE
  8
0
 10
521.749
 20
506.275
 11
523.969
 21
513.591
  0
LINE
  8
0
 10
523.969
 20
513.591
 11
527.573
 21
520.334
  0
LINE
  8
0
 10
527.573
 20
520.334
 11
530.51
 21
523.914
  0
LINE
  8
0
 10
530.51
 20
523.914
 11
552.639
 21
501.785
  0
LINE
  8
0
 10
552.639
 20
501.785
 11
552.609
 21
501.728
  0
LINE
  8
0
 10
552.609
 20
501.728
 11
552.154
 21
500.227
  0
LINE
  8
0
 10
552.154
 20
500.227
 11
552
 21
498.667
  0
LINE
  8
0
 10
552
 20
498.667
 11
552.154
 21
497.106
  0
LINE
  8
0
 10
552.154
 20
497.106
 11
552.609
 21
495.605
  0
LINE
  8
0
 10
552.609
 20
495.605
 11
552.639
 21
495.549
  0
LINE
  8
0
 10
552.639
 20
495.549
 11
530.51
 21
473.42
  0
LINE
  8
0
 10
530.51
 20
473.42
 11
527.573
 21
476.999
  0
LINE
  8
0
 10
567.361
 20
495.549
 11
567.391
 21
495.605
  0
LINE
  8
0
 10
567.391
 20
495.605
 11
567.846
 21
497.106
  0
LINE
  8
0
 10
567.846
 20
497.106
 11
568
 21
498.667
  0
LINE
  8
0
 10
568
 20
498.667
 11
567.846
 21
500.227
  0
LINE
  8
0
 10
567.846
 20
500.227
 11
567.391
 21
501.728
  0
LINE
  8
0
 10
567.391
 20
501.728
 11
567.361
 21
501.785
  0
LINE
  8
0
 10
567.361
 20
501.785
 11
589.49
 21
523.914
  0
LINE
  8
0
 10
589.49
 20
523.914
 11
592.427
 21
520.334
  0
LINE
  8
0
 10
592.427
 20
520.334
 11
596.031
 21
513.591
  0
LINE
  8
0
 10
596.031
 20
513.591
 11
598.251
 21
506.275
  0
LINE
  8
0
 10
598.251
 20
506.275
 11
599
 21
498.667
  0
LINE
  8
0
 10
599
 20
498.667
 11
598.251
 21
491.058
  0
LINE
  8
0
 10
598.251
 20
491.058
 11
596.031
 21
483.742
  0
LINE
  8
0
 10
596.031
 20
483.742
 11
592.427
 21
476.999
  0
LINE
  8
0
 10
592.427
 20
476.999
 11
589.49
 21
473.42
  0
LINE
  8
0
 10
589.49
 20
473.42
 11
567.361
 21
495.549
  0
LINE
  8
0
 10
695.761
 20
409.765
 11
692.261
 21
413.265
  0
LINE
  8
0
 10
692.261
 20
413.265
 11
692.261
 21
507.53
  0
LINE
  8
0
 10
692.261
 20
507.53
 11
706.261
 21
507.53
  0
LINE
  8
0
 10
706.261
 20
507.53
 11
706.261
 21
413.265
  0
LINE
  8
0
 10
706.261
 20
413.265
 11
702.761
 21
409.765
  0
LINE
  8
0
 10
702.761
 20
409.765
 11
695.761
 21
409.765
  0
LINE
  8
0
 10
675.441
 20
409.765
 11
671.941
 21
413.265
  0
LINE
  8
0
 10
671.941
 20
413.265
 11
671.941
 21
507.53
  0
LINE
  8
0
 10
671.941
 20
507.53
 11
685.941
 21
507.53
  0
LINE
  8
0
 10
685.941
 20
507.53
 11
685.941
 21
413.265
  0
LINE
  8
0
 10
685.941
 20
413.265
 11
682.441
 21
409.765
  0
LINE
  8
0
 10
682.441
 20
409.765
 11
675.441
 21
409.765
  0
LINE
  8
0
 10
634.801
 20
409.765
 11
631.301
 21
413.265
  0
LINE
  8
0
 10
631.301
 20
413.265
 11
631.301
 21
507.53
  0
LINE
  8
0
 10
631.301
 20
507.53
 11
645.301
 21
507.53
  0
LINE
  8
0
 10
645.301
 20
507.53
 11
645.301
 21
413.265
  0
LINE
  8
0
 10
645.301
 20
413.265
 11
641.801
 21
409.765
  0
LINE
  8
0
 10
641.801
 20
409.765
 11
634.801
 21
409.765
  0
LINE
  8
0
 10
655.121
 20
409.765
 11
651.621
 21
413.265
  0
LINE
  8
0
 10
651.621
 20
413.265
 11
651.621
 21
507.53
  0
LINE
  8
0
 10
651.621
 20
507.53
 11
665.621
 21
507.53
  0
LINE
  8
0
 10
665.621
 20
507.53
 11
665.621
 21
413.265
  0
LINE
  8
0
 10
665.621
 20
413.265
 11
662.121
 21
409.765
  0
LINE
  8
0
 10
662.121
 20
409.765
 11
655.121
 21
409.765
  0
LINE
  8
0
 10
552.391
 20
460.416
 11
545.075
 21
462.635
  0
LINE
  8
0
 10
545.075
 20
462.635
 11
538.333
 21
466.239
  0
LINE
  8
0
 10
538.333
 20
466.239
 11
534.753
 21
469.177
  0
LINE
  8
0
 10
534.753
 20
469.177
 11
556.882
 21
491.306
  0
LINE
  8
0
 10
556.882
 20
491.306
 11
556.939
 21
491.276
  0
LINE
  8
0
 10
556.939
 20
491.276
 11
558.439
 21
490.82
  0
LINE
  8
0
 10
558.439
 20
490.82
 11
560
 21
490.667
  0
LINE
  8
0
 10
560
 20
490.667
 11
561.561
 21
490.82
  0
LINE
  8
0
 10
561.561
 20
490.82
 11
563.061
 21
491.276
  0
LINE
  8
0
 10
563.061
 20
491.276
 11
563.118
 21
491.306
  0
LINE
  8
0
 10
563.118
 20
491.306
 11
585.247
 21
469.177
  0
LINE
  8
0
 10
585.247
 20
469.177
 11
581.667
 21
466.239
  0
LINE
  8
0
 10
581.667
 20
466.239
 11
574.925
 21
462.635
  0
LINE
  8
0
 10
574.925
 20
462.635
 11
567.609
 21
460.416
  0
LINE
  8
0
 10
567.609
 20
460.416
 11
560
 21
459.667
  0
LINE
  8
0
 10
560
 20
459.667
 11
552.391
 21
460.416
  0
LINE
  8
0
 10
595.24
 20
460.355
 11
594.75
 21
460.503
  0
LINE
  8
0
 10
594.75
 20
460.503
 11
594.299
 21
460.745
  0
LINE
  8
0
 10
594.299
 20
460.745
 11
593.903
 21
461.07
  0
LINE
  8
0
 10
593.903
 20
461.07
 11
593.578
 21
461.465
  0
LINE
  8
0
 10
593.578
 20
461.465
 11
593.337
 21
461.917
  0
LINE
  8
0
 10
593.337
 20
461.917
 11
593.188
 21
462.407
  0
LINE
  8
0
 10
593.188
 20
462.407
 11
593.138
 21
462.917
  0
LINE
  8
0
 10
593.138
 20
462.917
 11
593.188
 21
463.426
  0
LINE
  8
0
 10
593.188
 20
463.426
 11
593.337
 21
463.916
  0
LINE
  8
0
 10
593.337
 20
463.916
 11
593.578
 21
464.368
  0
LINE
  8
0
 10
593.578
 20
464.368
 11
593.903
 21
464.764
  0
LINE
  8
0
 10
593.903
 20
464.764
 11
594.299
 21
465.089
  0
LINE
  8
0
 10
594.299
 20
465.089
 11
594.75
 21
465.33
  0
LINE
  8
0
 10
594.75
 20
465.33
 11
595.24
 21
465.479
  0
LINE
  8
0
 10
595.24
 20
465.479
 11
595.75
 21
465.529
  0
LINE
  8
0
 10
595.75
 20
465.529
 11
596.26
 21
465.479
  0
LINE
  8
0
 10
596.26
 20
465.479
 11
596.75
 21
465.33
  0
LINE
  8
0
 10
596.75
 20
465.33
 11
597.201
 21
465.089
  0
LINE
  8
0
 10
597.201
 20
465.089
 11
597.597
 21
464.764
  0
LINE
  8
0
 10
597.597
 20
464.764
 11
597.922
 21
464.368
  0
LINE
  8
0
 10
597.922
 20
464.368
 11
598.163
 21
463.916
  0
LINE
  8
0
 10
598.163
 20
463.916
 11
598.312
 21
463.426
  0
LINE
  8
0
 10
598.312
 20
463.426
 11
598.362
 21
462.917
  0
LINE
  8
0
 10
598.362
 20
462.917
 11
598.312
 21
462.407
  0
LINE
  8
0
 10
598.312
 20
462.407
 11
598.163
 21
461.917
  0
LINE
  8
0
 10
598.163
 20
461.917
 11
597.922
 21
461.465
  0
LINE
  8
0
 10
597.922
 20
461.465
 11
597.597
 21
461.07
  0
LINE
  8
0
 10
597.597
 20
461.07
 11
597.201
 21
460.745
  0
LINE
  8
0
 10
597.201
 20
460.745
 11
596.75
 21
460.503
  0
LINE
  8
0
 10
596.75
 20
460.503
 11
596.26
 21
460.355
  0
LINE
  8
0
 10
596.26
 20
460.355
 11
595.75
 21
460.305
  0
LINE
  8
0
 10
595.75
 20
460.305
 11
595.24
 21
460.355
  0
LINE
  8
0
 10
523.74
 20
460.355
 11
523.25
 21
460.503
  0
LINE
  8
0
 10
523.25
 20
460.503
 11
522.799
 21
460.745
  0
LINE
  8
0
 10
522.799
 20
460.745
 11
522.403
 21
461.07
  0
LINE
  8
0
 10
522.403
 20
461.07
 11
522.078
 21
461.465
  0
LINE
  8
0
 10
522.078
 20
461.465
 11
521.837
 21
461.917
  0
LINE
  8
0
 10
521.837
 20
461.917
 11
521.688
 21
462.407
  0
LINE
  8
0
 10
521.688
 20
462.407
 11
521.638
 21
462.917
  0
LINE
  8
0
 10
521.638
 20
462.917
 11
521.688
 21
463.426
  0
LINE
  8
0
 10
521.688
 20
463.426
 11
521.837
 21
463.916
  0
LINE
  8
0
 10
521.837
 20
463.916
 11
522.078
 21
464.368
  0
LINE
  8
0
 10
522.078
 20
464.368
 11
522.403
 21
464.764
  0
LINE
  8
0
 10
522.403
 20
464.764
 11
522.799
 21
465.089
  0
LINE
  8
0
 10
522.799
 20
465.089
 11
523.25
 21
465.33
  0
LINE
  8
0
 10
523.25
 20
465.33
 11
523.74
 21
465.479
  0
LINE
  8
0
 10
523.74
 20
465.479
 11
524.25
 21
465.529
  0
LINE
  8
0
 10
524.25
 20
465.529
 11
524.76
 21
465.479
  0
LINE
  8
0
 10
524.76
 20
465.479
 11
525.25
 21
465.33
  0
LINE
  8
0
 10
525.25
 20
465.33
 11
525.701
 21
465.089
  0
LINE
  8
0
 10
525.701
 20
465.089
 11
526.097
 21
464.764
  0
LINE
  8
0
 10
526.097
 20
464.764
 11
526.422
 21
464.368
  0
LINE
  8
0
 10
526.422
 20
464.368
 11
526.663
 21
463.916
  0
LINE
  8
0
 10
526.663
 20
463.916
 11
526.812
 21
463.426
  0
LINE
  8
0
 10
526.812
 20
463.426
 11
526.862
 21
462.917
  0
LINE
  8
0
 10
526.862
 20
462.917
 11
526.812
 21
462.407
  0
LINE
  8
0
 10
526.812
 20
462.407
 11
526.663
 21
461.917
  0
LINE
  8
0
 10
526.663
 20
461.917
 11
526.422
 21
461.465
  0
LINE
  8
0
 10
526.422
 20
461.465
 11
526.097
 21
461.07
  0
LINE
  8
0
 10
526.097
 20
461.07
 11
525.701
 21
460.745
  0
LINE
  8
0
 10
525.701
 20
460.745
 11
525.25
 21
460.503
  0
LINE
  8
0
 10
525.25
 20
460.503
 11
524.76
 21
460.355
  0
LINE
  8
0
 10
524.76
 20
460.355
 11
524.25
 21
460.305
  0
LINE
  8
0
 10
524.25
 20
460.305
 11
523.74
 21
460.355
  0
LINE
  8
0
 10
466.432
 20
409.765
 11
466.432
 21
454.215
  0
LINE
  8
0
 10
466.432
 20
454.215
 11
625.182
 21
454.215
  0
LINE
  8
0
 10
625.182
 20
454.215
 11
625.182
 21
409.765
  0
LINE
  8
0
 10
625.182
 20
409.765
 11
466.432
 21
409.765
  0
LINE
  8
0
 10
457.686
 20
415.924
 11
457.385
 21
416.015
  0
LINE
  8
0
 10
457.385
 20
416.015
 11
457.107
 21
416.164
  0
LINE
  8
0
 10
457.107
 20
416.164
 11
456.863
 21
416.363
  0
LINE
  8
0
 10
456.863
 20
416.363
 11
456.664
 21
416.607
  0
LINE
  8
0
 10
456.664
 20
416.607
 11
456.515
 21
416.885
  0
LINE
  8
0
 10
456.515
 20
416.885
 11
456.424
 21
417.186
  0
LINE
  8
0
 10
456.424
 20
417.186
 11
456.393
 21
417.5
  0
LINE
  8
0
 10
456.393
 20
417.5
 11
456.424
 21
417.814
  0
LINE
  8
0
 10
456.424
 20
417.814
 11
456.515
 21
418.115
  0
LINE
  8
0
 10
456.515
 20
418.115
 11
456.664
 21
418.393
  0
LINE
  8
0
 10
456.664
 20
418.393
 11
456.863
 21
418.636
  0
LINE
  8
0
 10
456.863
 20
418.636
 11
457.107
 21
418.836
  0
LINE
  8
0
 10
457.107
 20
418.836
 11
457.385
 21
418.985
  0
LINE
  8
0
 10
457.385
 20
418.985
 11
457.686
 21
419.076
  0
LINE
  8
0
 10
457.686
 20
419.076
 11
458
 21
419.107
  0
LINE
  8
0
 10
458
 20
419.107
 11
458.314
 21
419.076
  0
LINE
  8
0
 10
458.314
 20
419.076
 11
458.615
 21
418.985
  0
LINE
  8
0
 10
458.615
 20
418.985
 11
458.893
 21
418.836
  0
LINE
  8
0
 10
458.893
 20
418.836
 11
459.137
 21
418.636
  0
LINE
  8
0
 10
459.137
 20
418.636
 11
459.336
 21
418.393
  0
LINE
  8
0
 10
459.336
 20
418.393
 11
459.485
 21
418.115
  0
LINE
  8
0
 10
459.485
 20
418.115
 11
459.576
 21
417.814
  0
LINE
  8
0
 10
459.576
 20
417.814
 11
459.607
 21
417.5
  0
LINE
  8
0
 10
459.607
 20
417.5
 11
459.576
 21
417.186
  0
LINE
  8
0
 10
459.576
 20
417.186
 11
459.485
 21
416.885
  0
LINE
  8
0
 10
459.485
 20
416.885
 11
459.336
 21
416.607
  0
LINE
  8
0
 10
459.336
 20
416.607
 11
459.137
 21
416.363
  0
LINE
  8
0
 10
459.137
 20
416.363
 11
458.893
 21
416.164
  0
LINE
  8
0
 10
458.893
 20
416.164
 11
458.615
 21
416.015
  0
LINE
  8
0
 10
458.615
 20
416.015
 11
458.314
 21
415.924
  0
LINE
  8
0
 10
458.314
 20
415.924
 11
458
 21
415.893
  0
LINE
  8
0
 10
458
 20
415.893
 11
457.686
 21
415.924
  0
LINE
  8
0
 10
431.936
 20
415.924
 11
431.635
 21
416.015
  0
LINE
  8
0
 10
431.635
 20
416.015
 11
431.357
 21
416.164
  0
LINE
  8
0
 10
431.357
 20
416.164
 11
431.113
 21
416.363
  0
LINE
  8
0
 10
431.113
 20
416.363
 11
430.914
 21
416.607
  0
LINE
  8
0
 10
430.914
 20
416.607
 11
430.765
 21
416.885
  0
LINE
  8
0
 10
430.765
 20
416.885
 11
430.674
 21
417.186
  0
LINE
  8
0
 10
430.674
 20
417.186
 11
430.643
 21
417.5
  0
LINE
  8
0
 10
430.643
 20
417.5
 11
430.674
 21
417.814
  0
LINE
  8
0
 10
430.674
 20
417.814
 11
430.765
 21
418.115
  0
LINE
  8
0
 10
430.765
 20
418.115
 11
430.914
 21
418.393
  0
LINE
  8
0
 10
430.914
 20
418.393
 11
431.113
 21
418.636
  0
LINE
  8
0
 10
431.113
 20
418.636
 11
431.357
 21
418.836
  0
LINE
  8
0
 10
431.357
 20
418.836
 11
431.635
 21
418.985
  0
LINE
  8
0
 10
431.635
 20
418.985
 11
431.936
 21
419.076
  0
LINE
  8
0
 10
431.936
 20
419.076
 11
432.25
 21
419.107
  0
LINE
  8
0
 10
432.25
 20
419.107
 11
432.564
 21
419.076
  0
LINE
  8
0
 10
432.564
 20
419.076
 11
432.865
 21
418.985
  0
LINE
  8
0
 10
432.865
 20
418.985
 11
433.143
 21
418.836
  0
LINE
  8
0
 10
433.143
 20
418.836
 11
433.387
 21
418.636
  0
LINE
  8
0
 10
433.387
 20
418.636
 11
433.586
 21
418.393
  0
LINE
  8
0
 10
433.586
 20
418.393
 11
433.735
 21
418.115
  0
LINE
  8
0
 10
433.735
 20
418.115
 11
433.826
 21
417.814
  0
LINE
  8
0
 10
433.826
 20
417.814
 11
433.857
 21
417.5
  0
LINE
  8
0
 10
433.857
 20
417.5
 11
433.826
 21
417.186
  0
LINE
  8
0
 10
433.826
 20
417.186
 11
433.735
 21
416.885
  0
LINE
  8
0
 10
433.735
 20
416.885
 11
433.586
 21
416.607
  0
LINE
  8
0
 10
433.586
 20
416.607
 11
433.387
 21
416.363
  0
LINE
  8
0
 10
433.387
 20
416.363
 11
433.143
 21
416.164
  0
LINE
  8
0
 10
433.143
 20
416.164
 11
432.865
 21
416.015
  0
LINE
  8
0
 10
432.865
 20
416.015
 11
432.564
 21
415.924
  0
LINE
  8
0
 10
432.564
 20
415.924
 11
432.25
 21
415.893
  0
LINE
  8
0
 10
432.25
 20
415.893
 11
431.936
 21
415.924
  0
LINE
  8
0
 10
406.186
 20
415.924
 11
405.885
 21
416.015
  0
LINE
  8
0
 10
405.885
 20
416.015
 11
405.607
 21
416.164
  0
LINE
  8
0
 10
405.607
 20
416.164
 11
405.363
 21
416.363
  0
LINE
  8
0
 10
405.363
 20
416.363
 11
405.164
 21
416.607
  0
LINE
  8
0
 10
405.164
 20
416.607
 11
405.015
 21
416.885
  0
LINE
  8
0
 10
405.015
 20
416.885
 11
404.924
 21
417.186
  0
LINE
  8
0
 10
404.924
 20
417.186
 11
404.893
 21
417.5
  0
LINE
  8
0
 10
404.893
 20
417.5
 11
404.924
 21
417.814
  0
LINE
  8
0
 10
404.924
 20
417.814
 11
405.015
 21
418.115
  0
LINE
  8
0
 10
405.015
 20
418.115
 11
405.164
 21
418.393
  0
LINE
  8
0
 10
405.164
 20
418.393
 11
405.363
 21
418.636
  0
LINE
  8
0
 10
405.363
 20
418.636
 11
405.607
 21
418.836
  0
LINE
  8
0
 10
405.607
 20
418.836
 11
405.885
 21
418.985
  0
LINE
  8
0
 10
405.885
 20
418.985
 11
406.186
 21
419.076
  0
LINE
  8
0
 10
406.186
 20
419.076
 11
406.5
 21
419.107
  0
LINE
  8
0
 10
406.5
 20
419.107
 11
406.814
 21
419.076
  0
LINE
  8
0
 10
406.814
 20
419.076
 11
407.115
 21
418.985
  0
LINE
  8
0
 10
407.115
 20
418.985
 11
407.393
 21
418.836
  0
LINE
  8
0
 10
407.393
 20
418.836
 11
407.637
 21
418.636
  0
LINE
  8
0
 10
407.637
 20
418.636
 11
407.836
 21
418.393
  0
LINE
  8
0
 10
407.836
 20
418.393
 11
407.985
 21
418.115
  0
LINE
  8
0
 10
407.985
 20
418.115
 11
408.076
 21
417.814
  0
LINE
  8
0
 10
408.076
 20
417.814
 11
408.107
 21
417.5
  0
LINE
  8
0
 10
408.107
 20
417.5
 11
408.076
 21
417.186
  0
LINE
  8
0
 10
408.076
 20
417.186
 11
407.985
 21
416.885
  0
LINE
  8
0
 10
407.985
 20
416.885
 11
407.836
 21
416.607
  0
LINE
  8
0
 10
407.836
 20
416.607
 11
407.637
 21
416.363
  0
LINE
  8
0
 10
407.637
 20
416.363
 11
407.393
 21
416.164
  0
LINE
  8
0
 10
407.393
 20
416.164
 11
407.115
 21
416.015
  0
LINE
  8
0
 10
407.115
 20
416.015
 11
406.814
 21
415.924
  0
LINE
  8
0
 10
406.814
 20
415.924
 11
406.5
 21
415.893
  0
LINE
  8
0
 10
406.5
 20
415.893
 11
406.186
 21
415.924
  0
LINE
  8
0
 10
709.186
 20
402.924
 11
708.885
 21
403.015
  0
LINE
  8
0
 10
708.885
 20
403.015
 11
708.607
 21
403.164
  0
LINE
  8
0
 10
708.607
 20
403.164
 11
708.363
 21
403.363
  0
LINE
  8
0
 10
708.363
 20
403.363
 11
708.164
 21
403.607
  0
LINE
  8
0
 10
708.164
 20
403.607
 11
708.015
 21
403.885
  0
LINE
  8
0
 10
708.015
 20
403.885
 11
707.924
 21
404.186
  0
LINE
  8
0
 10
707.924
 20
404.186
 11
707.893
 21
404.5
  0
LINE
  8
0
 10
707.893
 20
404.5
 11
707.924
 21
404.814
  0
LINE
  8
0
 10
707.924
 20
404.814
 11
708.015
 21
405.115
  0
LINE
  8
0
 10
708.015
 20
405.115
 11
708.164
 21
405.393
  0
LINE
  8
0
 10
708.164
 20
405.393
 11
708.363
 21
405.636
  0
LINE
  8
0
 10
708.363
 20
405.636
 11
708.607
 21
405.836
  0
LINE
  8
0
 10
708.607
 20
405.836
 11
708.885
 21
405.985
  0
LINE
  8
0
 10
708.885
 20
405.985
 11
709.186
 21
406.076
  0
LINE
  8
0
 10
709.186
 20
406.076
 11
709.5
 21
406.107
  0
LINE
  8
0
 10
709.5
 20
406.107
 11
709.814
 21
406.076
  0
LINE
  8
0
 10
709.814
 20
406.076
 11
710.115
 21
405.985
  0
LINE
  8
0
 10
710.115
 20
405.985
 11
710.393
 21
405.836
  0
LINE
  8
0
 10
710.393
 20
405.836
 11
710.637
 21
405.636
  0
LINE
  8
0
 10
710.637
 20
405.636
 11
710.836
 21
405.393
  0
LINE
  8
0
 10
710.836
 20
405.393
 11
710.985
 21
405.115
  0
LINE
  8
0
 10
710.985
 20
405.115
 11
711.076
 21
404.814
  0
LINE
  8
0
 10
711.076
 20
404.814
 11
711.107
 21
404.5
  0
LINE
  8
0
 10
711.107
 20
404.5
 11
711.076
 21
404.186
  0
LINE
  8
0
 10
711.076
 20
404.186
 11
710.985
 21
403.885
  0
LINE
  8
0
 10
710.985
 20
403.885
 11
710.836
 21
403.607
  0
LINE
  8
0
 10
710.836
 20
403.607
 11
710.637
 21
403.363
  0
LINE
  8
0
 10
710.637
 20
403.363
 11
710.393
 21
403.164
  0
LINE
  8
0
 10
710.393
 20
403.164
 11
710.115
 21
403.015
  0
LINE
  8
0
 10
710.115
 20
403.015
 11
709.814
 21
402.924
  0
LINE
  8
0
 10
709.814
 20
402.924
 11
709.5
 21
402.893
  0
LINE
  8
0
 10
709.5
 20
402.893
 11
709.186
 21
402.924
  0
LINE
  8
0
 10
688.787
 20
402.924
 11
688.486
 21
403.015
  0
LINE
  8
0
 10
688.486
 20
403.015
 11
688.208
 21
403.164
  0
LINE
  8
0
 10
688.208
 20
403.164
 11
687.964
 21
403.363
  0
LINE
  8
0
 10
687.964
 20
403.363
 11
687.764
 21
403.607
  0
LINE
  8
0
 10
687.764
 20
403.607
 11
687.616
 21
403.885
  0
LINE
  8
0
 10
687.616
 20
403.885
 11
687.524
 21
404.186
  0
LINE
  8
0
 10
687.524
 20
404.186
 11
687.493
 21
404.5
  0
LINE
  8
0
 10
687.493
 20
404.5
 11
687.524
 21
404.814
  0
LINE
  8
0
 10
687.524
 20
404.814
 11
687.616
 21
405.115
  0
LINE
  8
0
 10
687.616
 20
405.115
 11
687.764
 21
405.393
  0
LINE
  8
0
 10
687.764
 20
405.393
 11
687.964
 21
405.636
  0
LINE
  8
0
 10
687.964
 20
405.636
 11
688.208
 21
405.836
  0
LINE
  8
0
 10
688.208
 20
405.836
 11
688.486
 21
405.985
  0
LINE
  8
0
 10
688.486
 20
405.985
 11
688.787
 21
406.076
  0
LINE
  8
0
 10
688.787
 20
406.076
 11
689.101
 21
406.107
  0
LINE
  8
0
 10
689.101
 20
406.107
 11
689.414
 21
406.076
  0
LINE
  8
0
 10
689.414
 20
406.076
 11
689.716
 21
405.985
  0
LINE
  8
0
 10
689.716
 20
405.985
 11
689.994
 21
405.836
  0
LINE
  8
0
 10
689.994
 20
405.836
 11
690.237
 21
405.636
  0
LINE
  8
0
 10
690.237
 20
405.636
 11
690.437
 21
405.393
  0
LINE
  8
0
 10
690.437
 20
405.393
 11
690.586
 21
405.115
  0
LINE
  8
0
 10
690.586
 20
405.115
 11
690.677
 21
404.814
  0
LINE
  8
0
 10
690.677
 20
404.814
 11
690.708
 21
404.5
  0
LINE
  8
0
 10
690.708
 20
404.5
 11
690.677
 21
404.186
  0
LINE
  8
0
 10
690.677
 20
404.186
 11
690.586
 21
403.885
  0
LINE
  8
0
 10
690.586
 20
403.885
 11
690.437
 21
403.607
  0
LINE
  8
0
 10
690.437
 20
403.607
 11
690.237
 21
403.363
  0
LINE
  8
0
 10
690.237
 20
403.363
 11
689.994
 21
403.164
  0
LINE
  8
0
 10
689.994
 20
403.164
 11
689.716
 21
403.015
  0
LINE
  8
0
 10
689.716
 20
403.015
 11
689.414
 21
402.924
  0
LINE
  8
0
 10
689.414
 20
402.924
 11
689.101
 21
402.893
  0
LINE
  8
0
 10
689.101
 20
402.893
 11
688.787
 21
402.924
  0
LINE
  8
0
 10
668.467
 20
402.924
 11
668.166
 21
403.015
  0
LINE
  8
0
 10
668.166
 20
403.015
 11
667.888
 21
403.164
  0
LINE
  8
0
 10
667.888
 20
403.164
 11
667.644
 21
403.363
  0
LINE
  8
0
 10
667.644
 20
403.363
 11
667.444
 21
403.607
  0
LINE
  8
0
 10
667.444
 20
403.607
 11
667.296
 21
403.885
  0
LINE
  8
0
 10
667.296
 20
403.885
 11
667.204
 21
404.186
  0
LINE
  8
0
 10
667.204
 20
404.186
 11
667.173
 21
404.5
  0
LINE
  8
0
 10
667.173
 20
404.5
 11
667.204
 21
404.814
  0
LINE
  8
0
 10
667.204
 20
404.814
 11
667.296
 21
405.115
  0
LINE
  8
0
 10
667.296
 20
405.115
 11
667.444
 21
405.393
  0
LINE
  8
0
 10
667.444
 20
405.393
 11
667.644
 21
405.636
  0
LINE
  8
0
 10
667.644
 20
405.636
 11
667.888
 21
405.836
  0
LINE
  8
0
 10
667.888
 20
405.836
 11
668.166
 21
405.985
  0
LINE
  8
0
 10
668.166
 20
405.985
 11
668.467
 21
406.076
  0
LINE
  8
0
 10
668.467
 20
406.076
 11
668.781
 21
406.107
  0
LINE
  8
0
 10
668.781
 20
406.107
 11
669.094
 21
406.076
  0
LINE
  8
0
 10
669.094
 20
406.076
 11
669.396
 21
405.985
  0
LINE
  8
0
 10
669.396
 20
405.985
 11
669.674
 21
405.836
  0
LINE
  8
0
 10
669.674
 20
405.836
 11
669.917
 21
405.636
  0
LINE
  8
0
 10
669.917
 20
405.636
 11
670.117
 21
405.393
  0
LINE
  8
0
 10
670.117
 20
405.393
 11
670.266
 21
405.115
  0
LINE
  8
0
 10
670.266
 20
405.115
 11
670.357
 21
404.814
  0
LINE
  8
0
 10
670.357
 20
404.814
 11
670.388
 21
404.5
  0
LINE
  8
0
 10
670.388
 20
404.5
 11
670.357
 21
404.186
  0
LINE
  8
0
 10
670.357
 20
404.186
 11
670.266
 21
403.885
  0
LINE
  8
0
 10
670.266
 20
403.885
 11
670.117
 21
403.607
  0
LINE
  8
0
 10
670.117
 20
403.607
 11
669.917
 21
403.363
  0
LINE
  8
0
 10
669.917
 20
403.363
 11
669.674
 21
403.164
  0
LINE
  8
0
 10
669.674
 20
403.164
 11
669.396
 21
403.015
  0
LINE
  8
0
 10
669.396
 20
403.015
 11
669.094
 21
402.924
  0
LINE
  8
0
 10
669.094
 20
402.924
 11
668.781
 21
402.893
  0
LINE
  8
0
 10
668.781
 20
402.893
 11
668.467
 21
402.924
  0
LINE
  8
0
 10
648.147
 20
402.924
 11
647.846
 21
403.015
  0
LINE
  8
0
 10
647.846
 20
403.015
 11
647.568
 21
403.164
  0
LINE
  8
0
 10
647.568
 20
403.164
 11
647.324
 21
403.363
  0
LINE
  8
0
 10
647.324
 20
403.363
 11
647.124
 21
403.607
  0
LINE
  8
0
 10
647.124
 20
403.607
 11
646.976
 21
403.885
  0
LINE
  8
0
 10
646.976
 20
403.885
 11
646.884
 21
404.186
  0
LINE
  8
0
 10
646.884
 20
404.186
 11
646.853
 21
404.5
  0
LINE
  8
0
 10
646.853
 20
404.5
 11
646.884
 21
404.814
  0
LINE
  8
0
 10
646.884
 20
404.814
 11
646.976
 21
405.115
  0
LINE
  8
0
 10
646.976
 20
405.115
 11
647.124
 21
405.393
  0
LINE
  8
0
 10
647.124
 20
405.393
 11
647.324
 21
405.636
  0
LINE
  8
0
 10
647.324
 20
405.636
 11
647.568
 21
405.836
  0
LINE
  8
0
 10
647.568
 20
405.836
 11
647.846
 21
405.985
  0
LINE
  8
0
 10
647.846
 20
405.985
 11
648.147
 21
406.076
  0
LINE
  8
0
 10
648.147
 20
406.076
 11
648.461
 21
406.107
  0
LINE
  8
0
 10
648.461
 20
406.107
 11
648.774
 21
406.076
  0
LINE
  8
0
 10
648.774
 20
406.076
 11
649.076
 21
405.985
  0
LINE
  8
0
 10
649.076
 20
405.985
 11
649.354
 21
405.836
  0
LINE
  8
0
 10
649.354
 20
405.836
 11
649.597
 21
405.636
  0
LINE
  8
0
 10
649.597
 20
405.636
 11
649.797
 21
405.393
  0
LINE
  8
0
 10
649.797
 20
405.393
 11
649.946
 21
405.115
  0
LINE
  8
0
 10
649.946
 20
405.115
 11
650.037
 21
404.814
  0
LINE
  8
0
 10
650.037
 20
404.814
 11
650.068
 21
404.5
  0
LINE
  8
0
 10
650.068
 20
404.5
 11
650.037
 21
404.186
  0
LINE
  8
0
 10
650.037
 20
404.186
 11
649.946
 21
403.885
  0
LINE
  8
0
 10
649.946
 20
403.885
 11
649.797
 21
403.607
  0
LINE
  8
0
 10
649.797
 20
403.607
 11
649.597
 21
403.363
  0
LINE
  8
0
 10
649.597
 20
403.363
 11
649.354
 21
403.164
  0
LINE
  8
0
 10
649.354
 20
403.164
 11
649.076
 21
403.015
  0
LINE
  8
0
 10
649.076
 20
403.015
 11
648.774
 21
402.924
  0
LINE
  8
0
 10
648.774
 20
402.924
 11
648.461
 21
402.893
  0
LINE
  8
0
 10
648.461
 20
402.893
 11
648.147
 21
402.924
  0
LINE
  8
0
 10
410.186
 20
402.924
 11
409.885
 21
403.015
  0
LINE
  8
0
 10
409.885
 20
403.015
 11
409.607
 21
403.164
  0
LINE
  8
0
 10
409.607
 20
403.164
 11
409.363
 21
403.363
  0
LINE
  8
0
 10
409.363
 20
403.363
 11
409.164
 21
403.607
  0
LINE
  8
0
 10
409.164
 20
403.607
 11
409.015
 21
403.885
  0
LINE
  8
0
 10
409.015
 20
403.885
 11
408.924
 21
404.186
  0
LINE
  8
0
 10
408.924
 20
404.186
 11
408.893
 21
404.5
  0
LINE
  8
0
 10
408.893
 20
404.5
 11
408.924
 21
404.814
  0
LINE
  8
0
 10
408.924
 20
404.814
 11
409.015
 21
405.115
  0
LINE
  8
0
 10
409.015
 20
405.115
 11
409.164
 21
405.393
  0
LINE
  8
0
 10
409.164
 20
405.393
 11
409.363
 21
405.636
  0
LINE
  8
0
 10
409.363
 20
405.636
 11
409.607
 21
405.836
  0
LINE
  8
0
 10
409.607
 20
405.836
 11
409.885
 21
405.985
  0
LINE
  8
0
 10
409.885
 20
405.985
 11
410.186
 21
406.076
  0
LINE
  8
0
 10
410.186
 20
406.076
 11
410.5
 21
406.107
  0
LINE
  8
0
 10
410.5
 20
406.107
 11
410.814
 21
406.076
  0
LINE
  8
0
 10
410.814
 20
406.076
 11
411.115
 21
405.985
  0
LINE
  8
0
 10
411.115
 20
405.985
 11
411.393
 21
405.836
  0
LINE
  8
0
 10
411.393
 20
405.836
 11
411.637
 21
405.636
  0
LINE
  8
0
 10
411.637
 20
405.636
 11
411.836
 21
405.393
  0
LINE
  8
0
 10
411.836
 20
405.393
 11
411.985
 21
405.115
  0
LINE
  8
0
 10
411.985
 20
405.115
 11
412.076
 21
404.814
  0
LINE
  8
0
 10
412.076
 20
404.814
 11
412.107
 21
404.5
  0
LINE
  8
0
 10
412.107
 20
404.5
 11
412.076
 21
404.186
  0
LINE
  8
0
 10
412.076
 20
404.186
 11
411.985
 21
403.885
  0
LINE
  8
0
 10
411.985
 20
403.885
 11
411.836
 21
403.607
  0
LINE
  8
0
 10
411.836
 20
403.607
 11
411.637
 21
403.363
  0
LINE
  8
0
 10
411.637
 20
403.363
 11
411.393
 21
403.164
  0
LINE
  8
0
 10
411.393
 20
403.164
 11
411.115
 21
403.015
  0
LINE
  8
0
 10
411.115
 20
403.015
 11
410.814
 21
402.924
  0
LINE
  8
0
 10
410.814
 20
402.924
 11
410.5
 21
402.893
  0
LINE
  8
0
 10
410.5
 20
402.893
 11
410.186
 21
402.924
  0
LINE
  8
0
 10
1074
 20
409
 11
1080
 21
409
  0
LINE
  8
0
 10
1080
 20
409
 11
1080
 21
539
  0
LINE
  8
0
 10
1080
 20
539
 11
1074
 21
539
  0
LINE
  8
0
 10
1074
 20
539
 11
1074
 21
548
  0
LINE
  8
0
 10
1074
 20
548
 11
766
 21
548
  0
LINE
  8
0
 10
766
 20
548
 11
766
 21
539
  0
LINE
  8
0
 10
766
 20
539
 11
760
 21
539
  0
LINE
  8
0
 10
760
 20
539
 11
760
 21
409
  0
LINE
  8
0
 10
760
 20
409
 11
766
 21
409
  0
LINE
  8
0
 10
766
 20
409
 11
766
 21
400
  0
LINE
  8
0
 10
766
 20
400
 11
1074
 21
400
  0
LINE
  8
0
 10
1074
 20
400
 11
1074
 21
409
  0
LINE
  8
0
 10
770.186
 20
541.924
 11
769.885
 21
542.015
  0
LINE
  8
0
 10
769.885
 20
542.015
 11
769.607
 21
542.164
  0
LINE
  8
0
 10
769.607
 20
542.164
 11
769.363
 21
542.363
  0
LINE
  8
0
 10
769.363
 20
542.363
 11
769.164
 21
542.607
  0
LINE
  8
0
 10
769.164
 20
542.607
 11
769.015
 21
542.885
  0
LINE
  8
0
 10
769.015
 20
542.885
 11
768.924
 21
543.186
  0
LINE
  8
0
 10
768.924
 20
543.186
 11
768.893
 21
543.5
  0
LINE
  8
0
 10
768.893
 20
543.5
 11
768.924
 21
543.814
  0
LINE
  8
0
 10
768.924
 20
543.814
 11
769.015
 21
544.115
  0
LINE
  8
0
 10
769.015
 20
544.115
 11
769.164
 21
544.393
  0
LINE
  8
0
 10
769.164
 20
544.393
 11
769.363
 21
544.637
  0
LINE
  8
0
 10
769.363
 20
544.637
 11
769.607
 21
544.836
  0
LINE
  8
0
 10
769.607
 20
544.836
 11
769.885
 21
544.985
  0
LINE
  8
0
 10
769.885
 20
544.985
 11
770.186
 21
545.076
  0
LINE
  8
0
 10
770.186
 20
545.076
 11
770.5
 21
545.107
  0
LINE
  8
0
 10
770.5
 20
545.107
 11
770.814
 21
545.076
  0
LINE
  8
0
 10
770.814
 20
545.076
 11
771.115
 21
544.985
  0
LINE
  8
0
 10
771.115
 20
544.985
 11
771.393
 21
544.836
  0
LINE
  8
0
 10
771.393
 20
544.836
 11
771.637
 21
544.637
  0
LINE
  8
0
 10
771.637
 20
544.637
 11
771.836
 21
544.393
  0
LINE
  8
0
 10
771.836
 20
544.393
 11
771.985
 21
544.115
  0
LINE
  8
0
 10
771.985
 20
544.115
 11
772.076
 21
543.814
  0
LINE
  8
0
 10
772.076
 20
543.814
 11
772.107
 21
543.5
  0
LINE
  8
0
 10
772.107
 20
543.5
 11
772.076
 21
543.186
  0
LINE
  8
0
 10
772.076
 20
543.186
 11
771.985
 21
542.885
  0
LINE
  8
0
 10
771.985
 20
542.885
 11
771.836
 21
542.607
  0
LINE
  8
0
 10
771.836
 20
542.607
 11
771.637
 21
542.363
  0
LINE
  8
0
 10
771.637
 20
542.363
 11
771.393
 21
542.164
  0
LINE
  8
0
 10
771.393
 20
542.164
 11
771.115
 21
542.015
  0
LINE
  8
0
 10
771.115
 20
542.015
 11
770.814
 21
541.924
  0
LINE
  8
0
 10
770.814
 20
541.924
 11
770.5
 21
541.893
  0
LINE
  8
0
 10
770.5
 20
541.893
 11
770.186
 21
541.924
  0
LINE
  8
0
 10
1069.19
 20
541.924
 11
1068.88
 21
542.015
  0
LINE
  8
0
 10
1068.88
 20
542.015
 11
1068.61
 21
542.164
  0
LINE
  8
0
 10
1068.61
 20
542.164
 11
1068.36
 21
542.363
  0
LINE
  8
0
 10
1068.36
 20
542.363
 11
1068.16
 21
542.607
  0
LINE
  8
0
 10
1068.16
 20
542.607
 11
1068.02
 21
542.885
  0
LINE
  8
0
 10
1068.02
 20
542.885
 11
1067.92
 21
543.186
  0
LINE
  8
0
 10
1067.92
 20
543.186
 11
1067.89
 21
543.5
  0
LINE
  8
0
 10
1067.89
 20
543.5
 11
1067.92
 21
543.814
  0
LINE
  8
0
 10
1067.92
 20
543.814
 11
1068.02
 21
544.115
  0
LINE
  8
0
 10
1068.02
 20
544.115
 11
1068.16
 21
544.393
  0
LINE
  8
0
 10
1068.16
 20
544.393
 11
1068.36
 21
544.637
  0
LINE
  8
0
 10
1068.36
 20
544.637
 11
1068.61
 21
544.836
  0
LINE
  8
0
 10
1068.61
 20
544.836
 11
1068.88
 21
544.985
  0
LINE
  8
0
 10
1068.88
 20
544.985
 11
1069.19
 21
545.076
  0
LINE
  8
0
 10
1069.19
 20
545.076
 11
1069.5
 21
545.107
  0
LINE
  8
0
 10
1069.5
 20
545.107
 11
1069.81
 21
545.076
  0
LINE
  8
0
 10
1069.81
 20
545.076
 11
1070.12
 21
544.985
  0
LINE
  8
0
 10
1070.12
 20
544.985
 11
1070.39
 21
544.836
  0
LINE
  8
0
 10
1070.39
 20
544.836
 11
1070.64
 21
544.637
  0
LINE
  8
0
 10
1070.64
 20
544.637
 11
1070.84
 21
544.393
  0
LINE
  8
0
 10
1070.84
 20
544.393
 11
1070.98
 21
544.115
  0
LINE
  8
0
 10
1070.98
 20
544.115
 11
1071.08
 21
543.814
  0
LINE
  8
0
 10
1071.08
 20
543.814
 11
1071.11
 21
543.5
  0
LINE
  8
0
 10
1071.11
 20
543.5
 11
1071.08
 21
543.186
  0
LINE
  8
0
 10
1071.08
 20
543.186
 11
1070.98
 21
542.885
  0
LINE
  8
0
 10
1070.98
 20
542.885
 11
1070.84
 21
542.607
  0
LINE
  8
0
 10
1070.84
 20
542.607
 11
1070.64
 21
542.363
  0
LINE
  8
0
 10
1070.64
 20
542.363
 11
1070.39
 21
542.164
  0
LINE
  8
0
 10
1070.39
 20
542.164
 11
1070.12
 21
542.015
  0
LINE
  8
0
 10
1070.12
 20
542.015
 11
1069.81
 21
541.924
  0
LINE
  8
0
 10
1069.81
 20
541.924
 11
1069.5
 21
541.893
  0
LINE
  8
0
 10
1069.5
 20
541.893
 11
1069.19
 21
541.924
  0
LINE
  8
0
 10
808.686
 20
533.424
 11
808.385
 21
533.515
  0
LINE
  8
0
 10
808.385
 20
533.515
 11
808.107
 21
533.664
  0
LINE
  8
0
 10
808.107
 20
533.664
 11
807.863
 21
533.863
  0
LINE
  8
0
 10
807.863
 20
533.863
 11
807.664
 21
534.107
  0
LINE
  8
0
 10
807.664
 20
534.107
 11
807.515
 21
534.385
  0
LINE
  8
0
 10
807.515
 20
534.385
 11
807.424
 21
534.686
  0
LINE
  8
0
 10
807.424
 20
534.686
 11
807.393
 21
535
  0
LINE
  8
0
 10
807.393
 20
535
 11
807.424
 21
535.314
  0
LINE
  8
0
 10
807.424
 20
535.314
 11
807.515
 21
535.615
  0
LINE
  8
0
 10
807.515
 20
535.615
 11
807.664
 21
535.893
  0
LINE
  8
0
 10
807.664
 20
535.893
 11
807.863
 21
536.137
  0
LINE
  8
0
 10
807.863
 20
536.137
 11
808.107
 21
536.336
  0
LINE
  8
0
 10
808.107
 20
536.336
 11
808.385
 21
536.485
  0
LINE
  8
0
 10
808.385
 20
536.485
 11
808.686
 21
536.576
  0
LINE
  8
0
 10
808.686
 20
536.576
 11
809
 21
536.607
  0
LINE
  8
0
 10
809
 20
536.607
 11
809.314
 21
536.576
  0
LINE
  8
0
 10
809.314
 20
536.576
 11
809.615
 21
536.485
  0
LINE
  8
0
 10
809.615
 20
536.485
 11
809.893
 21
536.336
  0
LINE
  8
0
 10
809.893
 20
536.336
 11
810.137
 21
536.137
  0
LINE
  8
0
 10
810.137
 20
536.137
 11
810.336
 21
535.893
  0
LINE
  8
0
 10
810.336
 20
535.893
 11
810.485
 21
535.615
  0
LINE
  8
0
 10
810.485
 20
535.615
 11
810.576
 21
535.314
  0
LINE
  8
0
 10
810.576
 20
535.314
 11
810.607
 21
535
  0
LINE
  8
0
 10
810.607
 20
535
 11
810.576
 21
534.686
  0
LINE
  8
0
 10
810.576
 20
534.686
 11
810.485
 21
534.385
  0
LINE
  8
0
 10
810.485
 20
534.385
 11
810.336
 21
534.107
  0
LINE
  8
0
 10
810.336
 20
534.107
 11
810.137
 21
533.863
  0
LINE
  8
0
 10
810.137
 20
533.863
 11
809.893
 21
533.664
  0
LINE
  8
0
 10
809.893
 20
533.664
 11
809.615
 21
533.515
  0
LINE
  8
0
 10
809.615
 20
533.515
 11
809.314
 21
533.424
  0
LINE
  8
0
 10
809.314
 20
533.424
 11
809
 21
533.393
  0
LINE
  8
0
 10
809
 20
533.393
 11
808.686
 21
533.424
  0
LINE
  8
0
 10
838.686
 20
533.424
 11
838.385
 21
533.515
  0
LINE
  8
0
 10
838.385
 20
533.515
 11
838.107
 21
533.664
  0
LINE
  8
0
 10
838.107
 20
533.664
 11
837.863
 21
533.863
  0
LINE
  8
0
 10
837.863
 20
533.863
 11
837.664
 21
534.107
  0
LINE
  8
0
 10
837.664
 20
534.107
 11
837.515
 21
534.385
  0
LINE
  8
0
 10
837.515
 20
534.385
 11
837.424
 21
534.686
  0
LINE
  8
0
 10
837.424
 20
534.686
 11
837.393
 21
535
  0
LINE
  8
0
 10
837.393
 20
535
 11
837.424
 21
535.314
  0
LINE
  8
0
 10
837.424
 20
535.314
 11
837.515
 21
535.615
  0
LINE
  8
0
 10
837.515
 20
535.615
 11
837.664
 21
535.893
  0
LINE
  8
0
 10
837.664
 20
535.893
 11
837.863
 21
536.137
  0
LINE
  8
0
 10
837.863
 20
536.137
 11
838.107
 21
536.336
  0
LINE
  8
0
 10
838.107
 20
536.336
 11
838.385
 21
536.485
  0
LINE
  8
0
 10
838.385
 20
536.485
 11
838.686
 21
536.576
  0
LINE
  8
0
 10
838.686
 20
536.576
 11
839
 21
536.607
  0
LINE
  8
0
 10
839
 20
536.607
 11
839.314
 21
536.576
  0
LINE
  8
0
 10
839.314
 20
536.576
 11
839.615
 21
536.485
  0
LINE
  8
0
 10
839.615
 20
536.485
 11
839.893
 21
536.336
  0
LINE
  8
0
 10
839.893
 20
536.336
 11
840.137
 21
536.137
  0
LINE
  8
0
 10
840.137
 20
536.137
 11
840.336
 21
535.893
  0
LINE
  8
0
 10
840.336
 20
535.893
 11
840.485
 21
535.615
  0
LINE
  8
0
 10
840.485
 20
535.615
 11
840.576
 21
535.314
  0
LINE
  8
0
 10
840.576
 20
535.314
 11
840.607
 21
535
  0
LINE
  8
0
 10
840.607
 20
535
 11
840.576
 21
534.686
  0
LINE
  8
0
 10
840.576
 20
534.686
 11
840.485
 21
534.385
  0
LINE
  8
0
 10
840.485
 20
534.385
 11
840.336
 21
534.107
  0
LINE
  8
0
 10
840.336
 20
534.107
 11
840.137
 21
533.863
  0
LINE
  8
0
 10
840.137
 20
533.863
 11
839.893
 21
533.664
  0
LINE
  8
0
 10
839.893
 20
533.664
 11
839.615
 21
533.515
  0
LINE
  8
0
 10
839.615
 20
533.515
 11
839.314
 21
533.424
  0
LINE
  8
0
 10
839.314
 20
533.424
 11
839
 21
533.393
  0
LINE
  8
0
 10
839
 20
533.393
 11
838.686
 21
533.424
  0
LINE
  8
0
 10
794.1
 20
419
 11
794.1
 21
529
  0
LINE
  8
0
 10
794.1
 20
529
 11
854.1
 21
529
  0
LINE
  8
0
 10
854.1
 20
529
 11
854.1
 21
419
  0
LINE
  8
0
 10
854.1
 20
419
 11
794.1
 21
419
  0
LINE
  8
0
 10
884.686
 20
516.424
 11
884.385
 21
516.515
  0
LINE
  8
0
 10
884.385
 20
516.515
 11
884.107
 21
516.664
  0
LINE
  8
0
 10
884.107
 20
516.664
 11
883.864
 21
516.863
  0
LINE
  8
0
 10
883.864
 20
516.863
 11
883.664
 21
517.107
  0
LINE
  8
0
 10
883.664
 20
517.107
 11
883.515
 21
517.385
  0
LINE
  8
0
 10
883.515
 20
517.385
 11
883.424
 21
517.686
  0
LINE
  8
0
 10
883.424
 20
517.686
 11
883.393
 21
518
  0
LINE
  8
0
 10
883.393
 20
518
 11
883.424
 21
518.314
  0
LINE
  8
0
 10
883.424
 20
518.314
 11
883.515
 21
518.615
  0
LINE
  8
0
 10
883.515
 20
518.615
 11
883.664
 21
518.893
  0
LINE
  8
0
 10
883.664
 20
518.893
 11
883.864
 21
519.137
  0
LINE
  8
0
 10
883.864
 20
519.137
 11
884.107
 21
519.336
  0
LINE
  8
0
 10
884.107
 20
519.336
 11
884.385
 21
519.485
  0
LINE
  8
0
 10
884.385
 20
519.485
 11
884.686
 21
519.576
  0
LINE
  8
0
 10
884.686
 20
519.576
 11
885
 21
519.607
  0
LINE
  8
0
 10
885
 20
519.607
 11
885.314
 21
519.576
  0
LINE
  8
0
 10
885.314
 20
519.576
 11
885.615
 21
519.485
  0
LINE
  8
0
 10
885.615
 20
519.485
 11
885.893
 21
519.336
  0
LINE
  8
0
 10
885.893
 20
519.336
 11
886.137
 21
519.137
  0
LINE
  8
0
 10
886.137
 20
519.137
 11
886.336
 21
518.893
  0
LINE
  8
0
 10
886.336
 20
518.893
 11
886.485
 21
518.615
  0
LINE
  8
0
 10
886.485
 20
518.615
 11
886.576
 21
518.314
  0
LINE
  8
0
 10
886.576
 20
518.314
 11
886.607
 21
518
  0
LINE
  8
0
 10
886.607
 20
518
 11
886.576
 21
517.686
  0
LINE
  8
0
 10
886.576
 20
517.686
 11
886.485
 21
517.385
  0
LINE
  8
0
 10
886.485
 20
517.385
 11
886.336
 21
517.107
  0
LINE
  8
0
 10
886.336
 20
517.107
 11
886.137
 21
516.863
  0
LINE
  8
0
 10
886.137
 20
516.863
 11
885.893
 21
516.664
  0
LINE
  8
0
 10
885.893
 20
516.664
 11
885.615
 21
516.515
  0
LINE
  8
0
 10
885.615
 20
516.515
 11
885.314
 21
516.424
  0
LINE
  8
0
 10
885.314
 20
516.424
 11
885
 21
516.393
  0
LINE
  8
0
 10
885
 20
516.393
 11
884.686
 21
516.424
  0
LINE
  8
0
 10
954.686
 20
516.424
 11
954.385
 21
516.515
  0
LINE
  8
0
 10
954.385
 20
516.515
 11
954.107
 21
516.664
  0
LINE
  8
0
 10
954.107
 20
516.664
 11
953.863
 21
516.863
  0
LINE
  8
0
 10
953.863
 20
516.863
 11
953.664
 21
517.107
  0
LINE
  8
0
 10
953.664
 20
517.107
 11
953.515
 21
517.385
  0
LINE
  8
0
 10
953.515
 20
517.385
 11
953.424
 21
517.686
  0
LINE
  8
0
 10
953.424
 20
517.686
 11
953.393
 21
518
  0
LINE
  8
0
 10
953.393
 20
518
 11
953.424
 21
518.314
  0
LINE
  8
0
 10
953.424
 20
518.314
 11
953.515
 21
518.615
  0
LINE
  8
0
 10
953.515
 20
518.615
 11
953.664
 21
518.893
  0
LINE
  8
0
 10
953.664
 20
518.893
 11
953.863
 21
519.137
  0
LINE
  8
0
 10
953.863
 20
519.137
 11
954.107
 21
519.336
  0
LINE
  8
0
 10
954.107
 20
519.336
 11
954.385
 21
519.485
  0
LINE
  8
0
 10
954.385
 20
519.485
 11
954.686
 21
519.576
  0
LINE
  8
0
 10
954.686
 20
519.576
 11
955
 21
519.607
  0
LINE
  8
0
 10
955
 20
519.607
 11
955.314
 21
519.576
  0
LINE
  8
0
 10
955.314
 20
519.576
 11
955.615
 21
519.485
  0
LINE
  8
0
 10
955.615
 20
519.485
 11
955.893
 21
519.336
  0
LINE
  8
0
 10
955.893
 20
519.336
 11
956.136
 21
519.137
  0
LINE
  8
0
 10
956.136
 20
519.137
 11
956.336
 21
518.893
  0
LINE
  8
0
 10
956.336
 20
518.893
 11
956.485
 21
518.615
  0
LINE
  8
0
 10
956.485
 20
518.615
 11
956.576
 21
518.314
  0
LINE
  8
0
 10
956.576
 20
518.314
 11
956.607
 21
518
  0
LINE
  8
0
 10
956.607
 20
518
 11
956.576
 21
517.686
  0
LINE
  8
0
 10
956.576
 20
517.686
 11
956.485
 21
517.385
  0
LINE
  8
0
 10
956.485
 20
517.385
 11
956.336
 21
517.107
  0
LINE
  8
0
 10
956.336
 20
517.107
 11
956.136
 21
516.863
  0
LINE
  8
0
 10
956.136
 20
516.863
 11
955.893
 21
516.664
  0
LINE
  8
0
 10
955.893
 20
516.664
 11
955.615
 21
516.515
  0
LINE
  8
0
 10
955.615
 20
516.515
 11
955.314
 21
516.424
  0
LINE
  8
0
 10
955.314
 20
516.424
 11
955
 21
516.393
  0
LINE
  8
0
 10
955
 20
516.393
 11
954.686
 21
516.424
  0
LINE
  8
0
 10
954.686
 20
428.424
 11
954.385
 21
428.515
  0
LINE
  8
0
 10
954.385
 20
428.515
 11
954.107
 21
428.664
  0
LINE
  8
0
 10
954.107
 20
428.664
 11
953.863
 21
428.863
  0
LINE
  8
0
 10
953.863
 20
428.863
 11
953.664
 21
429.107
  0
LINE
  8
0
 10
953.664
 20
429.107
 11
953.515
 21
429.385
  0
LINE
  8
0
 10
953.515
 20
429.385
 11
953.424
 21
429.686
  0
LINE
  8
0
 10
953.424
 20
429.686
 11
953.393
 21
430
  0
LINE
  8
0
 10
953.393
 20
430
 11
953.424
 21
430.314
  0
LINE
  8
0
 10
953.424
 20
430.314
 11
953.515
 21
430.615
  0
LINE
  8
0
 10
953.515
 20
430.615
 11
953.664
 21
430.893
  0
LINE
  8
0
 10
953.664
 20
430.893
 11
953.863
 21
431.136
  0
LINE
  8
0
 10
953.863
 20
431.136
 11
954.107
 21
431.336
  0
LINE
  8
0
 10
954.107
 20
431.336
 11
954.385
 21
431.485
  0
LINE
  8
0
 10
954.385
 20
431.485
 11
954.686
 21
431.576
  0
LINE
  8
0
 10
954.686
 20
431.576
 11
955
 21
431.607
  0
LINE
  8
0
 10
955
 20
431.607
 11
955.314
 21
431.576
  0
LINE
  8
0
 10
955.314
 20
431.576
 11
955.615
 21
431.485
  0
LINE
  8
0
 10
955.615
 20
431.485
 11
955.893
 21
431.336
  0
LINE
  8
0
 10
955.893
 20
431.336
 11
956.136
 21
431.136
  0
LINE
  8
0
 10
956.136
 20
431.136
 11
956.336
 21
430.893
  0
LINE
  8
0
 10
956.336
 20
430.893
 11
956.485
 21
430.615
  0
LINE
  8
0
 10
956.485
 20
430.615
 11
956.576
 21
430.314
  0
LINE
  8
0
 10
956.576
 20
430.314
 11
956.607
 21
430
  0
LINE
  8
0
 10
956.607
 20
430
 11
956.576
 21
429.686
  0
LINE
  8
0
 10
956.576
 20
429.686
 11
956.485
 21
429.385
  0
LINE
  8
0
 10
956.485
 20
429.385
 11
956.336
 21
429.107
  0
LINE
  8
0
 10
956.336
 20
429.107
 11
956.136
 21
428.863
  0
LINE
  8
0
 10
956.136
 20
428.863
 11
955.893
 21
428.664
  0
LINE
  8
0
 10
955.893
 20
428.664
 11
955.615
 21
428.515
  0
LINE
  8
0
 10
955.615
 20
428.515
 11
955.314
 21
428.424
  0
LINE
  8
0
 10
955.314
 20
428.424
 11
955
 21
428.393
  0
LINE
  8
0
 10
955
 20
428.393
 11
954.686
 21
428.424
  0
LINE
  8
0
 10
884.686
 20
428.424
 11
884.385
 21
428.515
  0
LINE
  8
0
 10
884.385
 20
428.515
 11
884.107
 21
428.664
  0
LINE
  8
0
 10
884.107
 20
428.664
 11
883.864
 21
428.863
  0
LINE
  8
0
 10
883.864
 20
428.863
 11
883.664
 21
429.107
  0
LINE
  8
0
 10
883.664
 20
429.107
 11
883.515
 21
429.385
  0
LINE
  8
0
 10
883.515
 20
429.385
 11
883.424
 21
429.686
  0
LINE
  8
0
 10
883.424
 20
429.686
 11
883.393
 21
430
  0
LINE
  8
0
 10
883.393
 20
430
 11
883.424
 21
430.314
  0
LINE
  8
0
 10
883.424
 20
430.314
 11
883.515
 21
430.615
  0
LINE
  8
0
 10
883.515
 20
430.615
 11
883.664
 21
430.893
  0
LINE
  8
0
 10
883.664
 20
430.893
 11
883.864
 21
431.136
  0
LINE
  8
0
 10
883.864
 20
431.136
 11
884.107
 21
431.336
  0
LINE
  8
0
 10
884.107
 20
431.336
 11
884.385
 21
431.485
  0
LINE
  8
0
 10
884.385
 20
431.485
 11
884.686
 21
431.576
  0
LINE
  8
0
 10
884.686
 20
431.576
 11
885
 21
431.607
  0
LINE
  8
0
 10
885
 20
431.607
 11
885.314
 21
431.576
  0
LINE
  8
0
 10
885.314
 20
431.576
 11
885.615
 21
431.485
  0
LINE
  8
0
 10
885.615
 20
431.485
 11
885.893
 21
431.336
  0
LINE
  8
0
 10
885.893
 20
431.336
 11
886.137
 21
431.136
  0
LINE
  8
0
 10
886.137
 20
431.136
 11
886.336
 21
430.893
  0
LINE
  8
0
 10
886.336
 20
430.893
 11
886.485
 21
430.615
  0
LINE
  8
0
 10
886.485
 20
430.615
 11
886.576
 21
430.314
  0
LINE
  8
0
 10
886.576
 20
430.314
 11
886.607
 21
430
  0
LINE
  8
0
 10
886.607
 20
430
 11
886.576
 21
429.686
  0
LINE
  8
0
 10
886.576
 20
429.686
 11
886.485
 21
429.385
  0
LINE
  8
0
 10
886.485
 20
429.385
 11
886.336
 21
429.107
  0
LINE
  8
0
 10
886.336
 20
429.107
 11
886.137
 21
428.863
  0
LINE
  8
0
 10
886.137
 20
428.863
 11
885.893
 21
428.664
  0
LINE
  8
0
 10
885.893
 20
428.664
 11
885.615
 21
428.515
  0
LINE
  8
0
 10
885.615
 20
428.515
 11
885.314
 21
428.424
  0
LINE
  8
0
 10
885.314
 20
428.424
 11
885
 21
428.393
  0
LINE
  8
0
 10
885
 20
428.393
 11
884.686
 21
428.424
  0
LINE
  8
0
 10
808.686
 20
411.424
 11
808.385
 21
411.515
  0
LINE
  8
0
 10
808.385
 20
411.515
 11
808.107
 21
411.664
  0
LINE
  8
0
 10
808.107
 20
411.664
 11
807.863
 21
411.863
  0
LINE
  8
0
 10
807.863
 20
411.863
 11
807.664
 21
412.107
  0
LINE
  8
0
 10
807.664
 20
412.107
 11
807.515
 21
412.385
  0
LINE
  8
0
 10
807.515
 20
412.385
 11
807.424
 21
412.686
  0
LINE
  8
0
 10
807.424
 20
412.686
 11
807.393
 21
413
  0
LINE
  8
0
 10
807.393
 20
413
 11
807.424
 21
413.314
  0
LINE
  8
0
 10
807.424
 20
413.314
 11
807.515
 21
413.615
  0
LINE
  8
0
 10
807.515
 20
413.615
 11
807.664
 21
413.893
  0
LINE
  8
0
 10
807.664
 20
413.893
 11
807.863
 21
414.136
  0
LINE
  8
0
 10
807.863
 20
414.136
 11
808.107
 21
414.336
  0
LINE
  8
0
 10
808.107
 20
414.336
 11
808.385
 21
414.485
  0
LINE
  8
0
 10
808.385
 20
414.485
 11
808.686
 21
414.576
  0
LINE
  8
0
 10
808.686
 20
414.576
 11
809
 21
414.607
  0
LINE
  8
0
 10
809
 20
414.607
 11
809.314
 21
414.576
  0
LINE
  8
0
 10
809.314
 20
414.576
 11
809.615
 21
414.485
  0
LINE
  8
0
 10
809.615
 20
414.485
 11
809.893
 21
414.336
  0
LINE
  8
0
 10
809.893
 20
414.336
 11
810.137
 21
414.136
  0
LINE
  8
0
 10
810.137
 20
414.136
 11
810.336
 21
413.893
  0
LINE
  8
0
 10
810.336
 20
413.893
 11
810.485
 21
413.615
  0
LINE
  8
0
 10
810.485
 20
413.615
 11
810.576
 21
413.314
  0
LINE
  8
0
 10
810.576
 20
413.314
 11
810.607
 21
413
  0
LINE
  8
0
 10
810.607
 20
413
 11
810.576
 21
412.686
  0
LINE
  8
0
 10
810.576
 20
412.686
 11
810.485
 21
412.385
  0
LINE
  8
0
 10
810.485
 20
412.385
 11
810.336
 21
412.107
  0
LINE
  8
0
 10
810.336
 20
412.107
 11
810.137
 21
411.863
  0
LINE
  8
0
 10
810.137
 20
411.863
 11
809.893
 21
411.664
  0
LINE
  8
0
 10
809.893
 20
411.664
 11
809.615
 21
411.515
  0
LINE
  8
0
 10
809.615
 20
411.515
 11
809.314
 21
411.424
  0
LINE
  8
0
 10
809.314
 20
411.424
 11
809
 21
411.393
  0
LINE
  8
0
 10
809
 20
411.393
 11
808.686
 21
411.424
  0
LINE
  8
0
 10
838.686
 20
411.424
 11
838.385
 21
411.515
  0
LINE
  8
0
 10
838.385
 20
411.515
 11
838.107
 21
411.664
  0
LINE
  8
0
 10
838.107
 20
411.664
 11
837.863
 21
411.863
  0
LINE
  8
0
 10
837.863
 20
411.863
 11
837.664
 21
412.107
  0
LINE
  8
0
 10
837.664
 20
412.107
 11
837.515
 21
412.385
  0
LINE
  8
0
 10
837.515
 20
412.385
 11
837.424
 21
412.686
  0
LINE
  8
0
 10
837.424
 20
412.686
 11
837.393
 21
413
  0
LINE
  8
0
 10
837.393
 20
413
 11
837.424
 21
413.314
  0
LINE
  8
0
 10
837.424
 20
413.314
 11
837.515
 21
413.615
  0
LINE
  8
0
 10
837.515
 20
413.615
 11
837.664
 21
413.893
  0
LINE
  8
0
 10
837.664
 20
413.893
 11
837.863
 21
414.136
  0
LINE
  8
0
 10
837.863
 20
414.136
 11
838.107
 21
414.336
  0
LINE
  8
0
 10
838.107
 20
414.336
 11
838.385
 21
414.485
  0
LINE
  8
0
 10
838.385
 20
414.485
 11
838.686
 21
414.576
  0
LINE
  8
0
 10
838.686
 20
414.576
 11
839
 21
414.607
  0
LINE
  8
0
 10
839
 20
414.607
 11
839.314
 21
414.576
  0
LINE
  8
0
 10
839.314
 20
414.576
 11
839.615
 21
414.485
  0
LINE
  8
0
 10
839.615
 20
414.485
 11
839.893
 21
414.336
  0
LINE
  8
0
 10
839.893
 20
414.336
 11
840.137
 21
414.136
  0
LINE
  8
0
 10
840.137
 20
414.136
 11
840.336
 21
413.893
  0
LINE
  8
0
 10
840.336
 20
413.893
 11
840.485
 21
413.615
  0
LINE
  8
0
 10
840.485
 20
413.615
 11
840.576
 21
413.314
  0
LINE
  8
0
 10
840.576
 20
413.314
 11
840.607
 21
413
  0
LINE
  8
0
 10
840.607
 20
413
 11
840.576
 21
412.686
  0
LINE
  8
0
 10
840.576
 20
412.686
 11
840.485
 21
412.385
  0
LINE
  8
0
 10
840.485
 20
412.385
 11
840.336
 21
412.107
  0
LINE
  8
0
 10
840.336
 20
412.107
 11
840.137
 21
411.863
  0
LINE
  8
0
 10
840.137
 20
411.863
 11
839.893
 21
411.664
  0
LINE
  8
0
 10
839.893
 20
411.664
 11
839.615
 21
411.515
  0
LINE
  8
0
 10
839.615
 20
411.515
 11
839.314
 21
411.424
  0
LINE
  8
0
 10
839.314
 20
411.424
 11
839
 21
411.393
  0
LINE
  8
0
 10
839
 20
411.393
 11
838.686
 21
411.424
  0
LINE
  8
0
 10
1069.19
 20
402.924
 11
1068.88
 21
403.015
  0
LINE
  8
0
 10
1068.88
 20
403.015
 11
1068.61
 21
403.164
  0
LINE
  8
0
 10
1068.61
 20
403.164
 11
1068.36
 21
403.363
  0
LINE
  8
0
 10
1068.36
 20
403.363
 11
1068.16
 21
403.607
  0
LINE
  8
0
 10
1068.16
 20
403.607
 11
1068.02
 21
403.885
  0
LINE
  8
0
 10
1068.02
 20
403.885
 11
1067.92
 21
404.186
  0
LINE
  8
0
 10
1067.92
 20
404.186
 11
1067.89
 21
404.5
  0
LINE
  8
0
 10
1067.89
 20
404.5
 11
1067.92
 21
404.814
  0
LINE
  8
0
 10
1067.92
 20
404.814
 11
1068.02
 21
405.115
  0
LINE
  8
0
 10
1068.02
 20
405.115
 11
1068.16
 21
405.393
  0
LINE
  8
0
 10
1068.16
 20
405.393
 11
1068.36
 21
405.636
  0
LINE
  8
0
 10
1068.36
 20
405.636
 11
1068.61
 21
405.836
  0
LINE
  8
0
 10
1068.61
 20
405.836
 11
1068.88
 21
405.985
  0
LINE
  8
0
 10
1068.88
 20
405.985
 11
1069.19
 21
406.076
  0
LINE
  8
0
 10
1069.19
 20
406.076
 11
1069.5
 21
406.107
  0
LINE
  8
0
 10
1069.5
 20
406.107
 11
1069.81
 21
406.076
  0
LINE
  8
0
 10
1069.81
 20
406.076
 11
1070.12
 21
405.985
  0
LINE
  8
0
 10
1070.12
 20
405.985
 11
1070.39
 21
405.836
  0
LINE
  8
0
 10
1070.39
 20
405.836
 11
1070.64
 21
405.636
  0
LINE
  8
0
 10
1070.64
 20
405.636
 11
1070.84
 21
405.393
  0
LINE
  8
0
 10
1070.84
 20
405.393
 11
1070.98
 21
405.115
  0
LINE
  8
0
 10
1070.98
 20
405.115
 11
1071.08
 21
404.814
  0
LINE
  8
0
 10
1071.08
 20
404.814
 11
1071.11
 21
404.5
  0
LINE
  8
0
 10
1071.11
 20
404.5
 11
1071.08
 21
404.186
  0
LINE
  8
0
 10
1071.08
 20
404.186
 11
1070.98
 21
403.885
  0
LINE
  8
0
 10
1070.98
 20
403.885
 11
1070.84
 21
403.607
  0
LINE
  8
0
 10
1070.84
 20
403.607
 11
1070.64
 21
403.363
  0
LINE
  8
0
 10
1070.64
 20
403.363
 11
1070.39
 21
403.164
  0
LINE
  8
0
 10
1070.39
 20
403.164
 11
1070.12
 21
403.015
  0
LINE
  8
0
 10
1070.12
 20
403.015
 11
1069.81
 21
402.924
  0
LINE
  8
0
 10
1069.81
 20
402.924
 11
1069.5
 21
402.893
  0
LINE
  8
0
 10
1069.5
 20
402.893
 11
1069.19
 21
402.924
  0
LINE
  8
0
 10
770.186
 20
402.924
 11
769.885
 21
403.015
  0
LINE
  8
0
 10
769.885
 20
403.015
 11
769.607
 21
403.164
  0
LINE
  8
0
 10
769.607
 20
403.164
 11
769.363
 21
403.363
  0
LINE
  8
0
 10
769.363
 20
403.363
 11
769.164
 21
403.607
  0
LINE
  8
0
 10
769.164
 20
403.607
 11
769.015
 21
403.885
  0
LINE
  8
0
 10
769.015
 20
403.885
 11
768.924
 21
404.186
  0
LINE
  8
0
 10
768.924
 20
404.186
 11
768.893
 21
404.5
  0
LINE
  8
0
 10
768.893
 20
404.5
 11
768.924
 21
404.814
  0
LINE
  8
0
 10
768.924
 20
404.814
 11
769.015
 21
405.115
  0
LINE
  8
0
 10
769.015
 20
405.115
 11
769.164
 21
405.393
  0
LINE
  8
0
 10
769.164
 20
405.393
 11
769.363
 21
405.636
  0
LINE
  8
0
 10
769.363
 20
405.636
 11
769.607
 21
405.836
  0
LINE
  8
0
 10
769.607
 20
405.836
 11
769.885
 21
405.985
  0
LINE
  8
0
 10
769.885
 20
405.985
 11
770.186
 21
406.076
  0
LINE
  8
0
 10
770.186
 20
406.076
 11
770.5
 21
406.107
  0
LINE
  8
0
 10
770.5
 20
406.107
 11
770.814
 21
406.076
  0
LINE
  8
0
 10
770.814
 20
406.076
 11
771.115
 21
405.985
  0
LINE
  8
0
 10
771.115
 20
405.985
 11
771.393
 21
405.836
  0
LINE
  8
0
 10
771.393
 20
405.836
 11
771.637
 21
405.636
  0
LINE
  8
0
 10
771.637
 20
405.636
 11
771.836
 21
405.393
  0
LINE
  8
0
 10
771.836
 20
405.393
 11
771.985
 21
405.115
  0
LINE
  8
0
 10
771.985
 20
405.115
 11
772.076
 21
404.814
  0
LINE
  8
0
 10
772.076
 20
404.814
 11
772.107
 21
404.5
  0
LINE
  8
0
 10
772.107
 20
404.5
 11
772.076
 21
404.186
  0
LINE
  8
0
 10
772.076
 20
404.186
 11
771.985
 21
403.885
  0
LINE
  8
0
 10
771.985
 20
403.885
 11
771.836
 21
403.607
  0
LINE
  8
0
 10
771.836
 20
403.607
 11
771.637
 21
403.363
  0
LINE
  8
0
 10
771.637
 20
403.363
 11
771.393
 21
403.164
  0
LINE
  8
0
 10
771.393
 20
403.164
 11
771.115
 21
403.015
  0
LINE
  8
0
 10
771.115
 20
403.015
 11
770.814
 21
402.924
  0
LINE
  8
0
 10
770.814
 20
402.924
 11
770.5
 21
402.893
  0
LINE
  8
0
 10
770.5
 20
402.893
 11
770.186
 21
402.924
  0
LINE
  8
0
 10
84.9117
 20
34
 11
315.088
 21
34
  0
LINE
  8
0
 10
315.088
 20
34
 11
321.088
 21
28
  0
LINE
  8
0
 10
321.088
 20
28
 11
366
 21
28
  0
LINE
  8
0
 10
366
 20
28
 11
372
 21
34
  0
LINE
  8
0
 10
372
 20
34
 11
372
 21
78.9117
  0
LINE
  8
0
 10
372
 20
78.9117
 11
366
 21
84.9117
  0
LINE
  8
0
 10
366
 20
84.9117
 11
366
 21
315.088
  0
LINE
  8
0
 10
366
 20
315.088
 11
372
 21
321.088
  0
LINE
  8
0
 10
372
 20
321.088
 11
372
 21
366
  0
LINE
  8
0
 10
372
 20
366
 11
366
 21
372
  0
LINE
  8
0
 10
366
 20
372
 11
321.088
 21
372
  0
LINE
  8
0
 10
321.088
 20
372
 11
315.088
 21
366
  0
LINE
  8
0
 10
315.088
 20
366
 11
84.9117
 21
366
  0
LINE
  8
0
 10
84.9117
 20
366
 11
78.9117
 21
372
  0
LINE
  8
0
 10
78.9117
 20
372
 11
34
 21
372
  0
LINE
  8
0
 10
34
 20
372
 11
28
 21
366
  0
LINE
  8
0
 10
28
 20
366
 11
28
 21
321.088
  0
LINE
  8
0
 10
28
 20
321.088
 11
34
 21
315.088
  0
LINE
  8
0
 10
34
 20
315.088
 11
34
 21
84.9117
  0
LINE
  8
0
 10
34
 20
84.9117
 11
28
 21
78.9117
  0
LINE
  8
0
 10
28
 20
78.9117
 11
28
 21
34
  0
LINE
  8
0
 10
28
 20
34
 11
34
 21
28
  0
LINE
  8
0
 10
34
 20
28
 11
78.9117
 21
28
  0
LINE
  8
0
 10
78.9117
 20
28
 11
84.9117
 21
34
  0
LINE
  8
0
 10
359.686
 20
358.424
 11
359.385
 21
358.515
  0
LINE
  8
0
 10
359.385
 20
358.515
 11
359.107
 21
358.664
  0
LINE
  8
0
 10
359.107
 20
358.664
 11
358.863
 21
358.863
  0
LINE
  8
0
 10
358.863
 20
358.863
 11
358.664
 21
359.107
  0
LINE
  8
0
 10
358.664
 20
359.107
 11
358.515
 21
359.385
  0
LINE
  8
0
 10
358.515
 20
359.385
 11
358.424
 21
359.686
  0
LINE
  8
0
 10
358.424
 20
359.686
 11
358.393
 21
360
  0
LINE
  8
0
 10
358.393
 20
360
 11
358.424
 21
360.314
  0
LINE
  8
0
 10
358.424
 20
360.314
 11
358.515
 21
360.615
  0
LINE
  8
0
 10
358.515
 20
360.615
 11
358.664
 21
360.893
  0
LINE
  8
0
 10
358.664
 20
360.893
 11
358.863
 21
361.137
  0
LINE
  8
0
 10
358.863
 20
361.137
 11
359.107
 21
361.336
  0
LINE
  8
0
 10
359.107
 20
361.336
 11
359.385
 21
361.485
  0
LINE
  8
0
 10
359.385
 20
361.485
 11
359.686
 21
361.576
  0
LINE
  8
0
 10
359.686
 20
361.576
 11
360
 21
361.607
  0
LINE
  8
0
 10
360
 20
361.607
 11
360.314
 21
361.576
  0
LINE
  8
0
 10
360.314
 20
361.576
 11
360.615
 21
361.485
  0
LINE
  8
0
 10
360.615
 20
361.485
 11
360.893
 21
361.336
  0
LINE
  8
0
 10
360.893
 20
361.336
 11
361.137
 21
361.137
  0
LINE
  8
0
 10
361.137
 20
361.137
 11
361.336
 21
360.893
  0
LINE
  8
0
 10
361.336
 20
360.893
 11
361.485
 21
360.615
  0
LINE
  8
0
 10
361.485
 20
360.615
 11
361.576
 21
360.314
  0
LINE
  8
0
 10
361.576
 20
360.314
 11
361.607
 21
360
  0
LINE
  8
0
 10
361.607
 20
360
 11
361.576
 21
359.686
  0
LINE
  8
0
 10
361.576
 20
359.686
 11
361.485
 21
359.385
  0
LINE
  8
0
 10
361.485
 20
359.385
 11
361.336
 21
359.107
  0
LINE
  8
0
 10
361.336
 20
359.107
 11
361.137
 21
358.863
  0
LINE
  8
0
 10
361.137
 20
358.863
 11
360.893
 21
358.664
  0
LINE
  8
0
 10
360.893
 20
358.664
 11
360.615
 21
358.515
  0
LINE
  8
0
 10
360.615
 20
358.515
 11
360.314
 21
358.424
  0
LINE
  8
0
 10
360.314
 20
358.424
 11
360
 21
358.393
  0
LINE
  8
0
 10
360
 20
358.393
 11
359.686
 21
358.424
  0
LINE
  8
0
 10
39.6864
 20
358.424
 11
39.3849
 21
358.515
  0
LINE
  8
0
 10
39.3849
 20
358.515
 11
39.1071
 21
358.664
  0
LINE
  8
0
 10
39.1071
 20
358.664
 11
38.8635
 21
358.863
  0
LINE
  8
0
 10
38.8635
 20
358.863
 11
38.6636
 21
359.107
  0
LINE
  8
0
 10
38.6636
 20
359.107
 11
38.5151
 21
359.385
  0
LINE
  8
0
 10
38.5151
 20
359.385
 11
38.4236
 21
359.686
  0
LINE
  8
0
 10
38.4236
 20
359.686
 11
38.3927
 21
360
  0
LINE
  8
0
 10
38.3927
 20
360
 11
38.4236
 21
360.314
  0
LINE
  8
0
 10
38.4236
 20
360.314
 11
38.5151
 21
360.615
  0
LINE
  8
0
 10
38.5151
 20
360.615
 11
38.6636
 21
360.893
  0
LINE
  8
0
 10
38.6636
 20
360.893
 11
38.8635
 21
361.137
  0
LINE
  8
0
 10
38.8635
 20
361.137
 11
39.1071
 21
361.336
  0
LINE
  8
0
 10
39.1071
 20
361.336
 11
39.3849
 21
361.485
  0
LINE
  8
0
 10
39.3849
 20
361.485
 11
39.6864
 21
361.576
  0
LINE
  8
0
 10
39.6864
 20
361.576
 11
40
 21
361.607
  0
LINE
  8
0
 10
40
 20
361.607
 11
40.3136
 21
361.576
  0
LINE
  8
0
 10
40.3136
 20
361.576
 11
40.6151
 21
361.485
  0
LINE
  8
0
 10
40.6151
 20
361.485
 11
40.8929
 21
361.336
  0
LINE
  8
0
 10
40.8929
 20
361.336
 11
41.1365
 21
361.137
  0
LINE
  8
0
 10
41.1365
 20
361.137
 11
41.3364
 21
360.893
  0
LINE
  8
0
 10
41.3364
 20
360.893
 11
41.4849
 21
360.615
  0
LINE
  8
0
 10
41.4849
 20
360.615
 11
41.5764
 21
360.314
  0
LINE
  8
0
 10
41.5764
 20
360.314
 11
41.6073
 21
360
  0
LINE
  8
0
 10
41.6073
 20
360
 11
41.5764
 21
359.686
  0
LINE
  8
0
 10
41.5764
 20
359.686
 11
41.4849
 21
359.385
  0
LINE
  8
0
 10
41.4849
 20
359.385
 11
41.3364
 21
359.107
  0
LINE
  8
0
 10
41.3364
 20
359.107
 11
41.1365
 21
358.863
  0
LINE
  8
0
 10
41.1365
 20
358.863
 11
40.8929
 21
358.664
  0
LINE
  8
0
 10
40.8929
 20
358.664
 11
40.6151
 21
358.515
  0
LINE
  8
0
 10
40.6151
 20
358.515
 11
40.3136
 21
358.424
  0
LINE
  8
0
 10
40.3136
 20
358.424
 11
40
 21
358.393
  0
LINE
  8
0
 10
40
 20
358.393
 11
39.6864
 21
358.424
  0
LINE
  8
0
 10
279.735
 20
323.67
 11
279.481
 21
323.747
  0
LINE
  8
0
 10
279.481
 20
323.747
 11
279.247
 21
323.872
  0
LINE
  8
0
 10
279.247
 20
323.872
 11
279.041
 21
324.041
  0
LINE
  8
0
 10
279.041
 20
324.041
 11
278.872
 21
324.247
  0
LINE
  8
0
 10
278.872
 20
324.247
 11
278.747
 21
324.481
  0
LINE
  8
0
 10
278.747
 20
324.481
 11
278.67
 21
324.735
  0
LINE
  8
0
 10
278.67
 20
324.735
 11
278.644
 21
325
  0
LINE
  8
0
 10
278.644
 20
325
 11
278.67
 21
325.265
  0
LINE
  8
0
 10
278.67
 20
325.265
 11
278.747
 21
325.519
  0
LINE
  8
0
 10
278.747
 20
325.519
 11
278.872
 21
325.753
  0
LINE
  8
0
 10
278.872
 20
325.753
 11
279.041
 21
325.959
  0
LINE
  8
0
 10
279.041
 20
325.959
 11
279.247
 21
326.128
  0
LINE
  8
0
 10
279.247
 20
326.128
 11
279.481
 21
326.253
  0
LINE
  8
0
 10
279.481
 20
326.253
 11
279.735
 21
326.33
  0
LINE
  8
0
 10
279.735
 20
326.33
 11
280
 21
326.356
  0
LINE
  8
0
 10
280
 20
326.356
 11
280.265
 21
326.33
  0
LINE
  8
0
 10
280.265
 20
326.33
 11
280.519
 21
326.253
  0
LINE
  8
0
 10
280.519
 20
326.253
 11
280.753
 21
326.128
  0
LINE
  8
0
 10
280.753
 20
326.128
 11
280.959
 21
325.959
  0
LINE
  8
0
 10
280.959
 20
325.959
 11
281.128
 21
325.753
  0
LINE
  8
0
 10
281.128
 20
325.753
 11
281.253
 21
325.519
  0
LINE
  8
0
 10
281.253
 20
325.519
 11
281.33
 21
325.265
  0
LINE
  8
0
 10
281.33
 20
325.265
 11
281.356
 21
325
  0
LINE
  8
0
 10
281.356
 20
325
 11
281.33
 21
324.735
  0
LINE
  8
0
 10
281.33
 20
324.735
 11
281.253
 21
324.481
  0
LINE
  8
0
 10
281.253
 20
324.481
 11
281.128
 21
324.247
  0
LINE
  8
0
 10
281.128
 20
324.247
 11
280.959
 21
324.041
  0
LINE
  8
0
 10
280.959
 20
324.041
 11
280.753
 21
323.872
  0
LINE
  8
0
 10
280.753
 20
323.872
 11
280.519
 21
323.747
  0
LINE
  8
0
 10
280.519
 20
323.747
 11
280.265
 21
323.67
  0
LINE
  8
0
 10
280.265
 20
323.67
 11
280
 21
323.644
  0
LINE
  8
0
 10
280
 20
323.644
 11
279.735
 21
323.67
  0
LINE
  8
0
 10
119.735
 20
323.67
 11
119.481
 21
323.747
  0
LINE
  8
0
 10
119.481
 20
323.747
 11
119.247
 21
323.872
  0
LINE
  8
0
 10
119.247
 20
323.872
 11
119.041
 21
324.041
  0
LINE
  8
0
 10
119.041
 20
324.041
 11
118.872
 21
324.247
  0
LINE
  8
0
 10
118.872
 20
324.247
 11
118.747
 21
324.481
  0
LINE
  8
0
 10
118.747
 20
324.481
 11
118.67
 21
324.735
  0
LINE
  8
0
 10
118.67
 20
324.735
 11
118.644
 21
325
  0
LINE
  8
0
 10
118.644
 20
325
 11
118.67
 21
325.265
  0
LINE
  8
0
 10
118.67
 20
325.265
 11
118.747
 21
325.519
  0
LINE
  8
0
 10
118.747
 20
325.519
 11
118.872
 21
325.753
  0
LINE
  8
0
 10
118.872
 20
325.753
 11
119.041
 21
325.959
  0
LINE
  8
0
 10
119.041
 20
325.959
 11
119.247
 21
326.128
  0
LINE
  8
0
 10
119.247
 20
326.128
 11
119.481
 21
326.253
  0
LINE
  8
0
 10
119.481
 20
326.253
 11
119.735
 21
326.33
  0
LINE
  8
0
 10
119.735
 20
326.33
 11
120
 21
326.356
  0
LINE
  8
0
 10
120
 20
326.356
 11
120.265
 21
326.33
  0
LINE
  8
0
 10
120.265
 20
326.33
 11
120.519
 21
326.253
  0
LINE
  8
0
 10
120.519
 20
326.253
 11
120.753
 21
326.128
  0
LINE
  8
0
 10
120.753
 20
326.128
 11
120.959
 21
325.959
  0
LINE
  8
0
 10
120.959
 20
325.959
 11
121.128
 21
325.753
  0
LINE
  8
0
 10
121.128
 20
325.753
 11
121.253
 21
325.519
  0
LINE
  8
0
 10
121.253
 20
325.519
 11
121.33
 21
325.265
  0
LINE
  8
0
 10
121.33
 20
325.265
 11
121.356
 21
325
  0
LINE
  8
0
 10
121.356
 20
325
 11
121.33
 21
324.735
  0
LINE
  8
0
 10
121.33
 20
324.735
 11
121.253
 21
324.481
  0
LINE
  8
0
 10
121.253
 20
324.481
 11
121.128
 21
324.247
  0
LINE
  8
0
 10
121.128
 20
324.247
 11
120.959
 21
324.041
  0
LINE
  8
0
 10
120.959
 20
324.041
 11
120.753
 21
323.872
  0
LINE
  8
0
 10
120.753
 20
323.872
 11
120.519
 21
323.747
  0
LINE
  8
0
 10
120.519
 20
323.747
 11
120.265
 21
323.67
  0
LINE
  8
0
 10
120.265
 20
323.67
 11
120
 21
323.644
  0
LINE
  8
0
 10
120
 20
323.644
 11
119.735
 21
323.67
  0
LINE
  8
0
 10
199.735
 20
323.67
 11
199.481
 21
323.747
  0
LINE
  8
0
 10
199.481
 20
323.747
 11
199.247
 21
323.872
  0
LINE
  8
0
 10
199.247
 20
323.872
 11
199.041
 21
324.041
  0
LINE
  8
0
 10
199.041
 20
324.041
 11
198.872
 21
324.247
  0
LINE
  8
0
 10
198.872
 20
324.247
 11
198.747
 21
324.481
  0
LINE
  8
0
 10
198.747
 20
324.481
 11
198.67
 21
324.735
  0
LINE
  8
0
 10
198.67
 20
324.735
 11
198.644
 21
325
  0
LINE
  8
0
 10
198.644
 20
325
 11
198.67
 21
325.265
  0
LINE
  8
0
 10
198.67
 20
325.265
 11
198.747
 21
325.519
  0
LINE
  8
0
 10
198.747
 20
325.519
 11
198.872
 21
325.753
  0
LINE
  8
0
 10
198.872
 20
325.753
 11
199.041
 21
325.959
  0
LINE
  8
0
 10
199.041
 20
325.959
 11
199.247
 21
326.128
  0
LINE
  8
0
 10
199.247
 20
326.128
 11
199.481
 21
326.253
  0
LINE
  8
0
 10
199.481
 20
326.253
 11
199.735
 21
326.33
  0
LINE
  8
0
 10
199.735
 20
326.33
 11
200
 21
326.356
  0
LINE
  8
0
 10
200
 20
326.356
 11
200.265
 21
326.33
  0
LINE
  8
0
 10
200.265
 20
326.33
 11
200.519
 21
326.253
  0
LINE
  8
0
 10
200.519
 20
326.253
 11
200.753
 21
326.128
  0
LINE
  8
0
 10
200.753
 20
326.128
 11
200.959
 21
325.959
  0
LINE
  8
0
 10
200.959
 20
325.959
 11
201.128
 21
325.753
  0
LINE
  8
0
 10
201.128
 20
325.753
 11
201.253
 21
325.519
  0
LINE
  8
0
 10
201.253
 20
325.519
 11
201.33
 21
325.265
  0
LINE
  8
0
 10
201.33
 20
325.265
 11
201.356
 21
325
  0
LINE
  8
0
 10
201.356
 20
325
 11
201.33
 21
324.735
  0
LINE
  8
0
 10
201.33
 20
324.735
 11
201.253
 21
324.481
  0
LINE
  8
0
 10
201.253
 20
324.481
 11
201.128
 21
324.247
  0
LINE
  8
0
 10
201.128
 20
324.247
 11
200.959
 21
324.041
  0
LINE
  8
0
 10
200.959
 20
324.041
 11
200.753
 21
323.872
  0
LINE
  8
0
 10
200.753
 20
323.872
 11
200.519
 21
323.747
  0
LINE
  8
0
 10
200.519
 20
323.747
 11
200.265
 21
323.67
  0
LINE
  8
0
 10
200.265
 20
323.67
 11
200
 21
323.644
  0
LINE
  8
0
 10
200
 20
323.644
 11
199.735
 21
323.67
  0
LINE
  8
0
 10
199.735
 20
293.67
 11
199.481
 21
293.747
  0
LINE
  8
0
 10
199.481
 20
293.747
 11
199.247
 21
293.872
  0
LINE
  8
0
 10
199.247
 20
293.872
 11
199.041
 21
294.041
  0
LINE
  8
0
 10
199.041
 20
294.041
 11
198.872
 21
294.247
  0
LINE
  8
0
 10
198.872
 20
294.247
 11
198.747
 21
294.481
  0
LINE
  8
0
 10
198.747
 20
294.481
 11
198.67
 21
294.735
  0
LINE
  8
0
 10
198.67
 20
294.735
 11
198.644
 21
295
  0
LINE
  8
0
 10
198.644
 20
295
 11
198.67
 21
295.265
  0
LINE
  8
0
 10
198.67
 20
295.265
 11
198.747
 21
295.519
  0
LINE
  8
0
 10
198.747
 20
295.519
 11
198.872
 21
295.753
  0
LINE
  8
0
 10
198.872
 20
295.753
 11
199.041
 21
295.959
  0
LINE
  8
0
 10
199.041
 20
295.959
 11
199.247
 21
296.128
  0
LINE
  8
0
 10
199.247
 20
296.128
 11
199.481
 21
296.253
  0
LINE
  8
0
 10
199.481
 20
296.253
 11
199.735
 21
296.33
  0
LINE
  8
0
 10
199.735
 20
296.33
 11
200
 21
296.356
  0
LINE
  8
0
 10
200
 20
296.356
 11
200.265
 21
296.33
  0
LINE
  8
0
 10
200.265
 20
296.33
 11
200.519
 21
296.253
  0
LINE
  8
0
 10
200.519
 20
296.253
 11
200.753
 21
296.128
  0
LINE
  8
0
 10
200.753
 20
296.128
 11
200.959
 21
295.959
  0
LINE
  8
0
 10
200.959
 20
295.959
 11
201.128
 21
295.753
  0
LINE
  8
0
 10
201.128
 20
295.753
 11
201.253
 21
295.519
  0
LINE
  8
0
 10
201.253
 20
295.519
 11
201.33
 21
295.265
  0
LINE
  8
0
 10
201.33
 20
295.265
 11
201.356
 21
295
  0
LINE
  8
0
 10
201.356
 20
295
 11
201.33
 21
294.735
  0
LINE
  8
0
 10
201.33
 20
294.735
 11
201.253
 21
294.481
  0
LINE
  8
0
 10
201.253
 20
294.481
 11
201.128
 21
294.247
  0
LINE
  8
0
 10
201.128
 20
294.247
 11
200.959
 21
294.041
  0
LINE
  8
0
 10
200.959
 20
294.041
 11
200.753
 21
293.872
  0
LINE
  8
0
 10
200.753
 20
293.872
 11
200.519
 21
293.747
  0
LINE
  8
0
 10
200.519
 20
293.747
 11
200.265
 21
293.67
  0
LINE
  8
0
 10
200.265
 20
293.67
 11
200
 21
293.644
  0
LINE
  8
0
 10
200
 20
293.644
 11
199.735
 21
293.67
  0
LINE
  8
0
 10
279.735
 20
293.67
 11
279.481
 21
293.747
  0
LINE
  8
0
 10
279.481
 20
293.747
 11
279.247
 21
293.872
  0
LINE
  8
0
 10
279.247
 20
293.872
 11
279.041
 21
294.041
  0
LINE
  8
0
 10
279.041
 20
294.041
 11
278.872
 21
294.247
  0
LINE
  8
0
 10
278.872
 20
294.247
 11
278.747
 21
294.481
  0
LINE
  8
0
 10
278.747
 20
294.481
 11
278.67
 21
294.735
  0
LINE
  8
0
 10
278.67
 20
294.735
 11
278.644
 21
295
  0
LINE
  8
0
 10
278.644
 20
295
 11
278.67
 21
295.265
  0
LINE
  8
0
 10
278.67
 20
295.265
 11
278.747
 21
295.519
  0
LINE
  8
0
 10
278.747
 20
295.519
 11
278.872
 21
295.753
  0
LINE
  8
0
 10
278.872
 20
295.753
 11
279.041
 21
295.959
  0
LINE
  8
0
 10
279.041
 20
295.959
 11
279.247
 21
296.128
  0
LINE
  8
0
 10
279.247
 20
296.128
 11
279.481
 21
296.253
  0
LINE
  8
0
 10
279.481
 20
296.253
 11
279.735
 21
296.33
  0
LINE
  8
0
 10
279.735
 20
296.33
 11
280
 21
296.356
  0
LINE
  8
0
 10
280
 20
296.356
 11
280.265
 21
296.33
  0
LINE
  8
0
 10
280.265
 20
296.33
 11
280.519
 21
296.253
  0
LINE
  8
0
 10
280.519
 20
296.253
 11
280.753
 21
296.128
  0
LINE
  8
0
 10
280.753
 20
296.128
 11
280.959
 21
295.959
  0
LINE
  8
0
 10
280.959
 20
295.959
 11
281.128
 21
295.753
  0
LINE
  8
0
 10
281.128
 20
295.753
 11
281.253
 21
295.519
  0
LINE
  8
0
 10
281.253
 20
295.519
 11
281.33
 21
295.265
  0
LINE
  8
0
 10
281.33
 20
295.265
 11
281.356
 21
295
  0
LINE
  8
0
 10
281.356
 20
295
 11
281.33
 21
294.735
  0
LINE
  8
0
 10
281.33
 20
294.735
 11
281.253
 21
294.481
  0
LINE
  8
0
 10
281.253
 20
294.481
 11
281.128
 21
294.247
  0
LINE
  8
0
 10
281.128
 20
294.247
 11
280.959
 21
294.041
  0
LINE
  8
0
 10
280.959
 20
294.041
 11
280.753
 21
293.872
  0
LINE
  8
0
 10
280.753
 20
293.872
 11
280.519
 21
293.747
  0
LINE
  8
0
 10
280.519
 20
293.747
 11
280.265
 21
293.67
  0
LINE
  8
0
 10
280.265
 20
293.67
 11
280
 21
293.644
  0
LINE
  8
0
 10
280
 20
293.644
 11
279.735
 21
293.67
  0
LINE
  8
0
 10
119.735
 20
293.67
 11
119.481
 21
293.747
  0
LINE
  8
0
 10
119.481
 20
293.747
 11
119.247
 21
293.872
  0
LINE
  8
0
 10
119.247
 20
293.872
 11
119.041
 21
294.041
  0
LINE
  8
0
 10
119.041
 20
294.041
 11
118.872
 21
294.247
  0
LINE
  8
0
 10
118.872
 20
294.247
 11
118.747
 21
294.481
  0
LINE
  8
0
 10
118.747
 20
294.481
 11
118.67
 21
294.735
  0
LINE
  8
0
 10
118.67
 20
294.735
 11
118.644
 21
295
  0
LINE
  8
0
 10
118.644
 20
295
 11
118.67
 21
295.265
  0
LINE
  8
0
 10
118.67
 20
295.265
 11
118.747
 21
295.519
  0
LINE
  8
0
 10
118.747
 20
295.519
 11
118.872
 21
295.753
  0
LINE
  8
0
 10
118.872
 20
295.753
 11
119.041
 21
295.959
  0
LINE
  8
0
 10
119.041
 20
295.959
 11
119.247
 21
296.128
  0
LINE
  8
0
 10
119.247
 20
296.128
 11
119.481
 21
296.253
  0
LINE
  8
0
 10
119.481
 20
296.253
 11
119.735
 21
296.33
  0
LINE
  8
0
 10
119.735
 20
296.33
 11
120
 21
296.356
  0
LINE
  8
0
 10
120
 20
296.356
 11
120.265
 21
296.33
  0
LINE
  8
0
 10
120.265
 20
296.33
 11
120.519
 21
296.253
  0
LINE
  8
0
 10
120.519
 20
296.253
 11
120.753
 21
296.128
  0
LINE
  8
0
 10
120.753
 20
296.128
 11
120.959
 21
295.959
  0
LINE
  8
0
 10
120.959
 20
295.959
 11
121.128
 21
295.753
  0
LINE
  8
0
 10
121.128
 20
295.753
 11
121.253
 21
295.519
  0
LINE
  8
0
 10
121.253
 20
295.519
 11
121.33
 21
295.265
  0
LINE
  8
0
 10
121.33
 20
295.265
 11
121.356
 21
295
  0
LINE
  8
0
 10
121.356
 20
295
 11
121.33
 21
294.735
  0
LINE
  8
0
 10
121.33
 20
294.735
 11
121.253
 21
294.481
  0
LINE
  8
0
 10
121.253
 20
294.481
 11
121.128
 21
294.247
  0
LINE
  8
0
 10
121.128
 20
294.247
 11
120.959
 21
294.041
  0
LINE
  8
0
 10
120.959
 20
294.041
 11
120.753
 21
293.872
  0
LINE
  8
0
 10
120.753
 20
293.872
 11
120.519
 21
293.747
  0
LINE
  8
0
 10
120.519
 20
293.747
 11
120.265
 21
293.67
  0
LINE
  8
0
 10
120.265
 20
293.67
 11
120
 21
293.644
  0
LINE
  8
0
 10
120
 20
293.644
 11
119.735
 21
293.67
  0
LINE
  8
0
 10
284.515
 20
278.268
 11
284.261
 21
278.345
  0
LINE
  8
0
 10
284.261
 20
278.345
 11
284.027
 21
278.471
  0
LINE
  8
0
 10
284.027
 20
278.471
 11
283.821
 21
278.639
  0
LINE
  8
0
 10
283.821
 20
278.639
 11
283.652
 21
278.845
  0
LINE
  8
0
 10
283.652
 20
278.845
 11
283.527
 21
279.079
  0
LINE
  8
0
 10
283.527
 20
279.079
 11
283.45
 21
279.334
  0
LINE
  8
0
 10
283.45
 20
279.334
 11
283.424
 21
279.598
  0
LINE
  8
0
 10
283.424
 20
279.598
 11
283.45
 21
279.863
  0
LINE
  8
0
 10
283.45
 20
279.863
 11
283.527
 21
280.117
  0
LINE
  8
0
 10
283.527
 20
280.117
 11
283.652
 21
280.352
  0
LINE
  8
0
 10
283.652
 20
280.352
 11
283.821
 21
280.557
  0
LINE
  8
0
 10
283.821
 20
280.557
 11
284.027
 21
280.726
  0
LINE
  8
0
 10
284.027
 20
280.726
 11
284.261
 21
280.851
  0
LINE
  8
0
 10
284.261
 20
280.851
 11
284.515
 21
280.928
  0
LINE
  8
0
 10
284.515
 20
280.928
 11
284.78
 21
280.954
  0
LINE
  8
0
 10
284.78
 20
280.954
 11
285.045
 21
280.928
  0
LINE
  8
0
 10
285.045
 20
280.928
 11
285.299
 21
280.851
  0
LINE
  8
0
 10
285.299
 20
280.851
 11
285.533
 21
280.726
  0
LINE
  8
0
 10
285.533
 20
280.726
 11
285.739
 21
280.557
  0
LINE
  8
0
 10
285.739
 20
280.557
 11
285.908
 21
280.352
  0
LINE
  8
0
 10
285.908
 20
280.352
 11
286.033
 21
280.117
  0
LINE
  8
0
 10
286.033
 20
280.117
 11
286.11
 21
279.863
  0
LINE
  8
0
 10
286.11
 20
279.863
 11
286.136
 21
279.598
  0
LINE
  8
0
 10
286.136
 20
279.598
 11
286.11
 21
279.334
  0
LINE
  8
0
 10
286.11
 20
279.334
 11
286.033
 21
279.079
  0
LINE
  8
0
 10
286.033
 20
279.079
 11
285.908
 21
278.845
  0
LINE
  8
0
 10
285.908
 20
278.845
 11
285.739
 21
278.639
  0
LINE
  8
0
 10
285.739
 20
278.639
 11
285.533
 21
278.471
  0
LINE
  8
0
 10
285.533
 20
278.471
 11
285.299
 21
278.345
  0
LINE
  8
0
 10
285.299
 20
278.345
 11
285.045
 21
278.268
  0
LINE
  8
0
 10
285.045
 20
278.268
 11
284.78
 21
278.242
  0
LINE
  8
0
 10
284.78
 20
278.242
 11
284.515
 21
278.268
  0
LINE
  8
0
 10
127.035
 20
278.268
 11
126.781
 21
278.345
  0
LINE
  8
0
 10
126.781
 20
278.345
 11
126.547
 21
278.471
  0
LINE
  8
0
 10
126.547
 20
278.471
 11
126.341
 21
278.639
  0
LINE
  8
0
 10
126.341
 20
278.639
 11
126.172
 21
278.845
  0
LINE
  8
0
 10
126.172
 20
278.845
 11
126.047
 21
279.079
  0
LINE
  8
0
 10
126.047
 20
279.079
 11
125.97
 21
279.334
  0
LINE
  8
0
 10
125.97
 20
279.334
 11
125.944
 21
279.598
  0
LINE
  8
0
 10
125.944
 20
279.598
 11
125.97
 21
279.863
  0
LINE
  8
0
 10
125.97
 20
279.863
 11
126.047
 21
280.117
  0
LINE
  8
0
 10
126.047
 20
280.117
 11
126.172
 21
280.352
  0
LINE
  8
0
 10
126.172
 20
280.352
 11
126.341
 21
280.557
  0
LINE
  8
0
 10
126.341
 20
280.557
 11
126.547
 21
280.726
  0
LINE
  8
0
 10
126.547
 20
280.726
 11
126.781
 21
280.851
  0
LINE
  8
0
 10
126.781
 20
280.851
 11
127.035
 21
280.928
  0
LINE
  8
0
 10
127.035
 20
280.928
 11
127.3
 21
280.954
  0
LINE
  8
0
 10
127.3
 20
280.954
 11
127.565
 21
280.928
  0
LINE
  8
0
 10
127.565
 20
280.928
 11
127.819
 21
280.851
  0
LINE
  8
0
 10
127.819
 20
280.851
 11
128.053
 21
280.726
  0
LINE
  8
0
 10
128.053
 20
280.726
 11
128.259
 21
280.557
  0
LINE
  8
0
 10
128.259
 20
280.557
 11
128.428
 21
280.352
  0
LINE
  8
0
 10
128.428
 20
280.352
 11
128.553
 21
280.117
  0
LINE
  8
0
 10
128.553
 20
280.117
 11
128.63
 21
279.863
  0
LINE
  8
0
 10
128.63
 20
279.863
 11
128.656
 21
279.598
  0
LINE
  8
0
 10
128.656
 20
279.598
 11
128.63
 21
279.334
  0
LINE
  8
0
 10
128.63
 20
279.334
 11
128.553
 21
279.079
  0
LINE
  8
0
 10
128.553
 20
279.079
 11
128.428
 21
278.845
  0
LINE
  8
0
 10
128.428
 20
278.845
 11
128.259
 21
278.639
  0
LINE
  8
0
 10
128.259
 20
278.639
 11
128.053
 21
278.471
  0
LINE
  8
0
 10
128.053
 20
278.471
 11
127.819
 21
278.345
  0
LINE
  8
0
 10
127.819
 20
278.345
 11
127.565
 21
278.268
  0
LINE
  8
0
 10
127.565
 20
278.268
 11
127.3
 21
278.242
  0
LINE
  8
0
 10
127.3
 20
278.242
 11
127.035
 21
278.268
  0
LINE
  8
0
 10
348.735
 20
238.67
 11
348.481
 21
238.747
  0
LINE
  8
0
 10
348.481
 20
238.747
 11
348.247
 21
238.872
  0
LINE
  8
0
 10
348.247
 20
238.872
 11
348.041
 21
239.041
  0
LINE
  8
0
 10
348.041
 20
239.041
 11
347.872
 21
239.247
  0
LINE
  8
0
 10
347.872
 20
239.247
 11
347.747
 21
239.481
  0
LINE
  8
0
 10
347.747
 20
239.481
 11
347.67
 21
239.735
  0
LINE
  8
0
 10
347.67
 20
239.735
 11
347.644
 21
240
  0
LINE
  8
0
 10
347.644
 20
240
 11
347.67
 21
240.265
  0
LINE
  8
0
 10
347.67
 20
240.265
 11
347.747
 21
240.519
  0
LINE
  8
0
 10
347.747
 20
240.519
 11
347.872
 21
240.753
  0
LINE
  8
0
 10
347.872
 20
240.753
 11
348.041
 21
240.959
  0
LINE
  8
0
 10
348.041
 20
240.959
 11
348.247
 21
241.128
  0
LINE
  8
0
 10
348.247
 20
241.128
 11
348.481
 21
241.253
  0
LINE
  8
0
 10
348.481
 20
241.253
 11
348.735
 21
241.33
  0
LINE
  8
0
 10
348.735
 20
241.33
 11
349
 21
241.356
  0
LINE
  8
0
 10
349
 20
241.356
 11
349.265
 21
241.33
  0
LINE
  8
0
 10
349.265
 20
241.33
 11
349.519
 21
241.253
  0
LINE
  8
0
 10
349.519
 20
241.253
 11
349.753
 21
241.128
  0
LINE
  8
0
 10
349.753
 20
241.128
 11
349.959
 21
240.959
  0
LINE
  8
0
 10
349.959
 20
240.959
 11
350.128
 21
240.753
  0
LINE
  8
0
 10
350.128
 20
240.753
 11
350.253
 21
240.519
  0
LINE
  8
0
 10
350.253
 20
240.519
 11
350.33
 21
240.265
  0
LINE
  8
0
 10
350.33
 20
240.265
 11
350.356
 21
240
  0
LINE
  8
0
 10
350.356
 20
240
 11
350.33
 21
239.735
  0
LINE
  8
0
 10
350.33
 20
239.735
 11
350.253
 21
239.481
  0
LINE
  8
0
 10
350.253
 20
239.481
 11
350.128
 21
239.247
  0
LINE
  8
0
 10
350.128
 20
239.247
 11
349.959
 21
239.041
  0
LINE
  8
0
 10
349.959
 20
239.041
 11
349.753
 21
238.872
  0
LINE
  8
0
 10
349.753
 20
238.872
 11
349.519
 21
238.747
  0
LINE
  8
0
 10
349.519
 20
238.747
 11
349.265
 21
238.67
  0
LINE
  8
0
 10
349.265
 20
238.67
 11
349
 21
238.644
  0
LINE
  8
0
 10
349
 20
238.644
 11
348.735
 21
238.67
  0
LINE
  8
0
 10
300.735
 20
238.67
 11
300.481
 21
238.747
  0
LINE
  8
0
 10
300.481
 20
238.747
 11
300.247
 21
238.872
  0
LINE
  8
0
 10
300.247
 20
238.872
 11
300.041
 21
239.041
  0
LINE
  8
0
 10
300.041
 20
239.041
 11
299.872
 21
239.247
  0
LINE
  8
0
 10
299.872
 20
239.247
 11
299.747
 21
239.481
  0
LINE
  8
0
 10
299.747
 20
239.481
 11
299.67
 21
239.735
  0
LINE
  8
0
 10
299.67
 20
239.735
 11
299.644
 21
240
  0
LINE
  8
0
 10
299.644
 20
240
 11
299.67
 21
240.265
  0
LINE
  8
0
 10
299.67
 20
240.265
 11
299.747
 21
240.519
  0
LINE
  8
0
 10
299.747
 20
240.519
 11
299.872
 21
240.753
  0
LINE
  8
0
 10
299.872
 20
240.753
 11
300.041
 21
240.959
  0
LINE
  8
0
 10
300.041
 20
240.959
 11
300.247
 21
241.128
  0
LINE
  8
0
 10
300.247
 20
241.128
 11
300.481
 21
241.253
  0
LINE
  8
0
 10
300.481
 20
241.253
 11
300.735
 21
241.33
  0
LINE
  8
0
 10
300.735
 20
241.33
 11
301
 21
241.356
  0
LINE
  8
0
 10
301
 20
241.356
 11
301.265
 21
241.33
  0
LINE
  8
0
 10
301.265
 20
241.33
 11
301.519
 21
241.253
  0
LINE
  8
0
 10
301.519
 20
241.253
 11
301.753
 21
241.128
  0
LINE
  8
0
 10
301.753
 20
241.128
 11
301.959
 21
240.959
  0
LINE
  8
0
 10
301.959
 20
240.959
 11
302.128
 21
240.753
  0
LINE
  8
0
 10
302.128
 20
240.753
 11
302.253
 21
240.519
  0
LINE
  8
0
 10
302.253
 20
240.519
 11
302.33
 21
240.265
  0
LINE
  8
0
 10
302.33
 20
240.265
 11
302.356
 21
240
  0
LINE
  8
0
 10
302.356
 20
240
 11
302.33
 21
239.735
  0
LINE
  8
0
 10
302.33
 20
239.735
 11
302.253
 21
239.481
  0
LINE
  8
0
 10
302.253
 20
239.481
 11
302.128
 21
239.247
  0
LINE
  8
0
 10
302.128
 20
239.247
 11
301.959
 21
239.041
  0
LINE
  8
0
 10
301.959
 20
239.041
 11
301.753
 21
238.872
  0
LINE
  8
0
 10
301.753
 20
238.872
 11
301.519
 21
238.747
  0
LINE
  8
0
 10
301.519
 20
238.747
 11
301.265
 21
238.67
  0
LINE
  8
0
 10
301.265
 20
238.67
 11
301
 21
238.644
  0
LINE
  8
0
 10
301
 20
238.644
 11
300.735
 21
238.67
  0
LINE
  8
0
 10
81.3154
 20
205.878
 11
81.0611
 21
205.955
  0
LINE
  8
0
 10
81.0611
 20
205.955
 11
80.8266
 21
206.081
  0
LINE
  8
0
 10
80.8266
 20
206.081
 11
80.6211
 21
206.249
  0
LINE
  8
0
 10
80.6211
 20
206.249
 11
80.4525
 21
206.455
  0
LINE
  8
0
 10
80.4525
 20
206.455
 11
80.3272
 21
206.689
  0
LINE
  8
0
 10
80.3272
 20
206.689
 11
80.25
 21
206.944
  0
LINE
  8
0
 10
80.25
 20
206.944
 11
80.224
 21
207.208
  0
LINE
  8
0
 10
80.224
 20
207.208
 11
80.25
 21
207.473
  0
LINE
  8
0
 10
80.25
 20
207.473
 11
80.3272
 21
207.727
  0
LINE
  8
0
 10
80.3272
 20
207.727
 11
80.4525
 21
207.962
  0
LINE
  8
0
 10
80.4525
 20
207.962
 11
80.6211
 21
208.167
  0
LINE
  8
0
 10
80.6211
 20
208.167
 11
80.8266
 21
208.336
  0
LINE
  8
0
 10
80.8266
 20
208.336
 11
81.0611
 21
208.461
  0
LINE
  8
0
 10
81.0611
 20
208.461
 11
81.3154
 21
208.538
  0
LINE
  8
0
 10
81.3154
 20
208.538
 11
81.58
 21
208.564
  0
LINE
  8
0
 10
81.58
 20
208.564
 11
81.8445
 21
208.538
  0
LINE
  8
0
 10
81.8445
 20
208.538
 11
82.0989
 21
208.461
  0
LINE
  8
0
 10
82.0989
 20
208.461
 11
82.3334
 21
208.336
  0
LINE
  8
0
 10
82.3334
 20
208.336
 11
82.5389
 21
208.167
  0
LINE
  8
0
 10
82.5389
 20
208.167
 11
82.7075
 21
207.962
  0
LINE
  8
0
 10
82.7075
 20
207.962
 11
82.8328
 21
207.727
  0
LINE
  8
0
 10
82.8328
 20
207.727
 11
82.91
 21
207.473
  0
LINE
  8
0
 10
82.91
 20
207.473
 11
82.9361
 21
207.208
  0
LINE
  8
0
 10
82.9361
 20
207.208
 11
82.91
 21
206.944
  0
LINE
  8
0
 10
82.91
 20
206.944
 11
82.8328
 21
206.689
  0
LINE
  8
0
 10
82.8328
 20
206.689
 11
82.7075
 21
206.455
  0
LINE
  8
0
 10
82.7075
 20
206.455
 11
82.5389
 21
206.249
  0
LINE
  8
0
 10
82.5389
 20
206.249
 11
82.3334
 21
206.081
  0
LINE
  8
0
 10
82.3334
 20
206.081
 11
82.0989
 21
205.955
  0
LINE
  8
0
 10
82.0989
 20
205.955
 11
81.8445
 21
205.878
  0
LINE
  8
0
 10
81.8445
 20
205.878
 11
81.58
 21
205.852
  0
LINE
  8
0
 10
81.58
 20
205.852
 11
81.3154
 21
205.878
  0
LINE
  8
0
 10
60.9954
 20
205.878
 11
60.7411
 21
205.955
  0
LINE
  8
0
 10
60.7411
 20
205.955
 11
60.5066
 21
206.081
  0
LINE
  8
0
 10
60.5066
 20
206.081
 11
60.3011
 21
206.249
  0
LINE
  8
0
 10
60.3011
 20
206.249
 11
60.1325
 21
206.455
  0
LINE
  8
0
 10
60.1325
 20
206.455
 11
60.0072
 21
206.689
  0
LINE
  8
0
 10
60.0072
 20
206.689
 11
59.93
 21
206.944
  0
LINE
  8
0
 10
59.93
 20
206.944
 11
59.9039
 21
207.208
  0
LINE
  8
0
 10
59.9039
 20
207.208
 11
59.93
 21
207.473
  0
LINE
  8
0
 10
59.93
 20
207.473
 11
60.0072
 21
207.727
  0
LINE
  8
0
 10
60.0072
 20
207.727
 11
60.1325
 21
207.962
  0
LINE
  8
0
 10
60.1325
 20
207.962
 11
60.3011
 21
208.167
  0
LINE
  8
0
 10
60.3011
 20
208.167
 11
60.5066
 21
208.336
  0
LINE
  8
0
 10
60.5066
 20
208.336
 11
60.7411
 21
208.461
  0
LINE
  8
0
 10
60.7411
 20
208.461
 11
60.9954
 21
208.538
  0
LINE
  8
0
 10
60.9954
 20
208.538
 11
61.26
 21
208.564
  0
LINE
  8
0
 10
61.26
 20
208.564
 11
61.5246
 21
208.538
  0
LINE
  8
0
 10
61.5246
 20
208.538
 11
61.7789
 21
208.461
  0
LINE
  8
0
 10
61.7789
 20
208.461
 11
62.0134
 21
208.336
  0
LINE
  8
0
 10
62.0134
 20
208.336
 11
62.2189
 21
208.167
  0
LINE
  8
0
 10
62.2189
 20
208.167
 11
62.3875
 21
207.962
  0
LINE
  8
0
 10
62.3875
 20
207.962
 11
62.5128
 21
207.727
  0
LINE
  8
0
 10
62.5128
 20
207.727
 11
62.59
 21
207.473
  0
LINE
  8
0
 10
62.59
 20
207.473
 11
62.616
 21
207.208
  0
LINE
  8
0
 10
62.616
 20
207.208
 11
62.59
 21
206.944
  0
LINE
  8
0
 10
62.59
 20
206.944
 11
62.5128
 21
206.689
  0
LINE
  8
0
 10
62.5128
 20
206.689
 11
62.3875
 21
206.455
  0
LINE
  8
0
 10
62.3875
 20
206.455
 11
62.2189
 21
206.249
  0
LINE
  8
0
 10
62.2189
 20
206.249
 11
62.0134
 21
206.081
  0
LINE
  8
0
 10
62.0134
 20
206.081
 11
61.7789
 21
205.955
  0
LINE
  8
0
 10
61.7789
 20
205.955
 11
61.5246
 21
205.878
  0
LINE
  8
0
 10
61.5246
 20
205.878
 11
61.26
 21
205.852
  0
LINE
  8
0
 10
61.26
 20
205.852
 11
60.9954
 21
205.878
  0
LINE
  8
0
 10
127.035
 20
205.878
 11
126.781
 21
205.955
  0
LINE
  8
0
 10
126.781
 20
205.955
 11
126.547
 21
206.081
  0
LINE
  8
0
 10
126.547
 20
206.081
 11
126.341
 21
206.249
  0
LINE
  8
0
 10
126.341
 20
206.249
 11
126.172
 21
206.455
  0
LINE
  8
0
 10
126.172
 20
206.455
 11
126.047
 21
206.689
  0
LINE
  8
0
 10
126.047
 20
206.689
 11
125.97
 21
206.944
  0
LINE
  8
0
 10
125.97
 20
206.944
 11
125.944
 21
207.208
  0
LINE
  8
0
 10
125.944
 20
207.208
 11
125.97
 21
207.473
  0
LINE
  8
0
 10
125.97
 20
207.473
 11
126.047
 21
207.727
  0
LINE
  8
0
 10
126.047
 20
207.727
 11
126.172
 21
207.962
  0
LINE
  8
0
 10
126.172
 20
207.962
 11
126.341
 21
208.167
  0
LINE
  8
0
 10
126.341
 20
208.167
 11
126.547
 21
208.336
  0
LINE
  8
0
 10
126.547
 20
208.336
 11
126.781
 21
208.461
  0
LINE
  8
0
 10
126.781
 20
208.461
 11
127.035
 21
208.538
  0
LINE
  8
0
 10
127.035
 20
208.538
 11
127.3
 21
208.564
  0
LINE
  8
0
 10
127.3
 20
208.564
 11
127.565
 21
208.538
  0
LINE
  8
0
 10
127.565
 20
208.538
 11
127.819
 21
208.461
  0
LINE
  8
0
 10
127.819
 20
208.461
 11
128.053
 21
208.336
  0
LINE
  8
0
 10
128.053
 20
208.336
 11
128.259
 21
208.167
  0
LINE
  8
0
 10
128.259
 20
208.167
 11
128.428
 21
207.962
  0
LINE
  8
0
 10
128.428
 20
207.962
 11
128.553
 21
207.727
  0
LINE
  8
0
 10
128.553
 20
207.727
 11
128.63
 21
207.473
  0
LINE
  8
0
 10
128.63
 20
207.473
 11
128.656
 21
207.208
  0
LINE
  8
0
 10
128.656
 20
207.208
 11
128.63
 21
206.944
  0
LINE
  8
0
 10
128.63
 20
206.944
 11
128.553
 21
206.689
  0
LINE
  8
0
 10
128.553
 20
206.689
 11
128.428
 21
206.455
  0
LINE
  8
0
 10
128.428
 20
206.455
 11
128.259
 21
206.249
  0
LINE
  8
0
 10
128.259
 20
206.249
 11
128.053
 21
206.081
  0
LINE
  8
0
 10
128.053
 20
206.081
 11
127.819
 21
205.955
  0
LINE
  8
0
 10
127.819
 20
205.955
 11
127.565
 21
205.878
  0
LINE
  8
0
 10
127.565
 20
205.878
 11
127.3
 21
205.852
  0
LINE
  8
0
 10
127.3
 20
205.852
 11
127.035
 21
205.878
  0
LINE
  8
0
 10
284.515
 20
205.878
 11
284.261
 21
205.955
  0
LINE
  8
0
 10
284.261
 20
205.955
 11
284.027
 21
206.081
  0
LINE
  8
0
 10
284.027
 20
206.081
 11
283.821
 21
206.249
  0
LINE
  8
0
 10
283.821
 20
206.249
 11
283.652
 21
206.455
  0
LINE
  8
0
 10
283.652
 20
206.455
 11
283.527
 21
206.689
  0
LINE
  8
0
 10
283.527
 20
206.689
 11
283.45
 21
206.944
  0
LINE
  8
0
 10
283.45
 20
206.944
 11
283.424
 21
207.208
  0
LINE
  8
0
 10
283.424
 20
207.208
 11
283.45
 21
207.473
  0
LINE
  8
0
 10
283.45
 20
207.473
 11
283.527
 21
207.727
  0
LINE
  8
0
 10
283.527
 20
207.727
 11
283.652
 21
207.962
  0
LINE
  8
0
 10
283.652
 20
207.962
 11
283.821
 21
208.167
  0
LINE
  8
0
 10
283.821
 20
208.167
 11
284.027
 21
208.336
  0
LINE
  8
0
 10
284.027
 20
208.336
 11
284.261
 21
208.461
  0
LINE
  8
0
 10
284.261
 20
208.461
 11
284.515
 21
208.538
  0
LINE
  8
0
 10
284.515
 20
208.538
 11
284.78
 21
208.564
  0
LINE
  8
0
 10
284.78
 20
208.564
 11
285.045
 21
208.538
  0
LINE
  8
0
 10
285.045
 20
208.538
 11
285.299
 21
208.461
  0
LINE
  8
0
 10
285.299
 20
208.461
 11
285.533
 21
208.336
  0
LINE
  8
0
 10
285.533
 20
208.336
 11
285.739
 21
208.167
  0
LINE
  8
0
 10
285.739
 20
208.167
 11
285.908
 21
207.962
  0
LINE
  8
0
 10
285.908
 20
207.962
 11
286.033
 21
207.727
  0
LINE
  8
0
 10
286.033
 20
207.727
 11
286.11
 21
207.473
  0
LINE
  8
0
 10
286.11
 20
207.473
 11
286.136
 21
207.208
  0
LINE
  8
0
 10
286.136
 20
207.208
 11
286.11
 21
206.944
  0
LINE
  8
0
 10
286.11
 20
206.944
 11
286.033
 21
206.689
  0
LINE
  8
0
 10
286.033
 20
206.689
 11
285.908
 21
206.455
  0
LINE
  8
0
 10
285.908
 20
206.455
 11
285.739
 21
206.249
  0
LINE
  8
0
 10
285.739
 20
206.249
 11
285.533
 21
206.081
  0
LINE
  8
0
 10
285.533
 20
206.081
 11
285.299
 21
205.955
  0
LINE
  8
0
 10
285.299
 20
205.955
 11
285.045
 21
205.878
  0
LINE
  8
0
 10
285.045
 20
205.878
 11
284.78
 21
205.852
  0
LINE
  8
0
 10
284.78
 20
205.852
 11
284.515
 21
205.878
  0
LINE
  8
0
 10
348.735
 20
158.67
 11
348.481
 21
158.747
  0
LINE
  8
0
 10
348.481
 20
158.747
 11
348.247
 21
158.872
  0
LINE
  8
0
 10
348.247
 20
158.872
 11
348.041
 21
159.041
  0
LINE
  8
0
 10
348.041
 20
159.041
 11
347.872
 21
159.247
  0
LINE
  8
0
 10
347.872
 20
159.247
 11
347.747
 21
159.481
  0
LINE
  8
0
 10
347.747
 20
159.481
 11
347.67
 21
159.735
  0
LINE
  8
0
 10
347.67
 20
159.735
 11
347.644
 21
160
  0
LINE
  8
0
 10
347.644
 20
160
 11
347.67
 21
160.265
  0
LINE
  8
0
 10
347.67
 20
160.265
 11
347.747
 21
160.519
  0
LINE
  8
0
 10
347.747
 20
160.519
 11
347.872
 21
160.753
  0
LINE
  8
0
 10
347.872
 20
160.753
 11
348.041
 21
160.959
  0
LINE
  8
0
 10
348.041
 20
160.959
 11
348.247
 21
161.128
  0
LINE
  8
0
 10
348.247
 20
161.128
 11
348.481
 21
161.253
  0
LINE
  8
0
 10
348.481
 20
161.253
 11
348.735
 21
161.33
  0
LINE
  8
0
 10
348.735
 20
161.33
 11
349
 21
161.356
  0
LINE
  8
0
 10
349
 20
161.356
 11
349.265
 21
161.33
  0
LINE
  8
0
 10
349.265
 20
161.33
 11
349.519
 21
161.253
  0
LINE
  8
0
 10
349.519
 20
161.253
 11
349.753
 21
161.128
  0
LINE
  8
0
 10
349.753
 20
161.128
 11
349.959
 21
160.959
  0
LINE
  8
0
 10
349.959
 20
160.959
 11
350.128
 21
160.753
  0
LINE
  8
0
 10
350.128
 20
160.753
 11
350.253
 21
160.519
  0
LINE
  8
0
 10
350.253
 20
160.519
 11
350.33
 21
160.265
  0
LINE
  8
0
 10
350.33
 20
160.265
 11
350.356
 21
160
  0
LINE
  8
0
 10
350.356
 20
160
 11
350.33
 21
159.735
  0
LINE
  8
0
 10
350.33
 20
159.735
 11
350.253
 21
159.481
  0
LINE
  8
0
 10
350.253
 20
159.481
 11
350.128
 21
159.247
  0
LINE
  8
0
 10
350.128
 20
159.247
 11
349.959
 21
159.041
  0
LINE
  8
0
 10
349.959
 20
159.041
 11
349.753
 21
158.872
  0
LINE
  8
0
 10
349.753
 20
158.872
 11
349.519
 21
158.747
  0
LINE
  8
0
 10
349.519
 20
158.747
 11
349.265
 21
158.67
  0
LINE
  8
0
 10
349.265
 20
158.67
 11
349
 21
158.644
  0
LINE
  8
0
 10
349
 20
158.644
 11
348.735
 21
158.67
  0
LINE
  8
0
 10
300.735
 20
158.67
 11
300.481
 21
158.747
  0
LINE
  8
0
 10
300.481
 20
158.747
 11
300.247
 21
158.872
  0
LINE
  8
0
 10
300.247
 20
158.872
 11
300.041
 21
159.041
  0
LINE
  8
0
 10
300.041
 20
159.041
 11
299.872
 21
159.247
  0
LINE
  8
0
 10
299.872
 20
159.247
 11
299.747
 21
159.481
  0
LINE
  8
0
 10
299.747
 20
159.481
 11
299.67
 21
159.735
  0
LINE
  8
0
 10
299.67
 20
159.735
 11
299.644
 21
160
  0
LINE
  8
0
 10
299.644
 20
160
 11
299.67
 21
160.265
  0
LINE
  8
0
 10
299.67
 20
160.265
 11
299.747
 21
160.519
  0
LINE
  8
0
 10
299.747
 20
160.519
 11
299.872
 21
160.753
  0
LINE
  8
0
 10
299.872
 20
160.753
 11
300.041
 21
160.959
  0
LINE
  8
0
 10
300.041
 20
160.959
 11
300.247
 21
161.128
  0
LINE
  8
0
 10
300.247
 20
161.128
 11
300.481
 21
161.253
  0
LINE
  8
0
 10
300.481
 20
161.253
 11
300.735
 21
161.33
  0
LINE
  8
0
 10
300.735
 20
161.33
 11
301
 21
161.356
  0
LINE
  8
0
 10
301
 20
161.356
 11
301.265
 21
161.33
  0
LINE
  8
0
 10
301.265
 20
161.33
 11
301.519
 21
161.253
  0
LINE
  8
0
 10
301.519
 20
161.253
 11
301.753
 21
161.128
  0
LINE
  8
0
 10
301.753
 20
161.128
 11
301.959
 21
160.959
  0
LINE
  8
0
 10
301.959
 20
160.959
 11
302.128
 21
160.753
  0
LINE
  8
0
 10
302.128
 20
160.753
 11
302.253
 21
160.519
  0
LINE
  8
0
 10
302.253
 20
160.519
 11
302.33
 21
160.265
  0
LINE
  8
0
 10
302.33
 20
160.265
 11
302.356
 21
160
  0
LINE
  8
0
 10
302.356
 20
160
 11
302.33
 21
159.735
  0
LINE
  8
0
 10
302.33
 20
159.735
 11
302.253
 21
159.481
  0
LINE
  8
0
 10
302.253
 20
159.481
 11
302.128
 21
159.247
  0
LINE
  8
0
 10
302.128
 20
159.247
 11
301.959
 21
159.041
  0
LINE
  8
0
 10
301.959
 20
159.041
 11
301.753
 21
158.872
  0
LINE
  8
0
 10
301.753
 20
158.872
 11
301.519
 21
158.747
  0
LINE
  8
0
 10
301.519
 20
158.747
 11
301.265
 21
158.67
  0
LINE
  8
0
 10
301.265
 20
158.67
 11
301
 21
158.644
  0
LINE
  8
0
 10
301
 20
158.644
 11
300.735
 21
158.67
  0
LINE
  8
0
 10
284.515
 20
73.7982
 11
284.261
 21
73.8754
  0
LINE
  8
0
 10
284.261
 20
73.8754
 11
284.027
 21
74.0007
  0
LINE
  8
0
 10
284.027
 20
74.0007
 11
283.821
 21
74.1693
  0
LINE
  8
0
 10
283.821
 20
74.1693
 11
283.652
 21
74.3748
  0
LINE
  8
0
 10
283.652
 20
74.3748
 11
283.527
 21
74.6093
  0
LINE
  8
0
 10
283.527
 20
74.6093
 11
283.45
 21
74.8636
  0
LINE
  8
0
 10
283.45
 20
74.8636
 11
283.424
 21
75.1282
  0
LINE
  8
0
 10
283.424
 20
75.1282
 11
283.45
 21
75.3927
  0
LINE
  8
0
 10
283.45
 20
75.3927
 11
283.527
 21
75.6471
  0
LINE
  8
0
 10
283.527
 20
75.6471
 11
283.652
 21
75.8816
  0
LINE
  8
0
 10
283.652
 20
75.8816
 11
283.821
 21
76.0871
  0
LINE
  8
0
 10
283.821
 20
76.0871
 11
284.027
 21
76.2557
  0
LINE
  8
0
 10
284.027
 20
76.2557
 11
284.261
 21
76.381
  0
LINE
  8
0
 10
284.261
 20
76.381
 11
284.515
 21
76.4582
  0
LINE
  8
0
 10
284.515
 20
76.4582
 11
284.78
 21
76.4842
  0
LINE
  8
0
 10
284.78
 20
76.4842
 11
285.045
 21
76.4582
  0
LINE
  8
0
 10
285.045
 20
76.4582
 11
285.299
 21
76.381
  0
LINE
  8
0
 10
285.299
 20
76.381
 11
285.533
 21
76.2557
  0
LINE
  8
0
 10
285.533
 20
76.2557
 11
285.739
 21
76.0871
  0
LINE
  8
0
 10
285.739
 20
76.0871
 11
285.908
 21
75.8816
  0
LINE
  8
0
 10
285.908
 20
75.8816
 11
286.033
 21
75.6471
  0
LINE
  8
0
 10
286.033
 20
75.6471
 11
286.11
 21
75.3927
  0
LINE
  8
0
 10
286.11
 20
75.3927
 11
286.136
 21
75.1282
  0
LINE
  8
0
 10
286.136
 20
75.1282
 11
286.11
 21
74.8636
  0
LINE
  8
0
 10
286.11
 20
74.8636
 11
286.033
 21
74.6093
  0
LINE
  8
0
 10
286.033
 20
74.6093
 11
285.908
 21
74.3748
  0
LINE
  8
0
 10
285.908
 20
74.3748
 11
285.739
 21
74.1693
  0
LINE
  8
0
 10
285.739
 20
74.1693
 11
285.533
 21
74.0007
  0
LINE
  8
0
 10
285.533
 20
74.0007
 11
285.299
 21
73.8754
  0
LINE
  8
0
 10
285.299
 20
73.8754
 11
285.045
 21
73.7982
  0
LINE
  8
0
 10
285.045
 20
73.7982
 11
284.78
 21
73.7722
  0
LINE
  8
0
 10
284.78
 20
73.7722
 11
284.515
 21
73.7982
  0
LINE
  8
0
 10
81.3154
 20
50.9382
 11
81.0611
 21
51.0154
  0
LINE
  8
0
 10
81.0611
 20
51.0154
 11
80.8266
 21
51.1407
  0
LINE
  8
0
 10
80.8266
 20
51.1407
 11
80.6211
 21
51.3093
  0
LINE
  8
0
 10
80.6211
 20
51.3093
 11
80.4525
 21
51.5148
  0
LINE
  8
0
 10
80.4525
 20
51.5148
 11
80.3272
 21
51.7493
  0
LINE
  8
0
 10
80.3272
 20
51.7493
 11
80.25
 21
52.0036
  0
LINE
  8
0
 10
80.25
 20
52.0036
 11
80.224
 21
52.2682
  0
LINE
  8
0
 10
80.224
 20
52.2682
 11
80.25
 21
52.5327
  0
LINE
  8
0
 10
80.25
 20
52.5327
 11
80.3272
 21
52.7871
  0
LINE
  8
0
 10
80.3272
 20
52.7871
 11
80.4525
 21
53.0216
  0
LINE
  8
0
 10
80.4525
 20
53.0216
 11
80.6211
 21
53.2271
  0
LINE
  8
0
 10
80.6211
 20
53.2271
 11
80.8266
 21
53.3957
  0
LINE
  8
0
 10
80.8266
 20
53.3957
 11
81.0611
 21
53.521
  0
LINE
  8
0
 10
81.0611
 20
53.521
 11
81.3154
 21
53.5982
  0
LINE
  8
0
 10
81.3154
 20
53.5982
 11
81.58
 21
53.6242
  0
LINE
  8
0
 10
81.58
 20
53.6242
 11
81.8445
 21
53.5982
  0
LINE
  8
0
 10
81.8445
 20
53.5982
 11
82.0989
 21
53.521
  0
LINE
  8
0
 10
82.0989
 20
53.521
 11
82.3334
 21
53.3957
  0
LINE
  8
0
 10
82.3334
 20
53.3957
 11
82.5389
 21
53.2271
  0
LINE
  8
0
 10
82.5389
 20
53.2271
 11
82.7075
 21
53.0216
  0
LINE
  8
0
 10
82.7075
 20
53.0216
 11
82.8328
 21
52.7871
  0
LINE
  8
0
 10
82.8328
 20
52.7871
 11
82.91
 21
52.5327
  0
LINE
  8
0
 10
82.91
 20
52.5327
 11
82.9361
 21
52.2682
  0
LINE
  8
0
 10
82.9361
 20
52.2682
 11
82.91
 21
52.0036
  0
LINE
  8
0
 10
82.91
 20
52.0036
 11
82.8328
 21
51.7493
  0
LINE
  8
0
 10
82.8328
 20
51.7493
 11
82.7075
 21
51.5148
  0
LINE
  8
0
 10
82.7075
 20
51.5148
 11
82.5389
 21
51.3093
  0
LINE
  8
0
 10
82.5389
 20
51.3093
 11
82.3334
 21
51.1407
  0
LINE
  8
0
 10
82.3334
 20
51.1407
 11
82.0989
 21
51.0154
  0
LINE
  8
0
 10
82.0989
 20
51.0154
 11
81.8445
 21
50.9382
  0
LINE
  8
0
 10
81.8445
 20
50.9382
 11
81.58
 21
50.9121
  0
LINE
  8
0
 10
81.58
 20
50.9121
 11
81.3154
 21
50.9382
  0
LINE
  8
0
 10
127.035
 20
50.9382
 11
126.781
 21
51.0154
  0
LINE
  8
0
 10
126.781
 20
51.0154
 11
126.547
 21
51.1407
  0
LINE
  8
0
 10
126.547
 20
51.1407
 11
126.341
 21
51.3093
  0
LINE
  8
0
 10
126.341
 20
51.3093
 11
126.172
 21
51.5148
  0
LINE
  8
0
 10
126.172
 20
51.5148
 11
126.047
 21
51.7493
  0
LINE
  8
0
 10
126.047
 20
51.7493
 11
125.97
 21
52.0036
  0
LINE
  8
0
 10
125.97
 20
52.0036
 11
125.944
 21
52.2682
  0
LINE
  8
0
 10
125.944
 20
52.2682
 11
125.97
 21
52.5327
  0
LINE
  8
0
 10
125.97
 20
52.5327
 11
126.047
 21
52.7871
  0
LINE
  8
0
 10
126.047
 20
52.7871
 11
126.172
 21
53.0216
  0
LINE
  8
0
 10
126.172
 20
53.0216
 11
126.341
 21
53.2271
  0
LINE
  8
0
 10
126.341
 20
53.2271
 11
126.547
 21
53.3957
  0
LINE
  8
0
 10
126.547
 20
53.3957
 11
126.781
 21
53.521
  0
LINE
  8
0
 10
126.781
 20
53.521
 11
127.035
 21
53.5982
  0
LINE
  8
0
 10
127.035
 20
53.5982
 11
127.3
 21
53.6242
  0
LINE
  8
0
 10
127.3
 20
53.6242
 11
127.565
 21
53.5982
  0
LINE
  8
0
 10
127.565
 20
53.5982
 11
127.819
 21
53.521
  0
LINE
  8
0
 10
127.819
 20
53.521
 11
128.053
 21
53.3957
  0
LINE
  8
0
 10
128.053
 20
53.3957
 11
128.259
 21
53.2271
  0
LINE
  8
0
 10
128.259
 20
53.2271
 11
128.428
 21
53.0216
  0
LINE
  8
0
 10
128.428
 20
53.0216
 11
128.553
 21
52.7871
  0
LINE
  8
0
 10
128.553
 20
52.7871
 11
128.63
 21
52.5327
  0
LINE
  8
0
 10
128.63
 20
52.5327
 11
128.656
 21
52.2682
  0
LINE
  8
0
 10
128.656
 20
52.2682
 11
128.63
 21
52.0036
  0
LINE
  8
0
 10
128.63
 20
52.0036
 11
128.553
 21
51.7493
  0
LINE
  8
0
 10
128.553
 20
51.7493
 11
128.428
 21
51.5148
  0
LINE
  8
0
 10
128.428
 20
51.5148
 11
128.259
 21
51.3093
  0
LINE
  8
0
 10
128.259
 20
51.3093
 11
128.053
 21
51.1407
  0
LINE
  8
0
 10
128.053
 20
51.1407
 11
127.819
 21
51.0154
  0
LINE
  8
0
 10
127.819
 20
51.0154
 11
127.565
 21
50.9382
  0
LINE
  8
0
 10
127.565
 20
50.9382
 11
127.3
 21
50.9121
  0
LINE
  8
0
 10
127.3
 20
50.9121
 11
127.035
 21
50.9382
  0
LINE
  8
0
 10
39.6864
 20
38.4236
 11
39.3849
 21
38.5151
  0
LINE
  8
0
 10
39.3849
 20
38.5151
 11
39.1071
 21
38.6636
  0
LINE
  8
0
 10
39.1071
 20
38.6636
 11
38.8635
 21
38.8635
  0
LINE
  8
0
 10
38.8635
 20
38.8635
 11
38.6636
 21
39.1071
  0
LINE
  8
0
 10
38.6636
 20
39.1071
 11
38.5151
 21
39.3849
  0
LINE
  8
0
 10
38.5151
 20
39.3849
 11
38.4236
 21
39.6864
  0
LINE
  8
0
 10
38.4236
 20
39.6864
 11
38.3927
 21
40
  0
LINE
  8
0
 10
38.3927
 20
40
 11
38.4236
 21
40.3136
  0
LINE
  8
0
 10
38.4236
 20
40.3136
 11
38.5151
 21
40.6151
  0
LINE
  8
0
 10
38.5151
 20
40.6151
 11
38.6636
 21
40.8929
  0
LINE
  8
0
 10
38.6636
 20
40.8929
 11
38.8635
 21
41.1365
  0
LINE
  8
0
 10
38.8635
 20
41.1365
 11
39.1071
 21
41.3364
  0
LINE
  8
0
 10
39.1071
 20
41.3364
 11
39.3849
 21
41.4849
  0
LINE
  8
0
 10
39.3849
 20
41.4849
 11
39.6864
 21
41.5764
  0
LINE
  8
0
 10
39.6864
 20
41.5764
 11
40
 21
41.6073
  0
LINE
  8
0
 10
40
 20
41.6073
 11
40.3136
 21
41.5764
  0
LINE
  8
0
 10
40.3136
 20
41.5764
 11
40.6151
 21
41.4849
  0
LINE
  8
0
 10
40.6151
 20
41.4849
 11
40.8929
 21
41.3364
  0
LINE
  8
0
 10
40.8929
 20
41.3364
 11
41.1365
 21
41.1365
  0
LINE
  8
0
 10
41.1365
 20
41.1365
 11
41.3364
 21
40.8929
  0
LINE
  8
0
 10
41.3364
 20
40.8929
 11
41.4849
 21
40.6151
  0
LINE
  8
0
 10
41.4849
 20
40.6151
 11
41.5764
 21
40.3136
  0
LINE
  8
0
 10
41.5764
 20
40.3136
 11
41.6073
 21
40
  0
LINE
  8
0
 10
41.6073
 20
40
 11
41.5764
 21
39.6864
  0
LINE
  8
0
 10
41.5764
 20
39.6864
 11
41.4849
 21
39.3849
  0
LINE
  8
0
 10
41.4849
 20
39.3849
 11
41.3364
 21
39.1071
  0
LINE
  8
0
 10
41.3364
 20
39.1071
 11
41.1365
 21
38.8635
  0
LINE
  8
0
 10
41.1365
 20
38.8635
 11
40.8929
 21
38.6636
  0
LINE
  8
0
 10
40.8929
 20
38.6636
 11
40.6151
 21
38.5151
  0
LINE
  8
0
 10
40.6151
 20
38.5151
 11
40.3136
 21
38.4236
  0
LINE
  8
0
 10
40.3136
 20
38.4236
 11
40
 21
38.3927
  0
LINE
  8
0
 10
40
 20
38.3927
 11
39.6864
 21
38.4236
  0
LINE
  8
0
 10
359.686
 20
38.4236
 11
359.385
 21
38.5151
  0
LINE
  8
0
 10
359.385
 20
38.5151
 11
359.107
 21
38.6636
  0
LINE
  8
0
 10
359.107
 20
38.6636
 11
358.863
 21
38.8635
  0
LINE
  8
0
 10
358.863
 20
38.8635
 11
358.664
 21
39.1071
  0
LINE
  8
0
 10
358.664
 20
39.1071
 11
358.515
 21
39.3849
  0
LINE
  8
0
 10
358.515
 20
39.3849
 11
358.424
 21
39.6864
  0
LINE
  8
0
 10
358.424
 20
39.6864
 11
358.393
 21
40
  0
LINE
  8
0
 10
358.393
 20
40
 11
358.424
 21
40.3136
  0
LINE
  8
0
 10
358.424
 20
40.3136
 11
358.515
 21
40.6151
  0
LINE
  8
0
 10
358.515
 20
40.6151
 11
358.664
 21
40.8929
  0
LINE
  8
0
 10
358.664
 20
40.8929
 11
358.863
 21
41.1365
  0
LINE
  8
0
 10
358.863
 20
41.1365
 11
359.107
 21
41.3364
  0
LINE
  8
0
 10
359.107
 20
41.3364
 11
359.385
 21
41.4849
  0
LINE
  8
0
 10
359.385
 20
41.4849
 11
359.686
 21
41.5764
  0
LINE
  8
0
 10
359.686
 20
41.5764
 11
360
 21
41.6073
  0
LINE
  8
0
 10
360
 20
41.6073
 11
360.314
 21
41.5764
  0
LINE
  8
0
 10
360.314
 20
41.5764
 11
360.615
 21
41.4849
  0
LINE
  8
0
 10
360.615
 20
41.4849
 11
360.893
 21
41.3364
  0
LINE
  8
0
 10
360.893
 20
41.3364
 11
361.137
 21
41.1365
  0
LINE
  8
0
 10
361.137
 20
41.1365
 11
361.336
 21
40.8929
  0
LINE
  8
0
 10
361.336
 20
40.8929
 11
361.485
 21
40.6151
  0
LINE
  8
0
 10
361.485
 20
40.6151
 11
361.576
 21
40.3136
  0
LINE
  8
0
 10
361.576
 20
40.3136
 11
361.607
 21
40
  0
LINE
  8
0
 10
361.607
 20
40
 11
361.576
 21
39.6864
  0
LINE
  8
0
 10
361.576
 20
39.6864
 11
361.485
 21
39.3849
  0
LINE
  8
0
 10
361.485
 20
39.3849
 11
361.336
 21
39.1071
  0
LINE
  8
0
 10
361.336
 20
39.1071
 11
361.137
 21
38.8635
  0
LINE
  8
0
 10
361.137
 20
38.8635
 11
360.893
 21
38.6636
  0
LINE
  8
0
 10
360.893
 20
38.6636
 11
360.615
 21
38.5151
  0
LINE
  8
0
 10
360.615
 20
38.5151
 11
360.314
 21
38.4236
  0
LINE
  8
0
 10
360.314
 20
38.4236
 11
360
 21
38.3927
  0
LINE
  8
0
 10
360
 20
38.3927
 11
359.686
 21
38.4236
  0
LINE
  8
0
 10
444.912
 20
34
 11
675.088
 21
34
  0
LINE
  8
0
 10
675.088
 20
34
 11
681.088
 21
28
  0
LINE
  8
0
 10
681.088
 20
28
 11
726
 21
28
  0
LINE
  8
0
 10
726
 20
28
 11
732
 21
34
  0
LINE
  8
0
 10
732
 20
34
 11
732
 21
78.9117
  0
LINE
  8
0
 10
732
 20
78.9117
 11
726
 21
84.9117
  0
LINE
  8
0
 10
726
 20
84.9117
 11
726
 21
315.088
  0
LINE
  8
0
 10
726
 20
315.088
 11
732
 21
321.088
  0
LINE
  8
0
 10
732
 20
321.088
 11
732
 21
366
  0
LINE
  8
0
 10
732
 20
366
 11
726
 21
372
  0
LINE
  8
0
 10
726
 20
372
 11
681.088
 21
372
  0
LINE
  8
0
 10
681.088
 20
372
 11
675.088
 21
366
  0
LINE
  8
0
 10
675.088
 20
366
 11
444.912
 21
366
  0
LINE
  8
0
 10
444.912
 20
366
 11
438.912
 21
372
  0
LINE
  8
0
 10
438.912
 20
372
 11
394
 21
372
  0
LINE
  8
0
 10
394
 20
372
 11
388
 21
366
  0
LINE
  8
0
 10
388
 20
366
 11
388
 21
321.088
  0
LINE
  8
0
 10
388
 20
321.088
 11
394
 21
315.088
  0
LINE
  8
0
 10
394
 20
315.088
 11
394
 21
84.9117
  0
LINE
  8
0
 10
394
 20
84.9117
 11
388
 21
78.9117
  0
LINE
  8
0
 10
388
 20
78.9117
 11
388
 21
34
  0
LINE
  8
0
 10
388
 20
34
 11
394
 21
28
  0
LINE
  8
0
 10
394
 20
28
 11
438.912
 21
28
  0
LINE
  8
0
 10
438.912
 20
28
 11
444.912
 21
34
  0
LINE
  8
0
 10
719.686
 20
358.424
 11
719.385
 21
358.515
  0
LINE
  8
0
 10
719.385
 20
358.515
 11
719.107
 21
358.664
  0
LINE
  8
0
 10
719.107
 20
358.664
 11
718.864
 21
358.863
  0
LINE
  8
0
 10
718.864
 20
358.863
 11
718.664
 21
359.107
  0
LINE
  8
0
 10
718.664
 20
359.107
 11
718.515
 21
359.385
  0
LINE
  8
0
 10
718.515
 20
359.385
 11
718.424
 21
359.686
  0
LINE
  8
0
 10
718.424
 20
359.686
 11
718.393
 21
360
  0
LINE
  8
0
 10
718.393
 20
360
 11
718.424
 21
360.314
  0
LINE
  8
0
 10
718.424
 20
360.314
 11
718.515
 21
360.615
  0
LINE
  8
0
 10
718.515
 20
360.615
 11
718.664
 21
360.893
  0
LINE
  8
0
 10
718.664
 20
360.893
 11
718.864
 21
361.137
  0
LINE
  8
0
 10
718.864
 20
361.137
 11
719.107
 21
361.336
  0
LINE
  8
0
 10
719.107
 20
361.336
 11
719.385
 21
361.485
  0
LINE
  8
0
 10
719.385
 20
361.485
 11
719.686
 21
361.576
  0
LINE
  8
0
 10
719.686
 20
361.576
 11
720
 21
361.607
  0
LINE
  8
0
 10
720
 20
361.607
 11
720.314
 21
361.576
  0
LINE
  8
0
 10
720.314
 20
361.576
 11
720.615
 21
361.485
  0
LINE
  8
0
 10
720.615
 20
361.485
 11
720.893
 21
361.336
  0
LINE
  8
0
 10
720.893
 20
361.336
 11
721.136
 21
361.137
  0
LINE
  8
0
 10
721.136
 20
361.137
 11
721.336
 21
360.893
  0
LINE
  8
0
 10
721.336
 20
360.893
 11
721.485
 21
360.615
  0
LINE
  8
0
 10
721.485
 20
360.615
 11
721.576
 21
360.314
  0
LINE
  8
0
 10
721.576
 20
360.314
 11
721.607
 21
360
  0
LINE
  8
0
 10
721.607
 20
360
 11
721.576
 21
359.686
  0
LINE
  8
0
 10
721.576
 20
359.686
 11
721.485
 21
359.385
  0
LINE
  8
0
 10
721.485
 20
359.385
 11
721.336
 21
359.107
  0
LINE
  8
0
 10
721.336
 20
359.107
 11
721.136
 21
358.863
  0
LINE
  8
0
 10
721.136
 20
358.863
 11
720.893
 21
358.664
  0
LINE
  8
0
 10
720.893
 20
358.664
 11
720.615
 21
358.515
  0
LINE
  8
0
 10
720.615
 20
358.515
 11
720.314
 21
358.424
  0
LINE
  8
0
 10
720.314
 20
358.424
 11
720
 21
358.393
  0
LINE
  8
0
 10
720
 20
358.393
 11
719.686
 21
358.424
  0
LINE
  8
0
 10
399.686
 20
358.424
 11
399.385
 21
358.515
  0
LINE
  8
0
 10
399.385
 20
358.515
 11
399.107
 21
358.664
  0
LINE
  8
0
 10
399.107
 20
358.664
 11
398.863
 21
358.863
  0
LINE
  8
0
 10
398.863
 20
358.863
 11
398.664
 21
359.107
  0
LINE
  8
0
 10
398.664
 20
359.107
 11
398.515
 21
359.385
  0
LINE
  8
0
 10
398.515
 20
359.385
 11
398.424
 21
359.686
  0
LINE
  8
0
 10
398.424
 20
359.686
 11
398.393
 21
360
  0
LINE
  8
0
 10
398.393
 20
360
 11
398.424
 21
360.314
  0
LINE
  8
0
 10
398.424
 20
360.314
 11
398.515
 21
360.615
  0
LINE
  8
0
 10
398.515
 20
360.615
 11
398.664
 21
360.893
  0
LINE
  8
0
 10
398.664
 20
360.893
 11
398.863
 21
361.137
  0
LINE
  8
0
 10
398.863
 20
361.137
 11
399.107
 21
361.336
  0
LINE
  8
0
 10
399.107
 20
361.336
 11
399.385
 21
361.485
  0
LINE
  8
0
 10
399.385
 20
361.485
 11
399.686
 21
361.576
  0
LINE
  8
0
 10
399.686
 20
361.576
 11
400
 21
361.607
  0
LINE
  8
0
 10
400
 20
361.607
 11
400.314
 21
361.576
  0
LINE
  8
0
 10
400.314
 20
361.576
 11
400.615
 21
361.485
  0
LINE
  8
0
 10
400.615
 20
361.485
 11
400.893
 21
361.336
  0
LINE
  8
0
 10
400.893
 20
361.336
 11
401.137
 21
361.137
  0
LINE
  8
0
 10
401.137
 20
361.137
 11
401.336
 21
360.893
  0
LINE
  8
0
 10
401.336
 20
360.893
 11
401.485
 21
360.615
  0
LINE
  8
0
 10
401.485
 20
360.615
 11
401.576
 21
360.314
  0
LINE
  8
0
 10
401.576
 20
360.314
 11
401.607
 21
360
  0
LINE
  8
0
 10
401.607
 20
360
 11
401.576
 21
359.686
  0
LINE
  8
0
 10
401.576
 20
359.686
 11
401.485
 21
359.385
  0
LINE
  8
0
 10
401.485
 20
359.385
 11
401.336
 21
359.107
  0
LINE
  8
0
 10
401.336
 20
359.107
 11
401.137
 21
358.863
  0
LINE
  8
0
 10
401.137
 20
358.863
 11
400.893
 21
358.664
  0
LINE
  8
0
 10
400.893
 20
358.664
 11
400.615
 21
358.515
  0
LINE
  8
0
 10
400.615
 20
358.515
 11
400.314
 21
358.424
  0
LINE
  8
0
 10
400.314
 20
358.424
 11
400
 21
358.393
  0
LINE
  8
0
 10
400
 20
358.393
 11
399.686
 21
358.424
  0
LINE
  8
0
 10
478.386
 20
348.424
 11
478.084
 21
348.515
  0
LINE
  8
0
 10
478.084
 20
348.515
 11
477.806
 21
348.664
  0
LINE
  8
0
 10
477.806
 20
348.664
 11
477.563
 21
348.863
  0
LINE
  8
0
 10
477.563
 20
348.863
 11
477.363
 21
349.107
  0
LINE
  8
0
 10
477.363
 20
349.107
 11
477.214
 21
349.385
  0
LINE
  8
0
 10
477.214
 20
349.385
 11
477.123
 21
349.686
  0
LINE
  8
0
 10
477.123
 20
349.686
 11
477.092
 21
350
  0
LINE
  8
0
 10
477.092
 20
350
 11
477.123
 21
350.314
  0
LINE
  8
0
 10
477.123
 20
350.314
 11
477.214
 21
350.615
  0
LINE
  8
0
 10
477.214
 20
350.615
 11
477.363
 21
350.893
  0
LINE
  8
0
 10
477.363
 20
350.893
 11
477.563
 21
351.137
  0
LINE
  8
0
 10
477.563
 20
351.137
 11
477.806
 21
351.336
  0
LINE
  8
0
 10
477.806
 20
351.336
 11
478.084
 21
351.485
  0
LINE
  8
0
 10
478.084
 20
351.485
 11
478.386
 21
351.576
  0
LINE
  8
0
 10
478.386
 20
351.576
 11
478.699
 21
351.607
  0
LINE
  8
0
 10
478.699
 20
351.607
 11
479.013
 21
351.576
  0
LINE
  8
0
 10
479.013
 20
351.576
 11
479.314
 21
351.485
  0
LINE
  8
0
 10
479.314
 20
351.485
 11
479.592
 21
351.336
  0
LINE
  8
0
 10
479.592
 20
351.336
 11
479.836
 21
351.137
  0
LINE
  8
0
 10
479.836
 20
351.137
 11
480.036
 21
350.893
  0
LINE
  8
0
 10
480.036
 20
350.893
 11
480.184
 21
350.615
  0
LINE
  8
0
 10
480.184
 20
350.615
 11
480.276
 21
350.314
  0
LINE
  8
0
 10
480.276
 20
350.314
 11
480.307
 21
350
  0
LINE
  8
0
 10
480.307
 20
350
 11
480.276
 21
349.686
  0
LINE
  8
0
 10
480.276
 20
349.686
 11
480.184
 21
349.385
  0
LINE
  8
0
 10
480.184
 20
349.385
 11
480.036
 21
349.107
  0
LINE
  8
0
 10
480.036
 20
349.107
 11
479.836
 21
348.863
  0
LINE
  8
0
 10
479.836
 20
348.863
 11
479.592
 21
348.664
  0
LINE
  8
0
 10
479.592
 20
348.664
 11
479.314
 21
348.515
  0
LINE
  8
0
 10
479.314
 20
348.515
 11
479.013
 21
348.424
  0
LINE
  8
0
 10
479.013
 20
348.424
 11
478.699
 21
348.393
  0
LINE
  8
0
 10
478.699
 20
348.393
 11
478.386
 21
348.424
  0
LINE
  8
0
 10
468.699
 20
144
 11
468.699
 21
344
  0
LINE
  8
0
 10
468.699
 20
344
 11
488.699
 21
344
  0
LINE
  8
0
 10
488.699
 20
344
 11
488.699
 21
144
  0
LINE
  8
0
 10
488.699
 20
144
 11
468.699
 21
144
  0
LINE
  8
0
 10
478.386
 20
136.424
 11
478.084
 21
136.515
  0
LINE
  8
0
 10
478.084
 20
136.515
 11
477.806
 21
136.664
  0
LINE
  8
0
 10
477.806
 20
136.664
 11
477.563
 21
136.863
  0
LINE
  8
0
 10
477.563
 20
136.863
 11
477.363
 21
137.107
  0
LINE
  8
0
 10
477.363
 20
137.107
 11
477.214
 21
137.385
  0
LINE
  8
0
 10
477.214
 20
137.385
 11
477.123
 21
137.686
  0
LINE
  8
0
 10
477.123
 20
137.686
 11
477.092
 21
138
  0
LINE
  8
0
 10
477.092
 20
138
 11
477.123
 21
138.314
  0
LINE
  8
0
 10
477.123
 20
138.314
 11
477.214
 21
138.615
  0
LINE
  8
0
 10
477.214
 20
138.615
 11
477.363
 21
138.893
  0
LINE
  8
0
 10
477.363
 20
138.893
 11
477.563
 21
139.137
  0
LINE
  8
0
 10
477.563
 20
139.137
 11
477.806
 21
139.336
  0
LINE
  8
0
 10
477.806
 20
139.336
 11
478.084
 21
139.485
  0
LINE
  8
0
 10
478.084
 20
139.485
 11
478.386
 21
139.576
  0
LINE
  8
0
 10
478.386
 20
139.576
 11
478.699
 21
139.607
  0
LINE
  8
0
 10
478.699
 20
139.607
 11
479.013
 21
139.576
  0
LINE
  8
0
 10
479.013
 20
139.576
 11
479.314
 21
139.485
  0
LINE
  8
0
 10
479.314
 20
139.485
 11
479.592
 21
139.336
  0
LINE
  8
0
 10
479.592
 20
139.336
 11
479.836
 21
139.137
  0
LINE
  8
0
 10
479.836
 20
139.137
 11
480.036
 21
138.893
  0
LINE
  8
0
 10
480.036
 20
138.893
 11
480.184
 21
138.615
  0
LINE
  8
0
 10
480.184
 20
138.615
 11
480.276
 21
138.314
  0
LINE
  8
0
 10
480.276
 20
138.314
 11
480.307
 21
138
  0
LINE
  8
0
 10
480.307
 20
138
 11
480.276
 21
137.686
  0
LINE
  8
0
 10
480.276
 20
137.686
 11
480.184
 21
137.385
  0
LINE
  8
0
 10
480.184
 20
137.385
 11
480.036
 21
137.107
  0
LINE
  8
0
 10
480.036
 20
137.107
 11
479.836
 21
136.863
  0
LINE
  8
0
 10
479.836
 20
136.863
 11
479.592
 21
136.664
  0
LINE
  8
0
 10
479.592
 20
136.664
 11
479.314
 21
136.515
  0
LINE
  8
0
 10
479.314
 20
136.515
 11
479.013
 21
136.424
  0
LINE
  8
0
 10
479.013
 20
136.424
 11
478.699
 21
136.393
  0
LINE
  8
0
 10
478.699
 20
136.393
 11
478.386
 21
136.424
  0
LINE
  8
0
 10
399.686
 20
38.4236
 11
399.385
 21
38.5151
  0
LINE
  8
0
 10
399.385
 20
38.5151
 11
399.107
 21
38.6636
  0
LINE
  8
0
 10
399.107
 20
38.6636
 11
398.863
 21
38.8635
  0
LINE
  8
0
 10
398.863
 20
38.8635
 11
398.664
 21
39.1071
  0
LINE
  8
0
 10
398.664
 20
39.1071
 11
398.515
 21
39.3849
  0
LINE
  8
0
 10
398.515
 20
39.3849
 11
398.424
 21
39.6864
  0
LINE
  8
0
 10
398.424
 20
39.6864
 11
398.393
 21
40
  0
LINE
  8
0
 10
398.393
 20
40
 11
398.424
 21
40.3136
  0
LINE
  8
0
 10
398.424
 20
40.3136
 11
398.515
 21
40.6151
  0
LINE
  8
0
 10
398.515
 20
40.6151
 11
398.664
 21
40.8929
  0
LINE
  8
0
 10
398.664
 20
40.8929
 11
398.863
 21
41.1365
  0
LINE
  8
0
 10
398.863
 20
41.1365
 11
399.107
 21
41.3364
  0
LINE
  8
0
 10
399.107
 20
41.3364
 11
399.385
 21
41.4849
  0
LINE
  8
0
 10
399.385
 20
41.4849
 11
399.686
 21
41.5764
  0
LINE
  8
0
 10
399.686
 20
41.5764
 11
400
 21
41.6073
  0
LINE
  8
0
 10
400
 20
41.6073
 11
400.314
 21
41.5764
  0
LINE
  8
0
 10
400.314
 20
41.5764
 11
400.615
 21
41.4849
  0
LINE
  8
0
 10
400.615
 20
41.4849
 11
400.893
 21
41.3364
  0
LINE
  8
0
 10
400.893
 20
41.3364
 11
401.137
 21
41.1365
  0
LINE
  8
0
 10
401.137
 20
41.1365
 11
401.336
 21
40.8929
  0
LINE
  8
0
 10
401.336
 20
40.8929
 11
401.485
 21
40.6151
  0
LINE
  8
0
 10
401.485
 20
40.6151
 11
401.576
 21
40.3136
  0
LINE
  8
0
 10
401.576
 20
40.3136
 11
401.607
 21
40
  0
LINE
  8
0
 10
401.607
 20
40
 11
401.576
 21
39.6864
  0
LINE
  8
0
 10
401.576
 20
39.6864
 11
401.485
 21
39.3849
  0
LINE
  8
0
 10
401.485
 20
39.3849
 11
401.336
 21
39.1071
  0
LINE
  8
0
 10
401.336
 20
39.1071
 11
401.137
 21
38.8635
  0
LINE
  8
0
 10
401.137
 20
38.8635
 11
400.893
 21
38.6636
  0
LINE
  8
0
 10
400.893
 20
38.6636
 11
400.615
 21
38.5151
  0
LINE
  8
0
 10
400.615
 20
38.5151
 11
400.314
 21
38.4236
  0
LINE
  8
0
 10
400.314
 20
38.4236
 11
400
 21
38.3927
  0
LINE
  8
0
 10
400
 20
38.3927
 11
399.686
 21
38.4236
  0
LINE
  8
0
 10
719.686
 20
38.4236
 11
719.385
 21
38.5151
  0
LINE
  8
0
 10
719.385
 20
38.5151
 11
719.107
 21
38.6636
  0
LINE
  8
0
 10
719.107
 20
38.6636
 11
718.864
 21
38.8635
  0
LINE
  8
0
 10
718.864
 20
38.8635
 11
718.664
 21
39.1071
  0
LINE
  8
0
 10
718.664
 20
39.1071
 11
718.515
 21
39.3849
  0
LINE
  8
0
 10
718.515
 20
39.3849
 11
718.424
 21
39.6864
  0
LINE
  8
0
 10
718.424
 20
39.6864
 11
718.393
 21
40
  0
LINE
  8
0
 10
718.393
 20
40
 11
718.424
 21
40.3136
  0
LINE
  8
0
 10
718.424
 20
40.3136
 11
718.515
 21
40.6151
  0
LINE
  8
0
 10
718.515
 20
40.6151
 11
718.664
 21
40.8929
  0
LINE
  8
0
 10
718.664
 20
40.8929
 11
718.864
 21
41.1365
  0
LINE
  8
0
 10
718.864
 20
41.1365
 11
719.107
 21
41.3364
  0
LINE
  8
0
 10
719.107
 20
41.3364
 11
719.385
 21
41.4849
  0
LINE
  8
0
 10
719.385
 20
41.4849
 11
719.686
 21
41.5764
  0
LINE
  8
0
 10
719.686
 20
41.5764
 11
720
 21
41.6073
  0
LINE
  8
0
 10
720
 20
41.6073
 11
720.314
 21
41.5764
  0
LINE
  8
0
 10
720.314
 20
41.5764
 11
720.615
 21
41.4849
  0
LINE
  8
0
 10
720.615
 20
41.4849
 11
720.893
 21
41.3364
  0
LINE
  8
0
 10
720.893
 20
41.3364
 11
721.136
 21
41.1365
  0
LINE
  8
0
 10
721.136
 20
41.1365
 11
721.336
 21
40.8929
  0
LINE
  8
0
 10
721.336
 20
40.8929
 11
721.485
 21
40.6151
  0
LINE
  8
0
 10
721.485
 20
40.6151
 11
721.576
 21
40.3136
  0
LINE
  8
0
 10
721.576
 20
40.3136
 11
721.607
 21
40
  0
LINE
  8
0
 10
721.607
 20
40
 11
721.576
 21
39.6864
  0
LINE
  8
0
 10
721.576
 20
39.6864
 11
721.485
 21
39.3849
  0
LINE
  8
0
 10
721.485
 20
39.3849
 11
721.336
 21
39.1071
  0
LINE
  8
0
 10
721.336
 20
39.1071
 11
721.136
 21
38.8635
  0
LINE
  8
0
 10
721.136
 20
38.8635
 11
720.893
 21
38.6636
  0
LINE
  8
0
 10
720.893
 20
38.6636
 11
720.615
 21
38.5151
  0
LINE
  8
0
 10
720.615
 20
38.5151
 11
720.314
 21
38.4236
  0
LINE
  8
0
 10
720.314
 20
38.4236
 11
720
 21
38.3927
  0
LINE
  8
0
 10
720
 20
38.3927
 11
719.686
 21
38.4236
  0
LINE
  8
0
 10
899
 20
46
 11
908
 21
46
  0
LINE
  8
0
 10
908
 20
46
 11
908
 21
354
  0
LINE
  8
0
 10
908
 20
354
 11
899
 21
354
  0
LINE
  8
0
 10
899
 20
354
 11
899
 21
360
  0
LINE
  8
0
 10
899
 20
360
 11
769
 21
360
  0
LINE
  8
0
 10
769
 20
360
 11
769
 21
354
  0
LINE
  8
0
 10
769
 20
354
 11
760
 21
354
  0
LINE
  8
0
 10
760
 20
354
 11
760
 21
46
  0
LINE
  8
0
 10
760
 20
46
 11
769
 21
46
  0
LINE
  8
0
 10
769
 20
46
 11
769
 21
40
  0
LINE
  8
0
 10
769
 20
40
 11
899
 21
40
  0
LINE
  8
0
 10
899
 20
40
 11
899
 21
46
  0
LINE
  8
0
 10
764.186
 20
347.924
 11
763.885
 21
348.015
  0
LINE
  8
0
 10
763.885
 20
348.015
 11
763.607
 21
348.164
  0
LINE
  8
0
 10
763.607
 20
348.164
 11
763.363
 21
348.363
  0
LINE
  8
0
 10
763.363
 20
348.363
 11
763.164
 21
348.607
  0
LINE
  8
0
 10
763.164
 20
348.607
 11
763.015
 21
348.885
  0
LINE
  8
0
 10
763.015
 20
348.885
 11
762.924
 21
349.186
  0
LINE
  8
0
 10
762.924
 20
349.186
 11
762.893
 21
349.5
  0
LINE
  8
0
 10
762.893
 20
349.5
 11
762.924
 21
349.814
  0
LINE
  8
0
 10
762.924
 20
349.814
 11
763.015
 21
350.115
  0
LINE
  8
0
 10
763.015
 20
350.115
 11
763.164
 21
350.393
  0
LINE
  8
0
 10
763.164
 20
350.393
 11
763.363
 21
350.637
  0
LINE
  8
0
 10
763.363
 20
350.637
 11
763.607
 21
350.836
  0
LINE
  8
0
 10
763.607
 20
350.836
 11
763.885
 21
350.985
  0
LINE
  8
0
 10
763.885
 20
350.985
 11
764.186
 21
351.076
  0
LINE
  8
0
 10
764.186
 20
351.076
 11
764.5
 21
351.107
  0
LINE
  8
0
 10
764.5
 20
351.107
 11
764.814
 21
351.076
  0
LINE
  8
0
 10
764.814
 20
351.076
 11
765.115
 21
350.985
  0
LINE
  8
0
 10
765.115
 20
350.985
 11
765.393
 21
350.836
  0
LINE
  8
0
 10
765.393
 20
350.836
 11
765.636
 21
350.637
  0
LINE
  8
0
 10
765.636
 20
350.637
 11
765.836
 21
350.393
  0
LINE
  8
0
 10
765.836
 20
350.393
 11
765.985
 21
350.115
  0
LINE
  8
0
 10
765.985
 20
350.115
 11
766.076
 21
349.814
  0
LINE
  8
0
 10
766.076
 20
349.814
 11
766.107
 21
349.5
  0
LINE
  8
0
 10
766.107
 20
349.5
 11
766.076
 21
349.186
  0
LINE
  8
0
 10
766.076
 20
349.186
 11
765.985
 21
348.885
  0
LINE
  8
0
 10
765.985
 20
348.885
 11
765.836
 21
348.607
  0
LINE
  8
0
 10
765.836
 20
348.607
 11
765.636
 21
348.363
  0
LINE
  8
0
 10
765.636
 20
348.363
 11
765.393
 21
348.164
  0
LINE
  8
0
 10
765.393
 20
348.164
 11
765.115
 21
348.015
  0
LINE
  8
0
 10
765.115
 20
348.015
 11
764.814
 21
347.924
  0
LINE
  8
0
 10
764.814
 20
347.924
 11
764.5
 21
347.893
  0
LINE
  8
0
 10
764.5
 20
347.893
 11
764.186
 21
347.924
  0
LINE
  8
0
 10
903.186
 20
347.924
 11
902.885
 21
348.015
  0
LINE
  8
0
 10
902.885
 20
348.015
 11
902.607
 21
348.164
  0
LINE
  8
0
 10
902.607
 20
348.164
 11
902.363
 21
348.363
  0
LINE
  8
0
 10
902.363
 20
348.363
 11
902.164
 21
348.607
  0
LINE
  8
0
 10
902.164
 20
348.607
 11
902.015
 21
348.885
  0
LINE
  8
0
 10
902.015
 20
348.885
 11
901.924
 21
349.186
  0
LINE
  8
0
 10
901.924
 20
349.186
 11
901.893
 21
349.5
  0
LINE
  8
0
 10
901.893
 20
349.5
 11
901.924
 21
349.814
  0
LINE
  8
0
 10
901.924
 20
349.814
 11
902.015
 21
350.115
  0
LINE
  8
0
 10
902.015
 20
350.115
 11
902.164
 21
350.393
  0
LINE
  8
0
 10
902.164
 20
350.393
 11
902.363
 21
350.637
  0
LINE
  8
0
 10
902.363
 20
350.637
 11
902.607
 21
350.836
  0
LINE
  8
0
 10
902.607
 20
350.836
 11
902.885
 21
350.985
  0
LINE
  8
0
 10
902.885
 20
350.985
 11
903.186
 21
351.076
  0
LINE
  8
0
 10
903.186
 20
351.076
 11
903.5
 21
351.107
  0
LINE
  8
0
 10
903.5
 20
351.107
 11
903.814
 21
351.076
  0
LINE
  8
0
 10
903.814
 20
351.076
 11
904.115
 21
350.985
  0
LINE
  8
0
 10
904.115
 20
350.985
 11
904.393
 21
350.836
  0
LINE
  8
0
 10
904.393
 20
350.836
 11
904.637
 21
350.637
  0
LINE
  8
0
 10
904.637
 20
350.637
 11
904.836
 21
350.393
  0
LINE
  8
0
 10
904.836
 20
350.393
 11
904.985
 21
350.115
  0
LINE
  8
0
 10
904.985
 20
350.115
 11
905.076
 21
349.814
  0
LINE
  8
0
 10
905.076
 20
349.814
 11
905.107
 21
349.5
  0
LINE
  8
0
 10
905.107
 20
349.5
 11
905.076
 21
349.186
  0
LINE
  8
0
 10
905.076
 20
349.186
 11
904.985
 21
348.885
  0
LINE
  8
0
 10
904.985
 20
348.885
 11
904.836
 21
348.607
  0
LINE
  8
0
 10
904.836
 20
348.607
 11
904.637
 21
348.363
  0
LINE
  8
0
 10
904.637
 20
348.363
 11
904.393
 21
348.164
  0
LINE
  8
0
 10
904.393
 20
348.164
 11
904.115
 21
348.015
  0
LINE
  8
0
 10
904.115
 20
348.015
 11
903.814
 21
347.924
  0
LINE
  8
0
 10
903.814
 20
347.924
 11
903.5
 21
347.893
  0
LINE
  8
0
 10
903.5
 20
347.893
 11
903.186
 21
347.924
  0
LINE
  8
0
 10
839.358
 20
285.184
 11
836.731
 21
285.981
  0
LINE
  8
0
 10
836.731
 20
285.981
 11
834
 21
286.25
  0
LINE
  8
0
 10
834
 20
286.25
 11
831.269
 21
285.981
  0
LINE
  8
0
 10
831.269
 20
285.981
 11
828.642
 21
285.184
  0
LINE
  8
0
 10
828.642
 20
285.184
 11
826.47
 21
284.023
  0
LINE
  8
0
 10
826.47
 20
284.023
 11
787.54
 21
322.953
  0
LINE
  8
0
 10
787.54
 20
322.953
 11
795.666
 21
329.621
  0
LINE
  8
0
 10
795.666
 20
329.621
 11
807.595
 21
335.998
  0
LINE
  8
0
 10
807.595
 20
335.998
 11
820.539
 21
339.924
  0
LINE
  8
0
 10
820.539
 20
339.924
 11
834
 21
341.25
  0
LINE
  8
0
 10
834
 20
341.25
 11
847.461
 21
339.924
  0
LINE
  8
0
 10
847.461
 20
339.924
 11
860.405
 21
335.998
  0
LINE
  8
0
 10
860.405
 20
335.998
 11
872.334
 21
329.621
  0
LINE
  8
0
 10
872.334
 20
329.621
 11
880.46
 21
322.953
  0
LINE
  8
0
 10
880.46
 20
322.953
 11
841.53
 21
284.023
  0
LINE
  8
0
 10
841.53
 20
284.023
 11
839.358
 21
285.184
  0
LINE
  8
0
 10
895.74
 20
331.938
 11
895.25
 21
332.087
  0
LINE
  8
0
 10
895.25
 20
332.087
 11
894.799
 21
332.328
  0
LINE
  8
0
 10
894.799
 20
332.328
 11
894.403
 21
332.653
  0
LINE
  8
0
 10
894.403
 20
332.653
 11
894.078
 21
333.049
  0
LINE
  8
0
 10
894.078
 20
333.049
 11
893.837
 21
333.5
  0
LINE
  8
0
 10
893.837
 20
333.5
 11
893.688
 21
333.99
  0
LINE
  8
0
 10
893.688
 20
333.99
 11
893.638
 21
334.5
  0
LINE
  8
0
 10
893.638
 20
334.5
 11
893.688
 21
335.01
  0
LINE
  8
0
 10
893.688
 20
335.01
 11
893.837
 21
335.5
  0
LINE
  8
0
 10
893.837
 20
335.5
 11
894.078
 21
335.951
  0
LINE
  8
0
 10
894.078
 20
335.951
 11
894.403
 21
336.347
  0
LINE
  8
0
 10
894.403
 20
336.347
 11
894.799
 21
336.672
  0
LINE
  8
0
 10
894.799
 20
336.672
 11
895.25
 21
336.913
  0
LINE
  8
0
 10
895.25
 20
336.913
 11
895.74
 21
337.062
  0
LINE
  8
0
 10
895.74
 20
337.062
 11
896.25
 21
337.112
  0
LINE
  8
0
 10
896.25
 20
337.112
 11
896.76
 21
337.062
  0
LINE
  8
0
 10
896.76
 20
337.062
 11
897.25
 21
336.913
  0
LINE
  8
0
 10
897.25
 20
336.913
 11
897.701
 21
336.672
  0
LINE
  8
0
 10
897.701
 20
336.672
 11
898.097
 21
336.347
  0
LINE
  8
0
 10
898.097
 20
336.347
 11
898.422
 21
335.951
  0
LINE
  8
0
 10
898.422
 20
335.951
 11
898.663
 21
335.5
  0
LINE
  8
0
 10
898.663
 20
335.5
 11
898.812
 21
335.01
  0
LINE
  8
0
 10
898.812
 20
335.01
 11
898.862
 21
334.5
  0
LINE
  8
0
 10
898.862
 20
334.5
 11
898.812
 21
333.99
  0
LINE
  8
0
 10
898.812
 20
333.99
 11
898.663
 21
333.5
  0
LINE
  8
0
 10
898.663
 20
333.5
 11
898.422
 21
333.049
  0
LINE
  8
0
 10
898.422
 20
333.049
 11
898.097
 21
332.653
  0
LINE
  8
0
 10
898.097
 20
332.653
 11
897.701
 21
332.328
  0
LINE
  8
0
 10
897.701
 20
332.328
 11
897.25
 21
332.087
  0
LINE
  8
0
 10
897.25
 20
332.087
 11
896.76
 21
331.938
  0
LINE
  8
0
 10
896.76
 20
331.938
 11
896.25
 21
331.888
  0
LINE
  8
0
 10
896.25
 20
331.888
 11
895.74
 21
331.938
  0
LINE
  8
0
 10
771.24
 20
331.938
 11
770.75
 21
332.087
  0
LINE
  8
0
 10
770.75
 20
332.087
 11
770.299
 21
332.328
  0
LINE
  8
0
 10
770.299
 20
332.328
 11
769.903
 21
332.653
  0
LINE
  8
0
 10
769.903
 20
332.653
 11
769.578
 21
333.049
  0
LINE
  8
0
 10
769.578
 20
333.049
 11
769.337
 21
333.5
  0
LINE
  8
0
 10
769.337
 20
333.5
 11
769.188
 21
333.99
  0
LINE
  8
0
 10
769.188
 20
333.99
 11
769.138
 21
334.5
  0
LINE
  8
0
 10
769.138
 20
334.5
 11
769.188
 21
335.01
  0
LINE
  8
0
 10
769.188
 20
335.01
 11
769.337
 21
335.5
  0
LINE
  8
0
 10
769.337
 20
335.5
 11
769.578
 21
335.951
  0
LINE
  8
0
 10
769.578
 20
335.951
 11
769.903
 21
336.347
  0
LINE
  8
0
 10
769.903
 20
336.347
 11
770.299
 21
336.672
  0
LINE
  8
0
 10
770.299
 20
336.672
 11
770.75
 21
336.913
  0
LINE
  8
0
 10
770.75
 20
336.913
 11
771.24
 21
337.062
  0
LINE
  8
0
 10
771.24
 20
337.062
 11
771.75
 21
337.112
  0
LINE
  8
0
 10
771.75
 20
337.112
 11
772.26
 21
337.062
  0
LINE
  8
0
 10
772.26
 20
337.062
 11
772.75
 21
336.913
  0
LINE
  8
0
 10
772.75
 20
336.913
 11
773.201
 21
336.672
  0
LINE
  8
0
 10
773.201
 20
336.672
 11
773.597
 21
336.347
  0
LINE
  8
0
 10
773.597
 20
336.347
 11
773.922
 21
335.951
  0
LINE
  8
0
 10
773.922
 20
335.951
 11
774.163
 21
335.5
  0
LINE
  8
0
 10
774.163
 20
335.5
 11
774.312
 21
335.01
  0
LINE
  8
0
 10
774.312
 20
335.01
 11
774.362
 21
334.5
  0
LINE
  8
0
 10
774.362
 20
334.5
 11
774.312
 21
333.99
  0
LINE
  8
0
 10
774.312
 20
333.99
 11
774.163
 21
333.5
  0
LINE
  8
0
 10
774.163
 20
333.5
 11
773.922
 21
333.049
  0
LINE
  8
0
 10
773.922
 20
333.049
 11
773.597
 21
332.653
  0
LINE
  8
0
 10
773.597
 20
332.653
 11
773.201
 21
332.328
  0
LINE
  8
0
 10
773.201
 20
332.328
 11
772.75
 21
332.087
  0
LINE
  8
0
 10
772.75
 20
332.087
 11
772.26
 21
331.938
  0
LINE
  8
0
 10
772.26
 20
331.938
 11
771.75
 21
331.888
  0
LINE
  8
0
 10
771.75
 20
331.888
 11
771.24
 21
331.938
  0
LINE
  8
0
 10
845.773
 20
264.72
 11
846.934
 21
266.892
  0
LINE
  8
0
 10
846.934
 20
266.892
 11
847.731
 21
269.519
  0
LINE
  8
0
 10
847.731
 20
269.519
 11
848
 21
272.25
  0
LINE
  8
0
 10
848
 20
272.25
 11
847.731
 21
274.981
  0
LINE
  8
0
 10
847.731
 20
274.981
 11
846.934
 21
277.608
  0
LINE
  8
0
 10
846.934
 20
277.608
 11
845.773
 21
279.78
  0
LINE
  8
0
 10
845.773
 20
279.78
 11
884.703
 21
318.71
  0
LINE
  8
0
 10
884.703
 20
318.71
 11
891.371
 21
310.584
  0
LINE
  8
0
 10
891.371
 20
310.584
 11
897.748
 21
298.655
  0
LINE
  8
0
 10
897.748
 20
298.655
 11
901.674
 21
285.711
  0
LINE
  8
0
 10
901.674
 20
285.711
 11
903
 21
272.25
  0
LINE
  8
0
 10
903
 20
272.25
 11
901.674
 21
258.789
  0
LINE
  8
0
 10
901.674
 20
258.789
 11
897.748
 21
245.845
  0
LINE
  8
0
 10
897.748
 20
245.845
 11
891.371
 21
233.916
  0
LINE
  8
0
 10
891.371
 20
233.916
 11
884.703
 21
225.79
  0
LINE
  8
0
 10
884.703
 20
225.79
 11
845.773
 21
264.72
  0
LINE
  8
0
 10
776.629
 20
233.916
 11
770.252
 21
245.845
  0
LINE
  8
0
 10
770.252
 20
245.845
 11
766.326
 21
258.789
  0
LINE
  8
0
 10
766.326
 20
258.789
 11
765
 21
272.25
  0
LINE
  8
0
 10
765
 20
272.25
 11
766.326
 21
285.711
  0
LINE
  8
0
 10
766.326
 20
285.711
 11
770.252
 21
298.655
  0
LINE
  8
0
 10
770.252
 20
298.655
 11
776.629
 21
310.584
  0
LINE
  8
0
 10
776.629
 20
310.584
 11
783.297
 21
318.71
  0
LINE
  8
0
 10
783.297
 20
318.71
 11
822.227
 21
279.78
  0
LINE
  8
0
 10
822.227
 20
279.78
 11
821.066
 21
277.608
  0
LINE
  8
0
 10
821.066
 20
277.608
 11
820.269
 21
274.981
  0
LINE
  8
0
 10
820.269
 20
274.981
 11
820
 21
272.25
  0
LINE
  8
0
 10
820
 20
272.25
 11
820.269
 21
269.519
  0
LINE
  8
0
 10
820.269
 20
269.519
 11
821.066
 21
266.892
  0
LINE
  8
0
 10
821.066
 20
266.892
 11
822.227
 21
264.72
  0
LINE
  8
0
 10
822.227
 20
264.72
 11
783.297
 21
225.79
  0
LINE
  8
0
 10
783.297
 20
225.79
 11
776.629
 21
233.916
  0
LINE
  8
0
 10
820.539
 20
204.576
 11
807.595
 21
208.502
  0
LINE
  8
0
 10
807.595
 20
208.502
 11
795.666
 21
214.879
  0
LINE
  8
0
 10
795.666
 20
214.879
 11
787.54
 21
221.547
  0
LINE
  8
0
 10
787.54
 20
221.547
 11
826.47
 21
260.477
  0
LINE
  8
0
 10
826.47
 20
260.477
 11
828.642
 21
259.316
  0
LINE
  8
0
 10
828.642
 20
259.316
 11
831.269
 21
258.519
  0
LINE
  8
0
 10
831.269
 20
258.519
 11
834
 21
258.25
  0
LINE
  8
0
 10
834
 20
258.25
 11
836.731
 21
258.519
  0
LINE
  8
0
 10
836.731
 20
258.519
 11
839.358
 21
259.316
  0
LINE
  8
0
 10
839.358
 20
259.316
 11
841.53
 21
260.477
  0
LINE
  8
0
 10
841.53
 20
260.477
 11
880.46
 21
221.547
  0
LINE
  8
0
 10
880.46
 20
221.547
 11
872.334
 21
214.879
  0
LINE
  8
0
 10
872.334
 20
214.879
 11
860.405
 21
208.502
  0
LINE
  8
0
 10
860.405
 20
208.502
 11
847.461
 21
204.576
  0
LINE
  8
0
 10
847.461
 20
204.576
 11
834
 21
203.25
  0
LINE
  8
0
 10
834
 20
203.25
 11
820.539
 21
204.576
  0
LINE
  8
0
 10
895.74
 20
207.438
 11
895.25
 21
207.587
  0
LINE
  8
0
 10
895.25
 20
207.587
 11
894.799
 21
207.828
  0
LINE
  8
0
 10
894.799
 20
207.828
 11
894.403
 21
208.153
  0
LINE
  8
0
 10
894.403
 20
208.153
 11
894.078
 21
208.549
  0
LINE
  8
0
 10
894.078
 20
208.549
 11
893.837
 21
209
  0
LINE
  8
0
 10
893.837
 20
209
 11
893.688
 21
209.49
  0
LINE
  8
0
 10
893.688
 20
209.49
 11
893.638
 21
210
  0
LINE
  8
0
 10
893.638
 20
210
 11
893.688
 21
210.51
  0
LINE
  8
0
 10
893.688
 20
210.51
 11
893.837
 21
211
  0
LINE
  8
0
 10
893.837
 20
211
 11
894.078
 21
211.451
  0
LINE
  8
0
 10
894.078
 20
211.451
 11
894.403
 21
211.847
  0
LINE
  8
0
 10
894.403
 20
211.847
 11
894.799
 21
212.172
  0
LINE
  8
0
 10
894.799
 20
212.172
 11
895.25
 21
212.413
  0
LINE
  8
0
 10
895.25
 20
212.413
 11
895.74
 21
212.562
  0
LINE
  8
0
 10
895.74
 20
212.562
 11
896.25
 21
212.612
  0
LINE
  8
0
 10
896.25
 20
212.612
 11
896.76
 21
212.562
  0
LINE
  8
0
 10
896.76
 20
212.562
 11
897.25
 21
212.413
  0
LINE
  8
0
 10
897.25
 20
212.413
 11
897.701
 21
212.172
  0
LINE
  8
0
 10
897.701
 20
212.172
 11
898.097
 21
211.847
  0
LINE
  8
0
 10
898.097
 20
211.847
 11
898.422
 21
211.451
  0
LINE
  8
0
 10
898.422
 20
211.451
 11
898.663
 21
211
  0
LINE
  8
0
 10
898.663
 20
211
 11
898.812
 21
210.51
  0
LINE
  8
0
 10
898.812
 20
210.51
 11
898.862
 21
210
  0
LINE
  8
0
 10
898.862
 20
210
 11
898.812
 21
209.49
  0
LINE
  8
0
 10
898.812
 20
209.49
 11
898.663
 21
209
  0
LINE
  8
0
 10
898.663
 20
209
 11
898.422
 21
208.549
  0
LINE
  8
0
 10
898.422
 20
208.549
 11
898.097
 21
208.153
  0
LINE
  8
0
 10
898.097
 20
208.153
 11
897.701
 21
207.828
  0
LINE
  8
0
 10
897.701
 20
207.828
 11
897.25
 21
207.587
  0
LINE
  8
0
 10
897.25
 20
207.587
 11
896.76
 21
207.438
  0
LINE
  8
0
 10
896.76
 20
207.438
 11
896.25
 21
207.388
  0
LINE
  8
0
 10
896.25
 20
207.388
 11
895.74
 21
207.438
  0
LINE
  8
0
 10
771.24
 20
207.438
 11
770.75
 21
207.587
  0
LINE
  8
0
 10
770.75
 20
207.587
 11
770.299
 21
207.828
  0
LINE
  8
0
 10
770.299
 20
207.828
 11
769.903
 21
208.153
  0
LINE
  8
0
 10
769.903
 20
208.153
 11
769.578
 21
208.549
  0
LINE
  8
0
 10
769.578
 20
208.549
 11
769.337
 21
209
  0
LINE
  8
0
 10
769.337
 20
209
 11
769.188
 21
209.49
  0
LINE
  8
0
 10
769.188
 20
209.49
 11
769.138
 21
210
  0
LINE
  8
0
 10
769.138
 20
210
 11
769.188
 21
210.51
  0
LINE
  8
0
 10
769.188
 20
210.51
 11
769.337
 21
211
  0
LINE
  8
0
 10
769.337
 20
211
 11
769.578
 21
211.451
  0
LINE
  8
0
 10
769.578
 20
211.451
 11
769.903
 21
211.847
  0
LINE
  8
0
 10
769.903
 20
211.847
 11
770.299
 21
212.172
  0
LINE
  8
0
 10
770.299
 20
212.172
 11
770.75
 21
212.413
  0
LINE
  8
0
 10
770.75
 20
212.413
 11
771.24
 21
212.562
  0
LINE
  8
0
 10
771.24
 20
212.562
 11
771.75
 21
212.612
  0
LINE
  8
0
 10
771.75
 20
212.612
 11
772.26
 21
212.562
  0
LINE
  8
0
 10
772.26
 20
212.562
 11
772.75
 21
212.413
  0
LINE
  8
0
 10
772.75
 20
212.413
 11
773.201
 21
212.172
  0
LINE
  8
0
 10
773.201
 20
212.172
 11
773.597
 21
211.847
  0
LINE
  8
0
 10
773.597
 20
211.847
 11
773.922
 21
211.451
  0
LINE
  8
0
 10
773.922
 20
211.451
 11
774.163
 21
211
  0
LINE
  8
0
 10
774.163
 20
211
 11
774.312
 21
210.51
  0
LINE
  8
0
 10
774.312
 20
210.51
 11
774.362
 21
210
  0
LINE
  8
0
 10
774.362
 20
210
 11
774.312
 21
209.49
  0
LINE
  8
0
 10
774.312
 20
209.49
 11
774.163
 21
209
  0
LINE
  8
0
 10
774.163
 20
209
 11
773.922
 21
208.549
  0
LINE
  8
0
 10
773.922
 20
208.549
 11
773.597
 21
208.153
  0
LINE
  8
0
 10
773.597
 20
208.153
 11
773.201
 21
207.828
  0
LINE
  8
0
 10
773.201
 20
207.828
 11
772.75
 21
207.587
  0
LINE
  8
0
 10
772.75
 20
207.587
 11
772.26
 21
207.438
  0
LINE
  8
0
 10
772.26
 20
207.438
 11
771.75
 21
207.388
  0
LINE
  8
0
 10
771.75
 20
207.388
 11
771.24
 21
207.438
  0
LINE
  8
0
 10
839.358
 20
140.684
 11
836.731
 21
141.481
  0
LINE
  8
0
 10
836.731
 20
141.481
 11
834
 21
141.75
  0
LINE
  8
0
 10
834
 20
141.75
 11
831.269
 21
141.481
  0
LINE
  8
0
 10
831.269
 20
141.481
 11
828.642
 21
140.684
  0
LINE
  8
0
 10
828.642
 20
140.684
 11
826.47
 21
139.523
  0
LINE
  8
0
 10
826.47
 20
139.523
 11
787.54
 21
178.453
  0
LINE
  8
0
 10
787.54
 20
178.453
 11
795.666
 21
185.121
  0
LINE
  8
0
 10
795.666
 20
185.121
 11
807.595
 21
191.498
  0
LINE
  8
0
 10
807.595
 20
191.498
 11
820.539
 21
195.424
  0
LINE
  8
0
 10
820.539
 20
195.424
 11
834
 21
196.75
  0
LINE
  8
0
 10
834
 20
196.75
 11
847.461
 21
195.424
  0
LINE
  8
0
 10
847.461
 20
195.424
 11
860.405
 21
191.498
  0
LINE
  8
0
 10
860.405
 20
191.498
 11
872.334
 21
185.121
  0
LINE
  8
0
 10
872.334
 20
185.121
 11
880.46
 21
178.453
  0
LINE
  8
0
 10
880.46
 20
178.453
 11
841.53
 21
139.523
  0
LINE
  8
0
 10
841.53
 20
139.523
 11
839.358
 21
140.684
  0
LINE
  8
0
 10
895.74
 20
187.438
 11
895.25
 21
187.587
  0
LINE
  8
0
 10
895.25
 20
187.587
 11
894.799
 21
187.828
  0
LINE
  8
0
 10
894.799
 20
187.828
 11
894.403
 21
188.153
  0
LINE
  8
0
 10
894.403
 20
188.153
 11
894.078
 21
188.549
  0
LINE
  8
0
 10
894.078
 20
188.549
 11
893.837
 21
189
  0
LINE
  8
0
 10
893.837
 20
189
 11
893.688
 21
189.49
  0
LINE
  8
0
 10
893.688
 20
189.49
 11
893.638
 21
190
  0
LINE
  8
0
 10
893.638
 20
190
 11
893.688
 21
190.51
  0
LINE
  8
0
 10
893.688
 20
190.51
 11
893.837
 21
191
  0
LINE
  8
0
 10
893.837
 20
191
 11
894.078
 21
191.451
  0
LINE
  8
0
 10
894.078
 20
191.451
 11
894.403
 21
191.847
  0
LINE
  8
0
 10
894.403
 20
191.847
 11
894.799
 21
192.172
  0
LINE
  8
0
 10
894.799
 20
192.172
 11
895.25
 21
192.413
  0
LINE
  8
0
 10
895.25
 20
192.413
 11
895.74
 21
192.562
  0
LINE
  8
0
 10
895.74
 20
192.562
 11
896.25
 21
192.612
  0
LINE
  8
0
 10
896.25
 20
192.612
 11
896.76
 21
192.562
  0
LINE
  8
0
 10
896.76
 20
192.562
 11
897.25
 21
192.413
  0
LINE
  8
0
 10
897.25
 20
192.413
 11
897.701
 21
192.172
  0
LINE
  8
0
 10
897.701
 20
192.172
 11
898.097
 21
191.847
  0
LINE
  8
0
 10
898.097
 20
191.847
 11
898.422
 21
191.451
  0
LINE
  8
0
 10
898.422
 20
191.451
 11
898.663
 21
191
  0
LINE
  8
0
 10
898.663
 20
191
 11
898.812
 21
190.51
  0
LINE
  8
0
 10
898.812
 20
190.51
 11
898.862
 21
190
  0
LINE
  8
0
 10
898.862
 20
190
 11
898.812
 21
189.49
  0
LINE
  8
0
 10
898.812
 20
189.49
 11
898.663
 21
189
  0
LINE
  8
0
 10
898.663
 20
189
 11
898.422
 21
188.549
  0
LINE
  8
0
 10
898.422
 20
188.549
 11
898.097
 21
188.153
  0
LINE
  8
0
 10
898.097
 20
188.153
 11
897.701
 21
187.828
  0
LINE
  8
0
 10
897.701
 20
187.828
 11
897.25
 21
187.587
  0
LINE
  8
0
 10
897.25
 20
187.587
 11
896.76
 21
187.438
  0
LINE
  8
0
 10
896.76
 20
187.438
 11
896.25
 21
187.388
  0
LINE
  8
0
 10
896.25
 20
187.388
 11
895.74
 21
187.438
  0
LINE
  8
0
 10
771.24
 20
187.438
 11
770.75
 21
187.587
  0
LINE
  8
0
 10
770.75
 20
187.587
 11
770.299
 21
187.828
  0
LINE
  8
0
 10
770.299
 20
187.828
 11
769.903
 21
188.153
  0
LINE
  8
0
 10
769.903
 20
188.153
 11
769.578
 21
188.549
  0
LINE
  8
0
 10
769.578
 20
188.549
 11
769.337
 21
189
  0
LINE
  8
0
 10
769.337
 20
189
 11
769.188
 21
189.49
  0
LINE
  8
0
 10
769.188
 20
189.49
 11
769.138
 21
190
  0
LINE
  8
0
 10
769.138
 20
190
 11
769.188
 21
190.51
  0
LINE
  8
0
 10
769.188
 20
190.51
 11
769.337
 21
191
  0
LINE
  8
0
 10
769.337
 20
191
 11
769.578
 21
191.451
  0
LINE
  8
0
 10
769.578
 20
191.451
 11
769.903
 21
191.847
  0
LINE
  8
0
 10
769.903
 20
191.847
 11
770.299
 21
192.172
  0
LINE
  8
0
 10
770.299
 20
192.172
 11
770.75
 21
192.413
  0
LINE
  8
0
 10
770.75
 20
192.413
 11
771.24
 21
192.562
  0
LINE
  8
0
 10
771.24
 20
192.562
 11
771.75
 21
192.612
  0
LINE
  8
0
 10
771.75
 20
192.612
 11
772.26
 21
192.562
  0
LINE
  8
0
 10
772.26
 20
192.562
 11
772.75
 21
192.413
  0
LINE
  8
0
 10
772.75
 20
192.413
 11
773.201
 21
192.172
  0
LINE
  8
0
 10
773.201
 20
192.172
 11
773.597
 21
191.847
  0
LINE
  8
0
 10
773.597
 20
191.847
 11
773.922
 21
191.451
  0
LINE
  8
0
 10
773.922
 20
191.451
 11
774.163
 21
191
  0
LINE
  8
0
 10
774.163
 20
191
 11
774.312
 21
190.51
  0
LINE
  8
0
 10
774.312
 20
190.51
 11
774.362
 21
190
  0
LINE
  8
0
 10
774.362
 20
190
 11
774.312
 21
189.49
  0
LINE
  8
0
 10
774.312
 20
189.49
 11
774.163
 21
189
  0
LINE
  8
0
 10
774.163
 20
189
 11
773.922
 21
188.549
  0
LINE
  8
0
 10
773.922
 20
188.549
 11
773.597
 21
188.153
  0
LINE
  8
0
 10
773.597
 20
188.153
 11
773.201
 21
187.828
  0
LINE
  8
0
 10
773.201
 20
187.828
 11
772.75
 21
187.587
  0
LINE
  8
0
 10
772.75
 20
187.587
 11
772.26
 21
187.438
  0
LINE
  8
0
 10
772.26
 20
187.438
 11
771.75
 21
187.388
  0
LINE
  8
0
 10
771.75
 20
187.388
 11
771.24
 21
187.438
  0
LINE
  8
0
 10
845.773
 20
120.22
 11
846.934
 21
122.392
  0
LINE
  8
0
 10
846.934
 20
122.392
 11
847.731
 21
125.019
  0
LINE
  8
0
 10
847.731
 20
125.019
 11
848
 21
127.75
  0
LINE
  8
0
 10
848
 20
127.75
 11
847.731
 21
130.481
  0
LINE
  8
0
 10
847.731
 20
130.481
 11
846.934
 21
133.108
  0
LINE
  8
0
 10
846.934
 20
133.108
 11
845.773
 21
135.28
  0
LINE
  8
0
 10
845.773
 20
135.28
 11
884.703
 21
174.21
  0
LINE
  8
0
 10
884.703
 20
174.21
 11
891.371
 21
166.084
  0
LINE
  8
0
 10
891.371
 20
166.084
 11
897.748
 21
154.155
  0
LINE
  8
0
 10
897.748
 20
154.155
 11
901.674
 21
141.211
  0
LINE
  8
0
 10
901.674
 20
141.211
 11
903
 21
127.75
  0
LINE
  8
0
 10
903
 20
127.75
 11
901.674
 21
114.289
  0
LINE
  8
0
 10
901.674
 20
114.289
 11
897.748
 21
101.345
  0
LINE
  8
0
 10
897.748
 20
101.345
 11
891.371
 21
89.4157
  0
LINE
  8
0
 10
891.371
 20
89.4157
 11
884.703
 21
81.2899
  0
LINE
  8
0
 10
884.703
 20
81.2899
 11
845.773
 21
120.22
  0
LINE
  8
0
 10
776.629
 20
89.4157
 11
770.252
 21
101.345
  0
LINE
  8
0
 10
770.252
 20
101.345
 11
766.326
 21
114.289
  0
LINE
  8
0
 10
766.326
 20
114.289
 11
765
 21
127.75
  0
LINE
  8
0
 10
765
 20
127.75
 11
766.326
 21
141.211
  0
LINE
  8
0
 10
766.326
 20
141.211
 11
770.252
 21
154.155
  0
LINE
  8
0
 10
770.252
 20
154.155
 11
776.629
 21
166.084
  0
LINE
  8
0
 10
776.629
 20
166.084
 11
783.297
 21
174.21
  0
LINE
  8
0
 10
783.297
 20
174.21
 11
822.227
 21
135.28
  0
LINE
  8
0
 10
822.227
 20
135.28
 11
821.066
 21
133.108
  0
LINE
  8
0
 10
821.066
 20
133.108
 11
820.269
 21
130.481
  0
LINE
  8
0
 10
820.269
 20
130.481
 11
820
 21
127.75
  0
LINE
  8
0
 10
820
 20
127.75
 11
820.269
 21
125.019
  0
LINE
  8
0
 10
820.269
 20
125.019
 11
821.066
 21
122.392
  0
LINE
  8
0
 10
821.066
 20
122.392
 11
822.227
 21
120.22
  0
LINE
  8
0
 10
822.227
 20
120.22
 11
783.297
 21
81.2899
  0
LINE
  8
0
 10
783.297
 20
81.2899
 11
776.629
 21
89.4157
  0
LINE
  8
0
 10
820.539
 20
60.0758
 11
807.595
 21
64.0023
  0
LINE
  8
0
 10
807.595
 20
64.0023
 11
795.666
 21
70.3786
  0
LINE
  8
0
 10
795.666
 20
70.3786
 11
787.54
 21
77.0472
  0
LINE
  8
0
 10
787.54
 20
77.0472
 11
826.47
 21
115.977
  0
LINE
  8
0
 10
826.47
 20
115.977
 11
828.642
 21
114.816
  0
LINE
  8
0
 10
828.642
 20
114.816
 11
831.269
 21
114.019
  0
LINE
  8
0
 10
831.269
 20
114.019
 11
834
 21
113.75
  0
LINE
  8
0
 10
834
 20
113.75
 11
836.731
 21
114.019
  0
LINE
  8
0
 10
836.731
 20
114.019
 11
839.358
 21
114.816
  0
LINE
  8
0
 10
839.358
 20
114.816
 11
841.53
 21
115.977
  0
LINE
  8
0
 10
841.53
 20
115.977
 11
880.46
 21
77.0472
  0
LINE
  8
0
 10
880.46
 20
77.0472
 11
872.334
 21
70.3786
  0
LINE
  8
0
 10
872.334
 20
70.3786
 11
860.405
 21
64.0023
  0
LINE
  8
0
 10
860.405
 20
64.0023
 11
847.461
 21
60.0758
  0
LINE
  8
0
 10
847.461
 20
60.0758
 11
834
 21
58.75
  0
LINE
  8
0
 10
834
 20
58.75
 11
820.539
 21
60.0758
  0
LINE
  8
0
 10
771.24
 20
62.9381
 11
770.75
 21
63.0867
  0
LINE
  8
0
 10
770.75
 20
63.0867
 11
770.299
 21
63.3281
  0
LINE
  8
0
 10
770.299
 20
63.3281
 11
769.903
 21
63.653
  0
LINE
  8
0
 10
769.903
 20
63.653
 11
769.578
 21
64.0488
  0
LINE
  8
0
 10
769.578
 20
64.0488
 11
769.337
 21
64.5004
  0
LINE
  8
0
 10
769.337
 20
64.5004
 11
769.188
 21
64.9904
  0
LINE
  8
0
 10
769.188
 20
64.9904
 11
769.138
 21
65.5
  0
LINE
  8
0
 10
769.138
 20
65.5
 11
769.188
 21
66.0096
  0
LINE
  8
0
 10
769.188
 20
66.0096
 11
769.337
 21
66.4996
  0
LINE
  8
0
 10
769.337
 20
66.4996
 11
769.578
 21
66.9512
  0
LINE
  8
0
 10
769.578
 20
66.9512
 11
769.903
 21
67.347
  0
LINE
  8
0
 10
769.903
 20
67.347
 11
770.299
 21
67.6719
  0
LINE
  8
0
 10
770.299
 20
67.6719
 11
770.75
 21
67.9133
  0
LINE
  8
0
 10
770.75
 20
67.9133
 11
771.24
 21
68.0619
  0
LINE
  8
0
 10
771.24
 20
68.0619
 11
771.75
 21
68.1121
  0
LINE
  8
0
 10
771.75
 20
68.1121
 11
772.26
 21
68.0619
  0
LINE
  8
0
 10
772.26
 20
68.0619
 11
772.75
 21
67.9133
  0
LINE
  8
0
 10
772.75
 20
67.9133
 11
773.201
 21
67.6719
  0
LINE
  8
0
 10
773.201
 20
67.6719
 11
773.597
 21
67.347
  0
LINE
  8
0
 10
773.597
 20
67.347
 11
773.922
 21
66.9512
  0
LINE
  8
0
 10
773.922
 20
66.9512
 11
774.163
 21
66.4996
  0
LINE
  8
0
 10
774.163
 20
66.4996
 11
774.312
 21
66.0096
  0
LINE
  8
0
 10
774.312
 20
66.0096
 11
774.362
 21
65.5
  0
LINE
  8
0
 10
774.362
 20
65.5
 11
774.312
 21
64.9904
  0
LINE
  8
0
 10
774.312
 20
64.9904
 11
774.163
 21
64.5004
  0
LINE
  8
0
 10
774.163
 20
64.5004
 11
773.922
 21
64.0488
  0
LINE
  8
0
 10
773.922
 20
64.0488
 11
773.597
 21
63.653
  0
LINE
  8
0
 10
773.597
 20
63.653
 11
773.201
 21
63.3281
  0
LINE
  8
0
 10
773.201
 20
63.3281
 11
772.75
 21
63.0867
  0
LINE
  8
0
 10
772.75
 20
63.0867
 11
772.26
 21
62.9381
  0
LINE
  8
0
 10
772.26
 20
62.9381
 11
771.75
 21
62.8879
  0
LINE
  8
0
 10
771.75
 20
62.8879
 11
771.24
 21
62.9381
  0
LINE
  8
0
 10
895.74
 20
62.9381
 11
895.25
 21
63.0867
  0
LINE
  8
0
 10
895.25
 20
63.0867
 11
894.799
 21
63.3281
  0
LINE
  8
0
 10
894.799
 20
63.3281
 11
894.403
 21
63.653
  0
LINE
  8
0
 10
894.403
 20
63.653
 11
894.078
 21
64.0488
  0
LINE
  8
0
 10
894.078
 20
64.0488
 11
893.837
 21
64.5004
  0
LINE
  8
0
 10
893.837
 20
64.5004
 11
893.688
 21
64.9904
  0
LINE
  8
0
 10
893.688
 20
64.9904
 11
893.638
 21
65.5
  0
LINE
  8
0
 10
893.638
 20
65.5
 11
893.688
 21
66.0096
  0
LINE
  8
0
 10
893.688
 20
66.0096
 11
893.837
 21
66.4996
  0
LINE
  8
0
 10
893.837
 20
66.4996
 11
894.078
 21
66.9512
  0
LINE
  8
0
 10
894.078
 20
66.9512
 11
894.403
 21
67.347
  0
LINE
  8
0
 10
894.403
 20
67.347
 11
894.799
 21
67.6719
  0
LINE
  8
0
 10
894.799
 20
67.6719
 11
895.25
 21
67.9133
  0
LINE
  8
0
 10
895.25
 20
67.9133
 11
895.74
 21
68.0619
  0
LINE
  8
0
 10
895.74
 20
68.0619
 11
896.25
 21
68.1121
  0
LINE
  8
0
 10
896.25
 20
68.1121
 11
896.76
 21
68.0619
  0
LINE
  8
0
 10
896.76
 20
68.0619
 11
897.25
 21
67.9133
  0
LINE
  8
0
 10
897.25
 20
67.9133
 11
897.701
 21
67.6719
  0
LINE
  8
0
 10
897.701
 20
67.6719
 11
898.097
 21
67.347
  0
LINE
  8
0
 10
898.097
 20
67.347
 11
898.422
 21
66.9512
  0
LINE
  8
0
 10
898.422
 20
66.9512
 11
898.663
 21
66.4996
  0
LINE
  8
0
 10
898.663
 20
66.4996
 11
898.812
 21
66.0096
  0
LINE
  8
0
 10
898.812
 20
66.0096
 11
898.862
 21
65.5
  0
LINE
  8
0
 10
898.862
 20
65.5
 11
898.812
 21
64.9904
  0
LINE
  8
0
 10
898.812
 20
64.9904
 11
898.663
 21
64.5004
  0
LINE
  8
0
 10
898.663
 20
64.5004
 11
898.422
 21
64.0488
  0
LINE
  8
0
 10
898.422
 20
64.0488
 11
898.097
 21
63.653
  0
LINE
  8
0
 10
898.097
 20
63.653
 11
897.701
 21
63.3281
  0
LINE
  8
0
 10
897.701
 20
63.3281
 11
897.25
 21
63.0867
  0
LINE
  8
0
 10
897.25
 20
63.0867
 11
896.76
 21
62.9381
  0
LINE
  8
0
 10
896.76
 20
62.9381
 11
896.25
 21
62.8879
  0
LINE
  8
0
 10
896.25
 20
62.8879
 11
895.74
 21
62.9381
  0
LINE
  8
0
 10
903.186
 20
48.9236
 11
902.885
 21
49.0151
  0
LINE
  8
0
 10
902.885
 20
49.0151
 11
902.607
 21
49.1636
  0
LINE
  8
0
 10
902.607
 20
49.1636
 11
902.363
 21
49.3635
  0
LINE
  8
0
 10
902.363
 20
49.3635
 11
902.164
 21
49.6071
  0
LINE
  8
0
 10
902.164
 20
49.6071
 11
902.015
 21
49.8849
  0
LINE
  8
0
 10
902.015
 20
49.8849
 11
901.924
 21
50.1864
  0
LINE
  8
0
 10
901.924
 20
50.1864
 11
901.893
 21
50.5
  0
LINE
  8
0
 10
901.893
 20
50.5
 11
901.924
 21
50.8136
  0
LINE
  8
0
 10
901.924
 20
50.8136
 11
902.015
 21
51.1151
  0
LINE
  8
0
 10
902.015
 20
51.1151
 11
902.164
 21
51.3929
  0
LINE
  8
0
 10
902.164
 20
51.3929
 11
902.363
 21
51.6365
  0
LINE
  8
0
 10
902.363
 20
51.6365
 11
902.607
 21
51.8364
  0
LINE
  8
0
 10
902.607
 20
51.8364
 11
902.885
 21
51.9849
  0
LINE
  8
0
 10
902.885
 20
51.9849
 11
903.186
 21
52.0764
  0
LINE
  8
0
 10
903.186
 20
52.0764
 11
903.5
 21
52.1073
  0
LINE
  8
0
 10
903.5
 20
52.1073
 11
903.814
 21
52.0764
  0
LINE
  8
0
 10
903.814
 20
52.0764
 11
904.115
 21
51.9849
  0
LINE
  8
0
 10
904.115
 20
51.9849
 11
904.393
 21
51.8364
  0
LINE
  8
0
 10
904.393
 20
51.8364
 11
904.637
 21
51.6365
  0
LINE
  8
0
 10
904.637
 20
51.6365
 11
904.836
 21
51.3929
  0
LINE
  8
0
 10
904.836
 20
51.3929
 11
904.985
 21
51.1151
  0
LINE
  8
0
 10
904.985
 20
51.1151
 11
905.076
 21
50.8136
  0
LINE
  8
0
 10
905.076
 20
50.8136
 11
905.107
 21
50.5
  0
LINE
  8
0
 10
905.107
 20
50.5
 11
905.076
 21
50.1864
  0
LINE
  8
0
 10
905.076
 20
50.1864
 11
904.985
 21
49.8849
  0
LINE
  8
0
 10
904.985
 20
49.8849
 11
904.836
 21
49.6071
  0
LINE
  8
0
 10
904.836
 20
49.6071
 11
904.637
 21
49.3635
  0
LINE
  8
0
 10
904.637
 20
49.3635
 11
904.393
 21
49.1636
  0
LINE
  8
0
 10
904.393
 20
49.1636
 11
904.115
 21
49.0151
  0
LINE
  8
0
 10
904.115
 20
49.0151
 11
903.814
 21
48.9236
  0
LINE
  8
0
 10
903.814
 20
48.9236
 11
903.5
 21
48.8927
  0
LINE
  8
0
 10
903.5
 20
48.8927
 11
903.186
 21
48.9236
  0
LINE
  8
0
 10
764.186
 20
48.9236
 11
763.885
 21
49.0151
  0
LINE
  8
0
 10
763.885
 20
49.0151
 11
763.607
 21
49.1636
  0
LINE
  8
0
 10
763.607
 20
49.1636
 11
763.363
 21
49.3635
  0
LINE
  8
0
 10
763.363
 20
49.3635
 11
763.164
 21
49.6071
  0
LINE
  8
0
 10
763.164
 20
49.6071
 11
763.015
 21
49.8849
  0
LINE
  8
0
 10
763.015
 20
49.8849
 11
762.924
 21
50.1864
  0
LINE
  8
0
 10
762.924
 20
50.1864
 11
762.893
 21
50.5
  0
LINE
  8
0
 10
762.893
 20
50.5
 11
762.924
 21
50.8136
  0
LINE
  8
0
 10
762.924
 20
50.8136
 11
763.015
 21
51.1151
  0
LINE
  8
0
 10
763.015
 20
51.1151
 11
763.164
 21
51.3929
  0
LINE
  8
0
 10
763.164
 20
51.3929
 11
763.363
 21
51.6365
  0
LINE
  8
0
 10
763.363
 20
51.6365
 11
763.607
 21
51.8364
  0
LINE
  8
0
 10
763.607
 20
51.8364
 11
763.885
 21
51.9849
  0
LINE
  8
0
 10
763.885
 20
51.9849
 11
764.186
 21
52.0764
  0
LINE
  8
0
 10
764.186
 20
52.0764
 11
764.5
 21
52.1073
  0
LINE
  8
0
 10
764.5
 20
52.1073
 11
764.814
 21
52.0764
  0
LINE
  8
0
 10
764.814
 20
52.0764
 11
765.115
 21
51.9849
  0
LINE
  8
0
 10
765.115
 20
51.9849
 11
765.393
 21
51.8364
  0
LINE
  8
0
 10
765.393
 20
51.8364
 11
765.636
 21
51.6365
  0
LINE
  8
0
 10
765.636
 20
51.6365
 11
765.836
 21
51.3929
  0
LINE
  8
0
 10
765.836
 20
51.3929
 11
765.985
 21
51.1151
  0
LINE
  8
0
 10
765.985
 20
51.1151
 11
766.076
 21
50.8136
  0
LINE
  8
0
 10
766.076
 20
50.8136
 11
766.107
 21
50.5
  0
LINE
  8
0
 10
766.107
 20
50.5
 11
766.076
 21
50.1864
  0
LINE
  8
0
 10
766.076
 20
50.1864
 11
765.985
 21
49.8849
  0
LINE
  8
0
 10
765.985
 20
49.8849
 11
765.836
 21
49.6071
  0
LINE
  8
0
 10
765.836
 20
49.6071
 11
765.636
 21
49.3635
  0
LINE
  8
0
 10
765.636
 20
49.3635
 11
765.393
 21
49.1636
  0
LINE
  8
0
 10
765.393
 20
49.1636
 11
765.115
 21
49.0151
  0
LINE
  8
0
 10
765.115
 20
49.0151
 11
764.814
 21
48.9236
  0
LINE
  8
0
 10
764.814
 20
48.9236
 11
764.5
 21
48.8927
  0
LINE
  8
0
 10
764.5
 20
48.8927
 11
764.186
 21
48.9236
  0
ENDSEC
  0
SECTION
  2
OBJECTS
  0
DICTIONARY
  0
ENDSEC
  0
EOF
