solid OpenSCAD_Model
  facet normal 1 -0 0
    outer loop
      vertex 44.6332 19.4737 110.835
      vertex 44.6332 24.2647 109.835
      vertex 44.6332 24.2647 110.835
    endloop
  endfacet
  facet normal 1 0 0
    outer loop
      vertex 44.6332 24.2647 109.835
      vertex 44.6332 19.4737 110.835
      vertex 44.6332 19.4737 109.835
    endloop
  endfacet
  facet normal -0 0 1
    outer loop
      vertex 42.1332 24.2647 110.835
      vertex 44.6332 19.4737 110.835
      vertex 44.6332 24.2647 110.835
    endloop
  endfacet
  facet normal 0 0 1
    outer loop
      vertex 44.6332 19.4737 110.835
      vertex 42.1332 24.2647 110.835
      vertex 42.1332 19.4737 110.835
    endloop
  endfacet
  facet normal 0 0 -1
    outer loop
      vertex 42.1332 19.4737 109.835
      vertex 44.6332 24.2647 109.835
      vertex 44.6332 19.4737 109.835
    endloop
  endfacet
  facet normal -0 0 -1
    outer loop
      vertex 44.6332 24.2647 109.835
      vertex 42.1332 19.4737 109.835
      vertex 42.1332 24.2647 109.835
    endloop
  endfacet
  facet normal -1 0 0
    outer loop
      vertex 42.1332 19.4737 109.835
      vertex 42.1332 24.2647 110.835
      vertex 42.1332 24.2647 109.835
    endloop
  endfacet
  facet normal -1 -0 0
    outer loop
      vertex 42.1332 24.2647 110.835
      vertex 42.1332 19.4737 109.835
      vertex 42.1332 19.4737 110.835
    endloop
  endfacet
  facet normal 0 1 -0
    outer loop
      vertex 44.6332 24.2647 109.835
      vertex 42.1332 24.2647 110.835
      vertex 44.6332 24.2647 110.835
    endloop
  endfacet
  facet normal 0 1 0
    outer loop
      vertex 42.1332 24.2647 110.835
      vertex 44.6332 24.2647 109.835
      vertex 42.1332 24.2647 109.835
    endloop
  endfacet
  facet normal 0 -1 0
    outer loop
      vertex 42.1332 19.4737 109.835
      vertex 44.6332 19.4737 110.835
      vertex 42.1332 19.4737 110.835
    endloop
  endfacet
  facet normal 0 -1 -0
    outer loop
      vertex 44.6332 19.4737 110.835
      vertex 42.1332 19.4737 109.835
      vertex 44.6332 19.4737 109.835
    endloop
  endfacet
  facet normal 1 -0 0
    outer loop
      vertex 24.3132 19.4737 110.835
      vertex 24.3132 24.2647 109.835
      vertex 24.3132 24.2647 110.835
    endloop
  endfacet
  facet normal 1 0 0
    outer loop
      vertex 24.3132 24.2647 109.835
      vertex 24.3132 19.4737 110.835
      vertex 24.3132 19.4737 109.835
    endloop
  endfacet
  facet normal -0 0 1
    outer loop
      vertex 21.8132 24.2647 110.835
      vertex 24.3132 19.4737 110.835
      vertex 24.3132 24.2647 110.835
    endloop
  endfacet
  facet normal 0 0 1
    outer loop
      vertex 24.3132 19.4737 110.835
      vertex 21.8132 24.2647 110.835
      vertex 21.8132 19.4737 110.835
    endloop
  endfacet
  facet normal 0 0 -1
    outer loop
      vertex 21.8132 19.4737 109.835
      vertex 24.3132 24.2647 109.835
      vertex 24.3132 19.4737 109.835
    endloop
  endfacet
  facet normal -0 0 -1
    outer loop
      vertex 24.3132 24.2647 109.835
      vertex 21.8132 19.4737 109.835
      vertex 21.8132 24.2647 109.835
    endloop
  endfacet
  facet normal -1 0 0
    outer loop
      vertex 21.8132 19.4737 109.835
      vertex 21.8132 24.2647 110.835
      vertex 21.8132 24.2647 109.835
    endloop
  endfacet
  facet normal -1 -0 0
    outer loop
      vertex 21.8132 24.2647 110.835
      vertex 21.8132 19.4737 109.835
      vertex 21.8132 19.4737 110.835
    endloop
  endfacet
  facet normal 0 1 -0
    outer loop
      vertex 24.3132 24.2647 109.835
      vertex 21.8132 24.2647 110.835
      vertex 24.3132 24.2647 110.835
    endloop
  endfacet
  facet normal 0 1 0
    outer loop
      vertex 21.8132 24.2647 110.835
      vertex 24.3132 24.2647 109.835
      vertex 21.8132 24.2647 109.835
    endloop
  endfacet
  facet normal 0 -1 0
    outer loop
      vertex 21.8132 19.4737 109.835
      vertex 24.3132 19.4737 110.835
      vertex 21.8132 19.4737 110.835
    endloop
  endfacet
  facet normal 0 -1 -0
    outer loop
      vertex 24.3132 19.4737 110.835
      vertex 21.8132 19.4737 109.835
      vertex 24.3132 19.4737 109.835
    endloop
  endfacet
  facet normal 1 -0 0
    outer loop
      vertex 3.9932 19.4737 110.835
      vertex 3.9932 24.2647 109.835
      vertex 3.9932 24.2647 110.835
    endloop
  endfacet
  facet normal 1 0 0
    outer loop
      vertex 3.9932 24.2647 109.835
      vertex 3.9932 19.4737 110.835
      vertex 3.9932 19.4737 109.835
    endloop
  endfacet
  facet normal -0 0 1
    outer loop
      vertex 1.4932 24.2647 110.835
      vertex 3.9932 19.4737 110.835
      vertex 3.9932 24.2647 110.835
    endloop
  endfacet
  facet normal 0 0 1
    outer loop
      vertex 3.9932 19.4737 110.835
      vertex 1.4932 24.2647 110.835
      vertex 1.4932 19.4737 110.835
    endloop
  endfacet
  facet normal 0 0 -1
    outer loop
      vertex 1.4932 19.4737 109.835
      vertex 3.9932 24.2647 109.835
      vertex 3.9932 19.4737 109.835
    endloop
  endfacet
  facet normal -0 0 -1
    outer loop
      vertex 3.9932 24.2647 109.835
      vertex 1.4932 19.4737 109.835
      vertex 1.4932 24.2647 109.835
    endloop
  endfacet
  facet normal -1 0 0
    outer loop
      vertex 1.4932 19.4737 109.835
      vertex 1.4932 24.2647 110.835
      vertex 1.4932 24.2647 109.835
    endloop
  endfacet
  facet normal -1 -0 0
    outer loop
      vertex 1.4932 24.2647 110.835
      vertex 1.4932 19.4737 109.835
      vertex 1.4932 19.4737 110.835
    endloop
  endfacet
  facet normal 0 1 -0
    outer loop
      vertex 3.9932 24.2647 109.835
      vertex 1.4932 24.2647 110.835
      vertex 3.9932 24.2647 110.835
    endloop
  endfacet
  facet normal 0 1 0
    outer loop
      vertex 1.4932 24.2647 110.835
      vertex 3.9932 24.2647 109.835
      vertex 1.4932 24.2647 109.835
    endloop
  endfacet
  facet normal 0 -1 0
    outer loop
      vertex 1.4932 19.4737 109.835
      vertex 3.9932 19.4737 110.835
      vertex 1.4932 19.4737 110.835
    endloop
  endfacet
  facet normal 0 -1 -0
    outer loop
      vertex 3.9932 19.4737 110.835
      vertex 1.4932 19.4737 109.835
      vertex 3.9932 19.4737 109.835
    endloop
  endfacet
  facet normal 1 -0 0
    outer loop
      vertex -16.3268 19.4737 110.835
      vertex -16.3268 24.2647 109.835
      vertex -16.3268 24.2647 110.835
    endloop
  endfacet
  facet normal 1 0 0
    outer loop
      vertex -16.3268 24.2647 109.835
      vertex -16.3268 19.4737 110.835
      vertex -16.3268 19.4737 109.835
    endloop
  endfacet
  facet normal -0 0 1
    outer loop
      vertex -18.8268 24.2647 110.835
      vertex -16.3268 19.4737 110.835
      vertex -16.3268 24.2647 110.835
    endloop
  endfacet
  facet normal 0 0 1
    outer loop
      vertex -16.3268 19.4737 110.835
      vertex -18.8268 24.2647 110.835
      vertex -18.8268 19.4737 110.835
    endloop
  endfacet
  facet normal 0 0 -1
    outer loop
      vertex -18.8268 19.4737 109.835
      vertex -16.3268 24.2647 109.835
      vertex -16.3268 19.4737 109.835
    endloop
  endfacet
  facet normal -0 0 -1
    outer loop
      vertex -16.3268 24.2647 109.835
      vertex -18.8268 19.4737 109.835
      vertex -18.8268 24.2647 109.835
    endloop
  endfacet
  facet normal -1 0 0
    outer loop
      vertex -18.8268 19.4737 109.835
      vertex -18.8268 24.2647 110.835
      vertex -18.8268 24.2647 109.835
    endloop
  endfacet
  facet normal -1 -0 0
    outer loop
      vertex -18.8268 24.2647 110.835
      vertex -18.8268 19.4737 109.835
      vertex -18.8268 19.4737 110.835
    endloop
  endfacet
  facet normal 0 1 -0
    outer loop
      vertex -16.3268 24.2647 109.835
      vertex -18.8268 24.2647 110.835
      vertex -16.3268 24.2647 110.835
    endloop
  endfacet
  facet normal 0 1 0
    outer loop
      vertex -18.8268 24.2647 110.835
      vertex -16.3268 24.2647 109.835
      vertex -18.8268 24.2647 109.835
    endloop
  endfacet
  facet normal 0 -1 0
    outer loop
      vertex -18.8268 19.4737 109.835
      vertex -16.3268 19.4737 110.835
      vertex -18.8268 19.4737 110.835
    endloop
  endfacet
  facet normal 0 -1 -0
    outer loop
      vertex -16.3268 19.4737 110.835
      vertex -18.8268 19.4737 109.835
      vertex -16.3268 19.4737 109.835
    endloop
  endfacet
  facet normal -1 0 0
    outer loop
      vertex 51.6793 12.2682 110.835
      vertex 51.6793 17.195 114.835
      vertex 51.6793 17.195 110.835
    endloop
  endfacet
  facet normal -1 -0 0
    outer loop
      vertex 51.6793 17.195 114.835
      vertex 51.6793 12.2682 110.835
      vertex 51.6793 12.2682 114.835
    endloop
  endfacet
  facet normal -0.290366 -0.956916 0
    outer loop
      vertex 49.1724 20.2497 110.835
      vertex 49.7567 20.0724 114.835
      vertex 49.1724 20.2497 114.835
    endloop
  endfacet
  facet normal -0.290366 -0.956916 -0
    outer loop
      vertex 49.7567 20.0724 114.835
      vertex 49.1724 20.2497 110.835
      vertex 49.7567 20.0724 110.835
    endloop
  endfacet
  facet normal -0.0979468 -0.995192 0
    outer loop
      vertex 48.5648 20.3095 110.835
      vertex 49.1724 20.2497 114.835
      vertex 48.5648 20.3095 114.835
    endloop
  endfacet
  facet normal -0.0979468 -0.995192 -0
    outer loop
      vertex 49.1724 20.2497 114.835
      vertex 48.5648 20.3095 110.835
      vertex 49.1724 20.2497 110.835
    endloop
  endfacet
  facet normal 0.471421 -0.881908 0
    outer loop
      vertex 46.8345 19.7846 110.835
      vertex 47.3729 20.0724 114.835
      vertex 46.8345 19.7846 114.835
    endloop
  endfacet
  facet normal 0.471421 -0.881908 0
    outer loop
      vertex 47.3729 20.0724 114.835
      vertex 46.8345 19.7846 110.835
      vertex 47.3729 20.0724 110.835
    endloop
  endfacet
  facet normal -0.773059 -0.634334 0
    outer loop
      vertex 51.1544 18.9253 110.835
      vertex 50.7671 19.3973 114.835
      vertex 50.7671 19.3973 110.835
    endloop
  endfacet
  facet normal -0.773059 -0.634334 0
    outer loop
      vertex 50.7671 19.3973 114.835
      vertex 51.1544 18.9253 110.835
      vertex 51.1544 18.9253 114.835
    endloop
  endfacet
  facet normal 0.773059 -0.634334 0
    outer loop
      vertex 45.9752 18.9253 114.835
      vertex 46.3625 19.3973 110.835
      vertex 46.3625 19.3973 114.835
    endloop
  endfacet
  facet normal 0.773059 -0.634334 0
    outer loop
      vertex 46.3625 19.3973 110.835
      vertex 45.9752 18.9253 114.835
      vertex 45.9752 18.9253 110.835
    endloop
  endfacet
  facet normal -0.634334 -0.773059 0
    outer loop
      vertex 50.2951 19.7846 110.835
      vertex 50.7671 19.3973 114.835
      vertex 50.2951 19.7846 114.835
    endloop
  endfacet
  facet normal -0.634334 -0.773059 -0
    outer loop
      vertex 50.7671 19.3973 114.835
      vertex 50.2951 19.7846 110.835
      vertex 50.7671 19.3973 110.835
    endloop
  endfacet
  facet normal 0.995192 -0.0979468 0
    outer loop
      vertex 45.4503 17.195 114.835
      vertex 45.5101 17.8026 110.835
      vertex 45.5101 17.8026 114.835
    endloop
  endfacet
  facet normal 0.995192 -0.0979468 0
    outer loop
      vertex 45.5101 17.8026 110.835
      vertex 45.4503 17.195 114.835
      vertex 45.4503 17.195 110.835
    endloop
  endfacet
  facet normal 1 -0 0
    outer loop
      vertex 45.4503 12.2682 114.835
      vertex 45.4503 17.195 110.835
      vertex 45.4503 17.195 114.835
    endloop
  endfacet
  facet normal 1 0 0
    outer loop
      vertex 45.4503 17.195 110.835
      vertex 45.4503 12.2682 114.835
      vertex 45.4503 12.2682 110.835
    endloop
  endfacet
  facet normal 0.956916 -0.290366 0
    outer loop
      vertex 45.5101 17.8026 114.835
      vertex 45.6874 18.3869 110.835
      vertex 45.6874 18.3869 114.835
    endloop
  endfacet
  facet normal 0.956916 -0.290366 0
    outer loop
      vertex 45.6874 18.3869 110.835
      vertex 45.5101 17.8026 114.835
      vertex 45.5101 17.8026 110.835
    endloop
  endfacet
  facet normal 0.881908 -0.471421 0
    outer loop
      vertex 45.6874 18.3869 114.835
      vertex 45.9752 18.9253 110.835
      vertex 45.9752 18.9253 114.835
    endloop
  endfacet
  facet normal 0.881908 -0.471421 0
    outer loop
      vertex 45.9752 18.9253 110.835
      vertex 45.6874 18.3869 114.835
      vertex 45.6874 18.3869 110.835
    endloop
  endfacet
  facet normal -0.995192 -0.0979468 0
    outer loop
      vertex 51.6793 17.195 110.835
      vertex 51.6195 17.8026 114.835
      vertex 51.6195 17.8026 110.835
    endloop
  endfacet
  facet normal -0.995192 -0.0979468 0
    outer loop
      vertex 51.6195 17.8026 114.835
      vertex 51.6793 17.195 110.835
      vertex 51.6793 17.195 114.835
    endloop
  endfacet
  facet normal 0.0979468 -0.995192 0
    outer loop
      vertex 47.9572 20.2497 110.835
      vertex 48.5648 20.3095 114.835
      vertex 47.9572 20.2497 114.835
    endloop
  endfacet
  facet normal 0.0979468 -0.995192 0
    outer loop
      vertex 48.5648 20.3095 114.835
      vertex 47.9572 20.2497 110.835
      vertex 48.5648 20.3095 110.835
    endloop
  endfacet
  facet normal 0.290366 -0.956916 0
    outer loop
      vertex 47.3729 20.0724 110.835
      vertex 47.9572 20.2497 114.835
      vertex 47.3729 20.0724 114.835
    endloop
  endfacet
  facet normal 0.290366 -0.956916 0
    outer loop
      vertex 47.9572 20.2497 114.835
      vertex 47.3729 20.0724 110.835
      vertex 47.9572 20.2497 110.835
    endloop
  endfacet
  facet normal -0.956916 -0.290366 0
    outer loop
      vertex 51.6195 17.8026 110.835
      vertex 51.4422 18.3869 114.835
      vertex 51.4422 18.3869 110.835
    endloop
  endfacet
  facet normal -0.956916 -0.290366 0
    outer loop
      vertex 51.4422 18.3869 114.835
      vertex 51.6195 17.8026 110.835
      vertex 51.6195 17.8026 114.835
    endloop
  endfacet
  facet normal -0.471421 -0.881908 0
    outer loop
      vertex 49.7567 20.0724 110.835
      vertex 50.2951 19.7846 114.835
      vertex 49.7567 20.0724 114.835
    endloop
  endfacet
  facet normal -0.471421 -0.881908 -0
    outer loop
      vertex 50.2951 19.7846 114.835
      vertex 49.7567 20.0724 110.835
      vertex 50.2951 19.7846 110.835
    endloop
  endfacet
  facet normal 0.634334 -0.773059 0
    outer loop
      vertex 46.3625 19.3973 110.835
      vertex 46.8345 19.7846 114.835
      vertex 46.3625 19.3973 114.835
    endloop
  endfacet
  facet normal 0.634334 -0.773059 0
    outer loop
      vertex 46.8345 19.7846 114.835
      vertex 46.3625 19.3973 110.835
      vertex 46.8345 19.7846 110.835
    endloop
  endfacet
  facet normal 0 0 -1
    outer loop
      vertex 45.4503 17.195 114.835
      vertex 51.6793 17.195 114.835
      vertex 51.6793 12.2682 114.835
    endloop
  endfacet
  facet normal 0 0 -1
    outer loop
      vertex 51.6793 17.195 114.835
      vertex 45.4503 17.195 114.835
      vertex 51.6195 17.8026 114.835
    endloop
  endfacet
  facet normal -0 0 -1
    outer loop
      vertex 51.6195 17.8026 114.835
      vertex 45.4503 17.195 114.835
      vertex 51.4422 18.3869 114.835
    endloop
  endfacet
  facet normal -0 0 -1
    outer loop
      vertex 51.4422 18.3869 114.835
      vertex 45.4503 17.195 114.835
      vertex 51.1544 18.9253 114.835
    endloop
  endfacet
  facet normal -0 0 -1
    outer loop
      vertex 51.1544 18.9253 114.835
      vertex 45.4503 17.195 114.835
      vertex 50.7671 19.3973 114.835
    endloop
  endfacet
  facet normal -0 0 -1
    outer loop
      vertex 50.7671 19.3973 114.835
      vertex 45.4503 17.195 114.835
      vertex 50.2951 19.7846 114.835
    endloop
  endfacet
  facet normal -0 0 -1
    outer loop
      vertex 50.2951 19.7846 114.835
      vertex 45.4503 17.195 114.835
      vertex 49.7567 20.0724 114.835
    endloop
  endfacet
  facet normal -0 0 -1
    outer loop
      vertex 49.7567 20.0724 114.835
      vertex 45.4503 17.195 114.835
      vertex 49.1724 20.2497 114.835
    endloop
  endfacet
  facet normal -0 0 -1
    outer loop
      vertex 49.1724 20.2497 114.835
      vertex 45.4503 17.195 114.835
      vertex 48.5648 20.3095 114.835
    endloop
  endfacet
  facet normal 0 0 -1
    outer loop
      vertex 48.5648 20.3095 114.835
      vertex 45.4503 17.195 114.835
      vertex 47.9572 20.2497 114.835
    endloop
  endfacet
  facet normal 0 0 -1
    outer loop
      vertex 47.9572 20.2497 114.835
      vertex 45.4503 17.195 114.835
      vertex 47.3729 20.0724 114.835
    endloop
  endfacet
  facet normal 0 0 -1
    outer loop
      vertex 47.3729 20.0724 114.835
      vertex 45.4503 17.195 114.835
      vertex 46.8345 19.7846 114.835
    endloop
  endfacet
  facet normal 0 0 -1
    outer loop
      vertex 46.8345 19.7846 114.835
      vertex 45.4503 17.195 114.835
      vertex 46.3625 19.3973 114.835
    endloop
  endfacet
  facet normal 0 0 -1
    outer loop
      vertex 46.3625 19.3973 114.835
      vertex 45.4503 17.195 114.835
      vertex 45.9752 18.9253 114.835
    endloop
  endfacet
  facet normal 0 0 -1
    outer loop
      vertex 45.9752 18.9253 114.835
      vertex 45.4503 17.195 114.835
      vertex 45.6874 18.3869 114.835
    endloop
  endfacet
  facet normal 0 0 -1
    outer loop
      vertex 45.4503 17.195 114.835
      vertex 51.6793 12.2682 114.835
      vertex 45.4503 12.2682 114.835
    endloop
  endfacet
  facet normal 0 0 -1
    outer loop
      vertex 45.6874 18.3869 114.835
      vertex 45.4503 17.195 114.835
      vertex 45.5101 17.8026 114.835
    endloop
  endfacet
  facet normal -0.881908 -0.471421 0
    outer loop
      vertex 51.4422 18.3869 110.835
      vertex 51.1544 18.9253 114.835
      vertex 51.1544 18.9253 110.835
    endloop
  endfacet
  facet normal -0.881908 -0.471421 0
    outer loop
      vertex 51.1544 18.9253 114.835
      vertex 51.4422 18.3869 110.835
      vertex 51.4422 18.3869 114.835
    endloop
  endfacet
  facet normal -0.773059 -0.634334 0
    outer loop
      vertex 30.8344 18.9253 110.835
      vertex 30.4471 19.3973 114.835
      vertex 30.4471 19.3973 110.835
    endloop
  endfacet
  facet normal -0.773059 -0.634334 0
    outer loop
      vertex 30.4471 19.3973 114.835
      vertex 30.8344 18.9253 110.835
      vertex 30.8344 18.9253 114.835
    endloop
  endfacet
  facet normal -1 0 0
    outer loop
      vertex 31.3593 12.2682 110.835
      vertex 31.3593 17.195 114.835
      vertex 31.3593 17.195 110.835
    endloop
  endfacet
  facet normal -1 -0 0
    outer loop
      vertex 31.3593 17.195 114.835
      vertex 31.3593 12.2682 110.835
      vertex 31.3593 12.2682 114.835
    endloop
  endfacet
  facet normal -0.956916 -0.290366 0
    outer loop
      vertex 31.2995 17.8026 110.835
      vertex 31.1222 18.3869 114.835
      vertex 31.1222 18.3869 110.835
    endloop
  endfacet
  facet normal -0.956916 -0.290366 0
    outer loop
      vertex 31.1222 18.3869 114.835
      vertex 31.2995 17.8026 110.835
      vertex 31.2995 17.8026 114.835
    endloop
  endfacet
  facet normal -0.471421 -0.881908 0
    outer loop
      vertex 29.4367 20.0724 110.835
      vertex 29.9751 19.7846 114.835
      vertex 29.4367 20.0724 114.835
    endloop
  endfacet
  facet normal -0.471421 -0.881908 -0
    outer loop
      vertex 29.9751 19.7846 114.835
      vertex 29.4367 20.0724 110.835
      vertex 29.9751 19.7846 110.835
    endloop
  endfacet
  facet normal -0.290366 -0.956916 0
    outer loop
      vertex 28.8524 20.2497 110.835
      vertex 29.4367 20.0724 114.835
      vertex 28.8524 20.2497 114.835
    endloop
  endfacet
  facet normal -0.290366 -0.956916 -0
    outer loop
      vertex 29.4367 20.0724 114.835
      vertex 28.8524 20.2497 110.835
      vertex 29.4367 20.0724 110.835
    endloop
  endfacet
  facet normal 0.290366 -0.956916 0
    outer loop
      vertex 27.0529 20.0724 110.835
      vertex 27.6372 20.2497 114.835
      vertex 27.0529 20.0724 114.835
    endloop
  endfacet
  facet normal 0.290366 -0.956916 0
    outer loop
      vertex 27.6372 20.2497 114.835
      vertex 27.0529 20.0724 110.835
      vertex 27.6372 20.2497 110.835
    endloop
  endfacet
  facet normal -0.0979468 -0.995192 0
    outer loop
      vertex 28.2448 20.3095 110.835
      vertex 28.8524 20.2497 114.835
      vertex 28.2448 20.3095 114.835
    endloop
  endfacet
  facet normal -0.0979468 -0.995192 -0
    outer loop
      vertex 28.8524 20.2497 114.835
      vertex 28.2448 20.3095 110.835
      vertex 28.8524 20.2497 110.835
    endloop
  endfacet
  facet normal 0 0 -1
    outer loop
      vertex 25.1303 17.195 114.835
      vertex 31.3593 17.195 114.835
      vertex 31.3593 12.2682 114.835
    endloop
  endfacet
  facet normal 0 0 -1
    outer loop
      vertex 31.3593 17.195 114.835
      vertex 25.1303 17.195 114.835
      vertex 31.2995 17.8026 114.835
    endloop
  endfacet
  facet normal -0 0 -1
    outer loop
      vertex 31.2995 17.8026 114.835
      vertex 25.1303 17.195 114.835
      vertex 31.1222 18.3869 114.835
    endloop
  endfacet
  facet normal -0 0 -1
    outer loop
      vertex 31.1222 18.3869 114.835
      vertex 25.1303 17.195 114.835
      vertex 30.8344 18.9253 114.835
    endloop
  endfacet
  facet normal -0 0 -1
    outer loop
      vertex 30.8344 18.9253 114.835
      vertex 25.1303 17.195 114.835
      vertex 30.4471 19.3973 114.835
    endloop
  endfacet
  facet normal -0 0 -1
    outer loop
      vertex 30.4471 19.3973 114.835
      vertex 25.1303 17.195 114.835
      vertex 29.9751 19.7846 114.835
    endloop
  endfacet
  facet normal -0 0 -1
    outer loop
      vertex 29.9751 19.7846 114.835
      vertex 25.1303 17.195 114.835
      vertex 29.4367 20.0724 114.835
    endloop
  endfacet
  facet normal -0 0 -1
    outer loop
      vertex 29.4367 20.0724 114.835
      vertex 25.1303 17.195 114.835
      vertex 28.8524 20.2497 114.835
    endloop
  endfacet
  facet normal -0 0 -1
    outer loop
      vertex 28.8524 20.2497 114.835
      vertex 25.1303 17.195 114.835
      vertex 28.2448 20.3095 114.835
    endloop
  endfacet
  facet normal 0 0 -1
    outer loop
      vertex 28.2448 20.3095 114.835
      vertex 25.1303 17.195 114.835
      vertex 27.6372 20.2497 114.835
    endloop
  endfacet
  facet normal 0 0 -1
    outer loop
      vertex 27.6372 20.2497 114.835
      vertex 25.1303 17.195 114.835
      vertex 27.0529 20.0724 114.835
    endloop
  endfacet
  facet normal 0 0 -1
    outer loop
      vertex 27.0529 20.0724 114.835
      vertex 25.1303 17.195 114.835
      vertex 26.5145 19.7846 114.835
    endloop
  endfacet
  facet normal 0 0 -1
    outer loop
      vertex 26.5145 19.7846 114.835
      vertex 25.1303 17.195 114.835
      vertex 26.0425 19.3973 114.835
    endloop
  endfacet
  facet normal 0 0 -1
    outer loop
      vertex 26.0425 19.3973 114.835
      vertex 25.1303 17.195 114.835
      vertex 25.6552 18.9253 114.835
    endloop
  endfacet
  facet normal 0 0 -1
    outer loop
      vertex 25.6552 18.9253 114.835
      vertex 25.1303 17.195 114.835
      vertex 25.3674 18.3869 114.835
    endloop
  endfacet
  facet normal 0 0 -1
    outer loop
      vertex 25.1303 17.195 114.835
      vertex 31.3593 12.2682 114.835
      vertex 25.1303 12.2682 114.835
    endloop
  endfacet
  facet normal 0 0 -1
    outer loop
      vertex 25.3674 18.3869 114.835
      vertex 25.1303 17.195 114.835
      vertex 25.1901 17.8026 114.835
    endloop
  endfacet
  facet normal -0.995192 -0.0979468 0
    outer loop
      vertex 31.3593 17.195 110.835
      vertex 31.2995 17.8026 114.835
      vertex 31.2995 17.8026 110.835
    endloop
  endfacet
  facet normal -0.995192 -0.0979468 0
    outer loop
      vertex 31.2995 17.8026 114.835
      vertex 31.3593 17.195 110.835
      vertex 31.3593 17.195 114.835
    endloop
  endfacet
  facet normal 0.471421 -0.881908 0
    outer loop
      vertex 26.5145 19.7846 110.835
      vertex 27.0529 20.0724 114.835
      vertex 26.5145 19.7846 114.835
    endloop
  endfacet
  facet normal 0.471421 -0.881908 0
    outer loop
      vertex 27.0529 20.0724 114.835
      vertex 26.5145 19.7846 110.835
      vertex 27.0529 20.0724 110.835
    endloop
  endfacet
  facet normal 0.995192 -0.0979468 0
    outer loop
      vertex 25.1303 17.195 114.835
      vertex 25.1901 17.8026 110.835
      vertex 25.1901 17.8026 114.835
    endloop
  endfacet
  facet normal 0.995192 -0.0979468 0
    outer loop
      vertex 25.1901 17.8026 110.835
      vertex 25.1303 17.195 114.835
      vertex 25.1303 17.195 110.835
    endloop
  endfacet
  facet normal 0.634334 -0.773059 0
    outer loop
      vertex 26.0425 19.3973 110.835
      vertex 26.5145 19.7846 114.835
      vertex 26.0425 19.3973 114.835
    endloop
  endfacet
  facet normal 0.634334 -0.773059 0
    outer loop
      vertex 26.5145 19.7846 114.835
      vertex 26.0425 19.3973 110.835
      vertex 26.5145 19.7846 110.835
    endloop
  endfacet
  facet normal -0.634334 -0.773059 0
    outer loop
      vertex 29.9751 19.7846 110.835
      vertex 30.4471 19.3973 114.835
      vertex 29.9751 19.7846 114.835
    endloop
  endfacet
  facet normal -0.634334 -0.773059 -0
    outer loop
      vertex 30.4471 19.3973 114.835
      vertex 29.9751 19.7846 110.835
      vertex 30.4471 19.3973 110.835
    endloop
  endfacet
  facet normal 0.0979468 -0.995192 0
    outer loop
      vertex 27.6372 20.2497 110.835
      vertex 28.2448 20.3095 114.835
      vertex 27.6372 20.2497 114.835
    endloop
  endfacet
  facet normal 0.0979468 -0.995192 0
    outer loop
      vertex 28.2448 20.3095 114.835
      vertex 27.6372 20.2497 110.835
      vertex 28.2448 20.3095 110.835
    endloop
  endfacet
  facet normal 0.881908 -0.471421 0
    outer loop
      vertex 25.3674 18.3869 114.835
      vertex 25.6552 18.9253 110.835
      vertex 25.6552 18.9253 114.835
    endloop
  endfacet
  facet normal 0.881908 -0.471421 0
    outer loop
      vertex 25.6552 18.9253 110.835
      vertex 25.3674 18.3869 114.835
      vertex 25.3674 18.3869 110.835
    endloop
  endfacet
  facet normal 0.956916 -0.290366 0
    outer loop
      vertex 25.1901 17.8026 114.835
      vertex 25.3674 18.3869 110.835
      vertex 25.3674 18.3869 114.835
    endloop
  endfacet
  facet normal 0.956916 -0.290366 0
    outer loop
      vertex 25.3674 18.3869 110.835
      vertex 25.1901 17.8026 114.835
      vertex 25.1901 17.8026 110.835
    endloop
  endfacet
  facet normal -0.881908 -0.471421 0
    outer loop
      vertex 31.1222 18.3869 110.835
      vertex 30.8344 18.9253 114.835
      vertex 30.8344 18.9253 110.835
    endloop
  endfacet
  facet normal -0.881908 -0.471421 0
    outer loop
      vertex 30.8344 18.9253 114.835
      vertex 31.1222 18.3869 110.835
      vertex 31.1222 18.3869 114.835
    endloop
  endfacet
  facet normal 0.773059 -0.634334 0
    outer loop
      vertex 25.6552 18.9253 114.835
      vertex 26.0425 19.3973 110.835
      vertex 26.0425 19.3973 114.835
    endloop
  endfacet
  facet normal 0.773059 -0.634334 0
    outer loop
      vertex 26.0425 19.3973 110.835
      vertex 25.6552 18.9253 114.835
      vertex 25.6552 18.9253 110.835
    endloop
  endfacet
  facet normal 1 -0 0
    outer loop
      vertex 25.1303 12.2682 114.835
      vertex 25.1303 17.195 110.835
      vertex 25.1303 17.195 114.835
    endloop
  endfacet
  facet normal 1 0 0
    outer loop
      vertex 25.1303 17.195 110.835
      vertex 25.1303 12.2682 114.835
      vertex 25.1303 12.2682 110.835
    endloop
  endfacet
  facet normal -0.47138 -0.88193 0
    outer loop
      vertex 9.11667 20.0724 110.835
      vertex 9.65513 19.7846 114.835
      vertex 9.11667 20.0724 114.835
    endloop
  endfacet
  facet normal -0.47138 -0.88193 -0
    outer loop
      vertex 9.65513 19.7846 114.835
      vertex 9.11667 20.0724 110.835
      vertex 9.65513 19.7846 110.835
    endloop
  endfacet
  facet normal -1 0 0
    outer loop
      vertex 11.0393 12.2682 110.835
      vertex 11.0393 17.195 114.835
      vertex 11.0393 17.195 110.835
    endloop
  endfacet
  facet normal -1 -0 0
    outer loop
      vertex 11.0393 17.195 114.835
      vertex 11.0393 12.2682 110.835
      vertex 11.0393 12.2682 114.835
    endloop
  endfacet
  facet normal -0.956916 -0.290366 0
    outer loop
      vertex 10.9795 17.8026 110.835
      vertex 10.8022 18.3869 114.835
      vertex 10.8022 18.3869 110.835
    endloop
  endfacet
  facet normal -0.956916 -0.290366 0
    outer loop
      vertex 10.8022 18.3869 114.835
      vertex 10.9795 17.8026 110.835
      vertex 10.9795 17.8026 114.835
    endloop
  endfacet
  facet normal 0.0979452 -0.995192 0
    outer loop
      vertex 7.31719 20.2497 110.835
      vertex 7.9248 20.3095 114.835
      vertex 7.31719 20.2497 114.835
    endloop
  endfacet
  facet normal 0.0979452 -0.995192 0
    outer loop
      vertex 7.9248 20.3095 114.835
      vertex 7.31719 20.2497 110.835
      vertex 7.9248 20.3095 110.835
    endloop
  endfacet
  facet normal -0.634358 -0.773039 0
    outer loop
      vertex 9.65513 19.7846 110.835
      vertex 10.1271 19.3973 114.835
      vertex 9.65513 19.7846 114.835
    endloop
  endfacet
  facet normal -0.634358 -0.773039 -0
    outer loop
      vertex 10.1271 19.3973 114.835
      vertex 9.65513 19.7846 110.835
      vertex 10.1271 19.3973 110.835
    endloop
  endfacet
  facet normal -0.773059 -0.634334 0
    outer loop
      vertex 10.5144 18.9253 110.835
      vertex 10.1271 19.3973 114.835
      vertex 10.1271 19.3973 110.835
    endloop
  endfacet
  facet normal -0.773059 -0.634334 0
    outer loop
      vertex 10.1271 19.3973 114.835
      vertex 10.5144 18.9253 110.835
      vertex 10.5144 18.9253 114.835
    endloop
  endfacet
  facet normal -0.995192 -0.0979468 0
    outer loop
      vertex 11.0393 17.195 110.835
      vertex 10.9795 17.8026 114.835
      vertex 10.9795 17.8026 110.835
    endloop
  endfacet
  facet normal -0.995192 -0.0979468 0
    outer loop
      vertex 10.9795 17.8026 114.835
      vertex 11.0393 17.195 110.835
      vertex 11.0393 17.195 114.835
    endloop
  endfacet
  facet normal 0.634366 -0.773033 0
    outer loop
      vertex 5.72251 19.3973 110.835
      vertex 6.19447 19.7846 114.835
      vertex 5.72251 19.3973 114.835
    endloop
  endfacet
  facet normal 0.634366 -0.773033 0
    outer loop
      vertex 6.19447 19.7846 114.835
      vertex 5.72251 19.3973 110.835
      vertex 6.19447 19.7846 110.835
    endloop
  endfacet
  facet normal 1 -0 0
    outer loop
      vertex 4.81028 12.2682 114.835
      vertex 4.81028 17.195 110.835
      vertex 4.81028 17.195 114.835
    endloop
  endfacet
  facet normal 1 0 0
    outer loop
      vertex 4.81028 17.195 110.835
      vertex 4.81028 12.2682 114.835
      vertex 4.81028 12.2682 110.835
    endloop
  endfacet
  facet normal 0.290385 -0.95691 0
    outer loop
      vertex 6.73293 20.0724 110.835
      vertex 7.31719 20.2497 114.835
      vertex 6.73293 20.0724 114.835
    endloop
  endfacet
  facet normal 0.290385 -0.95691 0
    outer loop
      vertex 7.31719 20.2497 114.835
      vertex 6.73293 20.0724 110.835
      vertex 7.31719 20.2497 110.835
    endloop
  endfacet
  facet normal -0.0979452 -0.995192 0
    outer loop
      vertex 7.9248 20.3095 110.835
      vertex 8.53241 20.2497 114.835
      vertex 7.9248 20.3095 114.835
    endloop
  endfacet
  facet normal -0.0979452 -0.995192 -0
    outer loop
      vertex 8.53241 20.2497 114.835
      vertex 7.9248 20.3095 110.835
      vertex 8.53241 20.2497 110.835
    endloop
  endfacet
  facet normal -0.881908 -0.471421 0
    outer loop
      vertex 10.8022 18.3869 110.835
      vertex 10.5144 18.9253 114.835
      vertex 10.5144 18.9253 110.835
    endloop
  endfacet
  facet normal -0.881908 -0.471421 0
    outer loop
      vertex 10.5144 18.9253 114.835
      vertex 10.8022 18.3869 110.835
      vertex 10.8022 18.3869 114.835
    endloop
  endfacet
  facet normal 0.881895 -0.471447 0
    outer loop
      vertex 5.04736 18.3869 114.835
      vertex 5.33518 18.9253 110.835
      vertex 5.33518 18.9253 114.835
    endloop
  endfacet
  facet normal 0.881895 -0.471447 0
    outer loop
      vertex 5.33518 18.9253 110.835
      vertex 5.04736 18.3869 114.835
      vertex 5.04736 18.3869 110.835
    endloop
  endfacet
  facet normal 0.47138 -0.88193 0
    outer loop
      vertex 6.19447 19.7846 110.835
      vertex 6.73293 20.0724 114.835
      vertex 6.19447 19.7846 114.835
    endloop
  endfacet
  facet normal 0.47138 -0.88193 0
    outer loop
      vertex 6.73293 20.0724 114.835
      vertex 6.19447 19.7846 110.835
      vertex 6.73293 20.0724 110.835
    endloop
  endfacet
  facet normal 0.995184 -0.0980279 0
    outer loop
      vertex 4.81028 17.195 114.835
      vertex 4.87013 17.8026 110.835
      vertex 4.87013 17.8026 114.835
    endloop
  endfacet
  facet normal 0.995184 -0.0980279 0
    outer loop
      vertex 4.87013 17.8026 110.835
      vertex 4.81028 17.195 114.835
      vertex 4.81028 17.195 110.835
    endloop
  endfacet
  facet normal -0.290385 -0.95691 0
    outer loop
      vertex 8.53241 20.2497 110.835
      vertex 9.11667 20.0724 114.835
      vertex 8.53241 20.2497 114.835
    endloop
  endfacet
  facet normal -0.290385 -0.95691 -0
    outer loop
      vertex 9.11667 20.0724 114.835
      vertex 8.53241 20.2497 110.835
      vertex 9.11667 20.0724 110.835
    endloop
  endfacet
  facet normal 0.956947 -0.290261 0
    outer loop
      vertex 4.87013 17.8026 114.835
      vertex 5.04736 18.3869 110.835
      vertex 5.04736 18.3869 114.835
    endloop
  endfacet
  facet normal 0.956947 -0.290261 0
    outer loop
      vertex 5.04736 18.3869 110.835
      vertex 4.87013 17.8026 114.835
      vertex 4.87013 17.8026 110.835
    endloop
  endfacet
  facet normal 0 0 -1
    outer loop
      vertex 4.81028 17.195 114.835
      vertex 11.0393 17.195 114.835
      vertex 11.0393 12.2682 114.835
    endloop
  endfacet
  facet normal 0 0 -1
    outer loop
      vertex 11.0393 17.195 114.835
      vertex 4.81028 17.195 114.835
      vertex 10.9795 17.8026 114.835
    endloop
  endfacet
  facet normal -0 0 -1
    outer loop
      vertex 10.9795 17.8026 114.835
      vertex 4.81028 17.195 114.835
      vertex 10.8022 18.3869 114.835
    endloop
  endfacet
  facet normal -0 0 -1
    outer loop
      vertex 10.8022 18.3869 114.835
      vertex 4.81028 17.195 114.835
      vertex 10.5144 18.9253 114.835
    endloop
  endfacet
  facet normal -0 0 -1
    outer loop
      vertex 10.5144 18.9253 114.835
      vertex 4.81028 17.195 114.835
      vertex 10.1271 19.3973 114.835
    endloop
  endfacet
  facet normal -0 0 -1
    outer loop
      vertex 10.1271 19.3973 114.835
      vertex 4.81028 17.195 114.835
      vertex 9.65513 19.7846 114.835
    endloop
  endfacet
  facet normal -0 0 -1
    outer loop
      vertex 9.65513 19.7846 114.835
      vertex 4.81028 17.195 114.835
      vertex 9.11667 20.0724 114.835
    endloop
  endfacet
  facet normal -0 0 -1
    outer loop
      vertex 9.11667 20.0724 114.835
      vertex 4.81028 17.195 114.835
      vertex 8.53241 20.2497 114.835
    endloop
  endfacet
  facet normal -0 0 -1
    outer loop
      vertex 8.53241 20.2497 114.835
      vertex 4.81028 17.195 114.835
      vertex 7.9248 20.3095 114.835
    endloop
  endfacet
  facet normal 0 0 -1
    outer loop
      vertex 7.9248 20.3095 114.835
      vertex 4.81028 17.195 114.835
      vertex 7.31719 20.2497 114.835
    endloop
  endfacet
  facet normal 0 0 -1
    outer loop
      vertex 7.31719 20.2497 114.835
      vertex 4.81028 17.195 114.835
      vertex 6.73293 20.0724 114.835
    endloop
  endfacet
  facet normal 0 0 -1
    outer loop
      vertex 6.73293 20.0724 114.835
      vertex 4.81028 17.195 114.835
      vertex 6.19447 19.7846 114.835
    endloop
  endfacet
  facet normal 0 0 -1
    outer loop
      vertex 6.19447 19.7846 114.835
      vertex 4.81028 17.195 114.835
      vertex 5.72251 19.3973 114.835
    endloop
  endfacet
  facet normal 0 0 -1
    outer loop
      vertex 5.72251 19.3973 114.835
      vertex 4.81028 17.195 114.835
      vertex 5.33518 18.9253 114.835
    endloop
  endfacet
  facet normal 0 0 -1
    outer loop
      vertex 5.33518 18.9253 114.835
      vertex 4.81028 17.195 114.835
      vertex 5.04736 18.3869 114.835
    endloop
  endfacet
  facet normal 0 0 -1
    outer loop
      vertex 4.81028 17.195 114.835
      vertex 11.0393 12.2682 114.835
      vertex 4.81028 12.2682 114.835
    endloop
  endfacet
  facet normal 0 0 -1
    outer loop
      vertex 5.04736 18.3869 114.835
      vertex 4.81028 17.195 114.835
      vertex 4.87013 17.8026 114.835
    endloop
  endfacet
  facet normal 0.773035 -0.634364 0
    outer loop
      vertex 5.33518 18.9253 114.835
      vertex 5.72251 19.3973 110.835
      vertex 5.72251 19.3973 114.835
    endloop
  endfacet
  facet normal 0.773035 -0.634364 0
    outer loop
      vertex 5.72251 19.3973 110.835
      vertex 5.33518 18.9253 114.835
      vertex 5.33518 18.9253 110.835
    endloop
  endfacet
  facet normal -0.0979468 -0.995192 0
    outer loop
      vertex -12.3952 20.3095 110.835
      vertex -11.7876 20.2497 114.835
      vertex -12.3952 20.3095 114.835
    endloop
  endfacet
  facet normal -0.0979468 -0.995192 -0
    outer loop
      vertex -11.7876 20.2497 114.835
      vertex -12.3952 20.3095 110.835
      vertex -11.7876 20.2497 110.835
    endloop
  endfacet
  facet normal 0 0 -1
    outer loop
      vertex -15.5097 17.195 114.835
      vertex -9.28068 17.195 114.835
      vertex -9.28068 12.2682 114.835
    endloop
  endfacet
  facet normal 0 0 -1
    outer loop
      vertex -9.28068 17.195 114.835
      vertex -15.5097 17.195 114.835
      vertex -9.34053 17.8026 114.835
    endloop
  endfacet
  facet normal -0 0 -1
    outer loop
      vertex -9.34053 17.8026 114.835
      vertex -15.5097 17.195 114.835
      vertex -9.51776 18.3869 114.835
    endloop
  endfacet
  facet normal -0 0 -1
    outer loop
      vertex -9.51776 18.3869 114.835
      vertex -15.5097 17.195 114.835
      vertex -9.80558 18.9253 114.835
    endloop
  endfacet
  facet normal -0 0 -1
    outer loop
      vertex -9.80558 18.9253 114.835
      vertex -15.5097 17.195 114.835
      vertex -10.1929 19.3973 114.835
    endloop
  endfacet
  facet normal -0 0 -1
    outer loop
      vertex -10.1929 19.3973 114.835
      vertex -15.5097 17.195 114.835
      vertex -10.6649 19.7846 114.835
    endloop
  endfacet
  facet normal -0 0 -1
    outer loop
      vertex -10.6649 19.7846 114.835
      vertex -15.5097 17.195 114.835
      vertex -11.2033 20.0724 114.835
    endloop
  endfacet
  facet normal -0 0 -1
    outer loop
      vertex -11.2033 20.0724 114.835
      vertex -15.5097 17.195 114.835
      vertex -11.7876 20.2497 114.835
    endloop
  endfacet
  facet normal -0 0 -1
    outer loop
      vertex -11.7876 20.2497 114.835
      vertex -15.5097 17.195 114.835
      vertex -12.3952 20.3095 114.835
    endloop
  endfacet
  facet normal 0 0 -1
    outer loop
      vertex -12.3952 20.3095 114.835
      vertex -15.5097 17.195 114.835
      vertex -13.0028 20.2497 114.835
    endloop
  endfacet
  facet normal 0 0 -1
    outer loop
      vertex -13.0028 20.2497 114.835
      vertex -15.5097 17.195 114.835
      vertex -13.5871 20.0724 114.835
    endloop
  endfacet
  facet normal 0 0 -1
    outer loop
      vertex -13.5871 20.0724 114.835
      vertex -15.5097 17.195 114.835
      vertex -14.1255 19.7846 114.835
    endloop
  endfacet
  facet normal 0 0 -1
    outer loop
      vertex -14.1255 19.7846 114.835
      vertex -15.5097 17.195 114.835
      vertex -14.5975 19.3973 114.835
    endloop
  endfacet
  facet normal 0 0 -1
    outer loop
      vertex -14.5975 19.3973 114.835
      vertex -15.5097 17.195 114.835
      vertex -14.9848 18.9253 114.835
    endloop
  endfacet
  facet normal 0 0 -1
    outer loop
      vertex -14.9848 18.9253 114.835
      vertex -15.5097 17.195 114.835
      vertex -15.2726 18.3869 114.835
    endloop
  endfacet
  facet normal 0 0 -1
    outer loop
      vertex -15.5097 17.195 114.835
      vertex -9.28068 12.2682 114.835
      vertex -15.5097 12.2682 114.835
    endloop
  endfacet
  facet normal 0 0 -1
    outer loop
      vertex -15.2726 18.3869 114.835
      vertex -15.5097 17.195 114.835
      vertex -15.4499 17.8026 114.835
    endloop
  endfacet
  facet normal -1 0 0
    outer loop
      vertex -9.28068 12.2682 110.835
      vertex -9.28068 17.195 114.835
      vertex -9.28068 17.195 110.835
    endloop
  endfacet
  facet normal -1 -0 0
    outer loop
      vertex -9.28068 17.195 114.835
      vertex -9.28068 12.2682 110.835
      vertex -9.28068 12.2682 114.835
    endloop
  endfacet
  facet normal 0.471421 -0.881908 0
    outer loop
      vertex -14.1255 19.7846 110.835
      vertex -13.5871 20.0724 114.835
      vertex -14.1255 19.7846 114.835
    endloop
  endfacet
  facet normal 0.471421 -0.881908 0
    outer loop
      vertex -13.5871 20.0724 114.835
      vertex -14.1255 19.7846 110.835
      vertex -13.5871 20.0724 110.835
    endloop
  endfacet
  facet normal -0.634334 -0.773059 0
    outer loop
      vertex -10.6649 19.7846 110.835
      vertex -10.1929 19.3973 114.835
      vertex -10.6649 19.7846 114.835
    endloop
  endfacet
  facet normal -0.634334 -0.773059 -0
    outer loop
      vertex -10.1929 19.3973 114.835
      vertex -10.6649 19.7846 110.835
      vertex -10.1929 19.3973 110.835
    endloop
  endfacet
  facet normal 0.995192 -0.0979468 0
    outer loop
      vertex -15.5097 17.195 114.835
      vertex -15.4499 17.8026 110.835
      vertex -15.4499 17.8026 114.835
    endloop
  endfacet
  facet normal 0.995192 -0.0979468 0
    outer loop
      vertex -15.4499 17.8026 110.835
      vertex -15.5097 17.195 114.835
      vertex -15.5097 17.195 110.835
    endloop
  endfacet
  facet normal 1 -0 0
    outer loop
      vertex -15.5097 12.2682 114.835
      vertex -15.5097 17.195 110.835
      vertex -15.5097 17.195 114.835
    endloop
  endfacet
  facet normal 1 0 0
    outer loop
      vertex -15.5097 17.195 110.835
      vertex -15.5097 12.2682 114.835
      vertex -15.5097 12.2682 110.835
    endloop
  endfacet
  facet normal -0.995184 -0.0980279 0
    outer loop
      vertex -9.28068 17.195 110.835
      vertex -9.34053 17.8026 114.835
      vertex -9.34053 17.8026 110.835
    endloop
  endfacet
  facet normal -0.995184 -0.0980279 0
    outer loop
      vertex -9.34053 17.8026 114.835
      vertex -9.28068 17.195 110.835
      vertex -9.28068 17.195 114.835
    endloop
  endfacet
  facet normal 0.0979468 -0.995192 0
    outer loop
      vertex -13.0028 20.2497 110.835
      vertex -12.3952 20.3095 114.835
      vertex -13.0028 20.2497 114.835
    endloop
  endfacet
  facet normal 0.0979468 -0.995192 0
    outer loop
      vertex -12.3952 20.3095 114.835
      vertex -13.0028 20.2497 110.835
      vertex -12.3952 20.3095 110.835
    endloop
  endfacet
  facet normal 0.290366 -0.956916 0
    outer loop
      vertex -13.5871 20.0724 110.835
      vertex -13.0028 20.2497 114.835
      vertex -13.5871 20.0724 114.835
    endloop
  endfacet
  facet normal 0.290366 -0.956916 0
    outer loop
      vertex -13.0028 20.2497 114.835
      vertex -13.5871 20.0724 110.835
      vertex -13.0028 20.2497 110.835
    endloop
  endfacet
  facet normal -0.956947 -0.290261 0
    outer loop
      vertex -9.34053 17.8026 110.835
      vertex -9.51776 18.3869 114.835
      vertex -9.51776 18.3869 110.835
    endloop
  endfacet
  facet normal -0.956947 -0.290261 0
    outer loop
      vertex -9.51776 18.3869 114.835
      vertex -9.34053 17.8026 110.835
      vertex -9.34053 17.8026 114.835
    endloop
  endfacet
  facet normal 0.956916 -0.290366 0
    outer loop
      vertex -15.4499 17.8026 114.835
      vertex -15.2726 18.3869 110.835
      vertex -15.2726 18.3869 114.835
    endloop
  endfacet
  facet normal 0.956916 -0.290366 0
    outer loop
      vertex -15.2726 18.3869 110.835
      vertex -15.4499 17.8026 114.835
      vertex -15.4499 17.8026 110.835
    endloop
  endfacet
  facet normal -0.471421 -0.881908 0
    outer loop
      vertex -11.2033 20.0724 110.835
      vertex -10.6649 19.7846 114.835
      vertex -11.2033 20.0724 114.835
    endloop
  endfacet
  facet normal -0.471421 -0.881908 -0
    outer loop
      vertex -10.6649 19.7846 114.835
      vertex -11.2033 20.0724 110.835
      vertex -10.6649 19.7846 110.835
    endloop
  endfacet
  facet normal -0.881895 -0.471447 0
    outer loop
      vertex -9.51776 18.3869 110.835
      vertex -9.80558 18.9253 114.835
      vertex -9.80558 18.9253 110.835
    endloop
  endfacet
  facet normal -0.881895 -0.471447 0
    outer loop
      vertex -9.80558 18.9253 114.835
      vertex -9.51776 18.3869 110.835
      vertex -9.51776 18.3869 114.835
    endloop
  endfacet
  facet normal 0.634334 -0.773059 0
    outer loop
      vertex -14.5975 19.3973 110.835
      vertex -14.1255 19.7846 114.835
      vertex -14.5975 19.3973 114.835
    endloop
  endfacet
  facet normal 0.634334 -0.773059 0
    outer loop
      vertex -14.1255 19.7846 114.835
      vertex -14.5975 19.3973 110.835
      vertex -14.1255 19.7846 110.835
    endloop
  endfacet
  facet normal -0.290366 -0.956916 0
    outer loop
      vertex -11.7876 20.2497 110.835
      vertex -11.2033 20.0724 114.835
      vertex -11.7876 20.2497 114.835
    endloop
  endfacet
  facet normal -0.290366 -0.956916 -0
    outer loop
      vertex -11.2033 20.0724 114.835
      vertex -11.7876 20.2497 110.835
      vertex -11.2033 20.0724 110.835
    endloop
  endfacet
  facet normal -0.773043 -0.634354 0
    outer loop
      vertex -9.80558 18.9253 110.835
      vertex -10.1929 19.3973 114.835
      vertex -10.1929 19.3973 110.835
    endloop
  endfacet
  facet normal -0.773043 -0.634354 0
    outer loop
      vertex -10.1929 19.3973 114.835
      vertex -9.80558 18.9253 110.835
      vertex -9.80558 18.9253 114.835
    endloop
  endfacet
  facet normal 0.773059 -0.634334 0
    outer loop
      vertex -14.9848 18.9253 114.835
      vertex -14.5975 19.3973 110.835
      vertex -14.5975 19.3973 114.835
    endloop
  endfacet
  facet normal 0.773059 -0.634334 0
    outer loop
      vertex -14.5975 19.3973 110.835
      vertex -14.9848 18.9253 114.835
      vertex -14.9848 18.9253 110.835
    endloop
  endfacet
  facet normal 0.881908 -0.471421 0
    outer loop
      vertex -15.2726 18.3869 114.835
      vertex -14.9848 18.9253 110.835
      vertex -14.9848 18.9253 114.835
    endloop
  endfacet
  facet normal 0.881908 -0.471421 0
    outer loop
      vertex -14.9848 18.9253 110.835
      vertex -15.2726 18.3869 114.835
      vertex -15.2726 18.3869 110.835
    endloop
  endfacet
  facet normal -0.595508 0.80335 0
    outer loop
      vertex -30.2543 23.9311 109.835
      vertex -30.412 23.8142 115.835
      vertex -30.2543 23.9311 115.835
    endloop
  endfacet
  facet normal -0.595508 0.80335 0
    outer loop
      vertex -30.412 23.8142 115.835
      vertex -30.2543 23.9311 109.835
      vertex -30.412 23.8142 109.835
    endloop
  endfacet
  facet normal 0.45055 0.751513 0.481906
    outer loop
      vertex 56.1368 18.2682 123.835
      vertex 55.2479 23.9311 115.835
      vertex 55.0796 24.032 115.835
    endloop
  endfacet
  facet normal -0.80335 0.595508 0
    outer loop
      vertex -30.8061 23.3793 109.835
      vertex -30.6892 23.537 115.835
      vertex -30.6892 23.537 109.835
    endloop
  endfacet
  facet normal -0.80335 0.595508 0
    outer loop
      vertex -30.6892 23.537 115.835
      vertex -30.8061 23.3793 109.835
      vertex -30.8061 23.3793 115.835
    endloop
  endfacet
  facet normal 0 -1 0
    outer loop
      vertex 31.3593 12.2682 110.835
      vertex 45.4503 12.2682 114.835
      vertex 31.3593 12.2682 114.835
    endloop
  endfacet
  facet normal 0 -1 -0
    outer loop
      vertex 45.4503 12.2682 114.835
      vertex 31.3593 12.2682 110.835
      vertex 45.4503 12.2682 110.835
    endloop
  endfacet
  facet normal 0 -1 0
    outer loop
      vertex 11.0393 12.2682 110.835
      vertex 25.1303 12.2682 114.835
      vertex 11.0393 12.2682 114.835
    endloop
  endfacet
  facet normal 0 -1 -0
    outer loop
      vertex 25.1303 12.2682 114.835
      vertex 11.0393 12.2682 110.835
      vertex 25.1303 12.2682 110.835
    endloop
  endfacet
  facet normal 0 -1 0
    outer loop
      vertex -9.28068 12.2682 110.835
      vertex 4.81028 12.2682 114.835
      vertex -9.28068 12.2682 114.835
    endloop
  endfacet
  facet normal 0 -1 -0
    outer loop
      vertex 4.81028 12.2682 114.835
      vertex -9.28068 12.2682 110.835
      vertex 4.81028 12.2682 110.835
    endloop
  endfacet
  facet normal 0 -1 0
    outer loop
      vertex -9.28068 12.2682 114.835
      vertex -31.1432 12.2682 123.835
      vertex -15.5097 12.2682 114.835
    endloop
  endfacet
  facet normal 0 -1 0
    outer loop
      vertex -31.1432 12.2682 123.835
      vertex -27.5082 12.2682 110.835
      vertex -15.5097 12.2682 114.835
    endloop
  endfacet
  facet normal 0 -1 0
    outer loop
      vertex -31.1432 12.2682 109.835
      vertex -27.5082 12.2682 110.835
      vertex -31.1432 12.2682 123.835
    endloop
  endfacet
  facet normal 0 -1 -0
    outer loop
      vertex -27.5082 12.2682 110.835
      vertex -31.1432 12.2682 109.835
      vertex -27.5082 12.2682 109.835
    endloop
  endfacet
  facet normal 0 -1 0
    outer loop
      vertex 4.81028 12.2682 114.835
      vertex -31.1432 12.2682 123.835
      vertex -9.28068 12.2682 114.835
    endloop
  endfacet
  facet normal 0 -1 0
    outer loop
      vertex 11.0393 12.2682 114.835
      vertex -31.1432 12.2682 123.835
      vertex 4.81028 12.2682 114.835
    endloop
  endfacet
  facet normal 0 -1 0
    outer loop
      vertex -31.1432 12.2682 123.835
      vertex 11.0393 12.2682 114.835
      vertex 56.1368 12.2682 123.835
    endloop
  endfacet
  facet normal 0 -1 0
    outer loop
      vertex 25.1303 12.2682 114.835
      vertex 56.1368 12.2682 123.835
      vertex 11.0393 12.2682 114.835
    endloop
  endfacet
  facet normal 0 -1 0
    outer loop
      vertex 31.3593 12.2682 114.835
      vertex 56.1368 12.2682 123.835
      vertex 25.1303 12.2682 114.835
    endloop
  endfacet
  facet normal 0 -1 0
    outer loop
      vertex 45.4503 12.2682 114.835
      vertex 56.1368 12.2682 123.835
      vertex 31.3593 12.2682 114.835
    endloop
  endfacet
  facet normal 0 -1 0
    outer loop
      vertex 51.6793 12.2682 114.835
      vertex 56.1368 12.2682 123.835
      vertex 45.4503 12.2682 114.835
    endloop
  endfacet
  facet normal 0 -1 0
    outer loop
      vertex 52.5018 12.2682 110.835
      vertex 51.6793 12.2682 114.835
      vertex 51.6793 12.2682 110.835
    endloop
  endfacet
  facet normal 0 -1 0
    outer loop
      vertex 56.1368 12.2682 109.835
      vertex 51.6793 12.2682 114.835
      vertex 52.5018 12.2682 110.835
    endloop
  endfacet
  facet normal 0 -1 0
    outer loop
      vertex 56.1368 12.2682 109.835
      vertex 52.5018 12.2682 110.835
      vertex 52.5018 12.2682 109.835
    endloop
  endfacet
  facet normal 0 -1 0
    outer loop
      vertex 51.6793 12.2682 114.835
      vertex 56.1368 12.2682 109.835
      vertex 56.1368 12.2682 123.835
    endloop
  endfacet
  facet normal 0 -1 -0
    outer loop
      vertex -15.5097 12.2682 114.835
      vertex -27.5082 12.2682 110.835
      vertex -15.5097 12.2682 110.835
    endloop
  endfacet
  facet normal 0.0393835 0.804081 0.593215
    outer loop
      vertex 56.1368 18.2682 123.835
      vertex 54.3328 24.2586 115.835
      vertex 54.1368 24.2682 115.835
    endloop
  endfacet
  facet normal 0.998504 0.0489063 0.0244532
    outer loop
      vertex 56.1368 18.2682 123.835
      vertex 56.1368 22.2682 115.835
      vertex 56.1272 22.4642 115.835
    endloop
  endfacet
  facet normal -0 0 1
    outer loop
      vertex -31.1432 18.2682 123.835
      vertex 56.1368 12.2682 123.835
      vertex 56.1368 18.2682 123.835
    endloop
  endfacet
  facet normal 0 0 1
    outer loop
      vertex 56.1368 12.2682 123.835
      vertex -31.1432 18.2682 123.835
      vertex -31.1432 12.2682 123.835
    endloop
  endfacet
  facet normal 0.970023 0.243015 0
    outer loop
      vertex 56.0984 22.6584 115.835
      vertex 56.0507 22.8488 109.835
      vertex 56.0507 22.8488 115.835
    endloop
  endfacet
  facet normal 0.970023 0.243015 0
    outer loop
      vertex 56.0507 22.8488 109.835
      vertex 56.0984 22.6584 115.835
      vertex 56.0984 22.6584 109.835
    endloop
  endfacet
  facet normal 0.989182 0.146696 0
    outer loop
      vertex 56.1272 22.4642 115.835
      vertex 56.0984 22.6584 109.835
      vertex 56.0984 22.6584 115.835
    endloop
  endfacet
  facet normal 0.989182 0.146696 0
    outer loop
      vertex 56.0984 22.6584 109.835
      vertex 56.1272 22.4642 115.835
      vertex 56.1272 22.4642 109.835
    endloop
  endfacet
  facet normal -0.336788 0.94158 0
    outer loop
      vertex -29.7238 24.1821 109.835
      vertex -29.9086 24.116 115.835
      vertex -29.7238 24.1821 115.835
    endloop
  endfacet
  facet normal -0.336788 0.94158 0
    outer loop
      vertex -29.9086 24.116 115.835
      vertex -29.7238 24.1821 109.835
      vertex -29.9086 24.116 109.835
    endloop
  endfacet
  facet normal 0.0489209 0.998803 -0
    outer loop
      vertex 54.3328 24.2586 109.835
      vertex 54.1368 24.2682 115.835
      vertex 54.3328 24.2586 115.835
    endloop
  endfacet
  facet normal 0.0489209 0.998803 0
    outer loop
      vertex 54.1368 24.2682 115.835
      vertex 54.3328 24.2586 109.835
      vertex 54.1368 24.2682 109.835
    endloop
  endfacet
  facet normal 0.998803 0.0489209 0
    outer loop
      vertex 56.1368 22.2682 115.835
      vertex 56.1272 22.4642 109.835
      vertex 56.1272 22.4642 115.835
    endloop
  endfacet
  facet normal 0.998803 0.0489209 0
    outer loop
      vertex 56.1272 22.4642 109.835
      vertex 56.1368 22.2682 115.835
      vertex 56.1368 22.2682 109.835
    endloop
  endfacet
  facet normal -0.671607 0.740908 0
    outer loop
      vertex -30.412 23.8142 109.835
      vertex -30.5574 23.6824 115.835
      vertex -30.412 23.8142 115.835
    endloop
  endfacet
  facet normal -0.671607 0.740908 0
    outer loop
      vertex -30.5574 23.6824 115.835
      vertex -30.412 23.8142 109.835
      vertex -30.5574 23.6824 109.835
    endloop
  endfacet
  facet normal -0.0489209 0.998803 0
    outer loop
      vertex -29.1432 24.2682 109.835
      vertex -29.3392 24.2586 115.835
      vertex -29.1432 24.2682 115.835
    endloop
  endfacet
  facet normal -0.0489209 0.998803 0
    outer loop
      vertex -29.3392 24.2586 115.835
      vertex -29.1432 24.2682 109.835
      vertex -29.3392 24.2586 109.835
    endloop
  endfacet
  facet normal -0.0393835 0.804081 0.593215
    outer loop
      vertex -29.1432 24.2682 115.835
      vertex -29.3392 24.2586 115.835
      vertex -31.1432 18.2682 123.835
    endloop
  endfacet
  facet normal 0.119748 0.807468 0.577629
    outer loop
      vertex 56.1368 18.2682 123.835
      vertex 54.527 24.2298 115.835
      vertex 54.3328 24.2586 115.835
    endloop
  endfacet
  facet normal -0.284144 0.794399 0.536835
    outer loop
      vertex -29.7238 24.1821 115.835
      vertex -29.9086 24.116 115.835
      vertex -31.1432 18.2682 123.835
    endloop
  endfacet
  facet normal 0 0.8 0.6
    outer loop
      vertex 54.1368 24.2682 115.835
      vertex -31.1432 18.2682 123.835
      vertex 56.1368 18.2682 123.835
    endloop
  endfacet
  facet normal 0 0.8 0.6
    outer loop
      vertex -31.1432 18.2682 123.835
      vertex 54.1368 24.2682 115.835
      vertex -29.1432 24.2682 115.835
    endloop
  endfacet
  facet normal -0.998803 0.0489209 0
    outer loop
      vertex -31.1432 22.2682 109.835
      vertex -31.1336 22.4642 115.835
      vertex -31.1336 22.4642 109.835
    endloop
  endfacet
  facet normal -0.998803 0.0489209 0
    outer loop
      vertex -31.1336 22.4642 115.835
      vertex -31.1432 22.2682 109.835
      vertex -31.1432 22.2682 115.835
    endloop
  endfacet
  facet normal 1 -0 0
    outer loop
      vertex 56.1368 12.2682 123.835
      vertex 56.1368 22.2682 115.835
      vertex 56.1368 18.2682 123.835
    endloop
  endfacet
  facet normal 1 0 0
    outer loop
      vertex 56.1368 22.2682 115.835
      vertex 56.1368 12.2682 123.835
      vertex 56.1368 12.2682 109.835
    endloop
  endfacet
  facet normal 1 0 0
    outer loop
      vertex 56.1368 22.2682 115.835
      vertex 56.1368 12.2682 109.835
      vertex 56.1368 22.2682 109.835
    endloop
  endfacet
  facet normal -0.857673 0.514196 0
    outer loop
      vertex -30.907 23.211 109.835
      vertex -30.8061 23.3793 115.835
      vertex -30.8061 23.3793 109.835
    endloop
  endfacet
  facet normal -0.857673 0.514196 0
    outer loop
      vertex -30.8061 23.3793 115.835
      vertex -30.907 23.211 109.835
      vertex -30.907 23.211 115.835
    endloop
  endfacet
  facet normal 0.926248 0.331304 0.179728
    outer loop
      vertex 56.1368 18.2682 123.835
      vertex 56.0507 22.8488 115.835
      vertex 55.9846 23.0336 115.835
    endloop
  endfacet
  facet normal -0.740908 0.671607 0
    outer loop
      vertex -30.6892 23.537 109.835
      vertex -30.5574 23.6824 115.835
      vertex -30.5574 23.6824 109.835
    endloop
  endfacet
  facet normal -0.740908 0.671607 0
    outer loop
      vertex -30.5574 23.6824 115.835
      vertex -30.6892 23.537 109.835
      vertex -30.6892 23.537 115.835
    endloop
  endfacet
  facet normal 0.243015 0.970023 -0
    outer loop
      vertex 54.7174 24.1821 109.835
      vertex 54.527 24.2298 115.835
      vertex 54.7174 24.1821 115.835
    endloop
  endfacet
  facet normal 0.243015 0.970023 0
    outer loop
      vertex 54.527 24.2298 115.835
      vertex 54.7174 24.1821 109.835
      vertex 54.527 24.2298 109.835
    endloop
  endfacet
  facet normal -0.9038 0.427955 0
    outer loop
      vertex -30.991 23.0336 109.835
      vertex -30.907 23.211 115.835
      vertex -30.907 23.211 109.835
    endloop
  endfacet
  facet normal -0.9038 0.427955 0
    outer loop
      vertex -30.907 23.211 115.835
      vertex -30.991 23.0336 109.835
      vertex -30.991 23.0336 115.835
    endloop
  endfacet
  facet normal -0.962087 0.241027 0.127652
    outer loop
      vertex -31.0571 22.8488 115.835
      vertex -31.1048 22.6584 115.835
      vertex -31.1432 18.2682 123.835
    endloop
  endfacet
  facet normal -0.532107 0.717821 0.448995
    outer loop
      vertex -30.2543 23.9311 115.835
      vertex -30.412 23.8142 115.835
      vertex -31.1432 18.2682 123.835
    endloop
  endfacet
  facet normal -0.36784 0.776843 0.511086
    outer loop
      vertex -29.9086 24.116 115.835
      vertex -30.086 24.032 115.835
      vertex -31.1432 18.2682 123.835
    endloop
  endfacet
  facet normal 0.595508 0.80335 -0
    outer loop
      vertex 55.4056 23.8142 109.835
      vertex 55.2479 23.9311 115.835
      vertex 55.4056 23.8142 115.835
    endloop
  endfacet
  facet normal 0.595508 0.80335 0
    outer loop
      vertex 55.2479 23.9311 115.835
      vertex 55.4056 23.8142 109.835
      vertex 55.2479 23.9311 109.835
    endloop
  endfacet
  facet normal -0.20152 0.80439 0.55888
    outer loop
      vertex -29.5334 24.2298 115.835
      vertex -29.7238 24.1821 115.835
      vertex -31.1432 18.2682 123.835
    endloop
  endfacet
  facet normal 0 1 0
    outer loop
      vertex 54.1368 24.2682 115.835
      vertex 52.5018 24.2682 110.835
      vertex -29.1432 24.2682 115.835
    endloop
  endfacet
  facet normal 0 1 -0
    outer loop
      vertex 54.1368 24.2682 109.835
      vertex 52.5018 24.2682 110.835
      vertex 54.1368 24.2682 115.835
    endloop
  endfacet
  facet normal 0 1 0
    outer loop
      vertex 52.5018 24.2682 110.835
      vertex 54.1368 24.2682 109.835
      vertex 52.5018 24.2682 109.835
    endloop
  endfacet
  facet normal 0 1 -0
    outer loop
      vertex -27.5082 24.2682 110.835
      vertex -29.1432 24.2682 115.835
      vertex 52.5018 24.2682 110.835
    endloop
  endfacet
  facet normal 0 1 0
    outer loop
      vertex -29.1432 24.2682 109.835
      vertex -27.5082 24.2682 110.835
      vertex -27.5082 24.2682 109.835
    endloop
  endfacet
  facet normal 0 1 0
    outer loop
      vertex -27.5082 24.2682 110.835
      vertex -29.1432 24.2682 109.835
      vertex -29.1432 24.2682 115.835
    endloop
  endfacet
  facet normal -0.759047 0.562667 0.327497
    outer loop
      vertex -30.6892 23.537 115.835
      vertex -30.8061 23.3793 115.835
      vertex -31.1432 18.2682 123.835
    endloop
  endfacet
  facet normal -0.94158 0.336788 0
    outer loop
      vertex -31.0571 22.8488 109.835
      vertex -30.991 23.0336 115.835
      vertex -30.991 23.0336 109.835
    endloop
  endfacet
  facet normal -0.94158 0.336788 0
    outer loop
      vertex -30.991 23.0336 115.835
      vertex -31.0571 22.8488 109.835
      vertex -31.0571 22.8488 115.835
    endloop
  endfacet
  facet normal 0.532107 0.717821 0.448995
    outer loop
      vertex 56.1368 18.2682 123.835
      vertex 55.4056 23.8142 115.835
      vertex 55.2479 23.9311 115.835
    endloop
  endfacet
  facet normal -0.427955 0.9038 0
    outer loop
      vertex -29.9086 24.116 109.835
      vertex -30.086 24.032 115.835
      vertex -29.9086 24.116 115.835
    endloop
  endfacet
  facet normal -0.427955 0.9038 0
    outer loop
      vertex -30.086 24.032 115.835
      vertex -29.9086 24.116 109.835
      vertex -30.086 24.032 109.835
    endloop
  endfacet
  facet normal -1 0 0
    outer loop
      vertex -31.1432 12.2682 109.835
      vertex -31.1432 22.2682 115.835
      vertex -31.1432 22.2682 109.835
    endloop
  endfacet
  facet normal -1 0 0
    outer loop
      vertex -31.1432 12.2682 123.835
      vertex -31.1432 22.2682 115.835
      vertex -31.1432 12.2682 109.835
    endloop
  endfacet
  facet normal -1 0 0
    outer loop
      vertex -31.1432 22.2682 115.835
      vertex -31.1432 12.2682 123.835
      vertex -31.1432 18.2682 123.835
    endloop
  endfacet
  facet normal -0.879295 0.416352 0.231282
    outer loop
      vertex -30.907 23.211 115.835
      vertex -30.991 23.0336 115.835
      vertex -31.1432 18.2682 123.835
    endloop
  endfacet
  facet normal -0.45055 0.751513 0.481906
    outer loop
      vertex -30.086 24.032 115.835
      vertex -30.2543 23.9311 115.835
      vertex -31.1432 18.2682 123.835
    endloop
  endfacet
  facet normal -0.119748 0.807468 0.577629
    outer loop
      vertex -29.3392 24.2586 115.835
      vertex -29.5334 24.2298 115.835
      vertex -31.1432 18.2682 123.835
    endloop
  endfacet
  facet normal -0.514196 0.857673 0
    outer loop
      vertex -30.086 24.032 109.835
      vertex -30.2543 23.9311 115.835
      vertex -30.086 24.032 115.835
    endloop
  endfacet
  facet normal -0.514196 0.857673 0
    outer loop
      vertex -30.2543 23.9311 115.835
      vertex -30.086 24.032 109.835
      vertex -30.2543 23.9311 109.835
    endloop
  endfacet
  facet normal 0.284144 0.794399 0.536835
    outer loop
      vertex 56.1368 18.2682 123.835
      vertex 54.9022 24.116 115.835
      vertex 54.7174 24.1821 115.835
    endloop
  endfacet
  facet normal 0.740908 0.671607 0
    outer loop
      vertex 55.6828 23.537 115.835
      vertex 55.551 23.6824 109.835
      vertex 55.551 23.6824 115.835
    endloop
  endfacet
  facet normal 0.740908 0.671607 0
    outer loop
      vertex 55.551 23.6824 109.835
      vertex 55.6828 23.537 115.835
      vertex 55.6828 23.537 109.835
    endloop
  endfacet
  facet normal 0.336788 0.94158 -0
    outer loop
      vertex 54.9022 24.116 109.835
      vertex 54.7174 24.1821 115.835
      vertex 54.9022 24.116 115.835
    endloop
  endfacet
  facet normal 0.336788 0.94158 0
    outer loop
      vertex 54.7174 24.1821 115.835
      vertex 54.9022 24.116 109.835
      vertex 54.7174 24.1821 109.835
    endloop
  endfacet
  facet normal 0.94158 0.336788 0
    outer loop
      vertex 56.0507 22.8488 115.835
      vertex 55.9846 23.0336 109.835
      vertex 55.9846 23.0336 115.835
    endloop
  endfacet
  facet normal 0.94158 0.336788 0
    outer loop
      vertex 55.9846 23.0336 109.835
      vertex 56.0507 22.8488 115.835
      vertex 56.0507 22.8488 109.835
    endloop
  endfacet
  facet normal 0.962087 0.241027 0.127652
    outer loop
      vertex 56.1368 18.2682 123.835
      vertex 56.0984 22.6584 115.835
      vertex 56.0507 22.8488 115.835
    endloop
  endfacet
  facet normal -0.998504 0.0489063 0.0244532
    outer loop
      vertex -31.1336 22.4642 115.835
      vertex -31.1432 22.2682 115.835
      vertex -31.1432 18.2682 123.835
    endloop
  endfacet
  facet normal -0.986355 0.146277 0.0755388
    outer loop
      vertex -31.1048 22.6584 115.835
      vertex -31.1336 22.4642 115.835
      vertex -31.1432 18.2682 123.835
    endloop
  endfacet
  facet normal -0.970023 0.243015 0
    outer loop
      vertex -31.1048 22.6584 109.835
      vertex -31.0571 22.8488 115.835
      vertex -31.0571 22.8488 109.835
    endloop
  endfacet
  facet normal -0.970023 0.243015 0
    outer loop
      vertex -31.0571 22.8488 115.835
      vertex -31.1048 22.6584 109.835
      vertex -31.1048 22.6584 115.835
    endloop
  endfacet
  facet normal 0.514196 0.857673 -0
    outer loop
      vertex 55.2479 23.9311 109.835
      vertex 55.0796 24.032 115.835
      vertex 55.2479 23.9311 115.835
    endloop
  endfacet
  facet normal 0.514196 0.857673 0
    outer loop
      vertex 55.0796 24.032 115.835
      vertex 55.2479 23.9311 109.835
      vertex 55.0796 24.032 109.835
    endloop
  endfacet
  facet normal 0.80335 0.595508 0
    outer loop
      vertex 55.7997 23.3793 115.835
      vertex 55.6828 23.537 109.835
      vertex 55.6828 23.537 115.835
    endloop
  endfacet
  facet normal 0.80335 0.595508 0
    outer loop
      vertex 55.6828 23.537 109.835
      vertex 55.7997 23.3793 115.835
      vertex 55.7997 23.3793 109.835
    endloop
  endfacet
  facet normal -0.243015 0.970023 0
    outer loop
      vertex -29.5334 24.2298 109.835
      vertex -29.7238 24.1821 115.835
      vertex -29.5334 24.2298 115.835
    endloop
  endfacet
  facet normal -0.243015 0.970023 0
    outer loop
      vertex -29.7238 24.1821 115.835
      vertex -29.5334 24.2298 109.835
      vertex -29.7238 24.1821 109.835
    endloop
  endfacet
  facet normal 0.20152 0.80439 0.55888
    outer loop
      vertex 56.1368 18.2682 123.835
      vertex 54.7174 24.1821 115.835
      vertex 54.527 24.2298 115.835
    endloop
  endfacet
  facet normal 0.427955 0.9038 -0
    outer loop
      vertex 55.0796 24.032 109.835
      vertex 54.9022 24.116 115.835
      vertex 55.0796 24.032 115.835
    endloop
  endfacet
  facet normal 0.427955 0.9038 0
    outer loop
      vertex 54.9022 24.116 115.835
      vertex 55.0796 24.032 109.835
      vertex 54.9022 24.116 109.835
    endloop
  endfacet
  facet normal -0.989182 0.146696 0
    outer loop
      vertex -31.1336 22.4642 109.835
      vertex -31.1048 22.6584 115.835
      vertex -31.1048 22.6584 109.835
    endloop
  endfacet
  facet normal -0.989182 0.146696 0
    outer loop
      vertex -31.1048 22.6584 115.835
      vertex -31.1336 22.4642 109.835
      vertex -31.1336 22.4642 115.835
    endloop
  endfacet
  facet normal 0.823209 0.493534 0.280625
    outer loop
      vertex 56.1368 18.2682 123.835
      vertex 55.9006 23.211 115.835
      vertex 55.7997 23.3793 115.835
    endloop
  endfacet
  facet normal 0 0 -1
    outer loop
      vertex -31.1432 22.2682 109.835
      vertex -27.5082 24.2682 109.835
      vertex -27.5082 12.2682 109.835
    endloop
  endfacet
  facet normal -0 0 -1
    outer loop
      vertex -27.5082 24.2682 109.835
      vertex -31.1432 22.2682 109.835
      vertex -29.1432 24.2682 109.835
    endloop
  endfacet
  facet normal 0 0 -1
    outer loop
      vertex -29.1432 24.2682 109.835
      vertex -31.1432 22.2682 109.835
      vertex -29.3392 24.2586 109.835
    endloop
  endfacet
  facet normal 0 0 -1
    outer loop
      vertex -29.3392 24.2586 109.835
      vertex -31.1432 22.2682 109.835
      vertex -29.5334 24.2298 109.835
    endloop
  endfacet
  facet normal 0 0 -1
    outer loop
      vertex -29.5334 24.2298 109.835
      vertex -31.1432 22.2682 109.835
      vertex -29.7238 24.1821 109.835
    endloop
  endfacet
  facet normal 0 0 -1
    outer loop
      vertex -29.7238 24.1821 109.835
      vertex -31.1432 22.2682 109.835
      vertex -29.9086 24.116 109.835
    endloop
  endfacet
  facet normal 0 0 -1
    outer loop
      vertex -29.9086 24.116 109.835
      vertex -31.1432 22.2682 109.835
      vertex -30.086 24.032 109.835
    endloop
  endfacet
  facet normal 0 0 -1
    outer loop
      vertex -30.086 24.032 109.835
      vertex -31.1432 22.2682 109.835
      vertex -30.2543 23.9311 109.835
    endloop
  endfacet
  facet normal 0 0 -1
    outer loop
      vertex -30.2543 23.9311 109.835
      vertex -31.1432 22.2682 109.835
      vertex -30.412 23.8142 109.835
    endloop
  endfacet
  facet normal 0 0 -1
    outer loop
      vertex -30.412 23.8142 109.835
      vertex -31.1432 22.2682 109.835
      vertex -30.5574 23.6824 109.835
    endloop
  endfacet
  facet normal 0 0 -1
    outer loop
      vertex -30.5574 23.6824 109.835
      vertex -31.1432 22.2682 109.835
      vertex -30.6892 23.537 109.835
    endloop
  endfacet
  facet normal 0 0 -1
    outer loop
      vertex -30.6892 23.537 109.835
      vertex -31.1432 22.2682 109.835
      vertex -30.8061 23.3793 109.835
    endloop
  endfacet
  facet normal 0 0 -1
    outer loop
      vertex -30.8061 23.3793 109.835
      vertex -31.1432 22.2682 109.835
      vertex -30.907 23.211 109.835
    endloop
  endfacet
  facet normal 0 0 -1
    outer loop
      vertex -30.907 23.211 109.835
      vertex -31.1432 22.2682 109.835
      vertex -30.991 23.0336 109.835
    endloop
  endfacet
  facet normal 0 0 -1
    outer loop
      vertex -30.991 23.0336 109.835
      vertex -31.1432 22.2682 109.835
      vertex -31.0571 22.8488 109.835
    endloop
  endfacet
  facet normal 0 0 -1
    outer loop
      vertex -31.0571 22.8488 109.835
      vertex -31.1432 22.2682 109.835
      vertex -31.1048 22.6584 109.835
    endloop
  endfacet
  facet normal 0 0 -1
    outer loop
      vertex -31.1432 22.2682 109.835
      vertex -27.5082 12.2682 109.835
      vertex -31.1432 12.2682 109.835
    endloop
  endfacet
  facet normal 0 0 -1
    outer loop
      vertex -31.1048 22.6584 109.835
      vertex -31.1432 22.2682 109.835
      vertex -31.1336 22.4642 109.835
    endloop
  endfacet
  facet normal 0 0 -1
    outer loop
      vertex 52.5018 12.2682 109.835
      vertex 56.1368 22.2682 109.835
      vertex 56.1368 12.2682 109.835
    endloop
  endfacet
  facet normal 0 0 -1
    outer loop
      vertex 52.5018 24.2682 109.835
      vertex 56.1368 22.2682 109.835
      vertex 52.5018 12.2682 109.835
    endloop
  endfacet
  facet normal -0 -0 -1
    outer loop
      vertex 54.1368 24.2682 109.835
      vertex 56.1368 22.2682 109.835
      vertex 52.5018 24.2682 109.835
    endloop
  endfacet
  facet normal 0 0 -1
    outer loop
      vertex 56.1368 22.2682 109.835
      vertex 54.1368 24.2682 109.835
      vertex 56.1272 22.4642 109.835
    endloop
  endfacet
  facet normal 0 0 -1
    outer loop
      vertex 56.1272 22.4642 109.835
      vertex 54.1368 24.2682 109.835
      vertex 56.0984 22.6584 109.835
    endloop
  endfacet
  facet normal 0 0 -1
    outer loop
      vertex 56.0984 22.6584 109.835
      vertex 54.1368 24.2682 109.835
      vertex 56.0507 22.8488 109.835
    endloop
  endfacet
  facet normal 0 0 -1
    outer loop
      vertex 56.0507 22.8488 109.835
      vertex 54.1368 24.2682 109.835
      vertex 55.9846 23.0336 109.835
    endloop
  endfacet
  facet normal 0 0 -1
    outer loop
      vertex 55.9846 23.0336 109.835
      vertex 54.1368 24.2682 109.835
      vertex 55.9006 23.211 109.835
    endloop
  endfacet
  facet normal 0 0 -1
    outer loop
      vertex 55.9006 23.211 109.835
      vertex 54.1368 24.2682 109.835
      vertex 55.7997 23.3793 109.835
    endloop
  endfacet
  facet normal 0 0 -1
    outer loop
      vertex 55.7997 23.3793 109.835
      vertex 54.1368 24.2682 109.835
      vertex 55.6828 23.537 109.835
    endloop
  endfacet
  facet normal 0 0 -1
    outer loop
      vertex 55.6828 23.537 109.835
      vertex 54.1368 24.2682 109.835
      vertex 55.551 23.6824 109.835
    endloop
  endfacet
  facet normal 0 0 -1
    outer loop
      vertex 55.551 23.6824 109.835
      vertex 54.1368 24.2682 109.835
      vertex 55.4056 23.8142 109.835
    endloop
  endfacet
  facet normal 0 0 -1
    outer loop
      vertex 55.4056 23.8142 109.835
      vertex 54.1368 24.2682 109.835
      vertex 55.2479 23.9311 109.835
    endloop
  endfacet
  facet normal 0 0 -1
    outer loop
      vertex 55.0796 24.032 109.835
      vertex 54.1368 24.2682 109.835
      vertex 54.9022 24.116 109.835
    endloop
  endfacet
  facet normal 0 0 -1
    outer loop
      vertex 54.9022 24.116 109.835
      vertex 54.1368 24.2682 109.835
      vertex 54.7174 24.1821 109.835
    endloop
  endfacet
  facet normal 0 0 -1
    outer loop
      vertex 54.7174 24.1821 109.835
      vertex 54.1368 24.2682 109.835
      vertex 54.527 24.2298 109.835
    endloop
  endfacet
  facet normal 0 0 -1
    outer loop
      vertex 54.527 24.2298 109.835
      vertex 54.1368 24.2682 109.835
      vertex 54.3328 24.2586 109.835
    endloop
  endfacet
  facet normal 0 0 -1
    outer loop
      vertex 55.2479 23.9311 109.835
      vertex 54.1368 24.2682 109.835
      vertex 55.0796 24.032 109.835
    endloop
  endfacet
  facet normal 0.986355 0.146277 0.0755388
    outer loop
      vertex 56.1368 18.2682 123.835
      vertex 56.1272 22.4642 115.835
      vertex 56.0984 22.6584 115.835
    endloop
  endfacet
  facet normal 0.759047 0.562667 0.327497
    outer loop
      vertex 56.1368 18.2682 123.835
      vertex 55.7997 23.3793 115.835
      vertex 55.6828 23.537 115.835
    endloop
  endfacet
  facet normal -0.926248 0.331304 0.179728
    outer loop
      vertex -30.991 23.0336 115.835
      vertex -31.0571 22.8488 115.835
      vertex -31.1432 18.2682 123.835
    endloop
  endfacet
  facet normal -0.823209 0.493534 0.280625
    outer loop
      vertex -30.8061 23.3793 115.835
      vertex -30.907 23.211 115.835
      vertex -31.1432 18.2682 123.835
    endloop
  endfacet
  facet normal 0.146696 0.989182 -0
    outer loop
      vertex 54.527 24.2298 109.835
      vertex 54.3328 24.2586 115.835
      vertex 54.527 24.2298 115.835
    endloop
  endfacet
  facet normal 0.146696 0.989182 0
    outer loop
      vertex 54.3328 24.2586 115.835
      vertex 54.527 24.2298 109.835
      vertex 54.3328 24.2586 109.835
    endloop
  endfacet
  facet normal 0.857673 0.514196 0
    outer loop
      vertex 55.9006 23.211 115.835
      vertex 55.7997 23.3793 109.835
      vertex 55.7997 23.3793 115.835
    endloop
  endfacet
  facet normal 0.857673 0.514196 0
    outer loop
      vertex 55.7997 23.3793 109.835
      vertex 55.9006 23.211 115.835
      vertex 55.9006 23.211 109.835
    endloop
  endfacet
  facet normal 0.879295 0.416352 0.231282
    outer loop
      vertex 56.1368 18.2682 123.835
      vertex 55.9846 23.0336 115.835
      vertex 55.9006 23.211 115.835
    endloop
  endfacet
  facet normal 0.9038 0.427955 0
    outer loop
      vertex 55.9846 23.0336 115.835
      vertex 55.9006 23.211 109.835
      vertex 55.9006 23.211 115.835
    endloop
  endfacet
  facet normal 0.9038 0.427955 0
    outer loop
      vertex 55.9006 23.211 109.835
      vertex 55.9846 23.0336 115.835
      vertex 55.9846 23.0336 109.835
    endloop
  endfacet
  facet normal -0.687851 0.623512 0.37161
    outer loop
      vertex -30.5574 23.6824 115.835
      vertex -30.6892 23.537 115.835
      vertex -31.1432 18.2682 123.835
    endloop
  endfacet
  facet normal -0.611937 0.67508 0.412068
    outer loop
      vertex -30.412 23.8142 115.835
      vertex -30.5574 23.6824 115.835
      vertex -31.1432 18.2682 123.835
    endloop
  endfacet
  facet normal -0.146696 0.989182 0
    outer loop
      vertex -29.3392 24.2586 109.835
      vertex -29.5334 24.2298 115.835
      vertex -29.3392 24.2586 115.835
    endloop
  endfacet
  facet normal -0.146696 0.989182 0
    outer loop
      vertex -29.5334 24.2298 115.835
      vertex -29.3392 24.2586 109.835
      vertex -29.5334 24.2298 109.835
    endloop
  endfacet
  facet normal 0.687851 0.623512 0.37161
    outer loop
      vertex 56.1368 18.2682 123.835
      vertex 55.6828 23.537 115.835
      vertex 55.551 23.6824 115.835
    endloop
  endfacet
  facet normal 0.36784 0.776843 0.511086
    outer loop
      vertex 56.1368 18.2682 123.835
      vertex 55.0796 24.032 115.835
      vertex 54.9022 24.116 115.835
    endloop
  endfacet
  facet normal 0.671607 0.740908 -0
    outer loop
      vertex 55.551 23.6824 109.835
      vertex 55.4056 23.8142 115.835
      vertex 55.551 23.6824 115.835
    endloop
  endfacet
  facet normal 0.671607 0.740908 0
    outer loop
      vertex 55.4056 23.8142 115.835
      vertex 55.551 23.6824 109.835
      vertex 55.4056 23.8142 109.835
    endloop
  endfacet
  facet normal 0.611937 0.67508 0.412068
    outer loop
      vertex 56.1368 18.2682 123.835
      vertex 55.551 23.6824 115.835
      vertex 55.4056 23.8142 115.835
    endloop
  endfacet
  facet normal 1 -0 0
    outer loop
      vertex -27.5082 12.2682 110.835
      vertex -27.5082 24.2682 109.835
      vertex -27.5082 24.2682 110.835
    endloop
  endfacet
  facet normal 1 0 0
    outer loop
      vertex -27.5082 24.2682 109.835
      vertex -27.5082 12.2682 110.835
      vertex -27.5082 12.2682 109.835
    endloop
  endfacet
  facet normal 0 0 -1
    outer loop
      vertex -15.5097 12.2682 110.835
      vertex -27.5082 12.2682 110.835
      vertex -15.5097 17.195 110.835
    endloop
  endfacet
  facet normal 0 0 -1
    outer loop
      vertex 4.81028 12.2682 110.835
      vertex -9.28068 12.2682 110.835
      vertex 4.81028 17.195 110.835
    endloop
  endfacet
  facet normal 0 0 -1
    outer loop
      vertex 25.1303 12.2682 110.835
      vertex 11.0393 12.2682 110.835
      vertex 25.1303 17.195 110.835
    endloop
  endfacet
  facet normal 0 0 -1
    outer loop
      vertex 45.4503 12.2682 110.835
      vertex 31.3593 12.2682 110.835
      vertex 45.4503 17.195 110.835
    endloop
  endfacet
  facet normal 0 0 -1
    outer loop
      vertex 51.6793 17.195 110.835
      vertex 52.5018 12.2682 110.835
      vertex 51.6793 12.2682 110.835
    endloop
  endfacet
  facet normal 0 0 -1
    outer loop
      vertex 52.5018 12.2682 110.835
      vertex 51.6793 17.195 110.835
      vertex 52.5018 24.2682 110.835
    endloop
  endfacet
  facet normal 0 0 -1
    outer loop
      vertex 51.6195 17.8026 110.835
      vertex 52.5018 24.2682 110.835
      vertex 51.6793 17.195 110.835
    endloop
  endfacet
  facet normal 0 0 -1
    outer loop
      vertex 51.4422 18.3869 110.835
      vertex 52.5018 24.2682 110.835
      vertex 51.6195 17.8026 110.835
    endloop
  endfacet
  facet normal 0 0 -1
    outer loop
      vertex 51.1544 18.9253 110.835
      vertex 52.5018 24.2682 110.835
      vertex 51.4422 18.3869 110.835
    endloop
  endfacet
  facet normal 0 0 -1
    outer loop
      vertex 50.7671 19.3973 110.835
      vertex 52.5018 24.2682 110.835
      vertex 51.1544 18.9253 110.835
    endloop
  endfacet
  facet normal 0 0 -1
    outer loop
      vertex 50.2951 19.7846 110.835
      vertex 52.5018 24.2682 110.835
      vertex 50.7671 19.3973 110.835
    endloop
  endfacet
  facet normal 0 0 -1
    outer loop
      vertex 49.7567 20.0724 110.835
      vertex 52.5018 24.2682 110.835
      vertex 50.2951 19.7846 110.835
    endloop
  endfacet
  facet normal 0 0 -1
    outer loop
      vertex 49.1724 20.2497 110.835
      vertex 52.5018 24.2682 110.835
      vertex 49.7567 20.0724 110.835
    endloop
  endfacet
  facet normal 0 0 -1
    outer loop
      vertex 48.5648 20.3095 110.835
      vertex 52.5018 24.2682 110.835
      vertex 49.1724 20.2497 110.835
    endloop
  endfacet
  facet normal 0 0 -1
    outer loop
      vertex 47.9572 20.2497 110.835
      vertex 52.5018 24.2682 110.835
      vertex 48.5648 20.3095 110.835
    endloop
  endfacet
  facet normal 0 0 -1
    outer loop
      vertex 47.3729 20.0724 110.835
      vertex 52.5018 24.2682 110.835
      vertex 47.9572 20.2497 110.835
    endloop
  endfacet
  facet normal 0 0 -1
    outer loop
      vertex 46.8345 19.7846 110.835
      vertex 52.5018 24.2682 110.835
      vertex 47.3729 20.0724 110.835
    endloop
  endfacet
  facet normal 0 0 -1
    outer loop
      vertex 31.3593 17.195 110.835
      vertex 45.4503 17.195 110.835
      vertex 31.3593 12.2682 110.835
    endloop
  endfacet
  facet normal 0 0 -1
    outer loop
      vertex 45.4503 17.195 110.835
      vertex 31.3593 17.195 110.835
      vertex 45.5101 17.8026 110.835
    endloop
  endfacet
  facet normal 0 0 -1
    outer loop
      vertex 31.2995 17.8026 110.835
      vertex 45.5101 17.8026 110.835
      vertex 31.3593 17.195 110.835
    endloop
  endfacet
  facet normal 0 0 -1
    outer loop
      vertex 45.5101 17.8026 110.835
      vertex 31.2995 17.8026 110.835
      vertex 45.6874 18.3869 110.835
    endloop
  endfacet
  facet normal 0 0 -1
    outer loop
      vertex 31.1222 18.3869 110.835
      vertex 45.6874 18.3869 110.835
      vertex 31.2995 17.8026 110.835
    endloop
  endfacet
  facet normal 0 0 -1
    outer loop
      vertex 45.6874 18.3869 110.835
      vertex 31.1222 18.3869 110.835
      vertex 45.9752 18.9253 110.835
    endloop
  endfacet
  facet normal 0 0 -1
    outer loop
      vertex 30.8344 18.9253 110.835
      vertex 45.9752 18.9253 110.835
      vertex 31.1222 18.3869 110.835
    endloop
  endfacet
  facet normal 0 0 -1
    outer loop
      vertex 45.9752 18.9253 110.835
      vertex 30.8344 18.9253 110.835
      vertex 46.3625 19.3973 110.835
    endloop
  endfacet
  facet normal 0 0 -1
    outer loop
      vertex 30.4471 19.3973 110.835
      vertex 46.3625 19.3973 110.835
      vertex 30.8344 18.9253 110.835
    endloop
  endfacet
  facet normal 0 0 -1
    outer loop
      vertex 46.3625 19.3973 110.835
      vertex 30.4471 19.3973 110.835
      vertex 46.8345 19.7846 110.835
    endloop
  endfacet
  facet normal 0 0 -1
    outer loop
      vertex 29.9751 19.7846 110.835
      vertex 46.8345 19.7846 110.835
      vertex 30.4471 19.3973 110.835
    endloop
  endfacet
  facet normal 0 0 -1
    outer loop
      vertex 46.8345 19.7846 110.835
      vertex 29.9751 19.7846 110.835
      vertex 52.5018 24.2682 110.835
    endloop
  endfacet
  facet normal 0 0 -1
    outer loop
      vertex 29.4367 20.0724 110.835
      vertex 52.5018 24.2682 110.835
      vertex 29.9751 19.7846 110.835
    endloop
  endfacet
  facet normal 0 0 -1
    outer loop
      vertex 28.8524 20.2497 110.835
      vertex 52.5018 24.2682 110.835
      vertex 29.4367 20.0724 110.835
    endloop
  endfacet
  facet normal 0 0 -1
    outer loop
      vertex 28.2448 20.3095 110.835
      vertex 52.5018 24.2682 110.835
      vertex 28.8524 20.2497 110.835
    endloop
  endfacet
  facet normal 0 0 -1
    outer loop
      vertex 7.9248 20.3095 110.835
      vertex 28.2448 20.3095 110.835
      vertex 27.6372 20.2497 110.835
    endloop
  endfacet
  facet normal 0 0 -1
    outer loop
      vertex 11.0393 17.195 110.835
      vertex 25.1303 17.195 110.835
      vertex 11.0393 12.2682 110.835
    endloop
  endfacet
  facet normal 0 0 -1
    outer loop
      vertex 25.1303 17.195 110.835
      vertex 11.0393 17.195 110.835
      vertex 25.1901 17.8026 110.835
    endloop
  endfacet
  facet normal 0 0 -1
    outer loop
      vertex 10.9795 17.8026 110.835
      vertex 25.1901 17.8026 110.835
      vertex 11.0393 17.195 110.835
    endloop
  endfacet
  facet normal 0 0 -1
    outer loop
      vertex 25.1901 17.8026 110.835
      vertex 10.9795 17.8026 110.835
      vertex 25.3674 18.3869 110.835
    endloop
  endfacet
  facet normal 0 0 -1
    outer loop
      vertex 10.8022 18.3869 110.835
      vertex 25.3674 18.3869 110.835
      vertex 10.9795 17.8026 110.835
    endloop
  endfacet
  facet normal 0 0 -1
    outer loop
      vertex 25.3674 18.3869 110.835
      vertex 10.8022 18.3869 110.835
      vertex 25.6552 18.9253 110.835
    endloop
  endfacet
  facet normal 0 0 -1
    outer loop
      vertex 10.5144 18.9253 110.835
      vertex 25.6552 18.9253 110.835
      vertex 10.8022 18.3869 110.835
    endloop
  endfacet
  facet normal 0 0 -1
    outer loop
      vertex 25.6552 18.9253 110.835
      vertex 10.5144 18.9253 110.835
      vertex 26.0425 19.3973 110.835
    endloop
  endfacet
  facet normal 0 0 -1
    outer loop
      vertex 10.1271 19.3973 110.835
      vertex 26.0425 19.3973 110.835
      vertex 10.5144 18.9253 110.835
    endloop
  endfacet
  facet normal 0 0 -1
    outer loop
      vertex 26.0425 19.3973 110.835
      vertex 10.1271 19.3973 110.835
      vertex 26.5145 19.7846 110.835
    endloop
  endfacet
  facet normal 0 0 -1
    outer loop
      vertex 9.65513 19.7846 110.835
      vertex 26.5145 19.7846 110.835
      vertex 10.1271 19.3973 110.835
    endloop
  endfacet
  facet normal 0 0 -1
    outer loop
      vertex 26.5145 19.7846 110.835
      vertex 9.65513 19.7846 110.835
      vertex 27.0529 20.0724 110.835
    endloop
  endfacet
  facet normal 0 0 -1
    outer loop
      vertex 9.11667 20.0724 110.835
      vertex 27.0529 20.0724 110.835
      vertex 9.65513 19.7846 110.835
    endloop
  endfacet
  facet normal 0 0 -1
    outer loop
      vertex 27.0529 20.0724 110.835
      vertex 9.11667 20.0724 110.835
      vertex 27.6372 20.2497 110.835
    endloop
  endfacet
  facet normal 0 0 -1
    outer loop
      vertex 8.53241 20.2497 110.835
      vertex 27.6372 20.2497 110.835
      vertex 9.11667 20.0724 110.835
    endloop
  endfacet
  facet normal 0 0 -1
    outer loop
      vertex 7.9248 20.3095 110.835
      vertex 27.6372 20.2497 110.835
      vertex 8.53241 20.2497 110.835
    endloop
  endfacet
  facet normal 0 0 -1
    outer loop
      vertex 28.2448 20.3095 110.835
      vertex 7.9248 20.3095 110.835
      vertex 52.5018 24.2682 110.835
    endloop
  endfacet
  facet normal 0 0 -1
    outer loop
      vertex -9.28068 17.195 110.835
      vertex 4.81028 17.195 110.835
      vertex -9.28068 12.2682 110.835
    endloop
  endfacet
  facet normal 0 0 -1
    outer loop
      vertex 4.81028 17.195 110.835
      vertex -9.28068 17.195 110.835
      vertex 4.87013 17.8026 110.835
    endloop
  endfacet
  facet normal 0 0 -1
    outer loop
      vertex -9.34053 17.8026 110.835
      vertex 4.87013 17.8026 110.835
      vertex -9.28068 17.195 110.835
    endloop
  endfacet
  facet normal 0 0 -1
    outer loop
      vertex 4.87013 17.8026 110.835
      vertex -9.34053 17.8026 110.835
      vertex 5.04736 18.3869 110.835
    endloop
  endfacet
  facet normal 0 0 -1
    outer loop
      vertex -9.51776 18.3869 110.835
      vertex 5.04736 18.3869 110.835
      vertex -9.34053 17.8026 110.835
    endloop
  endfacet
  facet normal 0 0 -1
    outer loop
      vertex 5.04736 18.3869 110.835
      vertex -9.51776 18.3869 110.835
      vertex 5.33518 18.9253 110.835
    endloop
  endfacet
  facet normal 0 0 -1
    outer loop
      vertex -9.80558 18.9253 110.835
      vertex 5.33518 18.9253 110.835
      vertex -9.51776 18.3869 110.835
    endloop
  endfacet
  facet normal 0 0 -1
    outer loop
      vertex 5.33518 18.9253 110.835
      vertex -9.80558 18.9253 110.835
      vertex 5.72251 19.3973 110.835
    endloop
  endfacet
  facet normal 0 0 -1
    outer loop
      vertex -10.1929 19.3973 110.835
      vertex 5.72251 19.3973 110.835
      vertex -9.80558 18.9253 110.835
    endloop
  endfacet
  facet normal 0 0 -1
    outer loop
      vertex 5.72251 19.3973 110.835
      vertex -10.1929 19.3973 110.835
      vertex 6.19447 19.7846 110.835
    endloop
  endfacet
  facet normal 0 0 -1
    outer loop
      vertex -10.6649 19.7846 110.835
      vertex 6.19447 19.7846 110.835
      vertex -10.1929 19.3973 110.835
    endloop
  endfacet
  facet normal 0 0 -1
    outer loop
      vertex 6.19447 19.7846 110.835
      vertex -10.6649 19.7846 110.835
      vertex 6.73293 20.0724 110.835
    endloop
  endfacet
  facet normal 0 0 -1
    outer loop
      vertex -11.2033 20.0724 110.835
      vertex 6.73293 20.0724 110.835
      vertex -10.6649 19.7846 110.835
    endloop
  endfacet
  facet normal 0 0 -1
    outer loop
      vertex 6.73293 20.0724 110.835
      vertex -11.2033 20.0724 110.835
      vertex 7.31719 20.2497 110.835
    endloop
  endfacet
  facet normal 0 0 -1
    outer loop
      vertex -11.7876 20.2497 110.835
      vertex 7.31719 20.2497 110.835
      vertex -11.2033 20.0724 110.835
    endloop
  endfacet
  facet normal 0 0 -1
    outer loop
      vertex -27.5082 24.2682 110.835
      vertex 7.31719 20.2497 110.835
      vertex -11.7876 20.2497 110.835
    endloop
  endfacet
  facet normal 0 0 -1
    outer loop
      vertex 7.31719 20.2497 110.835
      vertex -27.5082 24.2682 110.835
      vertex 7.9248 20.3095 110.835
    endloop
  endfacet
  facet normal 0 0 -1
    outer loop
      vertex -27.5082 24.2682 110.835
      vertex -11.7876 20.2497 110.835
      vertex -12.3952 20.3095 110.835
    endloop
  endfacet
  facet normal 0 0 -1
    outer loop
      vertex -27.5082 12.2682 110.835
      vertex -15.4499 17.8026 110.835
      vertex -15.5097 17.195 110.835
    endloop
  endfacet
  facet normal 0 0 -1
    outer loop
      vertex -27.5082 24.2682 110.835
      vertex -15.4499 17.8026 110.835
      vertex -27.5082 12.2682 110.835
    endloop
  endfacet
  facet normal 0 0 -1
    outer loop
      vertex -15.4499 17.8026 110.835
      vertex -27.5082 24.2682 110.835
      vertex -15.2726 18.3869 110.835
    endloop
  endfacet
  facet normal 0 0 -1
    outer loop
      vertex -15.2726 18.3869 110.835
      vertex -27.5082 24.2682 110.835
      vertex -14.9848 18.9253 110.835
    endloop
  endfacet
  facet normal 0 0 -1
    outer loop
      vertex -14.9848 18.9253 110.835
      vertex -27.5082 24.2682 110.835
      vertex -14.5975 19.3973 110.835
    endloop
  endfacet
  facet normal 0 0 -1
    outer loop
      vertex 7.9248 20.3095 110.835
      vertex -27.5082 24.2682 110.835
      vertex 52.5018 24.2682 110.835
    endloop
  endfacet
  facet normal 0 0 -1
    outer loop
      vertex -13.0028 20.2497 110.835
      vertex -27.5082 24.2682 110.835
      vertex -12.3952 20.3095 110.835
    endloop
  endfacet
  facet normal 0 0 -1
    outer loop
      vertex -13.5871 20.0724 110.835
      vertex -27.5082 24.2682 110.835
      vertex -13.0028 20.2497 110.835
    endloop
  endfacet
  facet normal 0 0 -1
    outer loop
      vertex -14.1255 19.7846 110.835
      vertex -27.5082 24.2682 110.835
      vertex -13.5871 20.0724 110.835
    endloop
  endfacet
  facet normal 0 0 -1
    outer loop
      vertex -14.5975 19.3973 110.835
      vertex -27.5082 24.2682 110.835
      vertex -14.1255 19.7846 110.835
    endloop
  endfacet
  facet normal -1 0 0
    outer loop
      vertex 52.5018 12.2682 109.835
      vertex 52.5018 24.2682 110.835
      vertex 52.5018 24.2682 109.835
    endloop
  endfacet
  facet normal -1 -0 0
    outer loop
      vertex 52.5018 24.2682 110.835
      vertex 52.5018 12.2682 109.835
      vertex 52.5018 12.2682 110.835
    endloop
  endfacet
endsolid OpenSCAD_Model
