  0
SECTION
  2
BLOCKS
  0
ENDSEC
  0
SECTION
  2
ENTITIES
  0
LINE
  8
0
 10
154
 20
139
 11
154
 21
148
  0
LINE
  8
0
 10
154
 20
148
 11
-154
 21
148
  0
LINE
  8
0
 10
-154
 20
148
 11
-154
 21
139
  0
LINE
  8
0
 10
-154
 20
139
 11
-160
 21
139
  0
LINE
  8
0
 10
-160
 20
139
 11
-160
 21
9
  0
LINE
  8
0
 10
-160
 20
9
 11
-154
 21
9
  0
LINE
  8
0
 10
-154
 20
9
 11
-154
 21
0
  0
LINE
  8
0
 10
-154
 20
0
 11
154
 21
0
  0
LINE
  8
0
 10
154
 20
0
 11
154
 21
9
  0
LINE
  8
0
 10
154
 20
9
 11
160
 21
9
  0
LINE
  8
0
 10
160
 20
9
 11
160
 21
139
  0
LINE
  8
0
 10
160
 20
139
 11
154
 21
139
  0
LINE
  8
0
 10
-151.901
 20
17.4215
 11
-151.907
 21
17.3431
  0
LINE
  8
0
 10
-151.907
 20
17.3431
 11
-151.917
 21
17.2652
  0
LINE
  8
0
 10
-151.917
 20
17.2652
 11
-151.93
 21
17.1878
  0
LINE
  8
0
 10
-151.93
 20
17.1878
 11
-151.948
 21
17.1111
  0
LINE
  8
0
 10
-151.948
 20
17.1111
 11
-151.968
 21
17.0354
  0
LINE
  8
0
 10
-151.968
 20
17.0354
 11
-151.993
 21
16.9608
  0
LINE
  8
0
 10
-151.993
 20
16.9608
 11
-152.021
 21
16.8875
  0
LINE
  8
0
 10
-152.021
 20
16.8875
 11
-152.053
 21
16.8157
  0
LINE
  8
0
 10
-152.053
 20
16.8157
 11
-152.089
 21
16.7455
  0
LINE
  8
0
 10
-152.089
 20
16.7455
 11
-152.127
 21
16.6772
  0
LINE
  8
0
 10
-152.127
 20
16.6772
 11
-152.169
 21
16.6108
  0
LINE
  8
0
 10
-152.169
 20
16.6108
 11
-152.215
 21
16.5466
  0
LINE
  8
0
 10
-152.215
 20
16.5466
 11
-152.263
 21
16.4847
  0
LINE
  8
0
 10
-152.263
 20
16.4847
 11
-152.314
 21
16.4252
  0
LINE
  8
0
 10
-152.314
 20
16.4252
 11
-152.368
 21
16.3683
  0
LINE
  8
0
 10
-152.368
 20
16.3683
 11
-152.425
 21
16.3141
  0
LINE
  8
0
 10
-152.425
 20
16.3141
 11
-152.485
 21
16.2628
  0
LINE
  8
0
 10
-152.485
 20
16.2628
 11
-152.547
 21
16.2145
  0
LINE
  8
0
 10
-152.547
 20
16.2145
 11
-152.611
 21
16.1693
  0
LINE
  8
0
 10
-152.611
 20
16.1693
 11
-152.677
 21
16.1272
  0
LINE
  8
0
 10
-152.677
 20
16.1272
 11
-152.746
 21
16.0885
  0
LINE
  8
0
 10
-152.746
 20
16.0885
 11
-152.816
 21
16.0532
  0
LINE
  8
0
 10
-152.816
 20
16.0532
 11
-152.888
 21
16.0214
  0
LINE
  8
0
 10
-152.888
 20
16.0214
 11
-152.961
 21
15.9931
  0
LINE
  8
0
 10
-152.961
 20
15.9931
 11
-153.035
 21
15.9685
  0
LINE
  8
0
 10
-153.035
 20
15.9685
 11
-153.111
 21
15.9475
  0
LINE
  8
0
 10
-153.111
 20
15.9475
 11
-153.188
 21
15.9303
  0
LINE
  8
0
 10
-153.188
 20
15.9303
 11
-153.265
 21
15.9169
  0
LINE
  8
0
 10
-153.265
 20
15.9169
 11
-153.343
 21
15.9072
  0
LINE
  8
0
 10
-153.343
 20
15.9072
 11
-153.421
 21
15.9015
  0
LINE
  8
0
 10
-153.421
 20
15.9015
 11
-153.5
 21
15.8995
  0
LINE
  8
0
 10
-153.5
 20
15.8995
 11
-153.579
 21
15.9015
  0
LINE
  8
0
 10
-153.579
 20
15.9015
 11
-153.657
 21
15.9072
  0
LINE
  8
0
 10
-153.657
 20
15.9072
 11
-153.735
 21
15.9169
  0
LINE
  8
0
 10
-153.735
 20
15.9169
 11
-153.812
 21
15.9303
  0
LINE
  8
0
 10
-153.812
 20
15.9303
 11
-153.889
 21
15.9475
  0
LINE
  8
0
 10
-153.889
 20
15.9475
 11
-153.965
 21
15.9685
  0
LINE
  8
0
 10
-153.965
 20
15.9685
 11
-154.039
 21
15.9931
  0
LINE
  8
0
 10
-154.039
 20
15.9931
 11
-154.112
 21
16.0214
  0
LINE
  8
0
 10
-154.112
 20
16.0214
 11
-154.184
 21
16.0532
  0
LINE
  8
0
 10
-154.184
 20
16.0532
 11
-154.254
 21
16.0885
  0
LINE
  8
0
 10
-154.254
 20
16.0885
 11
-154.323
 21
16.1272
  0
LINE
  8
0
 10
-154.323
 20
16.1272
 11
-154.389
 21
16.1693
  0
LINE
  8
0
 10
-154.389
 20
16.1693
 11
-154.453
 21
16.2145
  0
LINE
  8
0
 10
-154.453
 20
16.2145
 11
-154.515
 21
16.2628
  0
LINE
  8
0
 10
-154.515
 20
16.2628
 11
-154.575
 21
16.3141
  0
LINE
  8
0
 10
-154.575
 20
16.3141
 11
-154.632
 21
16.3683
  0
LINE
  8
0
 10
-154.632
 20
16.3683
 11
-154.686
 21
16.4252
  0
LINE
  8
0
 10
-154.686
 20
16.4252
 11
-154.737
 21
16.4847
  0
LINE
  8
0
 10
-154.737
 20
16.4847
 11
-154.785
 21
16.5466
  0
LINE
  8
0
 10
-154.785
 20
16.5466
 11
-154.831
 21
16.6108
  0
LINE
  8
0
 10
-154.831
 20
16.6108
 11
-154.873
 21
16.6772
  0
LINE
  8
0
 10
-154.873
 20
16.6772
 11
-154.911
 21
16.7455
  0
LINE
  8
0
 10
-154.911
 20
16.7455
 11
-154.947
 21
16.8157
  0
LINE
  8
0
 10
-154.947
 20
16.8157
 11
-154.979
 21
16.8875
  0
LINE
  8
0
 10
-154.979
 20
16.8875
 11
-155.007
 21
16.9608
  0
LINE
  8
0
 10
-155.007
 20
16.9608
 11
-155.032
 21
17.0354
  0
LINE
  8
0
 10
-155.032
 20
17.0354
 11
-155.052
 21
17.1111
  0
LINE
  8
0
 10
-155.052
 20
17.1111
 11
-155.07
 21
17.1878
  0
LINE
  8
0
 10
-155.07
 20
17.1878
 11
-155.083
 21
17.2652
  0
LINE
  8
0
 10
-155.083
 20
17.2652
 11
-155.093
 21
17.3431
  0
LINE
  8
0
 10
-155.093
 20
17.3431
 11
-155.099
 21
17.4215
  0
LINE
  8
0
 10
-155.099
 20
17.4215
 11
-155.1
 21
17.5
  0
LINE
  8
0
 10
-155.1
 20
17.5
 11
-155.099
 21
17.5785
  0
LINE
  8
0
 10
-155.099
 20
17.5785
 11
-155.093
 21
17.6569
  0
LINE
  8
0
 10
-155.093
 20
17.6569
 11
-155.083
 21
17.7348
  0
LINE
  8
0
 10
-155.083
 20
17.7348
 11
-155.07
 21
17.8122
  0
LINE
  8
0
 10
-155.07
 20
17.8122
 11
-155.052
 21
17.8889
  0
LINE
  8
0
 10
-155.052
 20
17.8889
 11
-155.032
 21
17.9646
  0
LINE
  8
0
 10
-155.032
 20
17.9646
 11
-155.007
 21
18.0392
  0
LINE
  8
0
 10
-155.007
 20
18.0392
 11
-154.979
 21
18.1125
  0
LINE
  8
0
 10
-154.979
 20
18.1125
 11
-154.947
 21
18.1843
  0
LINE
  8
0
 10
-154.947
 20
18.1843
 11
-154.911
 21
18.2544
  0
LINE
  8
0
 10
-154.911
 20
18.2544
 11
-154.873
 21
18.3228
  0
LINE
  8
0
 10
-154.873
 20
18.3228
 11
-154.831
 21
18.3892
  0
LINE
  8
0
 10
-154.831
 20
18.3892
 11
-154.785
 21
18.4534
  0
LINE
  8
0
 10
-154.785
 20
18.4534
 11
-154.737
 21
18.5153
  0
LINE
  8
0
 10
-154.737
 20
18.5153
 11
-154.686
 21
18.5748
  0
LINE
  8
0
 10
-154.686
 20
18.5748
 11
-154.632
 21
18.6317
  0
LINE
  8
0
 10
-154.632
 20
18.6317
 11
-154.575
 21
18.6859
  0
LINE
  8
0
 10
-154.575
 20
18.6859
 11
-154.515
 21
18.7372
  0
LINE
  8
0
 10
-154.515
 20
18.7372
 11
-154.453
 21
18.7855
  0
LINE
  8
0
 10
-154.453
 20
18.7855
 11
-154.389
 21
18.8307
  0
LINE
  8
0
 10
-154.389
 20
18.8307
 11
-154.323
 21
18.8727
  0
LINE
  8
0
 10
-154.323
 20
18.8727
 11
-154.254
 21
18.9115
  0
LINE
  8
0
 10
-154.254
 20
18.9115
 11
-154.184
 21
18.9468
  0
LINE
  8
0
 10
-154.184
 20
18.9468
 11
-154.112
 21
18.9786
  0
LINE
  8
0
 10
-154.112
 20
18.9786
 11
-154.039
 21
19.0069
  0
LINE
  8
0
 10
-154.039
 20
19.0069
 11
-153.965
 21
19.0315
  0
LINE
  8
0
 10
-153.965
 20
19.0315
 11
-153.889
 21
19.0525
  0
LINE
  8
0
 10
-153.889
 20
19.0525
 11
-153.812
 21
19.0697
  0
LINE
  8
0
 10
-153.812
 20
19.0697
 11
-153.735
 21
19.0831
  0
LINE
  8
0
 10
-153.735
 20
19.0831
 11
-153.657
 21
19.0927
  0
LINE
  8
0
 10
-153.657
 20
19.0927
 11
-153.579
 21
19.0985
  0
LINE
  8
0
 10
-153.579
 20
19.0985
 11
-153.5
 21
19.1004
  0
LINE
  8
0
 10
-153.5
 20
19.1004
 11
-153.421
 21
19.0985
  0
LINE
  8
0
 10
-153.421
 20
19.0985
 11
-153.343
 21
19.0927
  0
LINE
  8
0
 10
-153.343
 20
19.0927
 11
-153.265
 21
19.0831
  0
LINE
  8
0
 10
-153.265
 20
19.0831
 11
-153.188
 21
19.0697
  0
LINE
  8
0
 10
-153.188
 20
19.0697
 11
-153.111
 21
19.0525
  0
LINE
  8
0
 10
-153.111
 20
19.0525
 11
-153.035
 21
19.0315
  0
LINE
  8
0
 10
-153.035
 20
19.0315
 11
-152.961
 21
19.0069
  0
LINE
  8
0
 10
-152.961
 20
19.0069
 11
-152.888
 21
18.9786
  0
LINE
  8
0
 10
-152.888
 20
18.9786
 11
-152.816
 21
18.9468
  0
LINE
  8
0
 10
-152.816
 20
18.9468
 11
-152.746
 21
18.9115
  0
LINE
  8
0
 10
-152.746
 20
18.9115
 11
-152.677
 21
18.8727
  0
LINE
  8
0
 10
-152.677
 20
18.8727
 11
-152.611
 21
18.8307
  0
LINE
  8
0
 10
-152.611
 20
18.8307
 11
-152.547
 21
18.7855
  0
LINE
  8
0
 10
-152.547
 20
18.7855
 11
-152.485
 21
18.7372
  0
LINE
  8
0
 10
-152.485
 20
18.7372
 11
-152.425
 21
18.6859
  0
LINE
  8
0
 10
-152.425
 20
18.6859
 11
-152.368
 21
18.6317
  0
LINE
  8
0
 10
-152.368
 20
18.6317
 11
-152.314
 21
18.5748
  0
LINE
  8
0
 10
-152.314
 20
18.5748
 11
-152.263
 21
18.5153
  0
LINE
  8
0
 10
-152.263
 20
18.5153
 11
-152.215
 21
18.4534
  0
LINE
  8
0
 10
-152.215
 20
18.4534
 11
-152.169
 21
18.3892
  0
LINE
  8
0
 10
-152.169
 20
18.3892
 11
-152.127
 21
18.3228
  0
LINE
  8
0
 10
-152.127
 20
18.3228
 11
-152.089
 21
18.2544
  0
LINE
  8
0
 10
-152.089
 20
18.2544
 11
-152.053
 21
18.1843
  0
LINE
  8
0
 10
-152.053
 20
18.1843
 11
-152.021
 21
18.1125
  0
LINE
  8
0
 10
-152.021
 20
18.1125
 11
-151.993
 21
18.0392
  0
LINE
  8
0
 10
-151.993
 20
18.0392
 11
-151.968
 21
17.9646
  0
LINE
  8
0
 10
-151.968
 20
17.9646
 11
-151.948
 21
17.8889
  0
LINE
  8
0
 10
-151.948
 20
17.8889
 11
-151.93
 21
17.8122
  0
LINE
  8
0
 10
-151.93
 20
17.8122
 11
-151.917
 21
17.7348
  0
LINE
  8
0
 10
-151.917
 20
17.7348
 11
-151.907
 21
17.6569
  0
LINE
  8
0
 10
-151.907
 20
17.6569
 11
-151.901
 21
17.5785
  0
LINE
  8
0
 10
-151.901
 20
17.5785
 11
-151.9
 21
17.5
  0
LINE
  8
0
 10
-151.9
 20
17.5
 11
-151.901
 21
17.4215
  0
LINE
  8
0
 10
-151.901
 20
130.421
 11
-151.907
 21
130.343
  0
LINE
  8
0
 10
-151.907
 20
130.343
 11
-151.917
 21
130.265
  0
LINE
  8
0
 10
-151.917
 20
130.265
 11
-151.93
 21
130.188
  0
LINE
  8
0
 10
-151.93
 20
130.188
 11
-151.948
 21
130.111
  0
LINE
  8
0
 10
-151.948
 20
130.111
 11
-151.968
 21
130.035
  0
LINE
  8
0
 10
-151.968
 20
130.035
 11
-151.993
 21
129.961
  0
LINE
  8
0
 10
-151.993
 20
129.961
 11
-152.021
 21
129.888
  0
LINE
  8
0
 10
-152.021
 20
129.888
 11
-152.053
 21
129.816
  0
LINE
  8
0
 10
-152.053
 20
129.816
 11
-152.089
 21
129.746
  0
LINE
  8
0
 10
-152.089
 20
129.746
 11
-152.127
 21
129.677
  0
LINE
  8
0
 10
-152.127
 20
129.677
 11
-152.169
 21
129.611
  0
LINE
  8
0
 10
-152.169
 20
129.611
 11
-152.215
 21
129.547
  0
LINE
  8
0
 10
-152.215
 20
129.547
 11
-152.263
 21
129.485
  0
LINE
  8
0
 10
-152.263
 20
129.485
 11
-152.314
 21
129.425
  0
LINE
  8
0
 10
-152.314
 20
129.425
 11
-152.368
 21
129.368
  0
LINE
  8
0
 10
-152.368
 20
129.368
 11
-152.425
 21
129.314
  0
LINE
  8
0
 10
-152.425
 20
129.314
 11
-152.485
 21
129.263
  0
LINE
  8
0
 10
-152.485
 20
129.263
 11
-152.547
 21
129.215
  0
LINE
  8
0
 10
-152.547
 20
129.215
 11
-152.611
 21
129.169
  0
LINE
  8
0
 10
-152.611
 20
129.169
 11
-152.677
 21
129.127
  0
LINE
  8
0
 10
-152.677
 20
129.127
 11
-152.746
 21
129.089
  0
LINE
  8
0
 10
-152.746
 20
129.089
 11
-152.816
 21
129.053
  0
LINE
  8
0
 10
-152.816
 20
129.053
 11
-152.888
 21
129.021
  0
LINE
  8
0
 10
-152.888
 20
129.021
 11
-152.961
 21
128.993
  0
LINE
  8
0
 10
-152.961
 20
128.993
 11
-153.035
 21
128.968
  0
LINE
  8
0
 10
-153.035
 20
128.968
 11
-153.111
 21
128.948
  0
LINE
  8
0
 10
-153.111
 20
128.948
 11
-153.188
 21
128.93
  0
LINE
  8
0
 10
-153.188
 20
128.93
 11
-153.265
 21
128.917
  0
LINE
  8
0
 10
-153.265
 20
128.917
 11
-153.343
 21
128.907
  0
LINE
  8
0
 10
-153.343
 20
128.907
 11
-153.421
 21
128.901
  0
LINE
  8
0
 10
-153.421
 20
128.901
 11
-153.5
 21
128.9
  0
LINE
  8
0
 10
-153.5
 20
128.9
 11
-153.579
 21
128.901
  0
LINE
  8
0
 10
-153.579
 20
128.901
 11
-153.657
 21
128.907
  0
LINE
  8
0
 10
-153.657
 20
128.907
 11
-153.735
 21
128.917
  0
LINE
  8
0
 10
-153.735
 20
128.917
 11
-153.812
 21
128.93
  0
LINE
  8
0
 10
-153.812
 20
128.93
 11
-153.889
 21
128.948
  0
LINE
  8
0
 10
-153.889
 20
128.948
 11
-153.965
 21
128.968
  0
LINE
  8
0
 10
-153.965
 20
128.968
 11
-154.039
 21
128.993
  0
LINE
  8
0
 10
-154.039
 20
128.993
 11
-154.112
 21
129.021
  0
LINE
  8
0
 10
-154.112
 20
129.021
 11
-154.184
 21
129.053
  0
LINE
  8
0
 10
-154.184
 20
129.053
 11
-154.254
 21
129.089
  0
LINE
  8
0
 10
-154.254
 20
129.089
 11
-154.323
 21
129.127
  0
LINE
  8
0
 10
-154.323
 20
129.127
 11
-154.389
 21
129.169
  0
LINE
  8
0
 10
-154.389
 20
129.169
 11
-154.453
 21
129.215
  0
LINE
  8
0
 10
-154.453
 20
129.215
 11
-154.515
 21
129.263
  0
LINE
  8
0
 10
-154.515
 20
129.263
 11
-154.575
 21
129.314
  0
LINE
  8
0
 10
-154.575
 20
129.314
 11
-154.632
 21
129.368
  0
LINE
  8
0
 10
-154.632
 20
129.368
 11
-154.686
 21
129.425
  0
LINE
  8
0
 10
-154.686
 20
129.425
 11
-154.737
 21
129.485
  0
LINE
  8
0
 10
-154.737
 20
129.485
 11
-154.785
 21
129.547
  0
LINE
  8
0
 10
-154.785
 20
129.547
 11
-154.831
 21
129.611
  0
LINE
  8
0
 10
-154.831
 20
129.611
 11
-154.873
 21
129.677
  0
LINE
  8
0
 10
-154.873
 20
129.677
 11
-154.911
 21
129.746
  0
LINE
  8
0
 10
-154.911
 20
129.746
 11
-154.947
 21
129.816
  0
LINE
  8
0
 10
-154.947
 20
129.816
 11
-154.979
 21
129.888
  0
LINE
  8
0
 10
-154.979
 20
129.888
 11
-155.007
 21
129.961
  0
LINE
  8
0
 10
-155.007
 20
129.961
 11
-155.032
 21
130.035
  0
LINE
  8
0
 10
-155.032
 20
130.035
 11
-155.052
 21
130.111
  0
LINE
  8
0
 10
-155.052
 20
130.111
 11
-155.07
 21
130.188
  0
LINE
  8
0
 10
-155.07
 20
130.188
 11
-155.083
 21
130.265
  0
LINE
  8
0
 10
-155.083
 20
130.265
 11
-155.093
 21
130.343
  0
LINE
  8
0
 10
-155.093
 20
130.343
 11
-155.099
 21
130.421
  0
LINE
  8
0
 10
-155.099
 20
130.421
 11
-155.1
 21
130.5
  0
LINE
  8
0
 10
-155.1
 20
130.5
 11
-155.099
 21
130.579
  0
LINE
  8
0
 10
-155.099
 20
130.579
 11
-155.093
 21
130.657
  0
LINE
  8
0
 10
-155.093
 20
130.657
 11
-155.083
 21
130.735
  0
LINE
  8
0
 10
-155.083
 20
130.735
 11
-155.07
 21
130.812
  0
LINE
  8
0
 10
-155.07
 20
130.812
 11
-155.052
 21
130.889
  0
LINE
  8
0
 10
-155.052
 20
130.889
 11
-155.032
 21
130.965
  0
LINE
  8
0
 10
-155.032
 20
130.965
 11
-155.007
 21
131.039
  0
LINE
  8
0
 10
-155.007
 20
131.039
 11
-154.979
 21
131.112
  0
LINE
  8
0
 10
-154.979
 20
131.112
 11
-154.947
 21
131.184
  0
LINE
  8
0
 10
-154.947
 20
131.184
 11
-154.911
 21
131.254
  0
LINE
  8
0
 10
-154.911
 20
131.254
 11
-154.873
 21
131.323
  0
LINE
  8
0
 10
-154.873
 20
131.323
 11
-154.831
 21
131.389
  0
LINE
  8
0
 10
-154.831
 20
131.389
 11
-154.785
 21
131.453
  0
LINE
  8
0
 10
-154.785
 20
131.453
 11
-154.737
 21
131.515
  0
LINE
  8
0
 10
-154.737
 20
131.515
 11
-154.686
 21
131.575
  0
LINE
  8
0
 10
-154.686
 20
131.575
 11
-154.632
 21
131.632
  0
LINE
  8
0
 10
-154.632
 20
131.632
 11
-154.575
 21
131.686
  0
LINE
  8
0
 10
-154.575
 20
131.686
 11
-154.515
 21
131.737
  0
LINE
  8
0
 10
-154.515
 20
131.737
 11
-154.453
 21
131.785
  0
LINE
  8
0
 10
-154.453
 20
131.785
 11
-154.389
 21
131.831
  0
LINE
  8
0
 10
-154.389
 20
131.831
 11
-154.323
 21
131.873
  0
LINE
  8
0
 10
-154.323
 20
131.873
 11
-154.254
 21
131.911
  0
LINE
  8
0
 10
-154.254
 20
131.911
 11
-154.184
 21
131.947
  0
LINE
  8
0
 10
-154.184
 20
131.947
 11
-154.112
 21
131.979
  0
LINE
  8
0
 10
-154.112
 20
131.979
 11
-154.039
 21
132.007
  0
LINE
  8
0
 10
-154.039
 20
132.007
 11
-153.965
 21
132.032
  0
LINE
  8
0
 10
-153.965
 20
132.032
 11
-153.889
 21
132.052
  0
LINE
  8
0
 10
-153.889
 20
132.052
 11
-153.812
 21
132.07
  0
LINE
  8
0
 10
-153.812
 20
132.07
 11
-153.735
 21
132.083
  0
LINE
  8
0
 10
-153.735
 20
132.083
 11
-153.657
 21
132.093
  0
LINE
  8
0
 10
-153.657
 20
132.093
 11
-153.579
 21
132.099
  0
LINE
  8
0
 10
-153.579
 20
132.099
 11
-153.5
 21
132.1
  0
LINE
  8
0
 10
-153.5
 20
132.1
 11
-153.421
 21
132.099
  0
LINE
  8
0
 10
-153.421
 20
132.099
 11
-153.343
 21
132.093
  0
LINE
  8
0
 10
-153.343
 20
132.093
 11
-153.265
 21
132.083
  0
LINE
  8
0
 10
-153.265
 20
132.083
 11
-153.188
 21
132.07
  0
LINE
  8
0
 10
-153.188
 20
132.07
 11
-153.111
 21
132.052
  0
LINE
  8
0
 10
-153.111
 20
132.052
 11
-153.035
 21
132.032
  0
LINE
  8
0
 10
-153.035
 20
132.032
 11
-152.961
 21
132.007
  0
LINE
  8
0
 10
-152.961
 20
132.007
 11
-152.888
 21
131.979
  0
LINE
  8
0
 10
-152.888
 20
131.979
 11
-152.816
 21
131.947
  0
LINE
  8
0
 10
-152.816
 20
131.947
 11
-152.746
 21
131.911
  0
LINE
  8
0
 10
-152.746
 20
131.911
 11
-152.677
 21
131.873
  0
LINE
  8
0
 10
-152.677
 20
131.873
 11
-152.611
 21
131.831
  0
LINE
  8
0
 10
-152.611
 20
131.831
 11
-152.547
 21
131.785
  0
LINE
  8
0
 10
-152.547
 20
131.785
 11
-152.485
 21
131.737
  0
LINE
  8
0
 10
-152.485
 20
131.737
 11
-152.425
 21
131.686
  0
LINE
  8
0
 10
-152.425
 20
131.686
 11
-152.368
 21
131.632
  0
LINE
  8
0
 10
-152.368
 20
131.632
 11
-152.314
 21
131.575
  0
LINE
  8
0
 10
-152.314
 20
131.575
 11
-152.263
 21
131.515
  0
LINE
  8
0
 10
-152.263
 20
131.515
 11
-152.215
 21
131.453
  0
LINE
  8
0
 10
-152.215
 20
131.453
 11
-152.169
 21
131.389
  0
LINE
  8
0
 10
-152.169
 20
131.389
 11
-152.127
 21
131.323
  0
LINE
  8
0
 10
-152.127
 20
131.323
 11
-152.089
 21
131.254
  0
LINE
  8
0
 10
-152.089
 20
131.254
 11
-152.053
 21
131.184
  0
LINE
  8
0
 10
-152.053
 20
131.184
 11
-152.021
 21
131.112
  0
LINE
  8
0
 10
-152.021
 20
131.112
 11
-151.993
 21
131.039
  0
LINE
  8
0
 10
-151.993
 20
131.039
 11
-151.968
 21
130.965
  0
LINE
  8
0
 10
-151.968
 20
130.965
 11
-151.948
 21
130.889
  0
LINE
  8
0
 10
-151.948
 20
130.889
 11
-151.93
 21
130.812
  0
LINE
  8
0
 10
-151.93
 20
130.812
 11
-151.917
 21
130.735
  0
LINE
  8
0
 10
-151.917
 20
130.735
 11
-151.907
 21
130.657
  0
LINE
  8
0
 10
-151.907
 20
130.657
 11
-151.901
 21
130.579
  0
LINE
  8
0
 10
-151.901
 20
130.579
 11
-151.9
 21
130.5
  0
LINE
  8
0
 10
-151.9
 20
130.5
 11
-151.901
 21
130.421
  0
LINE
  8
0
 10
-101
 20
21.8149
 11
-105.444
 21
21.8149
  0
LINE
  8
0
 10
-105.444
 20
21.8149
 11
-109.759
 21
17.5
  0
LINE
  8
0
 10
-109.759
 20
17.5
 11
-119.991
 21
17.5
  0
LINE
  8
0
 10
-119.991
 20
17.5
 11
-124.306
 21
21.8149
  0
LINE
  8
0
 10
-124.306
 20
21.8149
 11
-131.194
 21
21.8149
  0
LINE
  8
0
 10
-131.194
 20
21.8149
 11
-135.509
 21
17.5
  0
LINE
  8
0
 10
-135.509
 20
17.5
 11
-145.741
 21
17.5
  0
LINE
  8
0
 10
-145.741
 20
17.5
 11
-150.056
 21
21.8149
  0
LINE
  8
0
 10
-150.056
 20
21.8149
 11
-154.5
 21
21.8149
  0
LINE
  8
0
 10
-154.5
 20
21.8149
 11
-154.5
 21
63
  0
LINE
  8
0
 10
-154.5
 20
63
 11
-146.5
 21
71
  0
LINE
  8
0
 10
-146.5
 20
71
 11
-109
 21
71
  0
LINE
  8
0
 10
-109
 20
71
 11
-101
 21
63
  0
LINE
  8
0
 10
-101
 20
63
 11
-101
 21
21.8149
  0
LINE
  8
0
 10
-101
 20
85
 11
-109
 21
77
  0
LINE
  8
0
 10
-109
 20
77
 11
-146.5
 21
77
  0
LINE
  8
0
 10
-146.5
 20
77
 11
-154.5
 21
85
  0
LINE
  8
0
 10
-154.5
 20
85
 11
-154.5
 21
126.185
  0
LINE
  8
0
 10
-154.5
 20
126.185
 11
-150.056
 21
126.185
  0
LINE
  8
0
 10
-150.056
 20
126.185
 11
-145.741
 21
130.5
  0
LINE
  8
0
 10
-145.741
 20
130.5
 11
-135.509
 21
130.5
  0
LINE
  8
0
 10
-135.509
 20
130.5
 11
-131.194
 21
126.185
  0
LINE
  8
0
 10
-131.194
 20
126.185
 11
-124.306
 21
126.185
  0
LINE
  8
0
 10
-124.306
 20
126.185
 11
-119.991
 21
130.5
  0
LINE
  8
0
 10
-119.991
 20
130.5
 11
-109.759
 21
130.5
  0
LINE
  8
0
 10
-109.759
 20
130.5
 11
-105.444
 21
126.185
  0
LINE
  8
0
 10
-105.444
 20
126.185
 11
-101
 21
126.185
  0
LINE
  8
0
 10
-101
 20
126.185
 11
-101
 21
85
  0
LINE
  8
0
 10
-147.901
 20
143.421
 11
-147.907
 21
143.343
  0
LINE
  8
0
 10
-147.907
 20
143.343
 11
-147.917
 21
143.265
  0
LINE
  8
0
 10
-147.917
 20
143.265
 11
-147.93
 21
143.188
  0
LINE
  8
0
 10
-147.93
 20
143.188
 11
-147.948
 21
143.111
  0
LINE
  8
0
 10
-147.948
 20
143.111
 11
-147.968
 21
143.035
  0
LINE
  8
0
 10
-147.968
 20
143.035
 11
-147.993
 21
142.961
  0
LINE
  8
0
 10
-147.993
 20
142.961
 11
-148.021
 21
142.888
  0
LINE
  8
0
 10
-148.021
 20
142.888
 11
-148.053
 21
142.816
  0
LINE
  8
0
 10
-148.053
 20
142.816
 11
-148.089
 21
142.746
  0
LINE
  8
0
 10
-148.089
 20
142.746
 11
-148.127
 21
142.677
  0
LINE
  8
0
 10
-148.127
 20
142.677
 11
-148.169
 21
142.611
  0
LINE
  8
0
 10
-148.169
 20
142.611
 11
-148.215
 21
142.547
  0
LINE
  8
0
 10
-148.215
 20
142.547
 11
-148.263
 21
142.485
  0
LINE
  8
0
 10
-148.263
 20
142.485
 11
-148.314
 21
142.425
  0
LINE
  8
0
 10
-148.314
 20
142.425
 11
-148.368
 21
142.368
  0
LINE
  8
0
 10
-148.368
 20
142.368
 11
-148.425
 21
142.314
  0
LINE
  8
0
 10
-148.425
 20
142.314
 11
-148.485
 21
142.263
  0
LINE
  8
0
 10
-148.485
 20
142.263
 11
-148.547
 21
142.215
  0
LINE
  8
0
 10
-148.547
 20
142.215
 11
-148.611
 21
142.169
  0
LINE
  8
0
 10
-148.611
 20
142.169
 11
-148.677
 21
142.127
  0
LINE
  8
0
 10
-148.677
 20
142.127
 11
-148.746
 21
142.089
  0
LINE
  8
0
 10
-148.746
 20
142.089
 11
-148.816
 21
142.053
  0
LINE
  8
0
 10
-148.816
 20
142.053
 11
-148.888
 21
142.021
  0
LINE
  8
0
 10
-148.888
 20
142.021
 11
-148.961
 21
141.993
  0
LINE
  8
0
 10
-148.961
 20
141.993
 11
-149.035
 21
141.968
  0
LINE
  8
0
 10
-149.035
 20
141.968
 11
-149.111
 21
141.948
  0
LINE
  8
0
 10
-149.111
 20
141.948
 11
-149.188
 21
141.93
  0
LINE
  8
0
 10
-149.188
 20
141.93
 11
-149.265
 21
141.917
  0
LINE
  8
0
 10
-149.265
 20
141.917
 11
-149.343
 21
141.907
  0
LINE
  8
0
 10
-149.343
 20
141.907
 11
-149.421
 21
141.901
  0
LINE
  8
0
 10
-149.421
 20
141.901
 11
-149.5
 21
141.9
  0
LINE
  8
0
 10
-149.5
 20
141.9
 11
-149.579
 21
141.901
  0
LINE
  8
0
 10
-149.579
 20
141.901
 11
-149.657
 21
141.907
  0
LINE
  8
0
 10
-149.657
 20
141.907
 11
-149.735
 21
141.917
  0
LINE
  8
0
 10
-149.735
 20
141.917
 11
-149.812
 21
141.93
  0
LINE
  8
0
 10
-149.812
 20
141.93
 11
-149.889
 21
141.948
  0
LINE
  8
0
 10
-149.889
 20
141.948
 11
-149.965
 21
141.968
  0
LINE
  8
0
 10
-149.965
 20
141.968
 11
-150.039
 21
141.993
  0
LINE
  8
0
 10
-150.039
 20
141.993
 11
-150.112
 21
142.021
  0
LINE
  8
0
 10
-150.112
 20
142.021
 11
-150.184
 21
142.053
  0
LINE
  8
0
 10
-150.184
 20
142.053
 11
-150.254
 21
142.089
  0
LINE
  8
0
 10
-150.254
 20
142.089
 11
-150.323
 21
142.127
  0
LINE
  8
0
 10
-150.323
 20
142.127
 11
-150.389
 21
142.169
  0
LINE
  8
0
 10
-150.389
 20
142.169
 11
-150.453
 21
142.215
  0
LINE
  8
0
 10
-150.453
 20
142.215
 11
-150.515
 21
142.263
  0
LINE
  8
0
 10
-150.515
 20
142.263
 11
-150.575
 21
142.314
  0
LINE
  8
0
 10
-150.575
 20
142.314
 11
-150.632
 21
142.368
  0
LINE
  8
0
 10
-150.632
 20
142.368
 11
-150.686
 21
142.425
  0
LINE
  8
0
 10
-150.686
 20
142.425
 11
-150.737
 21
142.485
  0
LINE
  8
0
 10
-150.737
 20
142.485
 11
-150.785
 21
142.547
  0
LINE
  8
0
 10
-150.785
 20
142.547
 11
-150.831
 21
142.611
  0
LINE
  8
0
 10
-150.831
 20
142.611
 11
-150.873
 21
142.677
  0
LINE
  8
0
 10
-150.873
 20
142.677
 11
-150.911
 21
142.746
  0
LINE
  8
0
 10
-150.911
 20
142.746
 11
-150.947
 21
142.816
  0
LINE
  8
0
 10
-150.947
 20
142.816
 11
-150.979
 21
142.888
  0
LINE
  8
0
 10
-150.979
 20
142.888
 11
-151.007
 21
142.961
  0
LINE
  8
0
 10
-151.007
 20
142.961
 11
-151.032
 21
143.035
  0
LINE
  8
0
 10
-151.032
 20
143.035
 11
-151.052
 21
143.111
  0
LINE
  8
0
 10
-151.052
 20
143.111
 11
-151.07
 21
143.188
  0
LINE
  8
0
 10
-151.07
 20
143.188
 11
-151.083
 21
143.265
  0
LINE
  8
0
 10
-151.083
 20
143.265
 11
-151.093
 21
143.343
  0
LINE
  8
0
 10
-151.093
 20
143.343
 11
-151.099
 21
143.421
  0
LINE
  8
0
 10
-151.099
 20
143.421
 11
-151.1
 21
143.5
  0
LINE
  8
0
 10
-151.1
 20
143.5
 11
-151.099
 21
143.579
  0
LINE
  8
0
 10
-151.099
 20
143.579
 11
-151.093
 21
143.657
  0
LINE
  8
0
 10
-151.093
 20
143.657
 11
-151.083
 21
143.735
  0
LINE
  8
0
 10
-151.083
 20
143.735
 11
-151.07
 21
143.812
  0
LINE
  8
0
 10
-151.07
 20
143.812
 11
-151.052
 21
143.889
  0
LINE
  8
0
 10
-151.052
 20
143.889
 11
-151.032
 21
143.965
  0
LINE
  8
0
 10
-151.032
 20
143.965
 11
-151.007
 21
144.039
  0
LINE
  8
0
 10
-151.007
 20
144.039
 11
-150.979
 21
144.112
  0
LINE
  8
0
 10
-150.979
 20
144.112
 11
-150.947
 21
144.184
  0
LINE
  8
0
 10
-150.947
 20
144.184
 11
-150.911
 21
144.254
  0
LINE
  8
0
 10
-150.911
 20
144.254
 11
-150.873
 21
144.323
  0
LINE
  8
0
 10
-150.873
 20
144.323
 11
-150.831
 21
144.389
  0
LINE
  8
0
 10
-150.831
 20
144.389
 11
-150.785
 21
144.453
  0
LINE
  8
0
 10
-150.785
 20
144.453
 11
-150.737
 21
144.515
  0
LINE
  8
0
 10
-150.737
 20
144.515
 11
-150.686
 21
144.575
  0
LINE
  8
0
 10
-150.686
 20
144.575
 11
-150.632
 21
144.632
  0
LINE
  8
0
 10
-150.632
 20
144.632
 11
-150.575
 21
144.686
  0
LINE
  8
0
 10
-150.575
 20
144.686
 11
-150.515
 21
144.737
  0
LINE
  8
0
 10
-150.515
 20
144.737
 11
-150.453
 21
144.785
  0
LINE
  8
0
 10
-150.453
 20
144.785
 11
-150.389
 21
144.831
  0
LINE
  8
0
 10
-150.389
 20
144.831
 11
-150.323
 21
144.873
  0
LINE
  8
0
 10
-150.323
 20
144.873
 11
-150.254
 21
144.911
  0
LINE
  8
0
 10
-150.254
 20
144.911
 11
-150.184
 21
144.947
  0
LINE
  8
0
 10
-150.184
 20
144.947
 11
-150.112
 21
144.979
  0
LINE
  8
0
 10
-150.112
 20
144.979
 11
-150.039
 21
145.007
  0
LINE
  8
0
 10
-150.039
 20
145.007
 11
-149.965
 21
145.032
  0
LINE
  8
0
 10
-149.965
 20
145.032
 11
-149.889
 21
145.052
  0
LINE
  8
0
 10
-149.889
 20
145.052
 11
-149.812
 21
145.07
  0
LINE
  8
0
 10
-149.812
 20
145.07
 11
-149.735
 21
145.083
  0
LINE
  8
0
 10
-149.735
 20
145.083
 11
-149.657
 21
145.093
  0
LINE
  8
0
 10
-149.657
 20
145.093
 11
-149.579
 21
145.099
  0
LINE
  8
0
 10
-149.579
 20
145.099
 11
-149.5
 21
145.1
  0
LINE
  8
0
 10
-149.5
 20
145.1
 11
-149.421
 21
145.099
  0
LINE
  8
0
 10
-149.421
 20
145.099
 11
-149.343
 21
145.093
  0
LINE
  8
0
 10
-149.343
 20
145.093
 11
-149.265
 21
145.083
  0
LINE
  8
0
 10
-149.265
 20
145.083
 11
-149.188
 21
145.07
  0
LINE
  8
0
 10
-149.188
 20
145.07
 11
-149.111
 21
145.052
  0
LINE
  8
0
 10
-149.111
 20
145.052
 11
-149.035
 21
145.032
  0
LINE
  8
0
 10
-149.035
 20
145.032
 11
-148.961
 21
145.007
  0
LINE
  8
0
 10
-148.961
 20
145.007
 11
-148.888
 21
144.979
  0
LINE
  8
0
 10
-148.888
 20
144.979
 11
-148.816
 21
144.947
  0
LINE
  8
0
 10
-148.816
 20
144.947
 11
-148.746
 21
144.911
  0
LINE
  8
0
 10
-148.746
 20
144.911
 11
-148.677
 21
144.873
  0
LINE
  8
0
 10
-148.677
 20
144.873
 11
-148.611
 21
144.831
  0
LINE
  8
0
 10
-148.611
 20
144.831
 11
-148.547
 21
144.785
  0
LINE
  8
0
 10
-148.547
 20
144.785
 11
-148.485
 21
144.737
  0
LINE
  8
0
 10
-148.485
 20
144.737
 11
-148.425
 21
144.686
  0
LINE
  8
0
 10
-148.425
 20
144.686
 11
-148.368
 21
144.632
  0
LINE
  8
0
 10
-148.368
 20
144.632
 11
-148.314
 21
144.575
  0
LINE
  8
0
 10
-148.314
 20
144.575
 11
-148.263
 21
144.515
  0
LINE
  8
0
 10
-148.263
 20
144.515
 11
-148.215
 21
144.453
  0
LINE
  8
0
 10
-148.215
 20
144.453
 11
-148.169
 21
144.389
  0
LINE
  8
0
 10
-148.169
 20
144.389
 11
-148.127
 21
144.323
  0
LINE
  8
0
 10
-148.127
 20
144.323
 11
-148.089
 21
144.254
  0
LINE
  8
0
 10
-148.089
 20
144.254
 11
-148.053
 21
144.184
  0
LINE
  8
0
 10
-148.053
 20
144.184
 11
-148.021
 21
144.112
  0
LINE
  8
0
 10
-148.021
 20
144.112
 11
-147.993
 21
144.039
  0
LINE
  8
0
 10
-147.993
 20
144.039
 11
-147.968
 21
143.965
  0
LINE
  8
0
 10
-147.968
 20
143.965
 11
-147.948
 21
143.889
  0
LINE
  8
0
 10
-147.948
 20
143.889
 11
-147.93
 21
143.812
  0
LINE
  8
0
 10
-147.93
 20
143.812
 11
-147.917
 21
143.735
  0
LINE
  8
0
 10
-147.917
 20
143.735
 11
-147.907
 21
143.657
  0
LINE
  8
0
 10
-147.907
 20
143.657
 11
-147.901
 21
143.579
  0
LINE
  8
0
 10
-147.901
 20
143.579
 11
-147.9
 21
143.5
  0
LINE
  8
0
 10
-147.9
 20
143.5
 11
-147.901
 21
143.421
  0
LINE
  8
0
 10
-147.901
 20
4.42146
 11
-147.907
 21
4.34312
  0
LINE
  8
0
 10
-147.907
 20
4.34312
 11
-147.917
 21
4.26515
  0
LINE
  8
0
 10
-147.917
 20
4.26515
 11
-147.93
 21
4.18776
  0
LINE
  8
0
 10
-147.93
 20
4.18776
 11
-147.948
 21
4.11111
  0
LINE
  8
0
 10
-147.948
 20
4.11111
 11
-147.968
 21
4.0354
  0
LINE
  8
0
 10
-147.968
 20
4.0354
 11
-147.993
 21
3.96082
  0
LINE
  8
0
 10
-147.993
 20
3.96082
 11
-148.021
 21
3.88753
  0
LINE
  8
0
 10
-148.021
 20
3.88753
 11
-148.053
 21
3.8157
  0
LINE
  8
0
 10
-148.053
 20
3.8157
 11
-148.089
 21
3.74554
  0
LINE
  8
0
 10
-148.089
 20
3.74554
 11
-148.127
 21
3.6772
  0
LINE
  8
0
 10
-148.127
 20
3.6772
 11
-148.169
 21
3.61082
  0
LINE
  8
0
 10
-148.169
 20
3.61082
 11
-148.215
 21
3.5466
  0
LINE
  8
0
 10
-148.215
 20
3.5466
 11
-148.263
 21
3.48468
  0
LINE
  8
0
 10
-148.263
 20
3.48468
 11
-148.314
 21
3.4252
  0
LINE
  8
0
 10
-148.314
 20
3.4252
 11
-148.368
 21
3.3683
  0
LINE
  8
0
 10
-148.368
 20
3.3683
 11
-148.425
 21
3.31413
  0
LINE
  8
0
 10
-148.425
 20
3.31413
 11
-148.485
 21
3.26283
  0
LINE
  8
0
 10
-148.485
 20
3.26283
 11
-148.547
 21
3.21449
  0
LINE
  8
0
 10
-148.547
 20
3.21449
 11
-148.611
 21
3.16927
  0
LINE
  8
0
 10
-148.611
 20
3.16927
 11
-148.677
 21
3.12724
  0
LINE
  8
0
 10
-148.677
 20
3.12724
 11
-148.746
 21
3.08852
  0
LINE
  8
0
 10
-148.746
 20
3.08852
 11
-148.816
 21
3.05321
  0
LINE
  8
0
 10
-148.816
 20
3.05321
 11
-148.888
 21
3.02136
  0
LINE
  8
0
 10
-148.888
 20
3.02136
 11
-148.961
 21
2.9931
  0
LINE
  8
0
 10
-148.961
 20
2.9931
 11
-149.035
 21
2.96846
  0
LINE
  8
0
 10
-149.035
 20
2.96846
 11
-149.111
 21
2.94751
  0
LINE
  8
0
 10
-149.111
 20
2.94751
 11
-149.188
 21
2.9303
  0
LINE
  8
0
 10
-149.188
 20
2.9303
 11
-149.265
 21
2.91687
  0
LINE
  8
0
 10
-149.265
 20
2.91687
 11
-149.343
 21
2.90724
  0
LINE
  8
0
 10
-149.343
 20
2.90724
 11
-149.421
 21
2.90147
  0
LINE
  8
0
 10
-149.421
 20
2.90147
 11
-149.5
 21
2.89954
  0
LINE
  8
0
 10
-149.5
 20
2.89954
 11
-149.579
 21
2.90147
  0
LINE
  8
0
 10
-149.579
 20
2.90147
 11
-149.657
 21
2.90724
  0
LINE
  8
0
 10
-149.657
 20
2.90724
 11
-149.735
 21
2.91687
  0
LINE
  8
0
 10
-149.735
 20
2.91687
 11
-149.812
 21
2.9303
  0
LINE
  8
0
 10
-149.812
 20
2.9303
 11
-149.889
 21
2.94751
  0
LINE
  8
0
 10
-149.889
 20
2.94751
 11
-149.965
 21
2.96846
  0
LINE
  8
0
 10
-149.965
 20
2.96846
 11
-150.039
 21
2.9931
  0
LINE
  8
0
 10
-150.039
 20
2.9931
 11
-150.112
 21
3.02136
  0
LINE
  8
0
 10
-150.112
 20
3.02136
 11
-150.184
 21
3.05321
  0
LINE
  8
0
 10
-150.184
 20
3.05321
 11
-150.254
 21
3.08852
  0
LINE
  8
0
 10
-150.254
 20
3.08852
 11
-150.323
 21
3.12724
  0
LINE
  8
0
 10
-150.323
 20
3.12724
 11
-150.389
 21
3.16927
  0
LINE
  8
0
 10
-150.389
 20
3.16927
 11
-150.453
 21
3.21449
  0
LINE
  8
0
 10
-150.453
 20
3.21449
 11
-150.515
 21
3.26283
  0
LINE
  8
0
 10
-150.515
 20
3.26283
 11
-150.575
 21
3.31413
  0
LINE
  8
0
 10
-150.575
 20
3.31413
 11
-150.632
 21
3.3683
  0
LINE
  8
0
 10
-150.632
 20
3.3683
 11
-150.686
 21
3.4252
  0
LINE
  8
0
 10
-150.686
 20
3.4252
 11
-150.737
 21
3.48468
  0
LINE
  8
0
 10
-150.737
 20
3.48468
 11
-150.785
 21
3.5466
  0
LINE
  8
0
 10
-150.785
 20
3.5466
 11
-150.831
 21
3.61082
  0
LINE
  8
0
 10
-150.831
 20
3.61082
 11
-150.873
 21
3.6772
  0
LINE
  8
0
 10
-150.873
 20
3.6772
 11
-150.911
 21
3.74554
  0
LINE
  8
0
 10
-150.911
 20
3.74554
 11
-150.947
 21
3.8157
  0
LINE
  8
0
 10
-150.947
 20
3.8157
 11
-150.979
 21
3.88753
  0
LINE
  8
0
 10
-150.979
 20
3.88753
 11
-151.007
 21
3.96082
  0
LINE
  8
0
 10
-151.007
 20
3.96082
 11
-151.032
 21
4.0354
  0
LINE
  8
0
 10
-151.032
 20
4.0354
 11
-151.052
 21
4.11111
  0
LINE
  8
0
 10
-151.052
 20
4.11111
 11
-151.07
 21
4.18776
  0
LINE
  8
0
 10
-151.07
 20
4.18776
 11
-151.083
 21
4.26515
  0
LINE
  8
0
 10
-151.083
 20
4.26515
 11
-151.093
 21
4.34312
  0
LINE
  8
0
 10
-151.093
 20
4.34312
 11
-151.099
 21
4.42146
  0
LINE
  8
0
 10
-151.099
 20
4.42146
 11
-151.1
 21
4.5
  0
LINE
  8
0
 10
-151.1
 20
4.5
 11
-151.099
 21
4.57852
  0
LINE
  8
0
 10
-151.099
 20
4.57852
 11
-151.093
 21
4.65686
  0
LINE
  8
0
 10
-151.093
 20
4.65686
 11
-151.083
 21
4.73483
  0
LINE
  8
0
 10
-151.083
 20
4.73483
 11
-151.07
 21
4.81223
  0
LINE
  8
0
 10
-151.07
 20
4.81223
 11
-151.052
 21
4.88887
  0
LINE
  8
0
 10
-151.052
 20
4.88887
 11
-151.032
 21
4.96458
  0
LINE
  8
0
 10
-151.032
 20
4.96458
 11
-151.007
 21
5.03917
  0
LINE
  8
0
 10
-151.007
 20
5.03917
 11
-150.979
 21
5.11246
  0
LINE
  8
0
 10
-150.979
 20
5.11246
 11
-150.947
 21
5.18428
  0
LINE
  8
0
 10
-150.947
 20
5.18428
 11
-150.911
 21
5.25444
  0
LINE
  8
0
 10
-150.911
 20
5.25444
 11
-150.873
 21
5.32278
  0
LINE
  8
0
 10
-150.873
 20
5.32278
 11
-150.831
 21
5.38916
  0
LINE
  8
0
 10
-150.831
 20
5.38916
 11
-150.785
 21
5.45338
  0
LINE
  8
0
 10
-150.785
 20
5.45338
 11
-150.737
 21
5.5153
  0
LINE
  8
0
 10
-150.737
 20
5.5153
 11
-150.686
 21
5.57478
  0
LINE
  8
0
 10
-150.686
 20
5.57478
 11
-150.632
 21
5.63168
  0
LINE
  8
0
 10
-150.632
 20
5.63168
 11
-150.575
 21
5.68585
  0
LINE
  8
0
 10
-150.575
 20
5.68585
 11
-150.515
 21
5.73715
  0
LINE
  8
0
 10
-150.515
 20
5.73715
 11
-150.453
 21
5.78549
  0
LINE
  8
0
 10
-150.453
 20
5.78549
 11
-150.389
 21
5.83072
  0
LINE
  8
0
 10
-150.389
 20
5.83072
 11
-150.323
 21
5.87274
  0
LINE
  8
0
 10
-150.323
 20
5.87274
 11
-150.254
 21
5.91147
  0
LINE
  8
0
 10
-150.254
 20
5.91147
 11
-150.184
 21
5.94678
  0
LINE
  8
0
 10
-150.184
 20
5.94678
 11
-150.112
 21
5.97862
  0
LINE
  8
0
 10
-150.112
 20
5.97862
 11
-150.039
 21
6.00688
  0
LINE
  8
0
 10
-150.039
 20
6.00688
 11
-149.965
 21
6.03152
  0
LINE
  8
0
 10
-149.965
 20
6.03152
 11
-149.889
 21
6.05247
  0
LINE
  8
0
 10
-149.889
 20
6.05247
 11
-149.812
 21
6.06969
  0
LINE
  8
0
 10
-149.812
 20
6.06969
 11
-149.735
 21
6.08311
  0
LINE
  8
0
 10
-149.735
 20
6.08311
 11
-149.657
 21
6.09274
  0
LINE
  8
0
 10
-149.657
 20
6.09274
 11
-149.579
 21
6.09851
  0
LINE
  8
0
 10
-149.579
 20
6.09851
 11
-149.5
 21
6.10045
  0
LINE
  8
0
 10
-149.5
 20
6.10045
 11
-149.421
 21
6.09851
  0
LINE
  8
0
 10
-149.421
 20
6.09851
 11
-149.343
 21
6.09274
  0
LINE
  8
0
 10
-149.343
 20
6.09274
 11
-149.265
 21
6.08311
  0
LINE
  8
0
 10
-149.265
 20
6.08311
 11
-149.188
 21
6.06969
  0
LINE
  8
0
 10
-149.188
 20
6.06969
 11
-149.111
 21
6.05247
  0
LINE
  8
0
 10
-149.111
 20
6.05247
 11
-149.035
 21
6.03152
  0
LINE
  8
0
 10
-149.035
 20
6.03152
 11
-148.961
 21
6.00688
  0
LINE
  8
0
 10
-148.961
 20
6.00688
 11
-148.888
 21
5.97862
  0
LINE
  8
0
 10
-148.888
 20
5.97862
 11
-148.816
 21
5.94678
  0
LINE
  8
0
 10
-148.816
 20
5.94678
 11
-148.746
 21
5.91147
  0
LINE
  8
0
 10
-148.746
 20
5.91147
 11
-148.677
 21
5.87274
  0
LINE
  8
0
 10
-148.677
 20
5.87274
 11
-148.611
 21
5.83072
  0
LINE
  8
0
 10
-148.611
 20
5.83072
 11
-148.547
 21
5.78549
  0
LINE
  8
0
 10
-148.547
 20
5.78549
 11
-148.485
 21
5.73715
  0
LINE
  8
0
 10
-148.485
 20
5.73715
 11
-148.425
 21
5.68585
  0
LINE
  8
0
 10
-148.425
 20
5.68585
 11
-148.368
 21
5.63168
  0
LINE
  8
0
 10
-148.368
 20
5.63168
 11
-148.314
 21
5.57478
  0
LINE
  8
0
 10
-148.314
 20
5.57478
 11
-148.263
 21
5.5153
  0
LINE
  8
0
 10
-148.263
 20
5.5153
 11
-148.215
 21
5.45338
  0
LINE
  8
0
 10
-148.215
 20
5.45338
 11
-148.169
 21
5.38916
  0
LINE
  8
0
 10
-148.169
 20
5.38916
 11
-148.127
 21
5.32278
  0
LINE
  8
0
 10
-148.127
 20
5.32278
 11
-148.089
 21
5.25444
  0
LINE
  8
0
 10
-148.089
 20
5.25444
 11
-148.053
 21
5.18428
  0
LINE
  8
0
 10
-148.053
 20
5.18428
 11
-148.021
 21
5.11246
  0
LINE
  8
0
 10
-148.021
 20
5.11246
 11
-147.993
 21
5.03917
  0
LINE
  8
0
 10
-147.993
 20
5.03917
 11
-147.968
 21
4.96458
  0
LINE
  8
0
 10
-147.968
 20
4.96458
 11
-147.948
 21
4.88887
  0
LINE
  8
0
 10
-147.948
 20
4.88887
 11
-147.93
 21
4.81223
  0
LINE
  8
0
 10
-147.93
 20
4.81223
 11
-147.917
 21
4.73483
  0
LINE
  8
0
 10
-147.917
 20
4.73483
 11
-147.907
 21
4.65686
  0
LINE
  8
0
 10
-147.907
 20
4.65686
 11
-147.901
 21
4.57852
  0
LINE
  8
0
 10
-147.901
 20
4.57852
 11
-147.9
 21
4.5
  0
LINE
  8
0
 10
-147.9
 20
4.5
 11
-147.901
 21
4.42146
  0
LINE
  8
0
 10
-126.151
 20
130.421
 11
-126.157
 21
130.343
  0
LINE
  8
0
 10
-126.157
 20
130.343
 11
-126.167
 21
130.265
  0
LINE
  8
0
 10
-126.167
 20
130.265
 11
-126.18
 21
130.188
  0
LINE
  8
0
 10
-126.18
 20
130.188
 11
-126.198
 21
130.111
  0
LINE
  8
0
 10
-126.198
 20
130.111
 11
-126.218
 21
130.035
  0
LINE
  8
0
 10
-126.218
 20
130.035
 11
-126.243
 21
129.961
  0
LINE
  8
0
 10
-126.243
 20
129.961
 11
-126.271
 21
129.888
  0
LINE
  8
0
 10
-126.271
 20
129.888
 11
-126.303
 21
129.816
  0
LINE
  8
0
 10
-126.303
 20
129.816
 11
-126.339
 21
129.746
  0
LINE
  8
0
 10
-126.339
 20
129.746
 11
-126.377
 21
129.677
  0
LINE
  8
0
 10
-126.377
 20
129.677
 11
-126.419
 21
129.611
  0
LINE
  8
0
 10
-126.419
 20
129.611
 11
-126.465
 21
129.547
  0
LINE
  8
0
 10
-126.465
 20
129.547
 11
-126.513
 21
129.485
  0
LINE
  8
0
 10
-126.513
 20
129.485
 11
-126.564
 21
129.425
  0
LINE
  8
0
 10
-126.564
 20
129.425
 11
-126.618
 21
129.368
  0
LINE
  8
0
 10
-126.618
 20
129.368
 11
-126.675
 21
129.314
  0
LINE
  8
0
 10
-126.675
 20
129.314
 11
-126.735
 21
129.263
  0
LINE
  8
0
 10
-126.735
 20
129.263
 11
-126.797
 21
129.215
  0
LINE
  8
0
 10
-126.797
 20
129.215
 11
-126.861
 21
129.169
  0
LINE
  8
0
 10
-126.861
 20
129.169
 11
-126.927
 21
129.127
  0
LINE
  8
0
 10
-126.927
 20
129.127
 11
-126.996
 21
129.089
  0
LINE
  8
0
 10
-126.996
 20
129.089
 11
-127.066
 21
129.053
  0
LINE
  8
0
 10
-127.066
 20
129.053
 11
-127.138
 21
129.021
  0
LINE
  8
0
 10
-127.138
 20
129.021
 11
-127.211
 21
128.993
  0
LINE
  8
0
 10
-127.211
 20
128.993
 11
-127.285
 21
128.968
  0
LINE
  8
0
 10
-127.285
 20
128.968
 11
-127.361
 21
128.948
  0
LINE
  8
0
 10
-127.361
 20
128.948
 11
-127.438
 21
128.93
  0
LINE
  8
0
 10
-127.438
 20
128.93
 11
-127.515
 21
128.917
  0
LINE
  8
0
 10
-127.515
 20
128.917
 11
-127.593
 21
128.907
  0
LINE
  8
0
 10
-127.593
 20
128.907
 11
-127.671
 21
128.901
  0
LINE
  8
0
 10
-127.671
 20
128.901
 11
-127.75
 21
128.9
  0
LINE
  8
0
 10
-127.75
 20
128.9
 11
-127.829
 21
128.901
  0
LINE
  8
0
 10
-127.829
 20
128.901
 11
-127.907
 21
128.907
  0
LINE
  8
0
 10
-127.907
 20
128.907
 11
-127.985
 21
128.917
  0
LINE
  8
0
 10
-127.985
 20
128.917
 11
-128.062
 21
128.93
  0
LINE
  8
0
 10
-128.062
 20
128.93
 11
-128.139
 21
128.948
  0
LINE
  8
0
 10
-128.139
 20
128.948
 11
-128.215
 21
128.968
  0
LINE
  8
0
 10
-128.215
 20
128.968
 11
-128.289
 21
128.993
  0
LINE
  8
0
 10
-128.289
 20
128.993
 11
-128.362
 21
129.021
  0
LINE
  8
0
 10
-128.362
 20
129.021
 11
-128.434
 21
129.053
  0
LINE
  8
0
 10
-128.434
 20
129.053
 11
-128.504
 21
129.089
  0
LINE
  8
0
 10
-128.504
 20
129.089
 11
-128.573
 21
129.127
  0
LINE
  8
0
 10
-128.573
 20
129.127
 11
-128.639
 21
129.169
  0
LINE
  8
0
 10
-128.639
 20
129.169
 11
-128.703
 21
129.215
  0
LINE
  8
0
 10
-128.703
 20
129.215
 11
-128.765
 21
129.263
  0
LINE
  8
0
 10
-128.765
 20
129.263
 11
-128.825
 21
129.314
  0
LINE
  8
0
 10
-128.825
 20
129.314
 11
-128.882
 21
129.368
  0
LINE
  8
0
 10
-128.882
 20
129.368
 11
-128.936
 21
129.425
  0
LINE
  8
0
 10
-128.936
 20
129.425
 11
-128.987
 21
129.485
  0
LINE
  8
0
 10
-128.987
 20
129.485
 11
-129.035
 21
129.547
  0
LINE
  8
0
 10
-129.035
 20
129.547
 11
-129.081
 21
129.611
  0
LINE
  8
0
 10
-129.081
 20
129.611
 11
-129.123
 21
129.677
  0
LINE
  8
0
 10
-129.123
 20
129.677
 11
-129.161
 21
129.746
  0
LINE
  8
0
 10
-129.161
 20
129.746
 11
-129.197
 21
129.816
  0
LINE
  8
0
 10
-129.197
 20
129.816
 11
-129.229
 21
129.888
  0
LINE
  8
0
 10
-129.229
 20
129.888
 11
-129.257
 21
129.961
  0
LINE
  8
0
 10
-129.257
 20
129.961
 11
-129.282
 21
130.035
  0
LINE
  8
0
 10
-129.282
 20
130.035
 11
-129.302
 21
130.111
  0
LINE
  8
0
 10
-129.302
 20
130.111
 11
-129.32
 21
130.188
  0
LINE
  8
0
 10
-129.32
 20
130.188
 11
-129.333
 21
130.265
  0
LINE
  8
0
 10
-129.333
 20
130.265
 11
-129.343
 21
130.343
  0
LINE
  8
0
 10
-129.343
 20
130.343
 11
-129.349
 21
130.421
  0
LINE
  8
0
 10
-129.349
 20
130.421
 11
-129.35
 21
130.5
  0
LINE
  8
0
 10
-129.35
 20
130.5
 11
-129.349
 21
130.579
  0
LINE
  8
0
 10
-129.349
 20
130.579
 11
-129.343
 21
130.657
  0
LINE
  8
0
 10
-129.343
 20
130.657
 11
-129.333
 21
130.735
  0
LINE
  8
0
 10
-129.333
 20
130.735
 11
-129.32
 21
130.812
  0
LINE
  8
0
 10
-129.32
 20
130.812
 11
-129.302
 21
130.889
  0
LINE
  8
0
 10
-129.302
 20
130.889
 11
-129.282
 21
130.965
  0
LINE
  8
0
 10
-129.282
 20
130.965
 11
-129.257
 21
131.039
  0
LINE
  8
0
 10
-129.257
 20
131.039
 11
-129.229
 21
131.112
  0
LINE
  8
0
 10
-129.229
 20
131.112
 11
-129.197
 21
131.184
  0
LINE
  8
0
 10
-129.197
 20
131.184
 11
-129.161
 21
131.254
  0
LINE
  8
0
 10
-129.161
 20
131.254
 11
-129.123
 21
131.323
  0
LINE
  8
0
 10
-129.123
 20
131.323
 11
-129.081
 21
131.389
  0
LINE
  8
0
 10
-129.081
 20
131.389
 11
-129.035
 21
131.453
  0
LINE
  8
0
 10
-129.035
 20
131.453
 11
-128.987
 21
131.515
  0
LINE
  8
0
 10
-128.987
 20
131.515
 11
-128.936
 21
131.575
  0
LINE
  8
0
 10
-128.936
 20
131.575
 11
-128.882
 21
131.632
  0
LINE
  8
0
 10
-128.882
 20
131.632
 11
-128.825
 21
131.686
  0
LINE
  8
0
 10
-128.825
 20
131.686
 11
-128.765
 21
131.737
  0
LINE
  8
0
 10
-128.765
 20
131.737
 11
-128.703
 21
131.785
  0
LINE
  8
0
 10
-128.703
 20
131.785
 11
-128.639
 21
131.831
  0
LINE
  8
0
 10
-128.639
 20
131.831
 11
-128.573
 21
131.873
  0
LINE
  8
0
 10
-128.573
 20
131.873
 11
-128.504
 21
131.911
  0
LINE
  8
0
 10
-128.504
 20
131.911
 11
-128.434
 21
131.947
  0
LINE
  8
0
 10
-128.434
 20
131.947
 11
-128.362
 21
131.979
  0
LINE
  8
0
 10
-128.362
 20
131.979
 11
-128.289
 21
132.007
  0
LINE
  8
0
 10
-128.289
 20
132.007
 11
-128.215
 21
132.032
  0
LINE
  8
0
 10
-128.215
 20
132.032
 11
-128.139
 21
132.052
  0
LINE
  8
0
 10
-128.139
 20
132.052
 11
-128.062
 21
132.07
  0
LINE
  8
0
 10
-128.062
 20
132.07
 11
-127.985
 21
132.083
  0
LINE
  8
0
 10
-127.985
 20
132.083
 11
-127.907
 21
132.093
  0
LINE
  8
0
 10
-127.907
 20
132.093
 11
-127.829
 21
132.099
  0
LINE
  8
0
 10
-127.829
 20
132.099
 11
-127.75
 21
132.1
  0
LINE
  8
0
 10
-127.75
 20
132.1
 11
-127.671
 21
132.099
  0
LINE
  8
0
 10
-127.671
 20
132.099
 11
-127.593
 21
132.093
  0
LINE
  8
0
 10
-127.593
 20
132.093
 11
-127.515
 21
132.083
  0
LINE
  8
0
 10
-127.515
 20
132.083
 11
-127.438
 21
132.07
  0
LINE
  8
0
 10
-127.438
 20
132.07
 11
-127.361
 21
132.052
  0
LINE
  8
0
 10
-127.361
 20
132.052
 11
-127.285
 21
132.032
  0
LINE
  8
0
 10
-127.285
 20
132.032
 11
-127.211
 21
132.007
  0
LINE
  8
0
 10
-127.211
 20
132.007
 11
-127.138
 21
131.979
  0
LINE
  8
0
 10
-127.138
 20
131.979
 11
-127.066
 21
131.947
  0
LINE
  8
0
 10
-127.066
 20
131.947
 11
-126.996
 21
131.911
  0
LINE
  8
0
 10
-126.996
 20
131.911
 11
-126.927
 21
131.873
  0
LINE
  8
0
 10
-126.927
 20
131.873
 11
-126.861
 21
131.831
  0
LINE
  8
0
 10
-126.861
 20
131.831
 11
-126.797
 21
131.785
  0
LINE
  8
0
 10
-126.797
 20
131.785
 11
-126.735
 21
131.737
  0
LINE
  8
0
 10
-126.735
 20
131.737
 11
-126.675
 21
131.686
  0
LINE
  8
0
 10
-126.675
 20
131.686
 11
-126.618
 21
131.632
  0
LINE
  8
0
 10
-126.618
 20
131.632
 11
-126.564
 21
131.575
  0
LINE
  8
0
 10
-126.564
 20
131.575
 11
-126.513
 21
131.515
  0
LINE
  8
0
 10
-126.513
 20
131.515
 11
-126.465
 21
131.453
  0
LINE
  8
0
 10
-126.465
 20
131.453
 11
-126.419
 21
131.389
  0
LINE
  8
0
 10
-126.419
 20
131.389
 11
-126.377
 21
131.323
  0
LINE
  8
0
 10
-126.377
 20
131.323
 11
-126.339
 21
131.254
  0
LINE
  8
0
 10
-126.339
 20
131.254
 11
-126.303
 21
131.184
  0
LINE
  8
0
 10
-126.303
 20
131.184
 11
-126.271
 21
131.112
  0
LINE
  8
0
 10
-126.271
 20
131.112
 11
-126.243
 21
131.039
  0
LINE
  8
0
 10
-126.243
 20
131.039
 11
-126.218
 21
130.965
  0
LINE
  8
0
 10
-126.218
 20
130.965
 11
-126.198
 21
130.889
  0
LINE
  8
0
 10
-126.198
 20
130.889
 11
-126.18
 21
130.812
  0
LINE
  8
0
 10
-126.18
 20
130.812
 11
-126.167
 21
130.735
  0
LINE
  8
0
 10
-126.167
 20
130.735
 11
-126.157
 21
130.657
  0
LINE
  8
0
 10
-126.157
 20
130.657
 11
-126.151
 21
130.579
  0
LINE
  8
0
 10
-126.151
 20
130.579
 11
-126.15
 21
130.5
  0
LINE
  8
0
 10
-126.15
 20
130.5
 11
-126.151
 21
130.421
  0
LINE
  8
0
 10
-126.151
 20
17.4215
 11
-126.157
 21
17.3431
  0
LINE
  8
0
 10
-126.157
 20
17.3431
 11
-126.167
 21
17.2652
  0
LINE
  8
0
 10
-126.167
 20
17.2652
 11
-126.18
 21
17.1878
  0
LINE
  8
0
 10
-126.18
 20
17.1878
 11
-126.198
 21
17.1111
  0
LINE
  8
0
 10
-126.198
 20
17.1111
 11
-126.218
 21
17.0354
  0
LINE
  8
0
 10
-126.218
 20
17.0354
 11
-126.243
 21
16.9608
  0
LINE
  8
0
 10
-126.243
 20
16.9608
 11
-126.271
 21
16.8875
  0
LINE
  8
0
 10
-126.271
 20
16.8875
 11
-126.303
 21
16.8157
  0
LINE
  8
0
 10
-126.303
 20
16.8157
 11
-126.339
 21
16.7455
  0
LINE
  8
0
 10
-126.339
 20
16.7455
 11
-126.377
 21
16.6772
  0
LINE
  8
0
 10
-126.377
 20
16.6772
 11
-126.419
 21
16.6108
  0
LINE
  8
0
 10
-126.419
 20
16.6108
 11
-126.465
 21
16.5466
  0
LINE
  8
0
 10
-126.465
 20
16.5466
 11
-126.513
 21
16.4847
  0
LINE
  8
0
 10
-126.513
 20
16.4847
 11
-126.564
 21
16.4252
  0
LINE
  8
0
 10
-126.564
 20
16.4252
 11
-126.618
 21
16.3683
  0
LINE
  8
0
 10
-126.618
 20
16.3683
 11
-126.675
 21
16.3141
  0
LINE
  8
0
 10
-126.675
 20
16.3141
 11
-126.735
 21
16.2628
  0
LINE
  8
0
 10
-126.735
 20
16.2628
 11
-126.797
 21
16.2145
  0
LINE
  8
0
 10
-126.797
 20
16.2145
 11
-126.861
 21
16.1693
  0
LINE
  8
0
 10
-126.861
 20
16.1693
 11
-126.927
 21
16.1272
  0
LINE
  8
0
 10
-126.927
 20
16.1272
 11
-126.996
 21
16.0885
  0
LINE
  8
0
 10
-126.996
 20
16.0885
 11
-127.066
 21
16.0532
  0
LINE
  8
0
 10
-127.066
 20
16.0532
 11
-127.138
 21
16.0214
  0
LINE
  8
0
 10
-127.138
 20
16.0214
 11
-127.211
 21
15.9931
  0
LINE
  8
0
 10
-127.211
 20
15.9931
 11
-127.285
 21
15.9685
  0
LINE
  8
0
 10
-127.285
 20
15.9685
 11
-127.361
 21
15.9475
  0
LINE
  8
0
 10
-127.361
 20
15.9475
 11
-127.438
 21
15.9303
  0
LINE
  8
0
 10
-127.438
 20
15.9303
 11
-127.515
 21
15.9169
  0
LINE
  8
0
 10
-127.515
 20
15.9169
 11
-127.593
 21
15.9072
  0
LINE
  8
0
 10
-127.593
 20
15.9072
 11
-127.671
 21
15.9015
  0
LINE
  8
0
 10
-127.671
 20
15.9015
 11
-127.75
 21
15.8995
  0
LINE
  8
0
 10
-127.75
 20
15.8995
 11
-127.829
 21
15.9015
  0
LINE
  8
0
 10
-127.829
 20
15.9015
 11
-127.907
 21
15.9072
  0
LINE
  8
0
 10
-127.907
 20
15.9072
 11
-127.985
 21
15.9169
  0
LINE
  8
0
 10
-127.985
 20
15.9169
 11
-128.062
 21
15.9303
  0
LINE
  8
0
 10
-128.062
 20
15.9303
 11
-128.139
 21
15.9475
  0
LINE
  8
0
 10
-128.139
 20
15.9475
 11
-128.215
 21
15.9685
  0
LINE
  8
0
 10
-128.215
 20
15.9685
 11
-128.289
 21
15.9931
  0
LINE
  8
0
 10
-128.289
 20
15.9931
 11
-128.362
 21
16.0214
  0
LINE
  8
0
 10
-128.362
 20
16.0214
 11
-128.434
 21
16.0532
  0
LINE
  8
0
 10
-128.434
 20
16.0532
 11
-128.504
 21
16.0885
  0
LINE
  8
0
 10
-128.504
 20
16.0885
 11
-128.573
 21
16.1272
  0
LINE
  8
0
 10
-128.573
 20
16.1272
 11
-128.639
 21
16.1693
  0
LINE
  8
0
 10
-128.639
 20
16.1693
 11
-128.703
 21
16.2145
  0
LINE
  8
0
 10
-128.703
 20
16.2145
 11
-128.765
 21
16.2628
  0
LINE
  8
0
 10
-128.765
 20
16.2628
 11
-128.825
 21
16.3141
  0
LINE
  8
0
 10
-128.825
 20
16.3141
 11
-128.882
 21
16.3683
  0
LINE
  8
0
 10
-128.882
 20
16.3683
 11
-128.936
 21
16.4252
  0
LINE
  8
0
 10
-128.936
 20
16.4252
 11
-128.987
 21
16.4847
  0
LINE
  8
0
 10
-128.987
 20
16.4847
 11
-129.035
 21
16.5466
  0
LINE
  8
0
 10
-129.035
 20
16.5466
 11
-129.081
 21
16.6108
  0
LINE
  8
0
 10
-129.081
 20
16.6108
 11
-129.123
 21
16.6772
  0
LINE
  8
0
 10
-129.123
 20
16.6772
 11
-129.161
 21
16.7455
  0
LINE
  8
0
 10
-129.161
 20
16.7455
 11
-129.197
 21
16.8157
  0
LINE
  8
0
 10
-129.197
 20
16.8157
 11
-129.229
 21
16.8875
  0
LINE
  8
0
 10
-129.229
 20
16.8875
 11
-129.257
 21
16.9608
  0
LINE
  8
0
 10
-129.257
 20
16.9608
 11
-129.282
 21
17.0354
  0
LINE
  8
0
 10
-129.282
 20
17.0354
 11
-129.302
 21
17.1111
  0
LINE
  8
0
 10
-129.302
 20
17.1111
 11
-129.32
 21
17.1878
  0
LINE
  8
0
 10
-129.32
 20
17.1878
 11
-129.333
 21
17.2652
  0
LINE
  8
0
 10
-129.333
 20
17.2652
 11
-129.343
 21
17.3431
  0
LINE
  8
0
 10
-129.343
 20
17.3431
 11
-129.349
 21
17.4215
  0
LINE
  8
0
 10
-129.349
 20
17.4215
 11
-129.35
 21
17.5
  0
LINE
  8
0
 10
-129.35
 20
17.5
 11
-129.349
 21
17.5785
  0
LINE
  8
0
 10
-129.349
 20
17.5785
 11
-129.343
 21
17.6569
  0
LINE
  8
0
 10
-129.343
 20
17.6569
 11
-129.333
 21
17.7348
  0
LINE
  8
0
 10
-129.333
 20
17.7348
 11
-129.32
 21
17.8122
  0
LINE
  8
0
 10
-129.32
 20
17.8122
 11
-129.302
 21
17.8889
  0
LINE
  8
0
 10
-129.302
 20
17.8889
 11
-129.282
 21
17.9646
  0
LINE
  8
0
 10
-129.282
 20
17.9646
 11
-129.257
 21
18.0392
  0
LINE
  8
0
 10
-129.257
 20
18.0392
 11
-129.229
 21
18.1125
  0
LINE
  8
0
 10
-129.229
 20
18.1125
 11
-129.197
 21
18.1843
  0
LINE
  8
0
 10
-129.197
 20
18.1843
 11
-129.161
 21
18.2544
  0
LINE
  8
0
 10
-129.161
 20
18.2544
 11
-129.123
 21
18.3228
  0
LINE
  8
0
 10
-129.123
 20
18.3228
 11
-129.081
 21
18.3892
  0
LINE
  8
0
 10
-129.081
 20
18.3892
 11
-129.035
 21
18.4534
  0
LINE
  8
0
 10
-129.035
 20
18.4534
 11
-128.987
 21
18.5153
  0
LINE
  8
0
 10
-128.987
 20
18.5153
 11
-128.936
 21
18.5748
  0
LINE
  8
0
 10
-128.936
 20
18.5748
 11
-128.882
 21
18.6317
  0
LINE
  8
0
 10
-128.882
 20
18.6317
 11
-128.825
 21
18.6859
  0
LINE
  8
0
 10
-128.825
 20
18.6859
 11
-128.765
 21
18.7372
  0
LINE
  8
0
 10
-128.765
 20
18.7372
 11
-128.703
 21
18.7855
  0
LINE
  8
0
 10
-128.703
 20
18.7855
 11
-128.639
 21
18.8307
  0
LINE
  8
0
 10
-128.639
 20
18.8307
 11
-128.573
 21
18.8727
  0
LINE
  8
0
 10
-128.573
 20
18.8727
 11
-128.504
 21
18.9115
  0
LINE
  8
0
 10
-128.504
 20
18.9115
 11
-128.434
 21
18.9468
  0
LINE
  8
0
 10
-128.434
 20
18.9468
 11
-128.362
 21
18.9786
  0
LINE
  8
0
 10
-128.362
 20
18.9786
 11
-128.289
 21
19.0069
  0
LINE
  8
0
 10
-128.289
 20
19.0069
 11
-128.215
 21
19.0315
  0
LINE
  8
0
 10
-128.215
 20
19.0315
 11
-128.139
 21
19.0525
  0
LINE
  8
0
 10
-128.139
 20
19.0525
 11
-128.062
 21
19.0697
  0
LINE
  8
0
 10
-128.062
 20
19.0697
 11
-127.985
 21
19.0831
  0
LINE
  8
0
 10
-127.985
 20
19.0831
 11
-127.907
 21
19.0927
  0
LINE
  8
0
 10
-127.907
 20
19.0927
 11
-127.829
 21
19.0985
  0
LINE
  8
0
 10
-127.829
 20
19.0985
 11
-127.75
 21
19.1004
  0
LINE
  8
0
 10
-127.75
 20
19.1004
 11
-127.671
 21
19.0985
  0
LINE
  8
0
 10
-127.671
 20
19.0985
 11
-127.593
 21
19.0927
  0
LINE
  8
0
 10
-127.593
 20
19.0927
 11
-127.515
 21
19.0831
  0
LINE
  8
0
 10
-127.515
 20
19.0831
 11
-127.438
 21
19.0697
  0
LINE
  8
0
 10
-127.438
 20
19.0697
 11
-127.361
 21
19.0525
  0
LINE
  8
0
 10
-127.361
 20
19.0525
 11
-127.285
 21
19.0315
  0
LINE
  8
0
 10
-127.285
 20
19.0315
 11
-127.211
 21
19.0069
  0
LINE
  8
0
 10
-127.211
 20
19.0069
 11
-127.138
 21
18.9786
  0
LINE
  8
0
 10
-127.138
 20
18.9786
 11
-127.066
 21
18.9468
  0
LINE
  8
0
 10
-127.066
 20
18.9468
 11
-126.996
 21
18.9115
  0
LINE
  8
0
 10
-126.996
 20
18.9115
 11
-126.927
 21
18.8727
  0
LINE
  8
0
 10
-126.927
 20
18.8727
 11
-126.861
 21
18.8307
  0
LINE
  8
0
 10
-126.861
 20
18.8307
 11
-126.797
 21
18.7855
  0
LINE
  8
0
 10
-126.797
 20
18.7855
 11
-126.735
 21
18.7372
  0
LINE
  8
0
 10
-126.735
 20
18.7372
 11
-126.675
 21
18.6859
  0
LINE
  8
0
 10
-126.675
 20
18.6859
 11
-126.618
 21
18.6317
  0
LINE
  8
0
 10
-126.618
 20
18.6317
 11
-126.564
 21
18.5748
  0
LINE
  8
0
 10
-126.564
 20
18.5748
 11
-126.513
 21
18.5153
  0
LINE
  8
0
 10
-126.513
 20
18.5153
 11
-126.465
 21
18.4534
  0
LINE
  8
0
 10
-126.465
 20
18.4534
 11
-126.419
 21
18.3892
  0
LINE
  8
0
 10
-126.419
 20
18.3892
 11
-126.377
 21
18.3228
  0
LINE
  8
0
 10
-126.377
 20
18.3228
 11
-126.339
 21
18.2544
  0
LINE
  8
0
 10
-126.339
 20
18.2544
 11
-126.303
 21
18.1843
  0
LINE
  8
0
 10
-126.303
 20
18.1843
 11
-126.271
 21
18.1125
  0
LINE
  8
0
 10
-126.271
 20
18.1125
 11
-126.243
 21
18.0392
  0
LINE
  8
0
 10
-126.243
 20
18.0392
 11
-126.218
 21
17.9646
  0
LINE
  8
0
 10
-126.218
 20
17.9646
 11
-126.198
 21
17.8889
  0
LINE
  8
0
 10
-126.198
 20
17.8889
 11
-126.18
 21
17.8122
  0
LINE
  8
0
 10
-126.18
 20
17.8122
 11
-126.167
 21
17.7348
  0
LINE
  8
0
 10
-126.167
 20
17.7348
 11
-126.157
 21
17.6569
  0
LINE
  8
0
 10
-126.157
 20
17.6569
 11
-126.151
 21
17.5785
  0
LINE
  8
0
 10
-126.151
 20
17.5785
 11
-126.15
 21
17.5
  0
LINE
  8
0
 10
-126.15
 20
17.5
 11
-126.151
 21
17.4215
  0
LINE
  8
0
 10
-100.401
 20
130.421
 11
-100.407
 21
130.343
  0
LINE
  8
0
 10
-100.407
 20
130.343
 11
-100.417
 21
130.265
  0
LINE
  8
0
 10
-100.417
 20
130.265
 11
-100.43
 21
130.188
  0
LINE
  8
0
 10
-100.43
 20
130.188
 11
-100.448
 21
130.111
  0
LINE
  8
0
 10
-100.448
 20
130.111
 11
-100.468
 21
130.035
  0
LINE
  8
0
 10
-100.468
 20
130.035
 11
-100.493
 21
129.961
  0
LINE
  8
0
 10
-100.493
 20
129.961
 11
-100.521
 21
129.888
  0
LINE
  8
0
 10
-100.521
 20
129.888
 11
-100.553
 21
129.816
  0
LINE
  8
0
 10
-100.553
 20
129.816
 11
-100.589
 21
129.746
  0
LINE
  8
0
 10
-100.589
 20
129.746
 11
-100.627
 21
129.677
  0
LINE
  8
0
 10
-100.627
 20
129.677
 11
-100.669
 21
129.611
  0
LINE
  8
0
 10
-100.669
 20
129.611
 11
-100.715
 21
129.547
  0
LINE
  8
0
 10
-100.715
 20
129.547
 11
-100.763
 21
129.485
  0
LINE
  8
0
 10
-100.763
 20
129.485
 11
-100.814
 21
129.425
  0
LINE
  8
0
 10
-100.814
 20
129.425
 11
-100.868
 21
129.368
  0
LINE
  8
0
 10
-100.868
 20
129.368
 11
-100.925
 21
129.314
  0
LINE
  8
0
 10
-100.925
 20
129.314
 11
-100.985
 21
129.263
  0
LINE
  8
0
 10
-100.985
 20
129.263
 11
-101.047
 21
129.215
  0
LINE
  8
0
 10
-101.047
 20
129.215
 11
-101.111
 21
129.169
  0
LINE
  8
0
 10
-101.111
 20
129.169
 11
-101.177
 21
129.127
  0
LINE
  8
0
 10
-101.177
 20
129.127
 11
-101.246
 21
129.089
  0
LINE
  8
0
 10
-101.246
 20
129.089
 11
-101.316
 21
129.053
  0
LINE
  8
0
 10
-101.316
 20
129.053
 11
-101.388
 21
129.021
  0
LINE
  8
0
 10
-101.388
 20
129.021
 11
-101.461
 21
128.993
  0
LINE
  8
0
 10
-101.461
 20
128.993
 11
-101.535
 21
128.968
  0
LINE
  8
0
 10
-101.535
 20
128.968
 11
-101.611
 21
128.948
  0
LINE
  8
0
 10
-101.611
 20
128.948
 11
-101.688
 21
128.93
  0
LINE
  8
0
 10
-101.688
 20
128.93
 11
-101.765
 21
128.917
  0
LINE
  8
0
 10
-101.765
 20
128.917
 11
-101.843
 21
128.907
  0
LINE
  8
0
 10
-101.843
 20
128.907
 11
-101.921
 21
128.901
  0
LINE
  8
0
 10
-101.921
 20
128.901
 11
-102
 21
128.9
  0
LINE
  8
0
 10
-102
 20
128.9
 11
-102.079
 21
128.901
  0
LINE
  8
0
 10
-102.079
 20
128.901
 11
-102.157
 21
128.907
  0
LINE
  8
0
 10
-102.157
 20
128.907
 11
-102.235
 21
128.917
  0
LINE
  8
0
 10
-102.235
 20
128.917
 11
-102.312
 21
128.93
  0
LINE
  8
0
 10
-102.312
 20
128.93
 11
-102.389
 21
128.948
  0
LINE
  8
0
 10
-102.389
 20
128.948
 11
-102.465
 21
128.968
  0
LINE
  8
0
 10
-102.465
 20
128.968
 11
-102.539
 21
128.993
  0
LINE
  8
0
 10
-102.539
 20
128.993
 11
-102.612
 21
129.021
  0
LINE
  8
0
 10
-102.612
 20
129.021
 11
-102.684
 21
129.053
  0
LINE
  8
0
 10
-102.684
 20
129.053
 11
-102.754
 21
129.089
  0
LINE
  8
0
 10
-102.754
 20
129.089
 11
-102.823
 21
129.127
  0
LINE
  8
0
 10
-102.823
 20
129.127
 11
-102.889
 21
129.169
  0
LINE
  8
0
 10
-102.889
 20
129.169
 11
-102.953
 21
129.215
  0
LINE
  8
0
 10
-102.953
 20
129.215
 11
-103.015
 21
129.263
  0
LINE
  8
0
 10
-103.015
 20
129.263
 11
-103.075
 21
129.314
  0
LINE
  8
0
 10
-103.075
 20
129.314
 11
-103.132
 21
129.368
  0
LINE
  8
0
 10
-103.132
 20
129.368
 11
-103.186
 21
129.425
  0
LINE
  8
0
 10
-103.186
 20
129.425
 11
-103.237
 21
129.485
  0
LINE
  8
0
 10
-103.237
 20
129.485
 11
-103.285
 21
129.547
  0
LINE
  8
0
 10
-103.285
 20
129.547
 11
-103.331
 21
129.611
  0
LINE
  8
0
 10
-103.331
 20
129.611
 11
-103.373
 21
129.677
  0
LINE
  8
0
 10
-103.373
 20
129.677
 11
-103.411
 21
129.746
  0
LINE
  8
0
 10
-103.411
 20
129.746
 11
-103.447
 21
129.816
  0
LINE
  8
0
 10
-103.447
 20
129.816
 11
-103.479
 21
129.888
  0
LINE
  8
0
 10
-103.479
 20
129.888
 11
-103.507
 21
129.961
  0
LINE
  8
0
 10
-103.507
 20
129.961
 11
-103.532
 21
130.035
  0
LINE
  8
0
 10
-103.532
 20
130.035
 11
-103.552
 21
130.111
  0
LINE
  8
0
 10
-103.552
 20
130.111
 11
-103.57
 21
130.188
  0
LINE
  8
0
 10
-103.57
 20
130.188
 11
-103.583
 21
130.265
  0
LINE
  8
0
 10
-103.583
 20
130.265
 11
-103.593
 21
130.343
  0
LINE
  8
0
 10
-103.593
 20
130.343
 11
-103.599
 21
130.421
  0
LINE
  8
0
 10
-103.599
 20
130.421
 11
-103.6
 21
130.5
  0
LINE
  8
0
 10
-103.6
 20
130.5
 11
-103.599
 21
130.579
  0
LINE
  8
0
 10
-103.599
 20
130.579
 11
-103.593
 21
130.657
  0
LINE
  8
0
 10
-103.593
 20
130.657
 11
-103.583
 21
130.735
  0
LINE
  8
0
 10
-103.583
 20
130.735
 11
-103.57
 21
130.812
  0
LINE
  8
0
 10
-103.57
 20
130.812
 11
-103.552
 21
130.889
  0
LINE
  8
0
 10
-103.552
 20
130.889
 11
-103.532
 21
130.965
  0
LINE
  8
0
 10
-103.532
 20
130.965
 11
-103.507
 21
131.039
  0
LINE
  8
0
 10
-103.507
 20
131.039
 11
-103.479
 21
131.112
  0
LINE
  8
0
 10
-103.479
 20
131.112
 11
-103.447
 21
131.184
  0
LINE
  8
0
 10
-103.447
 20
131.184
 11
-103.411
 21
131.254
  0
LINE
  8
0
 10
-103.411
 20
131.254
 11
-103.373
 21
131.323
  0
LINE
  8
0
 10
-103.373
 20
131.323
 11
-103.331
 21
131.389
  0
LINE
  8
0
 10
-103.331
 20
131.389
 11
-103.285
 21
131.453
  0
LINE
  8
0
 10
-103.285
 20
131.453
 11
-103.237
 21
131.515
  0
LINE
  8
0
 10
-103.237
 20
131.515
 11
-103.186
 21
131.575
  0
LINE
  8
0
 10
-103.186
 20
131.575
 11
-103.132
 21
131.632
  0
LINE
  8
0
 10
-103.132
 20
131.632
 11
-103.075
 21
131.686
  0
LINE
  8
0
 10
-103.075
 20
131.686
 11
-103.015
 21
131.737
  0
LINE
  8
0
 10
-103.015
 20
131.737
 11
-102.953
 21
131.785
  0
LINE
  8
0
 10
-102.953
 20
131.785
 11
-102.889
 21
131.831
  0
LINE
  8
0
 10
-102.889
 20
131.831
 11
-102.823
 21
131.873
  0
LINE
  8
0
 10
-102.823
 20
131.873
 11
-102.754
 21
131.911
  0
LINE
  8
0
 10
-102.754
 20
131.911
 11
-102.684
 21
131.947
  0
LINE
  8
0
 10
-102.684
 20
131.947
 11
-102.612
 21
131.979
  0
LINE
  8
0
 10
-102.612
 20
131.979
 11
-102.539
 21
132.007
  0
LINE
  8
0
 10
-102.539
 20
132.007
 11
-102.465
 21
132.032
  0
LINE
  8
0
 10
-102.465
 20
132.032
 11
-102.389
 21
132.052
  0
LINE
  8
0
 10
-102.389
 20
132.052
 11
-102.312
 21
132.07
  0
LINE
  8
0
 10
-102.312
 20
132.07
 11
-102.235
 21
132.083
  0
LINE
  8
0
 10
-102.235
 20
132.083
 11
-102.157
 21
132.093
  0
LINE
  8
0
 10
-102.157
 20
132.093
 11
-102.079
 21
132.099
  0
LINE
  8
0
 10
-102.079
 20
132.099
 11
-102
 21
132.1
  0
LINE
  8
0
 10
-102
 20
132.1
 11
-101.921
 21
132.099
  0
LINE
  8
0
 10
-101.921
 20
132.099
 11
-101.843
 21
132.093
  0
LINE
  8
0
 10
-101.843
 20
132.093
 11
-101.765
 21
132.083
  0
LINE
  8
0
 10
-101.765
 20
132.083
 11
-101.688
 21
132.07
  0
LINE
  8
0
 10
-101.688
 20
132.07
 11
-101.611
 21
132.052
  0
LINE
  8
0
 10
-101.611
 20
132.052
 11
-101.535
 21
132.032
  0
LINE
  8
0
 10
-101.535
 20
132.032
 11
-101.461
 21
132.007
  0
LINE
  8
0
 10
-101.461
 20
132.007
 11
-101.388
 21
131.979
  0
LINE
  8
0
 10
-101.388
 20
131.979
 11
-101.316
 21
131.947
  0
LINE
  8
0
 10
-101.316
 20
131.947
 11
-101.246
 21
131.911
  0
LINE
  8
0
 10
-101.246
 20
131.911
 11
-101.177
 21
131.873
  0
LINE
  8
0
 10
-101.177
 20
131.873
 11
-101.111
 21
131.831
  0
LINE
  8
0
 10
-101.111
 20
131.831
 11
-101.047
 21
131.785
  0
LINE
  8
0
 10
-101.047
 20
131.785
 11
-100.985
 21
131.737
  0
LINE
  8
0
 10
-100.985
 20
131.737
 11
-100.925
 21
131.686
  0
LINE
  8
0
 10
-100.925
 20
131.686
 11
-100.868
 21
131.632
  0
LINE
  8
0
 10
-100.868
 20
131.632
 11
-100.814
 21
131.575
  0
LINE
  8
0
 10
-100.814
 20
131.575
 11
-100.763
 21
131.515
  0
LINE
  8
0
 10
-100.763
 20
131.515
 11
-100.715
 21
131.453
  0
LINE
  8
0
 10
-100.715
 20
131.453
 11
-100.669
 21
131.389
  0
LINE
  8
0
 10
-100.669
 20
131.389
 11
-100.627
 21
131.323
  0
LINE
  8
0
 10
-100.627
 20
131.323
 11
-100.589
 21
131.254
  0
LINE
  8
0
 10
-100.589
 20
131.254
 11
-100.553
 21
131.184
  0
LINE
  8
0
 10
-100.553
 20
131.184
 11
-100.521
 21
131.112
  0
LINE
  8
0
 10
-100.521
 20
131.112
 11
-100.493
 21
131.039
  0
LINE
  8
0
 10
-100.493
 20
131.039
 11
-100.468
 21
130.965
  0
LINE
  8
0
 10
-100.468
 20
130.965
 11
-100.448
 21
130.889
  0
LINE
  8
0
 10
-100.448
 20
130.889
 11
-100.43
 21
130.812
  0
LINE
  8
0
 10
-100.43
 20
130.812
 11
-100.417
 21
130.735
  0
LINE
  8
0
 10
-100.417
 20
130.735
 11
-100.407
 21
130.657
  0
LINE
  8
0
 10
-100.407
 20
130.657
 11
-100.401
 21
130.579
  0
LINE
  8
0
 10
-100.401
 20
130.579
 11
-100.4
 21
130.5
  0
LINE
  8
0
 10
-100.4
 20
130.5
 11
-100.401
 21
130.421
  0
LINE
  8
0
 10
-100.401
 20
17.4215
 11
-100.407
 21
17.3431
  0
LINE
  8
0
 10
-100.407
 20
17.3431
 11
-100.417
 21
17.2652
  0
LINE
  8
0
 10
-100.417
 20
17.2652
 11
-100.43
 21
17.1878
  0
LINE
  8
0
 10
-100.43
 20
17.1878
 11
-100.448
 21
17.1111
  0
LINE
  8
0
 10
-100.448
 20
17.1111
 11
-100.468
 21
17.0354
  0
LINE
  8
0
 10
-100.468
 20
17.0354
 11
-100.493
 21
16.9608
  0
LINE
  8
0
 10
-100.493
 20
16.9608
 11
-100.521
 21
16.8875
  0
LINE
  8
0
 10
-100.521
 20
16.8875
 11
-100.553
 21
16.8157
  0
LINE
  8
0
 10
-100.553
 20
16.8157
 11
-100.589
 21
16.7455
  0
LINE
  8
0
 10
-100.589
 20
16.7455
 11
-100.627
 21
16.6772
  0
LINE
  8
0
 10
-100.627
 20
16.6772
 11
-100.669
 21
16.6108
  0
LINE
  8
0
 10
-100.669
 20
16.6108
 11
-100.715
 21
16.5466
  0
LINE
  8
0
 10
-100.715
 20
16.5466
 11
-100.763
 21
16.4847
  0
LINE
  8
0
 10
-100.763
 20
16.4847
 11
-100.814
 21
16.4252
  0
LINE
  8
0
 10
-100.814
 20
16.4252
 11
-100.868
 21
16.3683
  0
LINE
  8
0
 10
-100.868
 20
16.3683
 11
-100.925
 21
16.3141
  0
LINE
  8
0
 10
-100.925
 20
16.3141
 11
-100.985
 21
16.2628
  0
LINE
  8
0
 10
-100.985
 20
16.2628
 11
-101.047
 21
16.2145
  0
LINE
  8
0
 10
-101.047
 20
16.2145
 11
-101.111
 21
16.1693
  0
LINE
  8
0
 10
-101.111
 20
16.1693
 11
-101.177
 21
16.1272
  0
LINE
  8
0
 10
-101.177
 20
16.1272
 11
-101.246
 21
16.0885
  0
LINE
  8
0
 10
-101.246
 20
16.0885
 11
-101.316
 21
16.0532
  0
LINE
  8
0
 10
-101.316
 20
16.0532
 11
-101.388
 21
16.0214
  0
LINE
  8
0
 10
-101.388
 20
16.0214
 11
-101.461
 21
15.9931
  0
LINE
  8
0
 10
-101.461
 20
15.9931
 11
-101.535
 21
15.9685
  0
LINE
  8
0
 10
-101.535
 20
15.9685
 11
-101.611
 21
15.9475
  0
LINE
  8
0
 10
-101.611
 20
15.9475
 11
-101.688
 21
15.9303
  0
LINE
  8
0
 10
-101.688
 20
15.9303
 11
-101.765
 21
15.9169
  0
LINE
  8
0
 10
-101.765
 20
15.9169
 11
-101.843
 21
15.9072
  0
LINE
  8
0
 10
-101.843
 20
15.9072
 11
-101.921
 21
15.9015
  0
LINE
  8
0
 10
-101.921
 20
15.9015
 11
-102
 21
15.8995
  0
LINE
  8
0
 10
-102
 20
15.8995
 11
-102.079
 21
15.9015
  0
LINE
  8
0
 10
-102.079
 20
15.9015
 11
-102.157
 21
15.9072
  0
LINE
  8
0
 10
-102.157
 20
15.9072
 11
-102.235
 21
15.9169
  0
LINE
  8
0
 10
-102.235
 20
15.9169
 11
-102.312
 21
15.9303
  0
LINE
  8
0
 10
-102.312
 20
15.9303
 11
-102.389
 21
15.9475
  0
LINE
  8
0
 10
-102.389
 20
15.9475
 11
-102.465
 21
15.9685
  0
LINE
  8
0
 10
-102.465
 20
15.9685
 11
-102.539
 21
15.9931
  0
LINE
  8
0
 10
-102.539
 20
15.9931
 11
-102.612
 21
16.0214
  0
LINE
  8
0
 10
-102.612
 20
16.0214
 11
-102.684
 21
16.0532
  0
LINE
  8
0
 10
-102.684
 20
16.0532
 11
-102.754
 21
16.0885
  0
LINE
  8
0
 10
-102.754
 20
16.0885
 11
-102.823
 21
16.1272
  0
LINE
  8
0
 10
-102.823
 20
16.1272
 11
-102.889
 21
16.1693
  0
LINE
  8
0
 10
-102.889
 20
16.1693
 11
-102.953
 21
16.2145
  0
LINE
  8
0
 10
-102.953
 20
16.2145
 11
-103.015
 21
16.2628
  0
LINE
  8
0
 10
-103.015
 20
16.2628
 11
-103.075
 21
16.3141
  0
LINE
  8
0
 10
-103.075
 20
16.3141
 11
-103.132
 21
16.3683
  0
LINE
  8
0
 10
-103.132
 20
16.3683
 11
-103.186
 21
16.4252
  0
LINE
  8
0
 10
-103.186
 20
16.4252
 11
-103.237
 21
16.4847
  0
LINE
  8
0
 10
-103.237
 20
16.4847
 11
-103.285
 21
16.5466
  0
LINE
  8
0
 10
-103.285
 20
16.5466
 11
-103.331
 21
16.6108
  0
LINE
  8
0
 10
-103.331
 20
16.6108
 11
-103.373
 21
16.6772
  0
LINE
  8
0
 10
-103.373
 20
16.6772
 11
-103.411
 21
16.7455
  0
LINE
  8
0
 10
-103.411
 20
16.7455
 11
-103.447
 21
16.8157
  0
LINE
  8
0
 10
-103.447
 20
16.8157
 11
-103.479
 21
16.8875
  0
LINE
  8
0
 10
-103.479
 20
16.8875
 11
-103.507
 21
16.9608
  0
LINE
  8
0
 10
-103.507
 20
16.9608
 11
-103.532
 21
17.0354
  0
LINE
  8
0
 10
-103.532
 20
17.0354
 11
-103.552
 21
17.1111
  0
LINE
  8
0
 10
-103.552
 20
17.1111
 11
-103.57
 21
17.1878
  0
LINE
  8
0
 10
-103.57
 20
17.1878
 11
-103.583
 21
17.2652
  0
LINE
  8
0
 10
-103.583
 20
17.2652
 11
-103.593
 21
17.3431
  0
LINE
  8
0
 10
-103.593
 20
17.3431
 11
-103.599
 21
17.4215
  0
LINE
  8
0
 10
-103.599
 20
17.4215
 11
-103.6
 21
17.5
  0
LINE
  8
0
 10
-103.6
 20
17.5
 11
-103.599
 21
17.5785
  0
LINE
  8
0
 10
-103.599
 20
17.5785
 11
-103.593
 21
17.6569
  0
LINE
  8
0
 10
-103.593
 20
17.6569
 11
-103.583
 21
17.7348
  0
LINE
  8
0
 10
-103.583
 20
17.7348
 11
-103.57
 21
17.8122
  0
LINE
  8
0
 10
-103.57
 20
17.8122
 11
-103.552
 21
17.8889
  0
LINE
  8
0
 10
-103.552
 20
17.8889
 11
-103.532
 21
17.9646
  0
LINE
  8
0
 10
-103.532
 20
17.9646
 11
-103.507
 21
18.0392
  0
LINE
  8
0
 10
-103.507
 20
18.0392
 11
-103.479
 21
18.1125
  0
LINE
  8
0
 10
-103.479
 20
18.1125
 11
-103.447
 21
18.1843
  0
LINE
  8
0
 10
-103.447
 20
18.1843
 11
-103.411
 21
18.2544
  0
LINE
  8
0
 10
-103.411
 20
18.2544
 11
-103.373
 21
18.3228
  0
LINE
  8
0
 10
-103.373
 20
18.3228
 11
-103.331
 21
18.3892
  0
LINE
  8
0
 10
-103.331
 20
18.3892
 11
-103.285
 21
18.4534
  0
LINE
  8
0
 10
-103.285
 20
18.4534
 11
-103.237
 21
18.5153
  0
LINE
  8
0
 10
-103.237
 20
18.5153
 11
-103.186
 21
18.5748
  0
LINE
  8
0
 10
-103.186
 20
18.5748
 11
-103.132
 21
18.6317
  0
LINE
  8
0
 10
-103.132
 20
18.6317
 11
-103.075
 21
18.6859
  0
LINE
  8
0
 10
-103.075
 20
18.6859
 11
-103.015
 21
18.7372
  0
LINE
  8
0
 10
-103.015
 20
18.7372
 11
-102.953
 21
18.7855
  0
LINE
  8
0
 10
-102.953
 20
18.7855
 11
-102.889
 21
18.8307
  0
LINE
  8
0
 10
-102.889
 20
18.8307
 11
-102.823
 21
18.8727
  0
LINE
  8
0
 10
-102.823
 20
18.8727
 11
-102.754
 21
18.9115
  0
LINE
  8
0
 10
-102.754
 20
18.9115
 11
-102.684
 21
18.9468
  0
LINE
  8
0
 10
-102.684
 20
18.9468
 11
-102.612
 21
18.9786
  0
LINE
  8
0
 10
-102.612
 20
18.9786
 11
-102.539
 21
19.0069
  0
LINE
  8
0
 10
-102.539
 20
19.0069
 11
-102.465
 21
19.0315
  0
LINE
  8
0
 10
-102.465
 20
19.0315
 11
-102.389
 21
19.0525
  0
LINE
  8
0
 10
-102.389
 20
19.0525
 11
-102.312
 21
19.0697
  0
LINE
  8
0
 10
-102.312
 20
19.0697
 11
-102.235
 21
19.0831
  0
LINE
  8
0
 10
-102.235
 20
19.0831
 11
-102.157
 21
19.0927
  0
LINE
  8
0
 10
-102.157
 20
19.0927
 11
-102.079
 21
19.0985
  0
LINE
  8
0
 10
-102.079
 20
19.0985
 11
-102
 21
19.1004
  0
LINE
  8
0
 10
-102
 20
19.1004
 11
-101.921
 21
19.0985
  0
LINE
  8
0
 10
-101.921
 20
19.0985
 11
-101.843
 21
19.0927
  0
LINE
  8
0
 10
-101.843
 20
19.0927
 11
-101.765
 21
19.0831
  0
LINE
  8
0
 10
-101.765
 20
19.0831
 11
-101.688
 21
19.0697
  0
LINE
  8
0
 10
-101.688
 20
19.0697
 11
-101.611
 21
19.0525
  0
LINE
  8
0
 10
-101.611
 20
19.0525
 11
-101.535
 21
19.0315
  0
LINE
  8
0
 10
-101.535
 20
19.0315
 11
-101.461
 21
19.0069
  0
LINE
  8
0
 10
-101.461
 20
19.0069
 11
-101.388
 21
18.9786
  0
LINE
  8
0
 10
-101.388
 20
18.9786
 11
-101.316
 21
18.9468
  0
LINE
  8
0
 10
-101.316
 20
18.9468
 11
-101.246
 21
18.9115
  0
LINE
  8
0
 10
-101.246
 20
18.9115
 11
-101.177
 21
18.8727
  0
LINE
  8
0
 10
-101.177
 20
18.8727
 11
-101.111
 21
18.8307
  0
LINE
  8
0
 10
-101.111
 20
18.8307
 11
-101.047
 21
18.7855
  0
LINE
  8
0
 10
-101.047
 20
18.7855
 11
-100.985
 21
18.7372
  0
LINE
  8
0
 10
-100.985
 20
18.7372
 11
-100.925
 21
18.6859
  0
LINE
  8
0
 10
-100.925
 20
18.6859
 11
-100.868
 21
18.6317
  0
LINE
  8
0
 10
-100.868
 20
18.6317
 11
-100.814
 21
18.5748
  0
LINE
  8
0
 10
-100.814
 20
18.5748
 11
-100.763
 21
18.5153
  0
LINE
  8
0
 10
-100.763
 20
18.5153
 11
-100.715
 21
18.4534
  0
LINE
  8
0
 10
-100.715
 20
18.4534
 11
-100.669
 21
18.3892
  0
LINE
  8
0
 10
-100.669
 20
18.3892
 11
-100.627
 21
18.3228
  0
LINE
  8
0
 10
-100.627
 20
18.3228
 11
-100.589
 21
18.2544
  0
LINE
  8
0
 10
-100.589
 20
18.2544
 11
-100.553
 21
18.1843
  0
LINE
  8
0
 10
-100.553
 20
18.1843
 11
-100.521
 21
18.1125
  0
LINE
  8
0
 10
-100.521
 20
18.1125
 11
-100.493
 21
18.0392
  0
LINE
  8
0
 10
-100.493
 20
18.0392
 11
-100.468
 21
17.9646
  0
LINE
  8
0
 10
-100.468
 20
17.9646
 11
-100.448
 21
17.8889
  0
LINE
  8
0
 10
-100.448
 20
17.8889
 11
-100.43
 21
17.8122
  0
LINE
  8
0
 10
-100.43
 20
17.8122
 11
-100.417
 21
17.7348
  0
LINE
  8
0
 10
-100.417
 20
17.7348
 11
-100.407
 21
17.6569
  0
LINE
  8
0
 10
-100.407
 20
17.6569
 11
-100.401
 21
17.5785
  0
LINE
  8
0
 10
-100.401
 20
17.5785
 11
-100.4
 21
17.5
  0
LINE
  8
0
 10
-100.4
 20
17.5
 11
-100.401
 21
17.4215
  0
LINE
  8
0
 10
65.1816
 20
9.76479
 11
-93.5684
 21
9.76479
  0
LINE
  8
0
 10
-93.5684
 20
9.76479
 11
-93.5684
 21
54.2148
  0
LINE
  8
0
 10
-93.5684
 20
54.2148
 11
65.1816
 21
54.2148
  0
LINE
  8
0
 10
65.1816
 20
54.2148
 11
65.1816
 21
9.76479
  0
LINE
  8
0
 10
-52.2824
 20
4.42146
 11
-52.2881
 21
4.34312
  0
LINE
  8
0
 10
-52.2881
 20
4.34312
 11
-52.2978
 21
4.26515
  0
LINE
  8
0
 10
-52.2978
 20
4.26515
 11
-52.3112
 21
4.18776
  0
LINE
  8
0
 10
-52.3112
 20
4.18776
 11
-52.3284
 21
4.11111
  0
LINE
  8
0
 10
-52.3284
 20
4.11111
 11
-52.3494
 21
4.0354
  0
LINE
  8
0
 10
-52.3494
 20
4.0354
 11
-52.374
 21
3.96082
  0
LINE
  8
0
 10
-52.374
 20
3.96082
 11
-52.4023
 21
3.88753
  0
LINE
  8
0
 10
-52.4023
 20
3.88753
 11
-52.4341
 21
3.8157
  0
LINE
  8
0
 10
-52.4341
 20
3.8157
 11
-52.4694
 21
3.74554
  0
LINE
  8
0
 10
-52.4694
 20
3.74554
 11
-52.5081
 21
3.6772
  0
LINE
  8
0
 10
-52.5081
 20
3.6772
 11
-52.5502
 21
3.61082
  0
LINE
  8
0
 10
-52.5502
 20
3.61082
 11
-52.5954
 21
3.5466
  0
LINE
  8
0
 10
-52.5954
 20
3.5466
 11
-52.6437
 21
3.48468
  0
LINE
  8
0
 10
-52.6437
 20
3.48468
 11
-52.695
 21
3.4252
  0
LINE
  8
0
 10
-52.695
 20
3.4252
 11
-52.7492
 21
3.3683
  0
LINE
  8
0
 10
-52.7492
 20
3.3683
 11
-52.8061
 21
3.31413
  0
LINE
  8
0
 10
-52.8061
 20
3.31413
 11
-52.8656
 21
3.26283
  0
LINE
  8
0
 10
-52.8656
 20
3.26283
 11
-52.9275
 21
3.21449
  0
LINE
  8
0
 10
-52.9275
 20
3.21449
 11
-52.9917
 21
3.16927
  0
LINE
  8
0
 10
-52.9917
 20
3.16927
 11
-53.0581
 21
3.12724
  0
LINE
  8
0
 10
-53.0581
 20
3.12724
 11
-53.1264
 21
3.08852
  0
LINE
  8
0
 10
-53.1264
 20
3.08852
 11
-53.1966
 21
3.05321
  0
LINE
  8
0
 10
-53.1966
 20
3.05321
 11
-53.2684
 21
3.02136
  0
LINE
  8
0
 10
-53.2684
 20
3.02136
 11
-53.3417
 21
2.9931
  0
LINE
  8
0
 10
-53.3417
 20
2.9931
 11
-53.4163
 21
2.96846
  0
LINE
  8
0
 10
-53.4163
 20
2.96846
 11
-53.492
 21
2.94751
  0
LINE
  8
0
 10
-53.492
 20
2.94751
 11
-53.5687
 21
2.9303
  0
LINE
  8
0
 10
-53.5687
 20
2.9303
 11
-53.6461
 21
2.91687
  0
LINE
  8
0
 10
-53.6461
 20
2.91687
 11
-53.724
 21
2.90724
  0
LINE
  8
0
 10
-53.724
 20
2.90724
 11
-53.8024
 21
2.90147
  0
LINE
  8
0
 10
-53.8024
 20
2.90147
 11
-53.8809
 21
2.89954
  0
LINE
  8
0
 10
-53.8809
 20
2.89954
 11
-53.9594
 21
2.90147
  0
LINE
  8
0
 10
-53.9594
 20
2.90147
 11
-54.0378
 21
2.90724
  0
LINE
  8
0
 10
-54.0378
 20
2.90724
 11
-54.1157
 21
2.91687
  0
LINE
  8
0
 10
-54.1157
 20
2.91687
 11
-54.1931
 21
2.9303
  0
LINE
  8
0
 10
-54.1931
 20
2.9303
 11
-54.2698
 21
2.94751
  0
LINE
  8
0
 10
-54.2698
 20
2.94751
 11
-54.3455
 21
2.96846
  0
LINE
  8
0
 10
-54.3455
 20
2.96846
 11
-54.4201
 21
2.9931
  0
LINE
  8
0
 10
-54.4201
 20
2.9931
 11
-54.4934
 21
3.02136
  0
LINE
  8
0
 10
-54.4934
 20
3.02136
 11
-54.5652
 21
3.05321
  0
LINE
  8
0
 10
-54.5652
 20
3.05321
 11
-54.6353
 21
3.08852
  0
LINE
  8
0
 10
-54.6353
 20
3.08852
 11
-54.7037
 21
3.12724
  0
LINE
  8
0
 10
-54.7037
 20
3.12724
 11
-54.7701
 21
3.16927
  0
LINE
  8
0
 10
-54.7701
 20
3.16927
 11
-54.8343
 21
3.21449
  0
LINE
  8
0
 10
-54.8343
 20
3.21449
 11
-54.8962
 21
3.26283
  0
LINE
  8
0
 10
-54.8962
 20
3.26283
 11
-54.9557
 21
3.31413
  0
LINE
  8
0
 10
-54.9557
 20
3.31413
 11
-55.0126
 21
3.3683
  0
LINE
  8
0
 10
-55.0126
 20
3.3683
 11
-55.0668
 21
3.4252
  0
LINE
  8
0
 10
-55.0668
 20
3.4252
 11
-55.1181
 21
3.48468
  0
LINE
  8
0
 10
-55.1181
 20
3.48468
 11
-55.1664
 21
3.5466
  0
LINE
  8
0
 10
-55.1664
 20
3.5466
 11
-55.2116
 21
3.61082
  0
LINE
  8
0
 10
-55.2116
 20
3.61082
 11
-55.2536
 21
3.6772
  0
LINE
  8
0
 10
-55.2536
 20
3.6772
 11
-55.2924
 21
3.74554
  0
LINE
  8
0
 10
-55.2924
 20
3.74554
 11
-55.3277
 21
3.8157
  0
LINE
  8
0
 10
-55.3277
 20
3.8157
 11
-55.3595
 21
3.88753
  0
LINE
  8
0
 10
-55.3595
 20
3.88753
 11
-55.3878
 21
3.96082
  0
LINE
  8
0
 10
-55.3878
 20
3.96082
 11
-55.4124
 21
4.0354
  0
LINE
  8
0
 10
-55.4124
 20
4.0354
 11
-55.4334
 21
4.11111
  0
LINE
  8
0
 10
-55.4334
 20
4.11111
 11
-55.4506
 21
4.18776
  0
LINE
  8
0
 10
-55.4506
 20
4.18776
 11
-55.464
 21
4.26515
  0
LINE
  8
0
 10
-55.464
 20
4.26515
 11
-55.4736
 21
4.34312
  0
LINE
  8
0
 10
-55.4736
 20
4.34312
 11
-55.4794
 21
4.42146
  0
LINE
  8
0
 10
-55.4794
 20
4.42146
 11
-55.4813
 21
4.5
  0
LINE
  8
0
 10
-55.4813
 20
4.5
 11
-55.4794
 21
4.57852
  0
LINE
  8
0
 10
-55.4794
 20
4.57852
 11
-55.4736
 21
4.65686
  0
LINE
  8
0
 10
-55.4736
 20
4.65686
 11
-55.464
 21
4.73483
  0
LINE
  8
0
 10
-55.464
 20
4.73483
 11
-55.4506
 21
4.81223
  0
LINE
  8
0
 10
-55.4506
 20
4.81223
 11
-55.4334
 21
4.88887
  0
LINE
  8
0
 10
-55.4334
 20
4.88887
 11
-55.4124
 21
4.96458
  0
LINE
  8
0
 10
-55.4124
 20
4.96458
 11
-55.3878
 21
5.03917
  0
LINE
  8
0
 10
-55.3878
 20
5.03917
 11
-55.3595
 21
5.11246
  0
LINE
  8
0
 10
-55.3595
 20
5.11246
 11
-55.3277
 21
5.18428
  0
LINE
  8
0
 10
-55.3277
 20
5.18428
 11
-55.2924
 21
5.25444
  0
LINE
  8
0
 10
-55.2924
 20
5.25444
 11
-55.2536
 21
5.32278
  0
LINE
  8
0
 10
-55.2536
 20
5.32278
 11
-55.2116
 21
5.38916
  0
LINE
  8
0
 10
-55.2116
 20
5.38916
 11
-55.1664
 21
5.45338
  0
LINE
  8
0
 10
-55.1664
 20
5.45338
 11
-55.1181
 21
5.5153
  0
LINE
  8
0
 10
-55.1181
 20
5.5153
 11
-55.0668
 21
5.57478
  0
LINE
  8
0
 10
-55.0668
 20
5.57478
 11
-55.0126
 21
5.63168
  0
LINE
  8
0
 10
-55.0126
 20
5.63168
 11
-54.9557
 21
5.68585
  0
LINE
  8
0
 10
-54.9557
 20
5.68585
 11
-54.8962
 21
5.73715
  0
LINE
  8
0
 10
-54.8962
 20
5.73715
 11
-54.8343
 21
5.78549
  0
LINE
  8
0
 10
-54.8343
 20
5.78549
 11
-54.7701
 21
5.83072
  0
LINE
  8
0
 10
-54.7701
 20
5.83072
 11
-54.7037
 21
5.87274
  0
LINE
  8
0
 10
-54.7037
 20
5.87274
 11
-54.6353
 21
5.91147
  0
LINE
  8
0
 10
-54.6353
 20
5.91147
 11
-54.5652
 21
5.94678
  0
LINE
  8
0
 10
-54.5652
 20
5.94678
 11
-54.4934
 21
5.97862
  0
LINE
  8
0
 10
-54.4934
 20
5.97862
 11
-54.4201
 21
6.00688
  0
LINE
  8
0
 10
-54.4201
 20
6.00688
 11
-54.3455
 21
6.03152
  0
LINE
  8
0
 10
-54.3455
 20
6.03152
 11
-54.2698
 21
6.05247
  0
LINE
  8
0
 10
-54.2698
 20
6.05247
 11
-54.1931
 21
6.06969
  0
LINE
  8
0
 10
-54.1931
 20
6.06969
 11
-54.1157
 21
6.08311
  0
LINE
  8
0
 10
-54.1157
 20
6.08311
 11
-54.0378
 21
6.09274
  0
LINE
  8
0
 10
-54.0378
 20
6.09274
 11
-53.9594
 21
6.09851
  0
LINE
  8
0
 10
-53.9594
 20
6.09851
 11
-53.8809
 21
6.10045
  0
LINE
  8
0
 10
-53.8809
 20
6.10045
 11
-53.8024
 21
6.09851
  0
LINE
  8
0
 10
-53.8024
 20
6.09851
 11
-53.724
 21
6.09274
  0
LINE
  8
0
 10
-53.724
 20
6.09274
 11
-53.6461
 21
6.08311
  0
LINE
  8
0
 10
-53.6461
 20
6.08311
 11
-53.5687
 21
6.06969
  0
LINE
  8
0
 10
-53.5687
 20
6.06969
 11
-53.492
 21
6.05247
  0
LINE
  8
0
 10
-53.492
 20
6.05247
 11
-53.4163
 21
6.03152
  0
LINE
  8
0
 10
-53.4163
 20
6.03152
 11
-53.3417
 21
6.00688
  0
LINE
  8
0
 10
-53.3417
 20
6.00688
 11
-53.2684
 21
5.97862
  0
LINE
  8
0
 10
-53.2684
 20
5.97862
 11
-53.1966
 21
5.94678
  0
LINE
  8
0
 10
-53.1966
 20
5.94678
 11
-53.1264
 21
5.91147
  0
LINE
  8
0
 10
-53.1264
 20
5.91147
 11
-53.0581
 21
5.87274
  0
LINE
  8
0
 10
-53.0581
 20
5.87274
 11
-52.9917
 21
5.83072
  0
LINE
  8
0
 10
-52.9917
 20
5.83072
 11
-52.9275
 21
5.78549
  0
LINE
  8
0
 10
-52.9275
 20
5.78549
 11
-52.8656
 21
5.73715
  0
LINE
  8
0
 10
-52.8656
 20
5.73715
 11
-52.8061
 21
5.68585
  0
LINE
  8
0
 10
-52.8061
 20
5.68585
 11
-52.7492
 21
5.63168
  0
LINE
  8
0
 10
-52.7492
 20
5.63168
 11
-52.695
 21
5.57478
  0
LINE
  8
0
 10
-52.695
 20
5.57478
 11
-52.6437
 21
5.5153
  0
LINE
  8
0
 10
-52.6437
 20
5.5153
 11
-52.5954
 21
5.45338
  0
LINE
  8
0
 10
-52.5954
 20
5.45338
 11
-52.5502
 21
5.38916
  0
LINE
  8
0
 10
-52.5502
 20
5.38916
 11
-52.5081
 21
5.32278
  0
LINE
  8
0
 10
-52.5081
 20
5.32278
 11
-52.4694
 21
5.25444
  0
LINE
  8
0
 10
-52.4694
 20
5.25444
 11
-52.4341
 21
5.18428
  0
LINE
  8
0
 10
-52.4341
 20
5.18428
 11
-52.4023
 21
5.11246
  0
LINE
  8
0
 10
-52.4023
 20
5.11246
 11
-52.374
 21
5.03917
  0
LINE
  8
0
 10
-52.374
 20
5.03917
 11
-52.3494
 21
4.96458
  0
LINE
  8
0
 10
-52.3494
 20
4.96458
 11
-52.3284
 21
4.88887
  0
LINE
  8
0
 10
-52.3284
 20
4.88887
 11
-52.3112
 21
4.81223
  0
LINE
  8
0
 10
-52.3112
 20
4.81223
 11
-52.2978
 21
4.73483
  0
LINE
  8
0
 10
-52.2978
 20
4.73483
 11
-52.2881
 21
4.65686
  0
LINE
  8
0
 10
-52.2881
 20
4.65686
 11
-52.2824
 21
4.57852
  0
LINE
  8
0
 10
-52.2824
 20
4.57852
 11
-52.2804
 21
4.5
  0
LINE
  8
0
 10
-52.2804
 20
4.5
 11
-52.2824
 21
4.42146
  0
LINE
  8
0
 10
-7.39102
 20
101.728
 11
-7.53235
 21
101.362
  0
LINE
  8
0
 10
-7.53235
 20
101.362
 11
-7.65552
 21
100.989
  0
LINE
  8
0
 10
-7.65552
 20
100.989
 11
-7.76024
 21
100.611
  0
LINE
  8
0
 10
-7.76024
 20
100.611
 11
-7.84627
 21
100.227
  0
LINE
  8
0
 10
-7.84627
 20
100.227
 11
-7.91341
 21
99.8405
  0
LINE
  8
0
 10
-7.91341
 20
99.8405
 11
-7.96147
 21
99.4508
  0
LINE
  8
0
 10
-7.96147
 20
99.4508
 11
-7.99036
 21
99.0592
  0
LINE
  8
0
 10
-7.99036
 20
99.0592
 11
-8
 21
98.6667
  0
LINE
  8
0
 10
-8
 20
98.6667
 11
-7.99036
 21
98.2741
  0
LINE
  8
0
 10
-7.99036
 20
98.2741
 11
-7.96147
 21
97.8825
  0
LINE
  8
0
 10
-7.96147
 20
97.8825
 11
-7.91341
 21
97.4928
  0
LINE
  8
0
 10
-7.91341
 20
97.4928
 11
-7.84627
 21
97.1059
  0
LINE
  8
0
 10
-7.84627
 20
97.1059
 11
-7.76024
 21
96.7228
  0
LINE
  8
0
 10
-7.76024
 20
96.7228
 11
-7.65552
 21
96.3444
  0
LINE
  8
0
 10
-7.65552
 20
96.3444
 11
-7.53235
 21
95.9715
  0
LINE
  8
0
 10
-7.53235
 20
95.9715
 11
-7.39102
 21
95.6052
  0
LINE
  8
0
 10
-7.39102
 20
95.6052
 11
-7.36433
 21
95.545
  0
LINE
  8
0
 10
-7.36433
 20
95.545
 11
-29.6086
 21
73.3007
  0
LINE
  8
0
 10
-29.6086
 20
73.3007
 11
-30.1474
 21
73.9253
  0
LINE
  8
0
 10
-30.1474
 20
73.9253
 11
-31.3251
 21
75.4344
  0
LINE
  8
0
 10
-31.3251
 20
75.4344
 11
-32.4273
 21
76.9994
  0
LINE
  8
0
 10
-32.4273
 20
76.9994
 11
-33.4514
 21
78.6167
  0
LINE
  8
0
 10
-33.4514
 20
78.6167
 11
-34.3949
 21
80.2822
  0
LINE
  8
0
 10
-34.3949
 20
80.2822
 11
-35.2556
 21
81.992
  0
LINE
  8
0
 10
-35.2556
 20
81.992
 11
-36.0313
 21
83.742
  0
LINE
  8
0
 10
-36.0313
 20
83.742
 11
-36.7202
 21
85.528
  0
LINE
  8
0
 10
-36.7202
 20
85.528
 11
-37.3207
 21
87.3456
  0
LINE
  8
0
 10
-37.3207
 20
87.3456
 11
-37.8312
 21
89.1904
  0
LINE
  8
0
 10
-37.8312
 20
89.1904
 11
-38.2506
 21
91.0581
  0
LINE
  8
0
 10
-38.2506
 20
91.0581
 11
-38.5779
 21
92.9442
  0
LINE
  8
0
 10
-38.5779
 20
92.9442
 11
-38.8122
 21
94.844
  0
LINE
  8
0
 10
-38.8122
 20
94.844
 11
-38.953
 21
96.753
  0
LINE
  8
0
 10
-38.953
 20
96.753
 11
-39
 21
98.6667
  0
LINE
  8
0
 10
-39
 20
98.6667
 11
-38.953
 21
100.58
  0
LINE
  8
0
 10
-38.953
 20
100.58
 11
-38.8122
 21
102.489
  0
LINE
  8
0
 10
-38.8122
 20
102.489
 11
-38.5779
 21
104.389
  0
LINE
  8
0
 10
-38.5779
 20
104.389
 11
-38.2506
 21
106.275
  0
LINE
  8
0
 10
-38.2506
 20
106.275
 11
-37.8312
 21
108.143
  0
LINE
  8
0
 10
-37.8312
 20
108.143
 11
-37.3207
 21
109.988
  0
LINE
  8
0
 10
-37.3207
 20
109.988
 11
-36.7202
 21
111.805
  0
LINE
  8
0
 10
-36.7202
 20
111.805
 11
-36.0313
 21
113.591
  0
LINE
  8
0
 10
-36.0313
 20
113.591
 11
-35.2556
 21
115.341
  0
LINE
  8
0
 10
-35.2556
 20
115.341
 11
-34.3949
 21
117.051
  0
LINE
  8
0
 10
-34.3949
 20
117.051
 11
-33.4514
 21
118.717
  0
LINE
  8
0
 10
-33.4514
 20
118.717
 11
-32.4273
 21
120.334
  0
LINE
  8
0
 10
-32.4273
 20
120.334
 11
-31.3251
 21
121.899
  0
LINE
  8
0
 10
-31.3251
 20
121.899
 11
-30.1474
 21
123.408
  0
LINE
  8
0
 10
-30.1474
 20
123.408
 11
-29.6086
 21
124.033
  0
LINE
  8
0
 10
-29.6086
 20
124.033
 11
-7.36433
 21
101.788
  0
LINE
  8
0
 10
-7.36433
 20
101.788
 11
-7.39102
 21
101.728
  0
LINE
  8
0
 10
-33.1524
 20
62.789
 11
-33.1618
 21
62.6617
  0
LINE
  8
0
 10
-33.1618
 20
62.6617
 11
-33.1774
 21
62.535
  0
LINE
  8
0
 10
-33.1774
 20
62.535
 11
-33.1992
 21
62.4093
  0
LINE
  8
0
 10
-33.1992
 20
62.4093
 11
-33.2272
 21
62.2847
  0
LINE
  8
0
 10
-33.2272
 20
62.2847
 11
-33.2612
 21
62.1617
  0
LINE
  8
0
 10
-33.2612
 20
62.1617
 11
-33.3013
 21
62.0405
  0
LINE
  8
0
 10
-33.3013
 20
62.0405
 11
-33.3472
 21
61.9214
  0
LINE
  8
0
 10
-33.3472
 20
61.9214
 11
-33.3989
 21
61.8047
  0
LINE
  8
0
 10
-33.3989
 20
61.8047
 11
-33.4563
 21
61.6907
  0
LINE
  8
0
 10
-33.4563
 20
61.6907
 11
-33.5193
 21
61.5796
  0
LINE
  8
0
 10
-33.5193
 20
61.5796
 11
-33.5876
 21
61.4718
  0
LINE
  8
0
 10
-33.5876
 20
61.4718
 11
-33.6611
 21
61.3674
  0
LINE
  8
0
 10
-33.6611
 20
61.3674
 11
-33.7396
 21
61.2668
  0
LINE
  8
0
 10
-33.7396
 20
61.2668
 11
-33.823
 21
61.1701
  0
LINE
  8
0
 10
-33.823
 20
61.1701
 11
-33.911
 21
61.0777
  0
LINE
  8
0
 10
-33.911
 20
61.0777
 11
-34.0034
 21
60.9896
  0
LINE
  8
0
 10
-34.0034
 20
60.9896
 11
-34.1001
 21
60.9062
  0
LINE
  8
0
 10
-34.1001
 20
60.9062
 11
-34.2007
 21
60.8277
  0
LINE
  8
0
 10
-34.2007
 20
60.8277
 11
-34.3051
 21
60.7542
  0
LINE
  8
0
 10
-34.3051
 20
60.7542
 11
-34.4129
 21
60.6859
  0
LINE
  8
0
 10
-34.4129
 20
60.6859
 11
-34.524
 21
60.623
  0
LINE
  8
0
 10
-34.524
 20
60.623
 11
-34.638
 21
60.5656
  0
LINE
  8
0
 10
-34.638
 20
60.5656
 11
-34.7547
 21
60.5139
  0
LINE
  8
0
 10
-34.7547
 20
60.5139
 11
-34.8738
 21
60.4679
  0
LINE
  8
0
 10
-34.8738
 20
60.4679
 11
-34.995
 21
60.4279
  0
LINE
  8
0
 10
-34.995
 20
60.4279
 11
-35.1181
 21
60.3938
  0
LINE
  8
0
 10
-35.1181
 20
60.3938
 11
-35.2426
 21
60.3659
  0
LINE
  8
0
 10
-35.2426
 20
60.3659
 11
-35.3684
 21
60.3441
  0
LINE
  8
0
 10
-35.3684
 20
60.3441
 11
-35.4951
 21
60.3284
  0
LINE
  8
0
 10
-35.4951
 20
60.3284
 11
-35.6224
 21
60.319
  0
LINE
  8
0
 10
-35.6224
 20
60.319
 11
-35.75
 21
60.3159
  0
LINE
  8
0
 10
-35.75
 20
60.3159
 11
-35.8776
 21
60.319
  0
LINE
  8
0
 10
-35.8776
 20
60.319
 11
-36.0049
 21
60.3284
  0
LINE
  8
0
 10
-36.0049
 20
60.3284
 11
-36.1316
 21
60.3441
  0
LINE
  8
0
 10
-36.1316
 20
60.3441
 11
-36.2574
 21
60.3659
  0
LINE
  8
0
 10
-36.2574
 20
60.3659
 11
-36.3819
 21
60.3938
  0
LINE
  8
0
 10
-36.3819
 20
60.3938
 11
-36.505
 21
60.4279
  0
LINE
  8
0
 10
-36.505
 20
60.4279
 11
-36.6262
 21
60.4679
  0
LINE
  8
0
 10
-36.6262
 20
60.4679
 11
-36.7453
 21
60.5139
  0
LINE
  8
0
 10
-36.7453
 20
60.5139
 11
-36.862
 21
60.5656
  0
LINE
  8
0
 10
-36.862
 20
60.5656
 11
-36.976
 21
60.623
  0
LINE
  8
0
 10
-36.976
 20
60.623
 11
-37.0871
 21
60.6859
  0
LINE
  8
0
 10
-37.0871
 20
60.6859
 11
-37.1949
 21
60.7542
  0
LINE
  8
0
 10
-37.1949
 20
60.7542
 11
-37.2993
 21
60.8277
  0
LINE
  8
0
 10
-37.2993
 20
60.8277
 11
-37.3999
 21
60.9062
  0
LINE
  8
0
 10
-37.3999
 20
60.9062
 11
-37.4966
 21
60.9896
  0
LINE
  8
0
 10
-37.4966
 20
60.9896
 11
-37.589
 21
61.0777
  0
LINE
  8
0
 10
-37.589
 20
61.0777
 11
-37.677
 21
61.1701
  0
LINE
  8
0
 10
-37.677
 20
61.1701
 11
-37.7604
 21
61.2668
  0
LINE
  8
0
 10
-37.7604
 20
61.2668
 11
-37.8389
 21
61.3674
  0
LINE
  8
0
 10
-37.8389
 20
61.3674
 11
-37.9124
 21
61.4718
  0
LINE
  8
0
 10
-37.9124
 20
61.4718
 11
-37.9807
 21
61.5796
  0
LINE
  8
0
 10
-37.9807
 20
61.5796
 11
-38.0437
 21
61.6907
  0
LINE
  8
0
 10
-38.0437
 20
61.6907
 11
-38.101
 21
61.8047
  0
LINE
  8
0
 10
-38.101
 20
61.8047
 11
-38.1528
 21
61.9214
  0
LINE
  8
0
 10
-38.1528
 20
61.9214
 11
-38.1987
 21
62.0405
  0
LINE
  8
0
 10
-38.1987
 20
62.0405
 11
-38.2388
 21
62.1617
  0
LINE
  8
0
 10
-38.2388
 20
62.1617
 11
-38.2728
 21
62.2847
  0
LINE
  8
0
 10
-38.2728
 20
62.2847
 11
-38.3008
 21
62.4093
  0
LINE
  8
0
 10
-38.3008
 20
62.4093
 11
-38.3226
 21
62.535
  0
LINE
  8
0
 10
-38.3226
 20
62.535
 11
-38.3382
 21
62.6617
  0
LINE
  8
0
 10
-38.3382
 20
62.6617
 11
-38.3476
 21
62.789
  0
LINE
  8
0
 10
-38.3476
 20
62.789
 11
-38.3508
 21
62.9167
  0
LINE
  8
0
 10
-38.3508
 20
62.9167
 11
-38.3476
 21
63.0443
  0
LINE
  8
0
 10
-38.3476
 20
63.0443
 11
-38.3382
 21
63.1716
  0
LINE
  8
0
 10
-38.3382
 20
63.1716
 11
-38.3226
 21
63.2983
  0
LINE
  8
0
 10
-38.3226
 20
63.2983
 11
-38.3008
 21
63.424
  0
LINE
  8
0
 10
-38.3008
 20
63.424
 11
-38.2728
 21
63.5486
  0
LINE
  8
0
 10
-38.2728
 20
63.5486
 11
-38.2388
 21
63.6716
  0
LINE
  8
0
 10
-38.2388
 20
63.6716
 11
-38.1987
 21
63.7928
  0
LINE
  8
0
 10
-38.1987
 20
63.7928
 11
-38.1528
 21
63.9119
  0
LINE
  8
0
 10
-38.1528
 20
63.9119
 11
-38.101
 21
64.0286
  0
LINE
  8
0
 10
-38.101
 20
64.0286
 11
-38.0437
 21
64.1427
  0
LINE
  8
0
 10
-38.0437
 20
64.1427
 11
-37.9807
 21
64.2537
  0
LINE
  8
0
 10
-37.9807
 20
64.2537
 11
-37.9124
 21
64.3616
  0
LINE
  8
0
 10
-37.9124
 20
64.3616
 11
-37.8389
 21
64.4659
  0
LINE
  8
0
 10
-37.8389
 20
64.4659
 11
-37.7604
 21
64.5666
  0
LINE
  8
0
 10
-37.7604
 20
64.5666
 11
-37.677
 21
64.6632
  0
LINE
  8
0
 10
-37.677
 20
64.6632
 11
-37.589
 21
64.7557
  0
LINE
  8
0
 10
-37.589
 20
64.7557
 11
-37.4966
 21
64.8437
  0
LINE
  8
0
 10
-37.4966
 20
64.8437
 11
-37.3999
 21
64.9271
  0
LINE
  8
0
 10
-37.3999
 20
64.9271
 11
-37.2993
 21
65.0056
  0
LINE
  8
0
 10
-37.2993
 20
65.0056
 11
-37.1949
 21
65.0791
  0
LINE
  8
0
 10
-37.1949
 20
65.0791
 11
-37.0871
 21
65.1474
  0
LINE
  8
0
 10
-37.0871
 20
65.1474
 11
-36.976
 21
65.2103
  0
LINE
  8
0
 10
-36.976
 20
65.2103
 11
-36.862
 21
65.2677
  0
LINE
  8
0
 10
-36.862
 20
65.2677
 11
-36.7453
 21
65.3194
  0
LINE
  8
0
 10
-36.7453
 20
65.3194
 11
-36.6262
 21
65.3654
  0
LINE
  8
0
 10
-36.6262
 20
65.3654
 11
-36.505
 21
65.4054
  0
LINE
  8
0
 10
-36.505
 20
65.4054
 11
-36.3819
 21
65.4395
  0
LINE
  8
0
 10
-36.3819
 20
65.4395
 11
-36.2574
 21
65.4674
  0
LINE
  8
0
 10
-36.2574
 20
65.4674
 11
-36.1316
 21
65.4893
  0
LINE
  8
0
 10
-36.1316
 20
65.4893
 11
-36.0049
 21
65.5049
  0
LINE
  8
0
 10
-36.0049
 20
65.5049
 11
-35.8776
 21
65.5143
  0
LINE
  8
0
 10
-35.8776
 20
65.5143
 11
-35.75
 21
65.5174
  0
LINE
  8
0
 10
-35.75
 20
65.5174
 11
-35.6224
 21
65.5143
  0
LINE
  8
0
 10
-35.6224
 20
65.5143
 11
-35.4951
 21
65.5049
  0
LINE
  8
0
 10
-35.4951
 20
65.5049
 11
-35.3684
 21
65.4893
  0
LINE
  8
0
 10
-35.3684
 20
65.4893
 11
-35.2426
 21
65.4674
  0
LINE
  8
0
 10
-35.2426
 20
65.4674
 11
-35.1181
 21
65.4395
  0
LINE
  8
0
 10
-35.1181
 20
65.4395
 11
-34.995
 21
65.4054
  0
LINE
  8
0
 10
-34.995
 20
65.4054
 11
-34.8738
 21
65.3654
  0
LINE
  8
0
 10
-34.8738
 20
65.3654
 11
-34.7547
 21
65.3194
  0
LINE
  8
0
 10
-34.7547
 20
65.3194
 11
-34.638
 21
65.2677
  0
LINE
  8
0
 10
-34.638
 20
65.2677
 11
-34.524
 21
65.2103
  0
LINE
  8
0
 10
-34.524
 20
65.2103
 11
-34.4129
 21
65.1474
  0
LINE
  8
0
 10
-34.4129
 20
65.1474
 11
-34.3051
 21
65.0791
  0
LINE
  8
0
 10
-34.3051
 20
65.0791
 11
-34.2007
 21
65.0056
  0
LINE
  8
0
 10
-34.2007
 20
65.0056
 11
-34.1001
 21
64.9271
  0
LINE
  8
0
 10
-34.1001
 20
64.9271
 11
-34.0034
 21
64.8437
  0
LINE
  8
0
 10
-34.0034
 20
64.8437
 11
-33.911
 21
64.7557
  0
LINE
  8
0
 10
-33.911
 20
64.7557
 11
-33.823
 21
64.6632
  0
LINE
  8
0
 10
-33.823
 20
64.6632
 11
-33.7396
 21
64.5666
  0
LINE
  8
0
 10
-33.7396
 20
64.5666
 11
-33.6611
 21
64.4659
  0
LINE
  8
0
 10
-33.6611
 20
64.4659
 11
-33.5876
 21
64.3616
  0
LINE
  8
0
 10
-33.5876
 20
64.3616
 11
-33.5193
 21
64.2537
  0
LINE
  8
0
 10
-33.5193
 20
64.2537
 11
-33.4563
 21
64.1427
  0
LINE
  8
0
 10
-33.4563
 20
64.1427
 11
-33.3989
 21
64.0286
  0
LINE
  8
0
 10
-33.3989
 20
64.0286
 11
-33.3472
 21
63.9119
  0
LINE
  8
0
 10
-33.3472
 20
63.9119
 11
-33.3013
 21
63.7928
  0
LINE
  8
0
 10
-33.3013
 20
63.7928
 11
-33.2612
 21
63.6716
  0
LINE
  8
0
 10
-33.2612
 20
63.6716
 11
-33.2272
 21
63.5486
  0
LINE
  8
0
 10
-33.2272
 20
63.5486
 11
-33.1992
 21
63.424
  0
LINE
  8
0
 10
-33.1992
 20
63.424
 11
-33.1774
 21
63.2983
  0
LINE
  8
0
 10
-33.1774
 20
63.2983
 11
-33.1618
 21
63.1716
  0
LINE
  8
0
 10
-33.1618
 20
63.1716
 11
-33.1524
 21
63.0443
  0
LINE
  8
0
 10
-33.1524
 20
63.0443
 11
-33.1492
 21
62.9167
  0
LINE
  8
0
 10
-33.1492
 20
62.9167
 11
-33.1524
 21
62.789
  0
LINE
  8
0
 10
-33.1524
 20
134.289
 11
-33.1618
 21
134.162
  0
LINE
  8
0
 10
-33.1618
 20
134.162
 11
-33.1774
 21
134.035
  0
LINE
  8
0
 10
-33.1774
 20
134.035
 11
-33.1992
 21
133.909
  0
LINE
  8
0
 10
-33.1992
 20
133.909
 11
-33.2272
 21
133.785
  0
LINE
  8
0
 10
-33.2272
 20
133.785
 11
-33.2612
 21
133.662
  0
LINE
  8
0
 10
-33.2612
 20
133.662
 11
-33.3013
 21
133.54
  0
LINE
  8
0
 10
-33.3013
 20
133.54
 11
-33.3472
 21
133.421
  0
LINE
  8
0
 10
-33.3472
 20
133.421
 11
-33.3989
 21
133.305
  0
LINE
  8
0
 10
-33.3989
 20
133.305
 11
-33.4563
 21
133.191
  0
LINE
  8
0
 10
-33.4563
 20
133.191
 11
-33.5193
 21
133.08
  0
LINE
  8
0
 10
-33.5193
 20
133.08
 11
-33.5876
 21
132.972
  0
LINE
  8
0
 10
-33.5876
 20
132.972
 11
-33.6611
 21
132.867
  0
LINE
  8
0
 10
-33.6611
 20
132.867
 11
-33.7396
 21
132.767
  0
LINE
  8
0
 10
-33.7396
 20
132.767
 11
-33.823
 21
132.67
  0
LINE
  8
0
 10
-33.823
 20
132.67
 11
-33.911
 21
132.578
  0
LINE
  8
0
 10
-33.911
 20
132.578
 11
-34.0034
 21
132.49
  0
LINE
  8
0
 10
-34.0034
 20
132.49
 11
-34.1001
 21
132.406
  0
LINE
  8
0
 10
-34.1001
 20
132.406
 11
-34.2007
 21
132.328
  0
LINE
  8
0
 10
-34.2007
 20
132.328
 11
-34.3051
 21
132.254
  0
LINE
  8
0
 10
-34.3051
 20
132.254
 11
-34.4129
 21
132.186
  0
LINE
  8
0
 10
-34.4129
 20
132.186
 11
-34.524
 21
132.123
  0
LINE
  8
0
 10
-34.524
 20
132.123
 11
-34.638
 21
132.066
  0
LINE
  8
0
 10
-34.638
 20
132.066
 11
-34.7547
 21
132.014
  0
LINE
  8
0
 10
-34.7547
 20
132.014
 11
-34.8738
 21
131.968
  0
LINE
  8
0
 10
-34.8738
 20
131.968
 11
-34.995
 21
131.928
  0
LINE
  8
0
 10
-34.995
 20
131.928
 11
-35.1181
 21
131.894
  0
LINE
  8
0
 10
-35.1181
 20
131.894
 11
-35.2426
 21
131.866
  0
LINE
  8
0
 10
-35.2426
 20
131.866
 11
-35.3684
 21
131.844
  0
LINE
  8
0
 10
-35.3684
 20
131.844
 11
-35.4951
 21
131.828
  0
LINE
  8
0
 10
-35.4951
 20
131.828
 11
-35.6224
 21
131.819
  0
LINE
  8
0
 10
-35.6224
 20
131.819
 11
-35.75
 21
131.816
  0
LINE
  8
0
 10
-35.75
 20
131.816
 11
-35.8776
 21
131.819
  0
LINE
  8
0
 10
-35.8776
 20
131.819
 11
-36.0049
 21
131.828
  0
LINE
  8
0
 10
-36.0049
 20
131.828
 11
-36.1316
 21
131.844
  0
LINE
  8
0
 10
-36.1316
 20
131.844
 11
-36.2574
 21
131.866
  0
LINE
  8
0
 10
-36.2574
 20
131.866
 11
-36.3819
 21
131.894
  0
LINE
  8
0
 10
-36.3819
 20
131.894
 11
-36.505
 21
131.928
  0
LINE
  8
0
 10
-36.505
 20
131.928
 11
-36.6262
 21
131.968
  0
LINE
  8
0
 10
-36.6262
 20
131.968
 11
-36.7453
 21
132.014
  0
LINE
  8
0
 10
-36.7453
 20
132.014
 11
-36.862
 21
132.066
  0
LINE
  8
0
 10
-36.862
 20
132.066
 11
-36.976
 21
132.123
  0
LINE
  8
0
 10
-36.976
 20
132.123
 11
-37.0871
 21
132.186
  0
LINE
  8
0
 10
-37.0871
 20
132.186
 11
-37.1949
 21
132.254
  0
LINE
  8
0
 10
-37.1949
 20
132.254
 11
-37.2993
 21
132.328
  0
LINE
  8
0
 10
-37.2993
 20
132.328
 11
-37.3999
 21
132.406
  0
LINE
  8
0
 10
-37.3999
 20
132.406
 11
-37.4966
 21
132.49
  0
LINE
  8
0
 10
-37.4966
 20
132.49
 11
-37.589
 21
132.578
  0
LINE
  8
0
 10
-37.589
 20
132.578
 11
-37.677
 21
132.67
  0
LINE
  8
0
 10
-37.677
 20
132.67
 11
-37.7604
 21
132.767
  0
LINE
  8
0
 10
-37.7604
 20
132.767
 11
-37.8389
 21
132.867
  0
LINE
  8
0
 10
-37.8389
 20
132.867
 11
-37.9124
 21
132.972
  0
LINE
  8
0
 10
-37.9124
 20
132.972
 11
-37.9807
 21
133.08
  0
LINE
  8
0
 10
-37.9807
 20
133.08
 11
-38.0437
 21
133.191
  0
LINE
  8
0
 10
-38.0437
 20
133.191
 11
-38.101
 21
133.305
  0
LINE
  8
0
 10
-38.101
 20
133.305
 11
-38.1528
 21
133.421
  0
LINE
  8
0
 10
-38.1528
 20
133.421
 11
-38.1987
 21
133.54
  0
LINE
  8
0
 10
-38.1987
 20
133.54
 11
-38.2388
 21
133.662
  0
LINE
  8
0
 10
-38.2388
 20
133.662
 11
-38.2728
 21
133.785
  0
LINE
  8
0
 10
-38.2728
 20
133.785
 11
-38.3008
 21
133.909
  0
LINE
  8
0
 10
-38.3008
 20
133.909
 11
-38.3226
 21
134.035
  0
LINE
  8
0
 10
-38.3226
 20
134.035
 11
-38.3382
 21
134.162
  0
LINE
  8
0
 10
-38.3382
 20
134.162
 11
-38.3476
 21
134.289
  0
LINE
  8
0
 10
-38.3476
 20
134.289
 11
-38.3508
 21
134.417
  0
LINE
  8
0
 10
-38.3508
 20
134.417
 11
-38.3476
 21
134.544
  0
LINE
  8
0
 10
-38.3476
 20
134.544
 11
-38.3382
 21
134.672
  0
LINE
  8
0
 10
-38.3382
 20
134.672
 11
-38.3226
 21
134.798
  0
LINE
  8
0
 10
-38.3226
 20
134.798
 11
-38.3008
 21
134.924
  0
LINE
  8
0
 10
-38.3008
 20
134.924
 11
-38.2728
 21
135.049
  0
LINE
  8
0
 10
-38.2728
 20
135.049
 11
-38.2388
 21
135.172
  0
LINE
  8
0
 10
-38.2388
 20
135.172
 11
-38.1987
 21
135.293
  0
LINE
  8
0
 10
-38.1987
 20
135.293
 11
-38.1528
 21
135.412
  0
LINE
  8
0
 10
-38.1528
 20
135.412
 11
-38.101
 21
135.529
  0
LINE
  8
0
 10
-38.101
 20
135.529
 11
-38.0437
 21
135.643
  0
LINE
  8
0
 10
-38.0437
 20
135.643
 11
-37.9807
 21
135.754
  0
LINE
  8
0
 10
-37.9807
 20
135.754
 11
-37.9124
 21
135.862
  0
LINE
  8
0
 10
-37.9124
 20
135.862
 11
-37.8389
 21
135.966
  0
LINE
  8
0
 10
-37.8389
 20
135.966
 11
-37.7604
 21
136.067
  0
LINE
  8
0
 10
-37.7604
 20
136.067
 11
-37.677
 21
136.163
  0
LINE
  8
0
 10
-37.677
 20
136.163
 11
-37.589
 21
136.256
  0
LINE
  8
0
 10
-37.589
 20
136.256
 11
-37.4966
 21
136.344
  0
LINE
  8
0
 10
-37.4966
 20
136.344
 11
-37.3999
 21
136.427
  0
LINE
  8
0
 10
-37.3999
 20
136.427
 11
-37.2993
 21
136.506
  0
LINE
  8
0
 10
-37.2993
 20
136.506
 11
-37.1949
 21
136.579
  0
LINE
  8
0
 10
-37.1949
 20
136.579
 11
-37.0871
 21
136.647
  0
LINE
  8
0
 10
-37.0871
 20
136.647
 11
-36.976
 21
136.71
  0
LINE
  8
0
 10
-36.976
 20
136.71
 11
-36.862
 21
136.768
  0
LINE
  8
0
 10
-36.862
 20
136.768
 11
-36.7453
 21
136.819
  0
LINE
  8
0
 10
-36.7453
 20
136.819
 11
-36.6262
 21
136.865
  0
LINE
  8
0
 10
-36.6262
 20
136.865
 11
-36.505
 21
136.905
  0
LINE
  8
0
 10
-36.505
 20
136.905
 11
-36.3819
 21
136.939
  0
LINE
  8
0
 10
-36.3819
 20
136.939
 11
-36.2574
 21
136.967
  0
LINE
  8
0
 10
-36.2574
 20
136.967
 11
-36.1316
 21
136.989
  0
LINE
  8
0
 10
-36.1316
 20
136.989
 11
-36.0049
 21
137.005
  0
LINE
  8
0
 10
-36.0049
 20
137.005
 11
-35.8776
 21
137.014
  0
LINE
  8
0
 10
-35.8776
 20
137.014
 11
-35.75
 21
137.017
  0
LINE
  8
0
 10
-35.75
 20
137.017
 11
-35.6224
 21
137.014
  0
LINE
  8
0
 10
-35.6224
 20
137.014
 11
-35.4951
 21
137.005
  0
LINE
  8
0
 10
-35.4951
 20
137.005
 11
-35.3684
 21
136.989
  0
LINE
  8
0
 10
-35.3684
 20
136.989
 11
-35.2426
 21
136.967
  0
LINE
  8
0
 10
-35.2426
 20
136.967
 11
-35.1181
 21
136.939
  0
LINE
  8
0
 10
-35.1181
 20
136.939
 11
-34.995
 21
136.905
  0
LINE
  8
0
 10
-34.995
 20
136.905
 11
-34.8738
 21
136.865
  0
LINE
  8
0
 10
-34.8738
 20
136.865
 11
-34.7547
 21
136.819
  0
LINE
  8
0
 10
-34.7547
 20
136.819
 11
-34.638
 21
136.768
  0
LINE
  8
0
 10
-34.638
 20
136.768
 11
-34.524
 21
136.71
  0
LINE
  8
0
 10
-34.524
 20
136.71
 11
-34.4129
 21
136.647
  0
LINE
  8
0
 10
-34.4129
 20
136.647
 11
-34.3051
 21
136.579
  0
LINE
  8
0
 10
-34.3051
 20
136.579
 11
-34.2007
 21
136.506
  0
LINE
  8
0
 10
-34.2007
 20
136.506
 11
-34.1001
 21
136.427
  0
LINE
  8
0
 10
-34.1001
 20
136.427
 11
-34.0034
 21
136.344
  0
LINE
  8
0
 10
-34.0034
 20
136.344
 11
-33.911
 21
136.256
  0
LINE
  8
0
 10
-33.911
 20
136.256
 11
-33.823
 21
136.163
  0
LINE
  8
0
 10
-33.823
 20
136.163
 11
-33.7396
 21
136.067
  0
LINE
  8
0
 10
-33.7396
 20
136.067
 11
-33.6611
 21
135.966
  0
LINE
  8
0
 10
-33.6611
 20
135.966
 11
-33.5876
 21
135.862
  0
LINE
  8
0
 10
-33.5876
 20
135.862
 11
-33.5193
 21
135.754
  0
LINE
  8
0
 10
-33.5193
 20
135.754
 11
-33.4563
 21
135.643
  0
LINE
  8
0
 10
-33.4563
 20
135.643
 11
-33.3989
 21
135.529
  0
LINE
  8
0
 10
-33.3989
 20
135.529
 11
-33.3472
 21
135.412
  0
LINE
  8
0
 10
-33.3472
 20
135.412
 11
-33.3013
 21
135.293
  0
LINE
  8
0
 10
-33.3013
 20
135.293
 11
-33.2612
 21
135.172
  0
LINE
  8
0
 10
-33.2612
 20
135.172
 11
-33.2272
 21
135.049
  0
LINE
  8
0
 10
-33.2272
 20
135.049
 11
-33.1992
 21
134.924
  0
LINE
  8
0
 10
-33.1992
 20
134.924
 11
-33.1774
 21
134.798
  0
LINE
  8
0
 10
-33.1774
 20
134.798
 11
-33.1618
 21
134.672
  0
LINE
  8
0
 10
-33.1618
 20
134.672
 11
-33.1524
 21
134.544
  0
LINE
  8
0
 10
-33.1524
 20
134.544
 11
-33.1492
 21
134.417
  0
LINE
  8
0
 10
-33.1492
 20
134.417
 11
-33.1524
 21
134.289
  0
LINE
  8
0
 10
3.12169
 20
106.031
 11
3.06146
 21
106.058
  0
LINE
  8
0
 10
3.06146
 20
106.058
 11
2.69511
 21
106.199
  0
LINE
  8
0
 10
2.69511
 20
106.199
 11
2.32227
 21
106.322
  0
LINE
  8
0
 10
2.32227
 20
106.322
 11
1.94383
 21
106.427
  0
LINE
  8
0
 10
1.94383
 20
106.427
 11
1.56071
 21
106.513
  0
LINE
  8
0
 10
1.56071
 20
106.513
 11
1.17384
 21
106.58
  0
LINE
  8
0
 10
1.17384
 20
106.58
 11
0.784134
 21
106.628
  0
LINE
  8
0
 10
0.784134
 20
106.628
 11
0.392532
 21
106.657
  0
LINE
  8
0
 10
0.392532
 20
106.657
 11
0
 21
106.667
  0
LINE
  8
0
 10
0
 20
106.667
 11
-0.392532
 21
106.657
  0
LINE
  8
0
 10
-0.392532
 20
106.657
 11
-0.784134
 21
106.628
  0
LINE
  8
0
 10
-0.784134
 20
106.628
 11
-1.17384
 21
106.58
  0
LINE
  8
0
 10
-1.17384
 20
106.58
 11
-1.56071
 21
106.513
  0
LINE
  8
0
 10
-1.56071
 20
106.513
 11
-1.94383
 21
106.427
  0
LINE
  8
0
 10
-1.94383
 20
106.427
 11
-2.32227
 21
106.322
  0
LINE
  8
0
 10
-2.32227
 20
106.322
 11
-2.69511
 21
106.199
  0
LINE
  8
0
 10
-2.69511
 20
106.199
 11
-3.06146
 21
106.058
  0
LINE
  8
0
 10
-3.06146
 20
106.058
 11
-3.12169
 21
106.031
  0
LINE
  8
0
 10
-3.12169
 20
106.031
 11
-25.366
 21
128.275
  0
LINE
  8
0
 10
-25.366
 20
128.275
 11
-24.7413
 21
128.814
  0
LINE
  8
0
 10
-24.7413
 20
128.814
 11
-23.2323
 21
129.992
  0
LINE
  8
0
 10
-23.2323
 20
129.992
 11
-21.6672
 21
131.094
  0
LINE
  8
0
 10
-21.6672
 20
131.094
 11
-20.05
 21
132.118
  0
LINE
  8
0
 10
-20.05
 20
132.118
 11
-18.3845
 21
133.062
  0
LINE
  8
0
 10
-18.3845
 20
133.062
 11
-16.6746
 21
133.922
  0
LINE
  8
0
 10
-16.6746
 20
133.922
 11
-14.9247
 21
134.698
  0
LINE
  8
0
 10
-14.9247
 20
134.698
 11
-13.1387
 21
135.387
  0
LINE
  8
0
 10
-13.1387
 20
135.387
 11
-11.3211
 21
135.987
  0
LINE
  8
0
 10
-11.3211
 20
135.987
 11
-9.47623
 21
136.498
  0
LINE
  8
0
 10
-9.47623
 20
136.498
 11
-7.60852
 21
136.917
  0
LINE
  8
0
 10
-7.60852
 20
136.917
 11
-5.72249
 21
137.245
  0
LINE
  8
0
 10
-5.72249
 20
137.245
 11
-3.82266
 21
137.479
  0
LINE
  8
0
 10
-3.82266
 20
137.479
 11
-1.91364
 21
137.62
  0
LINE
  8
0
 10
-1.91364
 20
137.62
 11
0
 21
137.667
  0
LINE
  8
0
 10
0
 20
137.667
 11
1.91364
 21
137.62
  0
LINE
  8
0
 10
1.91364
 20
137.62
 11
3.82266
 21
137.479
  0
LINE
  8
0
 10
3.82266
 20
137.479
 11
5.72249
 21
137.245
  0
LINE
  8
0
 10
5.72249
 20
137.245
 11
7.60852
 21
136.917
  0
LINE
  8
0
 10
7.60852
 20
136.917
 11
9.47623
 21
136.498
  0
LINE
  8
0
 10
9.47623
 20
136.498
 11
11.3211
 21
135.987
  0
LINE
  8
0
 10
11.3211
 20
135.987
 11
13.1387
 21
135.387
  0
LINE
  8
0
 10
13.1387
 20
135.387
 11
14.9247
 21
134.698
  0
LINE
  8
0
 10
14.9247
 20
134.698
 11
16.6746
 21
133.922
  0
LINE
  8
0
 10
16.6746
 20
133.922
 11
18.3845
 21
133.062
  0
LINE
  8
0
 10
18.3845
 20
133.062
 11
20.05
 21
132.118
  0
LINE
  8
0
 10
20.05
 20
132.118
 11
21.6672
 21
131.094
  0
LINE
  8
0
 10
21.6672
 20
131.094
 11
23.2323
 21
129.992
  0
LINE
  8
0
 10
23.2323
 20
129.992
 11
24.7413
 21
128.814
  0
LINE
  8
0
 10
24.7413
 20
128.814
 11
25.366
 21
128.275
  0
LINE
  8
0
 10
25.366
 20
128.275
 11
3.12169
 21
106.031
  0
LINE
  8
0
 10
24.7413
 20
68.5193
 11
23.2323
 21
67.3416
  0
LINE
  8
0
 10
23.2323
 20
67.3416
 11
21.6672
 21
66.2393
  0
LINE
  8
0
 10
21.6672
 20
66.2393
 11
20.05
 21
65.2152
  0
LINE
  8
0
 10
20.05
 20
65.2152
 11
18.3845
 21
64.2717
  0
LINE
  8
0
 10
18.3845
 20
64.2717
 11
16.6746
 21
63.4111
  0
LINE
  8
0
 10
16.6746
 20
63.4111
 11
14.9247
 21
62.6354
  0
LINE
  8
0
 10
14.9247
 20
62.6354
 11
13.1387
 21
61.9464
  0
LINE
  8
0
 10
13.1387
 20
61.9464
 11
11.3211
 21
61.346
  0
LINE
  8
0
 10
11.3211
 20
61.346
 11
9.47623
 21
60.8354
  0
LINE
  8
0
 10
9.47623
 20
60.8354
 11
7.60852
 21
60.416
  0
LINE
  8
0
 10
7.60852
 20
60.416
 11
5.72249
 21
60.0888
  0
LINE
  8
0
 10
5.72249
 20
60.0888
 11
3.82266
 21
59.8545
  0
LINE
  8
0
 10
3.82266
 20
59.8545
 11
1.91364
 21
59.7136
  0
LINE
  8
0
 10
1.91364
 20
59.7136
 11
0
 21
59.6667
  0
LINE
  8
0
 10
0
 20
59.6667
 11
-1.91364
 21
59.7136
  0
LINE
  8
0
 10
-1.91364
 20
59.7136
 11
-3.82266
 21
59.8545
  0
LINE
  8
0
 10
-3.82266
 20
59.8545
 11
-5.72249
 21
60.0888
  0
LINE
  8
0
 10
-5.72249
 20
60.0888
 11
-7.60852
 21
60.416
  0
LINE
  8
0
 10
-7.60852
 20
60.416
 11
-9.47623
 21
60.8354
  0
LINE
  8
0
 10
-9.47623
 20
60.8354
 11
-11.3211
 21
61.346
  0
LINE
  8
0
 10
-11.3211
 20
61.346
 11
-13.1387
 21
61.9464
  0
LINE
  8
0
 10
-13.1387
 20
61.9464
 11
-14.9247
 21
62.6354
  0
LINE
  8
0
 10
-14.9247
 20
62.6354
 11
-16.6746
 21
63.4111
  0
LINE
  8
0
 10
-16.6746
 20
63.4111
 11
-18.3845
 21
64.2717
  0
LINE
  8
0
 10
-18.3845
 20
64.2717
 11
-20.05
 21
65.2152
  0
LINE
  8
0
 10
-20.05
 20
65.2152
 11
-21.6672
 21
66.2393
  0
LINE
  8
0
 10
-21.6672
 20
66.2393
 11
-23.2323
 21
67.3416
  0
LINE
  8
0
 10
-23.2323
 20
67.3416
 11
-24.7413
 21
68.5193
  0
LINE
  8
0
 10
-24.7413
 20
68.5193
 11
-25.366
 21
69.0581
  0
LINE
  8
0
 10
-25.366
 20
69.0581
 11
-3.12169
 21
91.3023
  0
LINE
  8
0
 10
-3.12169
 20
91.3023
 11
-3.06146
 21
91.2756
  0
LINE
  8
0
 10
-3.06146
 20
91.2756
 11
-2.69511
 21
91.1343
  0
LINE
  8
0
 10
-2.69511
 20
91.1343
 11
-2.32227
 21
91.0111
  0
LINE
  8
0
 10
-2.32227
 20
91.0111
 11
-1.94383
 21
90.9064
  0
LINE
  8
0
 10
-1.94383
 20
90.9064
 11
-1.56071
 21
90.8204
  0
LINE
  8
0
 10
-1.56071
 20
90.8204
 11
-1.17384
 21
90.7533
  0
LINE
  8
0
 10
-1.17384
 20
90.7533
 11
-0.784134
 21
90.7052
  0
LINE
  8
0
 10
-0.784134
 20
90.7052
 11
-0.392532
 21
90.6763
  0
LINE
  8
0
 10
-0.392532
 20
90.6763
 11
0
 21
90.6667
  0
LINE
  8
0
 10
0
 20
90.6667
 11
0.392532
 21
90.6763
  0
LINE
  8
0
 10
0.392532
 20
90.6763
 11
0.784134
 21
90.7052
  0
LINE
  8
0
 10
0.784134
 20
90.7052
 11
1.17384
 21
90.7533
  0
LINE
  8
0
 10
1.17384
 20
90.7533
 11
1.56071
 21
90.8204
  0
LINE
  8
0
 10
1.56071
 20
90.8204
 11
1.94383
 21
90.9064
  0
LINE
  8
0
 10
1.94383
 20
90.9064
 11
2.32227
 21
91.0111
  0
LINE
  8
0
 10
2.32227
 20
91.0111
 11
2.69511
 21
91.1343
  0
LINE
  8
0
 10
2.69511
 20
91.1343
 11
3.06146
 21
91.2756
  0
LINE
  8
0
 10
3.06146
 20
91.2756
 11
3.12169
 21
91.3023
  0
LINE
  8
0
 10
3.12169
 20
91.3023
 11
25.366
 21
69.0581
  0
LINE
  8
0
 10
25.366
 20
69.0581
 11
24.7413
 21
68.5193
  0
LINE
  8
0
 10
38.953
 20
96.753
 11
38.8122
 21
94.844
  0
LINE
  8
0
 10
38.8122
 20
94.844
 11
38.5779
 21
92.9442
  0
LINE
  8
0
 10
38.5779
 20
92.9442
 11
38.2506
 21
91.0581
  0
LINE
  8
0
 10
38.2506
 20
91.0581
 11
37.8312
 21
89.1904
  0
LINE
  8
0
 10
37.8312
 20
89.1904
 11
37.3207
 21
87.3456
  0
LINE
  8
0
 10
37.3207
 20
87.3456
 11
36.7202
 21
85.528
  0
LINE
  8
0
 10
36.7202
 20
85.528
 11
36.0313
 21
83.742
  0
LINE
  8
0
 10
36.0313
 20
83.742
 11
35.2556
 21
81.992
  0
LINE
  8
0
 10
35.2556
 20
81.992
 11
34.3949
 21
80.2822
  0
LINE
  8
0
 10
34.3949
 20
80.2822
 11
33.4514
 21
78.6167
  0
LINE
  8
0
 10
33.4514
 20
78.6167
 11
32.4273
 21
76.9994
  0
LINE
  8
0
 10
32.4273
 20
76.9994
 11
31.3251
 21
75.4344
  0
LINE
  8
0
 10
31.3251
 20
75.4344
 11
30.1474
 21
73.9253
  0
LINE
  8
0
 10
30.1474
 20
73.9253
 11
29.6086
 21
73.3007
  0
LINE
  8
0
 10
29.6086
 20
73.3007
 11
7.36433
 21
95.545
  0
LINE
  8
0
 10
7.36433
 20
95.545
 11
7.39102
 21
95.6052
  0
LINE
  8
0
 10
7.39102
 20
95.6052
 11
7.53235
 21
95.9715
  0
LINE
  8
0
 10
7.53235
 20
95.9715
 11
7.65552
 21
96.3444
  0
LINE
  8
0
 10
7.65552
 20
96.3444
 11
7.76024
 21
96.7228
  0
LINE
  8
0
 10
7.76024
 20
96.7228
 11
7.84627
 21
97.1059
  0
LINE
  8
0
 10
7.84627
 20
97.1059
 11
7.91341
 21
97.4928
  0
LINE
  8
0
 10
7.91341
 20
97.4928
 11
7.96147
 21
97.8825
  0
LINE
  8
0
 10
7.96147
 20
97.8825
 11
7.99036
 21
98.2741
  0
LINE
  8
0
 10
7.99036
 20
98.2741
 11
8
 21
98.6667
  0
LINE
  8
0
 10
8
 20
98.6667
 11
7.99036
 21
99.0592
  0
LINE
  8
0
 10
7.99036
 20
99.0592
 11
7.96147
 21
99.4508
  0
LINE
  8
0
 10
7.96147
 20
99.4508
 11
7.91341
 21
99.8405
  0
LINE
  8
0
 10
7.91341
 20
99.8405
 11
7.84627
 21
100.227
  0
LINE
  8
0
 10
7.84627
 20
100.227
 11
7.76024
 21
100.611
  0
LINE
  8
0
 10
7.76024
 20
100.611
 11
7.65552
 21
100.989
  0
LINE
  8
0
 10
7.65552
 20
100.989
 11
7.53235
 21
101.362
  0
LINE
  8
0
 10
7.53235
 20
101.362
 11
7.39102
 21
101.728
  0
LINE
  8
0
 10
7.39102
 20
101.728
 11
7.36433
 21
101.788
  0
LINE
  8
0
 10
7.36433
 20
101.788
 11
29.6086
 21
124.033
  0
LINE
  8
0
 10
29.6086
 20
124.033
 11
30.1474
 21
123.408
  0
LINE
  8
0
 10
30.1474
 20
123.408
 11
31.3251
 21
121.899
  0
LINE
  8
0
 10
31.3251
 20
121.899
 11
32.4273
 21
120.334
  0
LINE
  8
0
 10
32.4273
 20
120.334
 11
33.4514
 21
118.717
  0
LINE
  8
0
 10
33.4514
 20
118.717
 11
34.3949
 21
117.051
  0
LINE
  8
0
 10
34.3949
 20
117.051
 11
35.2556
 21
115.341
  0
LINE
  8
0
 10
35.2556
 20
115.341
 11
36.0313
 21
113.591
  0
LINE
  8
0
 10
36.0313
 20
113.591
 11
36.7202
 21
111.805
  0
LINE
  8
0
 10
36.7202
 20
111.805
 11
37.3207
 21
109.988
  0
LINE
  8
0
 10
37.3207
 20
109.988
 11
37.8312
 21
108.143
  0
LINE
  8
0
 10
37.8312
 20
108.143
 11
38.2506
 21
106.275
  0
LINE
  8
0
 10
38.2506
 20
106.275
 11
38.5779
 21
104.389
  0
LINE
  8
0
 10
38.5779
 20
104.389
 11
38.8122
 21
102.489
  0
LINE
  8
0
 10
38.8122
 20
102.489
 11
38.953
 21
100.58
  0
LINE
  8
0
 10
38.953
 20
100.58
 11
39
 21
98.6667
  0
LINE
  8
0
 10
39
 20
98.6667
 11
38.953
 21
96.753
  0
LINE
  8
0
 10
27.0926
 20
4.42146
 11
27.0868
 21
4.34312
  0
LINE
  8
0
 10
27.0868
 20
4.34312
 11
27.0772
 21
4.26515
  0
LINE
  8
0
 10
27.0772
 20
4.26515
 11
27.0638
 21
4.18776
  0
LINE
  8
0
 10
27.0638
 20
4.18776
 11
27.0466
 21
4.11111
  0
LINE
  8
0
 10
27.0466
 20
4.11111
 11
27.0256
 21
4.0354
  0
LINE
  8
0
 10
27.0256
 20
4.0354
 11
27.001
 21
3.96082
  0
LINE
  8
0
 10
27.001
 20
3.96082
 11
26.9727
 21
3.88753
  0
LINE
  8
0
 10
26.9727
 20
3.88753
 11
26.9409
 21
3.8157
  0
LINE
  8
0
 10
26.9409
 20
3.8157
 11
26.9056
 21
3.74554
  0
LINE
  8
0
 10
26.9056
 20
3.74554
 11
26.8669
 21
3.6772
  0
LINE
  8
0
 10
26.8669
 20
3.6772
 11
26.8248
 21
3.61082
  0
LINE
  8
0
 10
26.8248
 20
3.61082
 11
26.7796
 21
3.5466
  0
LINE
  8
0
 10
26.7796
 20
3.5466
 11
26.7313
 21
3.48468
  0
LINE
  8
0
 10
26.7313
 20
3.48468
 11
26.6799
 21
3.4252
  0
LINE
  8
0
 10
26.6799
 20
3.4252
 11
26.6258
 21
3.3683
  0
LINE
  8
0
 10
26.6258
 20
3.3683
 11
26.5689
 21
3.31413
  0
LINE
  8
0
 10
26.5689
 20
3.31413
 11
26.5094
 21
3.26283
  0
LINE
  8
0
 10
26.5094
 20
3.26283
 11
26.4475
 21
3.21449
  0
LINE
  8
0
 10
26.4475
 20
3.21449
 11
26.3833
 21
3.16927
  0
LINE
  8
0
 10
26.3833
 20
3.16927
 11
26.3169
 21
3.12724
  0
LINE
  8
0
 10
26.3169
 20
3.12724
 11
26.2485
 21
3.08852
  0
LINE
  8
0
 10
26.2485
 20
3.08852
 11
26.1784
 21
3.05321
  0
LINE
  8
0
 10
26.1784
 20
3.05321
 11
26.1066
 21
3.02136
  0
LINE
  8
0
 10
26.1066
 20
3.02136
 11
26.0333
 21
2.9931
  0
LINE
  8
0
 10
26.0333
 20
2.9931
 11
25.9587
 21
2.96846
  0
LINE
  8
0
 10
25.9587
 20
2.96846
 11
25.883
 21
2.94751
  0
LINE
  8
0
 10
25.883
 20
2.94751
 11
25.8063
 21
2.9303
  0
LINE
  8
0
 10
25.8063
 20
2.9303
 11
25.7289
 21
2.91687
  0
LINE
  8
0
 10
25.7289
 20
2.91687
 11
25.651
 21
2.90724
  0
LINE
  8
0
 10
25.651
 20
2.90724
 11
25.5726
 21
2.90147
  0
LINE
  8
0
 10
25.5726
 20
2.90147
 11
25.4941
 21
2.89954
  0
LINE
  8
0
 10
25.4941
 20
2.89954
 11
25.4156
 21
2.90147
  0
LINE
  8
0
 10
25.4156
 20
2.90147
 11
25.3372
 21
2.90724
  0
LINE
  8
0
 10
25.3372
 20
2.90724
 11
25.2593
 21
2.91687
  0
LINE
  8
0
 10
25.2593
 20
2.91687
 11
25.1819
 21
2.9303
  0
LINE
  8
0
 10
25.1819
 20
2.9303
 11
25.1052
 21
2.94751
  0
LINE
  8
0
 10
25.1052
 20
2.94751
 11
25.0295
 21
2.96846
  0
LINE
  8
0
 10
25.0295
 20
2.96846
 11
24.9549
 21
2.9931
  0
LINE
  8
0
 10
24.9549
 20
2.9931
 11
24.8816
 21
3.02136
  0
LINE
  8
0
 10
24.8816
 20
3.02136
 11
24.8098
 21
3.05321
  0
LINE
  8
0
 10
24.8098
 20
3.05321
 11
24.7396
 21
3.08852
  0
LINE
  8
0
 10
24.7396
 20
3.08852
 11
24.6713
 21
3.12724
  0
LINE
  8
0
 10
24.6713
 20
3.12724
 11
24.6049
 21
3.16927
  0
LINE
  8
0
 10
24.6049
 20
3.16927
 11
24.5407
 21
3.21449
  0
LINE
  8
0
 10
24.5407
 20
3.21449
 11
24.4788
 21
3.26283
  0
LINE
  8
0
 10
24.4788
 20
3.26283
 11
24.4193
 21
3.31413
  0
LINE
  8
0
 10
24.4193
 20
3.31413
 11
24.3624
 21
3.3683
  0
LINE
  8
0
 10
24.3624
 20
3.3683
 11
24.3082
 21
3.4252
  0
LINE
  8
0
 10
24.3082
 20
3.4252
 11
24.2569
 21
3.48468
  0
LINE
  8
0
 10
24.2569
 20
3.48468
 11
24.2086
 21
3.5466
  0
LINE
  8
0
 10
24.2086
 20
3.5466
 11
24.1634
 21
3.61082
  0
LINE
  8
0
 10
24.1634
 20
3.61082
 11
24.1213
 21
3.6772
  0
LINE
  8
0
 10
24.1213
 20
3.6772
 11
24.0826
 21
3.74554
  0
LINE
  8
0
 10
24.0826
 20
3.74554
 11
24.0473
 21
3.8157
  0
LINE
  8
0
 10
24.0473
 20
3.8157
 11
24.0155
 21
3.88753
  0
LINE
  8
0
 10
24.0155
 20
3.88753
 11
23.9872
 21
3.96082
  0
LINE
  8
0
 10
23.9872
 20
3.96082
 11
23.9626
 21
4.0354
  0
LINE
  8
0
 10
23.9626
 20
4.0354
 11
23.9416
 21
4.11111
  0
LINE
  8
0
 10
23.9416
 20
4.11111
 11
23.9244
 21
4.18776
  0
LINE
  8
0
 10
23.9244
 20
4.18776
 11
23.911
 21
4.26515
  0
LINE
  8
0
 10
23.911
 20
4.26515
 11
23.9014
 21
4.34312
  0
LINE
  8
0
 10
23.9014
 20
4.34312
 11
23.8956
 21
4.42146
  0
LINE
  8
0
 10
23.8956
 20
4.42146
 11
23.8936
 21
4.5
  0
LINE
  8
0
 10
23.8936
 20
4.5
 11
23.8956
 21
4.57852
  0
LINE
  8
0
 10
23.8956
 20
4.57852
 11
23.9014
 21
4.65686
  0
LINE
  8
0
 10
23.9014
 20
4.65686
 11
23.911
 21
4.73483
  0
LINE
  8
0
 10
23.911
 20
4.73483
 11
23.9244
 21
4.81223
  0
LINE
  8
0
 10
23.9244
 20
4.81223
 11
23.9416
 21
4.88887
  0
LINE
  8
0
 10
23.9416
 20
4.88887
 11
23.9626
 21
4.96458
  0
LINE
  8
0
 10
23.9626
 20
4.96458
 11
23.9872
 21
5.03917
  0
LINE
  8
0
 10
23.9872
 20
5.03917
 11
24.0155
 21
5.11246
  0
LINE
  8
0
 10
24.0155
 20
5.11246
 11
24.0473
 21
5.18428
  0
LINE
  8
0
 10
24.0473
 20
5.18428
 11
24.0826
 21
5.25444
  0
LINE
  8
0
 10
24.0826
 20
5.25444
 11
24.1213
 21
5.32278
  0
LINE
  8
0
 10
24.1213
 20
5.32278
 11
24.1634
 21
5.38916
  0
LINE
  8
0
 10
24.1634
 20
5.38916
 11
24.2086
 21
5.45338
  0
LINE
  8
0
 10
24.2086
 20
5.45338
 11
24.2569
 21
5.5153
  0
LINE
  8
0
 10
24.2569
 20
5.5153
 11
24.3082
 21
5.57478
  0
LINE
  8
0
 10
24.3082
 20
5.57478
 11
24.3624
 21
5.63168
  0
LINE
  8
0
 10
24.3624
 20
5.63168
 11
24.4193
 21
5.68585
  0
LINE
  8
0
 10
24.4193
 20
5.68585
 11
24.4788
 21
5.73715
  0
LINE
  8
0
 10
24.4788
 20
5.73715
 11
24.5407
 21
5.78549
  0
LINE
  8
0
 10
24.5407
 20
5.78549
 11
24.6049
 21
5.83072
  0
LINE
  8
0
 10
24.6049
 20
5.83072
 11
24.6713
 21
5.87274
  0
LINE
  8
0
 10
24.6713
 20
5.87274
 11
24.7396
 21
5.91147
  0
LINE
  8
0
 10
24.7396
 20
5.91147
 11
24.8098
 21
5.94678
  0
LINE
  8
0
 10
24.8098
 20
5.94678
 11
24.8816
 21
5.97862
  0
LINE
  8
0
 10
24.8816
 20
5.97862
 11
24.9549
 21
6.00688
  0
LINE
  8
0
 10
24.9549
 20
6.00688
 11
25.0295
 21
6.03152
  0
LINE
  8
0
 10
25.0295
 20
6.03152
 11
25.1052
 21
6.05247
  0
LINE
  8
0
 10
25.1052
 20
6.05247
 11
25.1819
 21
6.06969
  0
LINE
  8
0
 10
25.1819
 20
6.06969
 11
25.2593
 21
6.08311
  0
LINE
  8
0
 10
25.2593
 20
6.08311
 11
25.3372
 21
6.09274
  0
LINE
  8
0
 10
25.3372
 20
6.09274
 11
25.4156
 21
6.09851
  0
LINE
  8
0
 10
25.4156
 20
6.09851
 11
25.4941
 21
6.10045
  0
LINE
  8
0
 10
25.4941
 20
6.10045
 11
25.5726
 21
6.09851
  0
LINE
  8
0
 10
25.5726
 20
6.09851
 11
25.651
 21
6.09274
  0
LINE
  8
0
 10
25.651
 20
6.09274
 11
25.7289
 21
6.08311
  0
LINE
  8
0
 10
25.7289
 20
6.08311
 11
25.8063
 21
6.06969
  0
LINE
  8
0
 10
25.8063
 20
6.06969
 11
25.883
 21
6.05247
  0
LINE
  8
0
 10
25.883
 20
6.05247
 11
25.9587
 21
6.03152
  0
LINE
  8
0
 10
25.9587
 20
6.03152
 11
26.0333
 21
6.00688
  0
LINE
  8
0
 10
26.0333
 20
6.00688
 11
26.1066
 21
5.97862
  0
LINE
  8
0
 10
26.1066
 20
5.97862
 11
26.1784
 21
5.94678
  0
LINE
  8
0
 10
26.1784
 20
5.94678
 11
26.2485
 21
5.91147
  0
LINE
  8
0
 10
26.2485
 20
5.91147
 11
26.3169
 21
5.87274
  0
LINE
  8
0
 10
26.3169
 20
5.87274
 11
26.3833
 21
5.83072
  0
LINE
  8
0
 10
26.3833
 20
5.83072
 11
26.4475
 21
5.78549
  0
LINE
  8
0
 10
26.4475
 20
5.78549
 11
26.5094
 21
5.73715
  0
LINE
  8
0
 10
26.5094
 20
5.73715
 11
26.5689
 21
5.68585
  0
LINE
  8
0
 10
26.5689
 20
5.68585
 11
26.6258
 21
5.63168
  0
LINE
  8
0
 10
26.6258
 20
5.63168
 11
26.6799
 21
5.57478
  0
LINE
  8
0
 10
26.6799
 20
5.57478
 11
26.7313
 21
5.5153
  0
LINE
  8
0
 10
26.7313
 20
5.5153
 11
26.7796
 21
5.45338
  0
LINE
  8
0
 10
26.7796
 20
5.45338
 11
26.8248
 21
5.38916
  0
LINE
  8
0
 10
26.8248
 20
5.38916
 11
26.8669
 21
5.32278
  0
LINE
  8
0
 10
26.8669
 20
5.32278
 11
26.9056
 21
5.25444
  0
LINE
  8
0
 10
26.9056
 20
5.25444
 11
26.9409
 21
5.18428
  0
LINE
  8
0
 10
26.9409
 20
5.18428
 11
26.9727
 21
5.11246
  0
LINE
  8
0
 10
26.9727
 20
5.11246
 11
27.001
 21
5.03917
  0
LINE
  8
0
 10
27.001
 20
5.03917
 11
27.0256
 21
4.96458
  0
LINE
  8
0
 10
27.0256
 20
4.96458
 11
27.0466
 21
4.88887
  0
LINE
  8
0
 10
27.0466
 20
4.88887
 11
27.0638
 21
4.81223
  0
LINE
  8
0
 10
27.0638
 20
4.81223
 11
27.0772
 21
4.73483
  0
LINE
  8
0
 10
27.0772
 20
4.73483
 11
27.0868
 21
4.65686
  0
LINE
  8
0
 10
27.0868
 20
4.65686
 11
27.0926
 21
4.57852
  0
LINE
  8
0
 10
27.0926
 20
4.57852
 11
27.0945
 21
4.5
  0
LINE
  8
0
 10
27.0945
 20
4.5
 11
27.0926
 21
4.42146
  0
LINE
  8
0
 10
38.3476
 20
134.289
 11
38.3382
 21
134.162
  0
LINE
  8
0
 10
38.3382
 20
134.162
 11
38.3226
 21
134.035
  0
LINE
  8
0
 10
38.3226
 20
134.035
 11
38.3008
 21
133.909
  0
LINE
  8
0
 10
38.3008
 20
133.909
 11
38.2728
 21
133.785
  0
LINE
  8
0
 10
38.2728
 20
133.785
 11
38.2388
 21
133.662
  0
LINE
  8
0
 10
38.2388
 20
133.662
 11
38.1987
 21
133.54
  0
LINE
  8
0
 10
38.1987
 20
133.54
 11
38.1528
 21
133.421
  0
LINE
  8
0
 10
38.1528
 20
133.421
 11
38.101
 21
133.305
  0
LINE
  8
0
 10
38.101
 20
133.305
 11
38.0437
 21
133.191
  0
LINE
  8
0
 10
38.0437
 20
133.191
 11
37.9807
 21
133.08
  0
LINE
  8
0
 10
37.9807
 20
133.08
 11
37.9124
 21
132.972
  0
LINE
  8
0
 10
37.9124
 20
132.972
 11
37.8389
 21
132.867
  0
LINE
  8
0
 10
37.8389
 20
132.867
 11
37.7604
 21
132.767
  0
LINE
  8
0
 10
37.7604
 20
132.767
 11
37.677
 21
132.67
  0
LINE
  8
0
 10
37.677
 20
132.67
 11
37.589
 21
132.578
  0
LINE
  8
0
 10
37.589
 20
132.578
 11
37.4966
 21
132.49
  0
LINE
  8
0
 10
37.4966
 20
132.49
 11
37.3999
 21
132.406
  0
LINE
  8
0
 10
37.3999
 20
132.406
 11
37.2993
 21
132.328
  0
LINE
  8
0
 10
37.2993
 20
132.328
 11
37.1949
 21
132.254
  0
LINE
  8
0
 10
37.1949
 20
132.254
 11
37.0871
 21
132.186
  0
LINE
  8
0
 10
37.0871
 20
132.186
 11
36.976
 21
132.123
  0
LINE
  8
0
 10
36.976
 20
132.123
 11
36.862
 21
132.066
  0
LINE
  8
0
 10
36.862
 20
132.066
 11
36.7453
 21
132.014
  0
LINE
  8
0
 10
36.7453
 20
132.014
 11
36.6262
 21
131.968
  0
LINE
  8
0
 10
36.6262
 20
131.968
 11
36.505
 21
131.928
  0
LINE
  8
0
 10
36.505
 20
131.928
 11
36.3819
 21
131.894
  0
LINE
  8
0
 10
36.3819
 20
131.894
 11
36.2574
 21
131.866
  0
LINE
  8
0
 10
36.2574
 20
131.866
 11
36.1316
 21
131.844
  0
LINE
  8
0
 10
36.1316
 20
131.844
 11
36.0049
 21
131.828
  0
LINE
  8
0
 10
36.0049
 20
131.828
 11
35.8776
 21
131.819
  0
LINE
  8
0
 10
35.8776
 20
131.819
 11
35.75
 21
131.816
  0
LINE
  8
0
 10
35.75
 20
131.816
 11
35.6224
 21
131.819
  0
LINE
  8
0
 10
35.6224
 20
131.819
 11
35.4951
 21
131.828
  0
LINE
  8
0
 10
35.4951
 20
131.828
 11
35.3684
 21
131.844
  0
LINE
  8
0
 10
35.3684
 20
131.844
 11
35.2426
 21
131.866
  0
LINE
  8
0
 10
35.2426
 20
131.866
 11
35.1181
 21
131.894
  0
LINE
  8
0
 10
35.1181
 20
131.894
 11
34.995
 21
131.928
  0
LINE
  8
0
 10
34.995
 20
131.928
 11
34.8738
 21
131.968
  0
LINE
  8
0
 10
34.8738
 20
131.968
 11
34.7547
 21
132.014
  0
LINE
  8
0
 10
34.7547
 20
132.014
 11
34.638
 21
132.066
  0
LINE
  8
0
 10
34.638
 20
132.066
 11
34.524
 21
132.123
  0
LINE
  8
0
 10
34.524
 20
132.123
 11
34.4129
 21
132.186
  0
LINE
  8
0
 10
34.4129
 20
132.186
 11
34.3051
 21
132.254
  0
LINE
  8
0
 10
34.3051
 20
132.254
 11
34.2007
 21
132.328
  0
LINE
  8
0
 10
34.2007
 20
132.328
 11
34.1001
 21
132.406
  0
LINE
  8
0
 10
34.1001
 20
132.406
 11
34.0034
 21
132.49
  0
LINE
  8
0
 10
34.0034
 20
132.49
 11
33.911
 21
132.578
  0
LINE
  8
0
 10
33.911
 20
132.578
 11
33.823
 21
132.67
  0
LINE
  8
0
 10
33.823
 20
132.67
 11
33.7396
 21
132.767
  0
LINE
  8
0
 10
33.7396
 20
132.767
 11
33.6611
 21
132.867
  0
LINE
  8
0
 10
33.6611
 20
132.867
 11
33.5876
 21
132.972
  0
LINE
  8
0
 10
33.5876
 20
132.972
 11
33.5193
 21
133.08
  0
LINE
  8
0
 10
33.5193
 20
133.08
 11
33.4563
 21
133.191
  0
LINE
  8
0
 10
33.4563
 20
133.191
 11
33.3989
 21
133.305
  0
LINE
  8
0
 10
33.3989
 20
133.305
 11
33.3472
 21
133.421
  0
LINE
  8
0
 10
33.3472
 20
133.421
 11
33.3013
 21
133.54
  0
LINE
  8
0
 10
33.3013
 20
133.54
 11
33.2612
 21
133.662
  0
LINE
  8
0
 10
33.2612
 20
133.662
 11
33.2272
 21
133.785
  0
LINE
  8
0
 10
33.2272
 20
133.785
 11
33.1992
 21
133.909
  0
LINE
  8
0
 10
33.1992
 20
133.909
 11
33.1774
 21
134.035
  0
LINE
  8
0
 10
33.1774
 20
134.035
 11
33.1618
 21
134.162
  0
LINE
  8
0
 10
33.1618
 20
134.162
 11
33.1524
 21
134.289
  0
LINE
  8
0
 10
33.1524
 20
134.289
 11
33.1492
 21
134.417
  0
LINE
  8
0
 10
33.1492
 20
134.417
 11
33.1524
 21
134.544
  0
LINE
  8
0
 10
33.1524
 20
134.544
 11
33.1618
 21
134.672
  0
LINE
  8
0
 10
33.1618
 20
134.672
 11
33.1774
 21
134.798
  0
LINE
  8
0
 10
33.1774
 20
134.798
 11
33.1992
 21
134.924
  0
LINE
  8
0
 10
33.1992
 20
134.924
 11
33.2272
 21
135.049
  0
LINE
  8
0
 10
33.2272
 20
135.049
 11
33.2612
 21
135.172
  0
LINE
  8
0
 10
33.2612
 20
135.172
 11
33.3013
 21
135.293
  0
LINE
  8
0
 10
33.3013
 20
135.293
 11
33.3472
 21
135.412
  0
LINE
  8
0
 10
33.3472
 20
135.412
 11
33.3989
 21
135.529
  0
LINE
  8
0
 10
33.3989
 20
135.529
 11
33.4563
 21
135.643
  0
LINE
  8
0
 10
33.4563
 20
135.643
 11
33.5193
 21
135.754
  0
LINE
  8
0
 10
33.5193
 20
135.754
 11
33.5876
 21
135.862
  0
LINE
  8
0
 10
33.5876
 20
135.862
 11
33.6611
 21
135.966
  0
LINE
  8
0
 10
33.6611
 20
135.966
 11
33.7396
 21
136.067
  0
LINE
  8
0
 10
33.7396
 20
136.067
 11
33.823
 21
136.163
  0
LINE
  8
0
 10
33.823
 20
136.163
 11
33.911
 21
136.256
  0
LINE
  8
0
 10
33.911
 20
136.256
 11
34.0034
 21
136.344
  0
LINE
  8
0
 10
34.0034
 20
136.344
 11
34.1001
 21
136.427
  0
LINE
  8
0
 10
34.1001
 20
136.427
 11
34.2007
 21
136.506
  0
LINE
  8
0
 10
34.2007
 20
136.506
 11
34.3051
 21
136.579
  0
LINE
  8
0
 10
34.3051
 20
136.579
 11
34.4129
 21
136.647
  0
LINE
  8
0
 10
34.4129
 20
136.647
 11
34.524
 21
136.71
  0
LINE
  8
0
 10
34.524
 20
136.71
 11
34.638
 21
136.768
  0
LINE
  8
0
 10
34.638
 20
136.768
 11
34.7547
 21
136.819
  0
LINE
  8
0
 10
34.7547
 20
136.819
 11
34.8738
 21
136.865
  0
LINE
  8
0
 10
34.8738
 20
136.865
 11
34.995
 21
136.905
  0
LINE
  8
0
 10
34.995
 20
136.905
 11
35.1181
 21
136.939
  0
LINE
  8
0
 10
35.1181
 20
136.939
 11
35.2426
 21
136.967
  0
LINE
  8
0
 10
35.2426
 20
136.967
 11
35.3684
 21
136.989
  0
LINE
  8
0
 10
35.3684
 20
136.989
 11
35.4951
 21
137.005
  0
LINE
  8
0
 10
35.4951
 20
137.005
 11
35.6224
 21
137.014
  0
LINE
  8
0
 10
35.6224
 20
137.014
 11
35.75
 21
137.017
  0
LINE
  8
0
 10
35.75
 20
137.017
 11
35.8776
 21
137.014
  0
LINE
  8
0
 10
35.8776
 20
137.014
 11
36.0049
 21
137.005
  0
LINE
  8
0
 10
36.0049
 20
137.005
 11
36.1316
 21
136.989
  0
LINE
  8
0
 10
36.1316
 20
136.989
 11
36.2574
 21
136.967
  0
LINE
  8
0
 10
36.2574
 20
136.967
 11
36.3819
 21
136.939
  0
LINE
  8
0
 10
36.3819
 20
136.939
 11
36.505
 21
136.905
  0
LINE
  8
0
 10
36.505
 20
136.905
 11
36.6262
 21
136.865
  0
LINE
  8
0
 10
36.6262
 20
136.865
 11
36.7453
 21
136.819
  0
LINE
  8
0
 10
36.7453
 20
136.819
 11
36.862
 21
136.768
  0
LINE
  8
0
 10
36.862
 20
136.768
 11
36.976
 21
136.71
  0
LINE
  8
0
 10
36.976
 20
136.71
 11
37.0871
 21
136.647
  0
LINE
  8
0
 10
37.0871
 20
136.647
 11
37.1949
 21
136.579
  0
LINE
  8
0
 10
37.1949
 20
136.579
 11
37.2993
 21
136.506
  0
LINE
  8
0
 10
37.2993
 20
136.506
 11
37.3999
 21
136.427
  0
LINE
  8
0
 10
37.3999
 20
136.427
 11
37.4966
 21
136.344
  0
LINE
  8
0
 10
37.4966
 20
136.344
 11
37.589
 21
136.256
  0
LINE
  8
0
 10
37.589
 20
136.256
 11
37.677
 21
136.163
  0
LINE
  8
0
 10
37.677
 20
136.163
 11
37.7604
 21
136.067
  0
LINE
  8
0
 10
37.7604
 20
136.067
 11
37.8389
 21
135.966
  0
LINE
  8
0
 10
37.8389
 20
135.966
 11
37.9124
 21
135.862
  0
LINE
  8
0
 10
37.9124
 20
135.862
 11
37.9807
 21
135.754
  0
LINE
  8
0
 10
37.9807
 20
135.754
 11
38.0437
 21
135.643
  0
LINE
  8
0
 10
38.0437
 20
135.643
 11
38.101
 21
135.529
  0
LINE
  8
0
 10
38.101
 20
135.529
 11
38.1528
 21
135.412
  0
LINE
  8
0
 10
38.1528
 20
135.412
 11
38.1987
 21
135.293
  0
LINE
  8
0
 10
38.1987
 20
135.293
 11
38.2388
 21
135.172
  0
LINE
  8
0
 10
38.2388
 20
135.172
 11
38.2728
 21
135.049
  0
LINE
  8
0
 10
38.2728
 20
135.049
 11
38.3008
 21
134.924
  0
LINE
  8
0
 10
38.3008
 20
134.924
 11
38.3226
 21
134.798
  0
LINE
  8
0
 10
38.3226
 20
134.798
 11
38.3382
 21
134.672
  0
LINE
  8
0
 10
38.3382
 20
134.672
 11
38.3476
 21
134.544
  0
LINE
  8
0
 10
38.3476
 20
134.544
 11
38.3508
 21
134.417
  0
LINE
  8
0
 10
38.3508
 20
134.417
 11
38.3476
 21
134.289
  0
LINE
  8
0
 10
38.3476
 20
62.789
 11
38.3382
 21
62.6617
  0
LINE
  8
0
 10
38.3382
 20
62.6617
 11
38.3226
 21
62.535
  0
LINE
  8
0
 10
38.3226
 20
62.535
 11
38.3008
 21
62.4093
  0
LINE
  8
0
 10
38.3008
 20
62.4093
 11
38.2728
 21
62.2847
  0
LINE
  8
0
 10
38.2728
 20
62.2847
 11
38.2388
 21
62.1617
  0
LINE
  8
0
 10
38.2388
 20
62.1617
 11
38.1987
 21
62.0405
  0
LINE
  8
0
 10
38.1987
 20
62.0405
 11
38.1528
 21
61.9214
  0
LINE
  8
0
 10
38.1528
 20
61.9214
 11
38.101
 21
61.8047
  0
LINE
  8
0
 10
38.101
 20
61.8047
 11
38.0437
 21
61.6907
  0
LINE
  8
0
 10
38.0437
 20
61.6907
 11
37.9807
 21
61.5796
  0
LINE
  8
0
 10
37.9807
 20
61.5796
 11
37.9124
 21
61.4718
  0
LINE
  8
0
 10
37.9124
 20
61.4718
 11
37.8389
 21
61.3674
  0
LINE
  8
0
 10
37.8389
 20
61.3674
 11
37.7604
 21
61.2668
  0
LINE
  8
0
 10
37.7604
 20
61.2668
 11
37.677
 21
61.1701
  0
LINE
  8
0
 10
37.677
 20
61.1701
 11
37.589
 21
61.0777
  0
LINE
  8
0
 10
37.589
 20
61.0777
 11
37.4966
 21
60.9896
  0
LINE
  8
0
 10
37.4966
 20
60.9896
 11
37.3999
 21
60.9062
  0
LINE
  8
0
 10
37.3999
 20
60.9062
 11
37.2993
 21
60.8277
  0
LINE
  8
0
 10
37.2993
 20
60.8277
 11
37.1949
 21
60.7542
  0
LINE
  8
0
 10
37.1949
 20
60.7542
 11
37.0871
 21
60.6859
  0
LINE
  8
0
 10
37.0871
 20
60.6859
 11
36.976
 21
60.623
  0
LINE
  8
0
 10
36.976
 20
60.623
 11
36.862
 21
60.5656
  0
LINE
  8
0
 10
36.862
 20
60.5656
 11
36.7453
 21
60.5139
  0
LINE
  8
0
 10
36.7453
 20
60.5139
 11
36.6262
 21
60.4679
  0
LINE
  8
0
 10
36.6262
 20
60.4679
 11
36.505
 21
60.4279
  0
LINE
  8
0
 10
36.505
 20
60.4279
 11
36.3819
 21
60.3938
  0
LINE
  8
0
 10
36.3819
 20
60.3938
 11
36.2574
 21
60.3659
  0
LINE
  8
0
 10
36.2574
 20
60.3659
 11
36.1316
 21
60.3441
  0
LINE
  8
0
 10
36.1316
 20
60.3441
 11
36.0049
 21
60.3284
  0
LINE
  8
0
 10
36.0049
 20
60.3284
 11
35.8776
 21
60.319
  0
LINE
  8
0
 10
35.8776
 20
60.319
 11
35.75
 21
60.3159
  0
LINE
  8
0
 10
35.75
 20
60.3159
 11
35.6224
 21
60.319
  0
LINE
  8
0
 10
35.6224
 20
60.319
 11
35.4951
 21
60.3284
  0
LINE
  8
0
 10
35.4951
 20
60.3284
 11
35.3684
 21
60.3441
  0
LINE
  8
0
 10
35.3684
 20
60.3441
 11
35.2426
 21
60.3659
  0
LINE
  8
0
 10
35.2426
 20
60.3659
 11
35.1181
 21
60.3938
  0
LINE
  8
0
 10
35.1181
 20
60.3938
 11
34.995
 21
60.4279
  0
LINE
  8
0
 10
34.995
 20
60.4279
 11
34.8738
 21
60.4679
  0
LINE
  8
0
 10
34.8738
 20
60.4679
 11
34.7547
 21
60.5139
  0
LINE
  8
0
 10
34.7547
 20
60.5139
 11
34.638
 21
60.5656
  0
LINE
  8
0
 10
34.638
 20
60.5656
 11
34.524
 21
60.623
  0
LINE
  8
0
 10
34.524
 20
60.623
 11
34.4129
 21
60.6859
  0
LINE
  8
0
 10
34.4129
 20
60.6859
 11
34.3051
 21
60.7542
  0
LINE
  8
0
 10
34.3051
 20
60.7542
 11
34.2007
 21
60.8277
  0
LINE
  8
0
 10
34.2007
 20
60.8277
 11
34.1001
 21
60.9062
  0
LINE
  8
0
 10
34.1001
 20
60.9062
 11
34.0034
 21
60.9896
  0
LINE
  8
0
 10
34.0034
 20
60.9896
 11
33.911
 21
61.0777
  0
LINE
  8
0
 10
33.911
 20
61.0777
 11
33.823
 21
61.1701
  0
LINE
  8
0
 10
33.823
 20
61.1701
 11
33.7396
 21
61.2668
  0
LINE
  8
0
 10
33.7396
 20
61.2668
 11
33.6611
 21
61.3674
  0
LINE
  8
0
 10
33.6611
 20
61.3674
 11
33.5876
 21
61.4718
  0
LINE
  8
0
 10
33.5876
 20
61.4718
 11
33.5193
 21
61.5796
  0
LINE
  8
0
 10
33.5193
 20
61.5796
 11
33.4563
 21
61.6907
  0
LINE
  8
0
 10
33.4563
 20
61.6907
 11
33.3989
 21
61.8047
  0
LINE
  8
0
 10
33.3989
 20
61.8047
 11
33.3472
 21
61.9214
  0
LINE
  8
0
 10
33.3472
 20
61.9214
 11
33.3013
 21
62.0405
  0
LINE
  8
0
 10
33.3013
 20
62.0405
 11
33.2612
 21
62.1617
  0
LINE
  8
0
 10
33.2612
 20
62.1617
 11
33.2272
 21
62.2847
  0
LINE
  8
0
 10
33.2272
 20
62.2847
 11
33.1992
 21
62.4093
  0
LINE
  8
0
 10
33.1992
 20
62.4093
 11
33.1774
 21
62.535
  0
LINE
  8
0
 10
33.1774
 20
62.535
 11
33.1618
 21
62.6617
  0
LINE
  8
0
 10
33.1618
 20
62.6617
 11
33.1524
 21
62.789
  0
LINE
  8
0
 10
33.1524
 20
62.789
 11
33.1492
 21
62.9167
  0
LINE
  8
0
 10
33.1492
 20
62.9167
 11
33.1524
 21
63.0443
  0
LINE
  8
0
 10
33.1524
 20
63.0443
 11
33.1618
 21
63.1716
  0
LINE
  8
0
 10
33.1618
 20
63.1716
 11
33.1774
 21
63.2983
  0
LINE
  8
0
 10
33.1774
 20
63.2983
 11
33.1992
 21
63.424
  0
LINE
  8
0
 10
33.1992
 20
63.424
 11
33.2272
 21
63.5486
  0
LINE
  8
0
 10
33.2272
 20
63.5486
 11
33.2612
 21
63.6716
  0
LINE
  8
0
 10
33.2612
 20
63.6716
 11
33.3013
 21
63.7928
  0
LINE
  8
0
 10
33.3013
 20
63.7928
 11
33.3472
 21
63.9119
  0
LINE
  8
0
 10
33.3472
 20
63.9119
 11
33.3989
 21
64.0286
  0
LINE
  8
0
 10
33.3989
 20
64.0286
 11
33.4563
 21
64.1427
  0
LINE
  8
0
 10
33.4563
 20
64.1427
 11
33.5193
 21
64.2537
  0
LINE
  8
0
 10
33.5193
 20
64.2537
 11
33.5876
 21
64.3616
  0
LINE
  8
0
 10
33.5876
 20
64.3616
 11
33.6611
 21
64.4659
  0
LINE
  8
0
 10
33.6611
 20
64.4659
 11
33.7396
 21
64.5666
  0
LINE
  8
0
 10
33.7396
 20
64.5666
 11
33.823
 21
64.6632
  0
LINE
  8
0
 10
33.823
 20
64.6632
 11
33.911
 21
64.7557
  0
LINE
  8
0
 10
33.911
 20
64.7557
 11
34.0034
 21
64.8437
  0
LINE
  8
0
 10
34.0034
 20
64.8437
 11
34.1001
 21
64.9271
  0
LINE
  8
0
 10
34.1001
 20
64.9271
 11
34.2007
 21
65.0056
  0
LINE
  8
0
 10
34.2007
 20
65.0056
 11
34.3051
 21
65.0791
  0
LINE
  8
0
 10
34.3051
 20
65.0791
 11
34.4129
 21
65.1474
  0
LINE
  8
0
 10
34.4129
 20
65.1474
 11
34.524
 21
65.2103
  0
LINE
  8
0
 10
34.524
 20
65.2103
 11
34.638
 21
65.2677
  0
LINE
  8
0
 10
34.638
 20
65.2677
 11
34.7547
 21
65.3194
  0
LINE
  8
0
 10
34.7547
 20
65.3194
 11
34.8738
 21
65.3654
  0
LINE
  8
0
 10
34.8738
 20
65.3654
 11
34.995
 21
65.4054
  0
LINE
  8
0
 10
34.995
 20
65.4054
 11
35.1181
 21
65.4395
  0
LINE
  8
0
 10
35.1181
 20
65.4395
 11
35.2426
 21
65.4674
  0
LINE
  8
0
 10
35.2426
 20
65.4674
 11
35.3684
 21
65.4893
  0
LINE
  8
0
 10
35.3684
 20
65.4893
 11
35.4951
 21
65.5049
  0
LINE
  8
0
 10
35.4951
 20
65.5049
 11
35.6224
 21
65.5143
  0
LINE
  8
0
 10
35.6224
 20
65.5143
 11
35.75
 21
65.5174
  0
LINE
  8
0
 10
35.75
 20
65.5174
 11
35.8776
 21
65.5143
  0
LINE
  8
0
 10
35.8776
 20
65.5143
 11
36.0049
 21
65.5049
  0
LINE
  8
0
 10
36.0049
 20
65.5049
 11
36.1316
 21
65.4893
  0
LINE
  8
0
 10
36.1316
 20
65.4893
 11
36.2574
 21
65.4674
  0
LINE
  8
0
 10
36.2574
 20
65.4674
 11
36.3819
 21
65.4395
  0
LINE
  8
0
 10
36.3819
 20
65.4395
 11
36.505
 21
65.4054
  0
LINE
  8
0
 10
36.505
 20
65.4054
 11
36.6262
 21
65.3654
  0
LINE
  8
0
 10
36.6262
 20
65.3654
 11
36.7453
 21
65.3194
  0
LINE
  8
0
 10
36.7453
 20
65.3194
 11
36.862
 21
65.2677
  0
LINE
  8
0
 10
36.862
 20
65.2677
 11
36.976
 21
65.2103
  0
LINE
  8
0
 10
36.976
 20
65.2103
 11
37.0871
 21
65.1474
  0
LINE
  8
0
 10
37.0871
 20
65.1474
 11
37.1949
 21
65.0791
  0
LINE
  8
0
 10
37.1949
 20
65.0791
 11
37.2993
 21
65.0056
  0
LINE
  8
0
 10
37.2993
 20
65.0056
 11
37.3999
 21
64.9271
  0
LINE
  8
0
 10
37.3999
 20
64.9271
 11
37.4966
 21
64.8437
  0
LINE
  8
0
 10
37.4966
 20
64.8437
 11
37.589
 21
64.7557
  0
LINE
  8
0
 10
37.589
 20
64.7557
 11
37.677
 21
64.6632
  0
LINE
  8
0
 10
37.677
 20
64.6632
 11
37.7604
 21
64.5666
  0
LINE
  8
0
 10
37.7604
 20
64.5666
 11
37.8389
 21
64.4659
  0
LINE
  8
0
 10
37.8389
 20
64.4659
 11
37.9124
 21
64.3616
  0
LINE
  8
0
 10
37.9124
 20
64.3616
 11
37.9807
 21
64.2537
  0
LINE
  8
0
 10
37.9807
 20
64.2537
 11
38.0437
 21
64.1427
  0
LINE
  8
0
 10
38.0437
 20
64.1427
 11
38.101
 21
64.0286
  0
LINE
  8
0
 10
38.101
 20
64.0286
 11
38.1528
 21
63.9119
  0
LINE
  8
0
 10
38.1528
 20
63.9119
 11
38.1987
 21
63.7928
  0
LINE
  8
0
 10
38.1987
 20
63.7928
 11
38.2388
 21
63.6716
  0
LINE
  8
0
 10
38.2388
 20
63.6716
 11
38.2728
 21
63.5486
  0
LINE
  8
0
 10
38.2728
 20
63.5486
 11
38.3008
 21
63.424
  0
LINE
  8
0
 10
38.3008
 20
63.424
 11
38.3226
 21
63.2983
  0
LINE
  8
0
 10
38.3226
 20
63.2983
 11
38.3382
 21
63.1716
  0
LINE
  8
0
 10
38.3382
 20
63.1716
 11
38.3476
 21
63.0443
  0
LINE
  8
0
 10
38.3476
 20
63.0443
 11
38.3508
 21
62.9167
  0
LINE
  8
0
 10
38.3508
 20
62.9167
 11
38.3476
 21
62.789
  0
LINE
  8
0
 10
146.563
 20
121.835
 11
65.2832
 21
121.835
  0
LINE
  8
0
 10
65.2832
 20
121.835
 11
65.2832
 21
135.835
  0
LINE
  8
0
 10
65.2832
 20
135.835
 11
146.563
 21
135.835
  0
LINE
  8
0
 10
146.563
 20
135.835
 11
146.563
 21
121.835
  0
LINE
  8
0
 10
85.3007
 20
13.2648
 11
81.8007
 21
9.76479
  0
LINE
  8
0
 10
81.8007
 20
9.76479
 11
74.8007
 21
9.76479
  0
LINE
  8
0
 10
74.8007
 20
9.76479
 11
71.3007
 21
13.2648
  0
LINE
  8
0
 10
71.3007
 20
13.2648
 11
71.3007
 21
117.53
  0
LINE
  8
0
 10
71.3007
 20
117.53
 11
85.3007
 21
117.53
  0
LINE
  8
0
 10
85.3007
 20
117.53
 11
85.3007
 21
13.2648
  0
LINE
  8
0
 10
90.0592
 20
4.42146
 11
90.0534
 21
4.34312
  0
LINE
  8
0
 10
90.0534
 20
4.34312
 11
90.0438
 21
4.26515
  0
LINE
  8
0
 10
90.0438
 20
4.26515
 11
90.0304
 21
4.18776
  0
LINE
  8
0
 10
90.0304
 20
4.18776
 11
90.0132
 21
4.11111
  0
LINE
  8
0
 10
90.0132
 20
4.11111
 11
89.9922
 21
4.0354
  0
LINE
  8
0
 10
89.9922
 20
4.0354
 11
89.9676
 21
3.96082
  0
LINE
  8
0
 10
89.9676
 20
3.96082
 11
89.9393
 21
3.88753
  0
LINE
  8
0
 10
89.9393
 20
3.88753
 11
89.9075
 21
3.8157
  0
LINE
  8
0
 10
89.9075
 20
3.8157
 11
89.8722
 21
3.74554
  0
LINE
  8
0
 10
89.8722
 20
3.74554
 11
89.8335
 21
3.6772
  0
LINE
  8
0
 10
89.8335
 20
3.6772
 11
89.7914
 21
3.61082
  0
LINE
  8
0
 10
89.7914
 20
3.61082
 11
89.7462
 21
3.5466
  0
LINE
  8
0
 10
89.7462
 20
3.5466
 11
89.6979
 21
3.48468
  0
LINE
  8
0
 10
89.6979
 20
3.48468
 11
89.6465
 21
3.4252
  0
LINE
  8
0
 10
89.6465
 20
3.4252
 11
89.5924
 21
3.3683
  0
LINE
  8
0
 10
89.5924
 20
3.3683
 11
89.5355
 21
3.31413
  0
LINE
  8
0
 10
89.5355
 20
3.31413
 11
89.476
 21
3.26283
  0
LINE
  8
0
 10
89.476
 20
3.26283
 11
89.4141
 21
3.21449
  0
LINE
  8
0
 10
89.4141
 20
3.21449
 11
89.3499
 21
3.16927
  0
LINE
  8
0
 10
89.3499
 20
3.16927
 11
89.2835
 21
3.12724
  0
LINE
  8
0
 10
89.2835
 20
3.12724
 11
89.2151
 21
3.08852
  0
LINE
  8
0
 10
89.2151
 20
3.08852
 11
89.145
 21
3.05321
  0
LINE
  8
0
 10
89.145
 20
3.05321
 11
89.0732
 21
3.02136
  0
LINE
  8
0
 10
89.0732
 20
3.02136
 11
88.9999
 21
2.9931
  0
LINE
  8
0
 10
88.9999
 20
2.9931
 11
88.9253
 21
2.96846
  0
LINE
  8
0
 10
88.9253
 20
2.96846
 11
88.8496
 21
2.94751
  0
LINE
  8
0
 10
88.8496
 20
2.94751
 11
88.7729
 21
2.9303
  0
LINE
  8
0
 10
88.7729
 20
2.9303
 11
88.6955
 21
2.91687
  0
LINE
  8
0
 10
88.6955
 20
2.91687
 11
88.6176
 21
2.90724
  0
LINE
  8
0
 10
88.6176
 20
2.90724
 11
88.5392
 21
2.90147
  0
LINE
  8
0
 10
88.5392
 20
2.90147
 11
88.4607
 21
2.89954
  0
LINE
  8
0
 10
88.4607
 20
2.89954
 11
88.3822
 21
2.90147
  0
LINE
  8
0
 10
88.3822
 20
2.90147
 11
88.3038
 21
2.90724
  0
LINE
  8
0
 10
88.3038
 20
2.90724
 11
88.2259
 21
2.91687
  0
LINE
  8
0
 10
88.2259
 20
2.91687
 11
88.1485
 21
2.9303
  0
LINE
  8
0
 10
88.1485
 20
2.9303
 11
88.0718
 21
2.94751
  0
LINE
  8
0
 10
88.0718
 20
2.94751
 11
87.9961
 21
2.96846
  0
LINE
  8
0
 10
87.9961
 20
2.96846
 11
87.9215
 21
2.9931
  0
LINE
  8
0
 10
87.9215
 20
2.9931
 11
87.8482
 21
3.02136
  0
LINE
  8
0
 10
87.8482
 20
3.02136
 11
87.7764
 21
3.05321
  0
LINE
  8
0
 10
87.7764
 20
3.05321
 11
87.7063
 21
3.08852
  0
LINE
  8
0
 10
87.7063
 20
3.08852
 11
87.6379
 21
3.12724
  0
LINE
  8
0
 10
87.6379
 20
3.12724
 11
87.5715
 21
3.16927
  0
LINE
  8
0
 10
87.5715
 20
3.16927
 11
87.5073
 21
3.21449
  0
LINE
  8
0
 10
87.5073
 20
3.21449
 11
87.4454
 21
3.26283
  0
LINE
  8
0
 10
87.4454
 20
3.26283
 11
87.3859
 21
3.31413
  0
LINE
  8
0
 10
87.3859
 20
3.31413
 11
87.329
 21
3.3683
  0
LINE
  8
0
 10
87.329
 20
3.3683
 11
87.2748
 21
3.4252
  0
LINE
  8
0
 10
87.2748
 20
3.4252
 11
87.2235
 21
3.48468
  0
LINE
  8
0
 10
87.2235
 20
3.48468
 11
87.1752
 21
3.5466
  0
LINE
  8
0
 10
87.1752
 20
3.5466
 11
87.13
 21
3.61082
  0
LINE
  8
0
 10
87.13
 20
3.61082
 11
87.0879
 21
3.6772
  0
LINE
  8
0
 10
87.0879
 20
3.6772
 11
87.0492
 21
3.74554
  0
LINE
  8
0
 10
87.0492
 20
3.74554
 11
87.0139
 21
3.8157
  0
LINE
  8
0
 10
87.0139
 20
3.8157
 11
86.9821
 21
3.88753
  0
LINE
  8
0
 10
86.9821
 20
3.88753
 11
86.9538
 21
3.96082
  0
LINE
  8
0
 10
86.9538
 20
3.96082
 11
86.9292
 21
4.0354
  0
LINE
  8
0
 10
86.9292
 20
4.0354
 11
86.9082
 21
4.11111
  0
LINE
  8
0
 10
86.9082
 20
4.11111
 11
86.891
 21
4.18776
  0
LINE
  8
0
 10
86.891
 20
4.18776
 11
86.8776
 21
4.26515
  0
LINE
  8
0
 10
86.8776
 20
4.26515
 11
86.868
 21
4.34312
  0
LINE
  8
0
 10
86.868
 20
4.34312
 11
86.8622
 21
4.42146
  0
LINE
  8
0
 10
86.8622
 20
4.42146
 11
86.8602
 21
4.5
  0
LINE
  8
0
 10
86.8602
 20
4.5
 11
86.8622
 21
4.57852
  0
LINE
  8
0
 10
86.8622
 20
4.57852
 11
86.868
 21
4.65686
  0
LINE
  8
0
 10
86.868
 20
4.65686
 11
86.8776
 21
4.73483
  0
LINE
  8
0
 10
86.8776
 20
4.73483
 11
86.891
 21
4.81223
  0
LINE
  8
0
 10
86.891
 20
4.81223
 11
86.9082
 21
4.88887
  0
LINE
  8
0
 10
86.9082
 20
4.88887
 11
86.9292
 21
4.96458
  0
LINE
  8
0
 10
86.9292
 20
4.96458
 11
86.9538
 21
5.03917
  0
LINE
  8
0
 10
86.9538
 20
5.03917
 11
86.9821
 21
5.11246
  0
LINE
  8
0
 10
86.9821
 20
5.11246
 11
87.0139
 21
5.18428
  0
LINE
  8
0
 10
87.0139
 20
5.18428
 11
87.0492
 21
5.25444
  0
LINE
  8
0
 10
87.0492
 20
5.25444
 11
87.0879
 21
5.32278
  0
LINE
  8
0
 10
87.0879
 20
5.32278
 11
87.13
 21
5.38916
  0
LINE
  8
0
 10
87.13
 20
5.38916
 11
87.1752
 21
5.45338
  0
LINE
  8
0
 10
87.1752
 20
5.45338
 11
87.2235
 21
5.5153
  0
LINE
  8
0
 10
87.2235
 20
5.5153
 11
87.2748
 21
5.57478
  0
LINE
  8
0
 10
87.2748
 20
5.57478
 11
87.329
 21
5.63168
  0
LINE
  8
0
 10
87.329
 20
5.63168
 11
87.3859
 21
5.68585
  0
LINE
  8
0
 10
87.3859
 20
5.68585
 11
87.4454
 21
5.73715
  0
LINE
  8
0
 10
87.4454
 20
5.73715
 11
87.5073
 21
5.78549
  0
LINE
  8
0
 10
87.5073
 20
5.78549
 11
87.5715
 21
5.83072
  0
LINE
  8
0
 10
87.5715
 20
5.83072
 11
87.6379
 21
5.87274
  0
LINE
  8
0
 10
87.6379
 20
5.87274
 11
87.7063
 21
5.91147
  0
LINE
  8
0
 10
87.7063
 20
5.91147
 11
87.7764
 21
5.94678
  0
LINE
  8
0
 10
87.7764
 20
5.94678
 11
87.8482
 21
5.97862
  0
LINE
  8
0
 10
87.8482
 20
5.97862
 11
87.9215
 21
6.00688
  0
LINE
  8
0
 10
87.9215
 20
6.00688
 11
87.9961
 21
6.03152
  0
LINE
  8
0
 10
87.9961
 20
6.03152
 11
88.0718
 21
6.05247
  0
LINE
  8
0
 10
88.0718
 20
6.05247
 11
88.1485
 21
6.06969
  0
LINE
  8
0
 10
88.1485
 20
6.06969
 11
88.2259
 21
6.08311
  0
LINE
  8
0
 10
88.2259
 20
6.08311
 11
88.3038
 21
6.09274
  0
LINE
  8
0
 10
88.3038
 20
6.09274
 11
88.3822
 21
6.09851
  0
LINE
  8
0
 10
88.3822
 20
6.09851
 11
88.4607
 21
6.10045
  0
LINE
  8
0
 10
88.4607
 20
6.10045
 11
88.5392
 21
6.09851
  0
LINE
  8
0
 10
88.5392
 20
6.09851
 11
88.6176
 21
6.09274
  0
LINE
  8
0
 10
88.6176
 20
6.09274
 11
88.6955
 21
6.08311
  0
LINE
  8
0
 10
88.6955
 20
6.08311
 11
88.7729
 21
6.06969
  0
LINE
  8
0
 10
88.7729
 20
6.06969
 11
88.8496
 21
6.05247
  0
LINE
  8
0
 10
88.8496
 20
6.05247
 11
88.9253
 21
6.03152
  0
LINE
  8
0
 10
88.9253
 20
6.03152
 11
88.9999
 21
6.00688
  0
LINE
  8
0
 10
88.9999
 20
6.00688
 11
89.0732
 21
5.97862
  0
LINE
  8
0
 10
89.0732
 20
5.97862
 11
89.145
 21
5.94678
  0
LINE
  8
0
 10
89.145
 20
5.94678
 11
89.2151
 21
5.91147
  0
LINE
  8
0
 10
89.2151
 20
5.91147
 11
89.2835
 21
5.87274
  0
LINE
  8
0
 10
89.2835
 20
5.87274
 11
89.3499
 21
5.83072
  0
LINE
  8
0
 10
89.3499
 20
5.83072
 11
89.4141
 21
5.78549
  0
LINE
  8
0
 10
89.4141
 20
5.78549
 11
89.476
 21
5.73715
  0
LINE
  8
0
 10
89.476
 20
5.73715
 11
89.5355
 21
5.68585
  0
LINE
  8
0
 10
89.5355
 20
5.68585
 11
89.5924
 21
5.63168
  0
LINE
  8
0
 10
89.5924
 20
5.63168
 11
89.6465
 21
5.57478
  0
LINE
  8
0
 10
89.6465
 20
5.57478
 11
89.6979
 21
5.5153
  0
LINE
  8
0
 10
89.6979
 20
5.5153
 11
89.7462
 21
5.45338
  0
LINE
  8
0
 10
89.7462
 20
5.45338
 11
89.7914
 21
5.38916
  0
LINE
  8
0
 10
89.7914
 20
5.38916
 11
89.8335
 21
5.32278
  0
LINE
  8
0
 10
89.8335
 20
5.32278
 11
89.8722
 21
5.25444
  0
LINE
  8
0
 10
89.8722
 20
5.25444
 11
89.9075
 21
5.18428
  0
LINE
  8
0
 10
89.9075
 20
5.18428
 11
89.9393
 21
5.11246
  0
LINE
  8
0
 10
89.9393
 20
5.11246
 11
89.9676
 21
5.03917
  0
LINE
  8
0
 10
89.9676
 20
5.03917
 11
89.9922
 21
4.96458
  0
LINE
  8
0
 10
89.9922
 20
4.96458
 11
90.0132
 21
4.88887
  0
LINE
  8
0
 10
90.0132
 20
4.88887
 11
90.0304
 21
4.81223
  0
LINE
  8
0
 10
90.0304
 20
4.81223
 11
90.0438
 21
4.73483
  0
LINE
  8
0
 10
90.0438
 20
4.73483
 11
90.0534
 21
4.65686
  0
LINE
  8
0
 10
90.0534
 20
4.65686
 11
90.0592
 21
4.57852
  0
LINE
  8
0
 10
90.0592
 20
4.57852
 11
90.0611
 21
4.5
  0
LINE
  8
0
 10
90.0611
 20
4.5
 11
90.0592
 21
4.42146
  0
LINE
  8
0
 10
90.0592
 20
141.756
 11
90.0534
 21
141.678
  0
LINE
  8
0
 10
90.0534
 20
141.678
 11
90.0438
 21
141.6
  0
LINE
  8
0
 10
90.0438
 20
141.6
 11
90.0304
 21
141.523
  0
LINE
  8
0
 10
90.0304
 20
141.523
 11
90.0132
 21
141.446
  0
LINE
  8
0
 10
90.0132
 20
141.446
 11
89.9922
 21
141.37
  0
LINE
  8
0
 10
89.9922
 20
141.37
 11
89.9676
 21
141.296
  0
LINE
  8
0
 10
89.9676
 20
141.296
 11
89.9393
 21
141.222
  0
LINE
  8
0
 10
89.9393
 20
141.222
 11
89.9075
 21
141.151
  0
LINE
  8
0
 10
89.9075
 20
141.151
 11
89.8722
 21
141.08
  0
LINE
  8
0
 10
89.8722
 20
141.08
 11
89.8335
 21
141.012
  0
LINE
  8
0
 10
89.8335
 20
141.012
 11
89.7914
 21
140.946
  0
LINE
  8
0
 10
89.7914
 20
140.946
 11
89.7462
 21
140.881
  0
LINE
  8
0
 10
89.7462
 20
140.881
 11
89.6979
 21
140.819
  0
LINE
  8
0
 10
89.6979
 20
140.819
 11
89.6465
 21
140.76
  0
LINE
  8
0
 10
89.6465
 20
140.76
 11
89.5924
 21
140.703
  0
LINE
  8
0
 10
89.5924
 20
140.703
 11
89.5355
 21
140.649
  0
LINE
  8
0
 10
89.5355
 20
140.649
 11
89.476
 21
140.598
  0
LINE
  8
0
 10
89.476
 20
140.598
 11
89.4141
 21
140.549
  0
LINE
  8
0
 10
89.4141
 20
140.549
 11
89.3499
 21
140.504
  0
LINE
  8
0
 10
89.3499
 20
140.504
 11
89.2835
 21
140.462
  0
LINE
  8
0
 10
89.2835
 20
140.462
 11
89.2151
 21
140.423
  0
LINE
  8
0
 10
89.2151
 20
140.423
 11
89.145
 21
140.388
  0
LINE
  8
0
 10
89.145
 20
140.388
 11
89.0732
 21
140.356
  0
LINE
  8
0
 10
89.0732
 20
140.356
 11
88.9999
 21
140.328
  0
LINE
  8
0
 10
88.9999
 20
140.328
 11
88.9253
 21
140.303
  0
LINE
  8
0
 10
88.9253
 20
140.303
 11
88.8496
 21
140.282
  0
LINE
  8
0
 10
88.8496
 20
140.282
 11
88.7729
 21
140.265
  0
LINE
  8
0
 10
88.7729
 20
140.265
 11
88.6955
 21
140.252
  0
LINE
  8
0
 10
88.6955
 20
140.252
 11
88.6176
 21
140.242
  0
LINE
  8
0
 10
88.6176
 20
140.242
 11
88.5392
 21
140.236
  0
LINE
  8
0
 10
88.5392
 20
140.236
 11
88.4607
 21
140.234
  0
LINE
  8
0
 10
88.4607
 20
140.234
 11
88.3822
 21
140.236
  0
LINE
  8
0
 10
88.3822
 20
140.236
 11
88.3038
 21
140.242
  0
LINE
  8
0
 10
88.3038
 20
140.242
 11
88.2259
 21
140.252
  0
LINE
  8
0
 10
88.2259
 20
140.252
 11
88.1485
 21
140.265
  0
LINE
  8
0
 10
88.1485
 20
140.265
 11
88.0718
 21
140.282
  0
LINE
  8
0
 10
88.0718
 20
140.282
 11
87.9961
 21
140.303
  0
LINE
  8
0
 10
87.9961
 20
140.303
 11
87.9215
 21
140.328
  0
LINE
  8
0
 10
87.9215
 20
140.328
 11
87.8482
 21
140.356
  0
LINE
  8
0
 10
87.8482
 20
140.356
 11
87.7764
 21
140.388
  0
LINE
  8
0
 10
87.7764
 20
140.388
 11
87.7063
 21
140.423
  0
LINE
  8
0
 10
87.7063
 20
140.423
 11
87.6379
 21
140.462
  0
LINE
  8
0
 10
87.6379
 20
140.462
 11
87.5715
 21
140.504
  0
LINE
  8
0
 10
87.5715
 20
140.504
 11
87.5073
 21
140.549
  0
LINE
  8
0
 10
87.5073
 20
140.549
 11
87.4454
 21
140.598
  0
LINE
  8
0
 10
87.4454
 20
140.598
 11
87.3859
 21
140.649
  0
LINE
  8
0
 10
87.3859
 20
140.649
 11
87.329
 21
140.703
  0
LINE
  8
0
 10
87.329
 20
140.703
 11
87.2748
 21
140.76
  0
LINE
  8
0
 10
87.2748
 20
140.76
 11
87.2235
 21
140.819
  0
LINE
  8
0
 10
87.2235
 20
140.819
 11
87.1752
 21
140.881
  0
LINE
  8
0
 10
87.1752
 20
140.881
 11
87.13
 21
140.946
  0
LINE
  8
0
 10
87.13
 20
140.946
 11
87.0879
 21
141.012
  0
LINE
  8
0
 10
87.0879
 20
141.012
 11
87.0492
 21
141.08
  0
LINE
  8
0
 10
87.0492
 20
141.08
 11
87.0139
 21
141.151
  0
LINE
  8
0
 10
87.0139
 20
141.151
 11
86.9821
 21
141.222
  0
LINE
  8
0
 10
86.9821
 20
141.222
 11
86.9538
 21
141.296
  0
LINE
  8
0
 10
86.9538
 20
141.296
 11
86.9292
 21
141.37
  0
LINE
  8
0
 10
86.9292
 20
141.37
 11
86.9082
 21
141.446
  0
LINE
  8
0
 10
86.9082
 20
141.446
 11
86.891
 21
141.523
  0
LINE
  8
0
 10
86.891
 20
141.523
 11
86.8776
 21
141.6
  0
LINE
  8
0
 10
86.8776
 20
141.6
 11
86.868
 21
141.678
  0
LINE
  8
0
 10
86.868
 20
141.678
 11
86.8622
 21
141.756
  0
LINE
  8
0
 10
86.8622
 20
141.756
 11
86.8602
 21
141.835
  0
LINE
  8
0
 10
86.8602
 20
141.835
 11
86.8622
 21
141.913
  0
LINE
  8
0
 10
86.8622
 20
141.913
 11
86.868
 21
141.992
  0
LINE
  8
0
 10
86.868
 20
141.992
 11
86.8776
 21
142.07
  0
LINE
  8
0
 10
86.8776
 20
142.07
 11
86.891
 21
142.147
  0
LINE
  8
0
 10
86.891
 20
142.147
 11
86.9082
 21
142.224
  0
LINE
  8
0
 10
86.9082
 20
142.224
 11
86.9292
 21
142.299
  0
LINE
  8
0
 10
86.9292
 20
142.299
 11
86.9538
 21
142.374
  0
LINE
  8
0
 10
86.9538
 20
142.374
 11
86.9821
 21
142.447
  0
LINE
  8
0
 10
86.9821
 20
142.447
 11
87.0139
 21
142.519
  0
LINE
  8
0
 10
87.0139
 20
142.519
 11
87.0492
 21
142.589
  0
LINE
  8
0
 10
87.0492
 20
142.589
 11
87.0879
 21
142.658
  0
LINE
  8
0
 10
87.0879
 20
142.658
 11
87.13
 21
142.724
  0
LINE
  8
0
 10
87.13
 20
142.724
 11
87.1752
 21
142.788
  0
LINE
  8
0
 10
87.1752
 20
142.788
 11
87.2235
 21
142.85
  0
LINE
  8
0
 10
87.2235
 20
142.85
 11
87.2748
 21
142.91
  0
LINE
  8
0
 10
87.2748
 20
142.91
 11
87.329
 21
142.966
  0
LINE
  8
0
 10
87.329
 20
142.966
 11
87.3859
 21
143.021
  0
LINE
  8
0
 10
87.3859
 20
143.021
 11
87.4454
 21
143.072
  0
LINE
  8
0
 10
87.4454
 20
143.072
 11
87.5073
 21
143.12
  0
LINE
  8
0
 10
87.5073
 20
143.12
 11
87.5715
 21
143.166
  0
LINE
  8
0
 10
87.5715
 20
143.166
 11
87.6379
 21
143.208
  0
LINE
  8
0
 10
87.6379
 20
143.208
 11
87.7063
 21
143.246
  0
LINE
  8
0
 10
87.7063
 20
143.246
 11
87.7764
 21
143.282
  0
LINE
  8
0
 10
87.7764
 20
143.282
 11
87.8482
 21
143.313
  0
LINE
  8
0
 10
87.8482
 20
143.313
 11
87.9215
 21
143.342
  0
LINE
  8
0
 10
87.9215
 20
143.342
 11
87.9961
 21
143.366
  0
LINE
  8
0
 10
87.9961
 20
143.366
 11
88.0718
 21
143.387
  0
LINE
  8
0
 10
88.0718
 20
143.387
 11
88.1485
 21
143.404
  0
LINE
  8
0
 10
88.1485
 20
143.404
 11
88.2259
 21
143.418
  0
LINE
  8
0
 10
88.2259
 20
143.418
 11
88.3038
 21
143.428
  0
LINE
  8
0
 10
88.3038
 20
143.428
 11
88.3822
 21
143.433
  0
LINE
  8
0
 10
88.3822
 20
143.433
 11
88.4607
 21
143.435
  0
LINE
  8
0
 10
88.4607
 20
143.435
 11
88.5392
 21
143.433
  0
LINE
  8
0
 10
88.5392
 20
143.433
 11
88.6176
 21
143.428
  0
LINE
  8
0
 10
88.6176
 20
143.428
 11
88.6955
 21
143.418
  0
LINE
  8
0
 10
88.6955
 20
143.418
 11
88.7729
 21
143.404
  0
LINE
  8
0
 10
88.7729
 20
143.404
 11
88.8496
 21
143.387
  0
LINE
  8
0
 10
88.8496
 20
143.387
 11
88.9253
 21
143.366
  0
LINE
  8
0
 10
88.9253
 20
143.366
 11
88.9999
 21
143.342
  0
LINE
  8
0
 10
88.9999
 20
143.342
 11
89.0732
 21
143.313
  0
LINE
  8
0
 10
89.0732
 20
143.313
 11
89.145
 21
143.282
  0
LINE
  8
0
 10
89.145
 20
143.282
 11
89.2151
 21
143.246
  0
LINE
  8
0
 10
89.2151
 20
143.246
 11
89.2835
 21
143.208
  0
LINE
  8
0
 10
89.2835
 20
143.208
 11
89.3499
 21
143.166
  0
LINE
  8
0
 10
89.3499
 20
143.166
 11
89.4141
 21
143.12
  0
LINE
  8
0
 10
89.4141
 20
143.12
 11
89.476
 21
143.072
  0
LINE
  8
0
 10
89.476
 20
143.072
 11
89.5355
 21
143.021
  0
LINE
  8
0
 10
89.5355
 20
143.021
 11
89.5924
 21
142.966
  0
LINE
  8
0
 10
89.5924
 20
142.966
 11
89.6465
 21
142.91
  0
LINE
  8
0
 10
89.6465
 20
142.91
 11
89.6979
 21
142.85
  0
LINE
  8
0
 10
89.6979
 20
142.85
 11
89.7462
 21
142.788
  0
LINE
  8
0
 10
89.7462
 20
142.788
 11
89.7914
 21
142.724
  0
LINE
  8
0
 10
89.7914
 20
142.724
 11
89.8335
 21
142.658
  0
LINE
  8
0
 10
89.8335
 20
142.658
 11
89.8722
 21
142.589
  0
LINE
  8
0
 10
89.8722
 20
142.589
 11
89.9075
 21
142.519
  0
LINE
  8
0
 10
89.9075
 20
142.519
 11
89.9393
 21
142.447
  0
LINE
  8
0
 10
89.9393
 20
142.447
 11
89.9676
 21
142.374
  0
LINE
  8
0
 10
89.9676
 20
142.374
 11
89.9922
 21
142.299
  0
LINE
  8
0
 10
89.9922
 20
142.299
 11
90.0132
 21
142.224
  0
LINE
  8
0
 10
90.0132
 20
142.224
 11
90.0304
 21
142.147
  0
LINE
  8
0
 10
90.0304
 20
142.147
 11
90.0438
 21
142.07
  0
LINE
  8
0
 10
90.0438
 20
142.07
 11
90.0534
 21
141.992
  0
LINE
  8
0
 10
90.0534
 20
141.992
 11
90.0592
 21
141.913
  0
LINE
  8
0
 10
90.0592
 20
141.913
 11
90.0611
 21
141.835
  0
LINE
  8
0
 10
90.0611
 20
141.835
 11
90.0592
 21
141.756
  0
LINE
  8
0
 10
105.621
 20
13.2648
 11
102.121
 21
9.76479
  0
LINE
  8
0
 10
102.121
 20
9.76479
 11
95.1207
 21
9.76479
  0
LINE
  8
0
 10
95.1207
 20
9.76479
 11
91.6207
 21
13.2648
  0
LINE
  8
0
 10
91.6207
 20
13.2648
 11
91.6207
 21
117.53
  0
LINE
  8
0
 10
91.6207
 20
117.53
 11
105.621
 21
117.53
  0
LINE
  8
0
 10
105.621
 20
117.53
 11
105.621
 21
13.2648
  0
LINE
  8
0
 10
110.379
 20
4.42146
 11
110.373
 21
4.34312
  0
LINE
  8
0
 10
110.373
 20
4.34312
 11
110.364
 21
4.26515
  0
LINE
  8
0
 10
110.364
 20
4.26515
 11
110.35
 21
4.18776
  0
LINE
  8
0
 10
110.35
 20
4.18776
 11
110.333
 21
4.11111
  0
LINE
  8
0
 10
110.333
 20
4.11111
 11
110.312
 21
4.0354
  0
LINE
  8
0
 10
110.312
 20
4.0354
 11
110.288
 21
3.96082
  0
LINE
  8
0
 10
110.288
 20
3.96082
 11
110.259
 21
3.88753
  0
LINE
  8
0
 10
110.259
 20
3.88753
 11
110.227
 21
3.8157
  0
LINE
  8
0
 10
110.227
 20
3.8157
 11
110.192
 21
3.74554
  0
LINE
  8
0
 10
110.192
 20
3.74554
 11
110.153
 21
3.6772
  0
LINE
  8
0
 10
110.153
 20
3.6772
 11
110.111
 21
3.61082
  0
LINE
  8
0
 10
110.111
 20
3.61082
 11
110.066
 21
3.5466
  0
LINE
  8
0
 10
110.066
 20
3.5466
 11
110.018
 21
3.48468
  0
LINE
  8
0
 10
110.018
 20
3.48468
 11
109.967
 21
3.4252
  0
LINE
  8
0
 10
109.967
 20
3.4252
 11
109.912
 21
3.3683
  0
LINE
  8
0
 10
109.912
 20
3.3683
 11
109.855
 21
3.31413
  0
LINE
  8
0
 10
109.855
 20
3.31413
 11
109.796
 21
3.26283
  0
LINE
  8
0
 10
109.796
 20
3.26283
 11
109.734
 21
3.21449
  0
LINE
  8
0
 10
109.734
 20
3.21449
 11
109.67
 21
3.16927
  0
LINE
  8
0
 10
109.67
 20
3.16927
 11
109.603
 21
3.12724
  0
LINE
  8
0
 10
109.603
 20
3.12724
 11
109.535
 21
3.08852
  0
LINE
  8
0
 10
109.535
 20
3.08852
 11
109.465
 21
3.05321
  0
LINE
  8
0
 10
109.465
 20
3.05321
 11
109.393
 21
3.02136
  0
LINE
  8
0
 10
109.393
 20
3.02136
 11
109.32
 21
2.9931
  0
LINE
  8
0
 10
109.32
 20
2.9931
 11
109.245
 21
2.96846
  0
LINE
  8
0
 10
109.245
 20
2.96846
 11
109.17
 21
2.94751
  0
LINE
  8
0
 10
109.17
 20
2.94751
 11
109.093
 21
2.9303
  0
LINE
  8
0
 10
109.093
 20
2.9303
 11
109.016
 21
2.91687
  0
LINE
  8
0
 10
109.016
 20
2.91687
 11
108.938
 21
2.90724
  0
LINE
  8
0
 10
108.938
 20
2.90724
 11
108.859
 21
2.90147
  0
LINE
  8
0
 10
108.859
 20
2.90147
 11
108.781
 21
2.89954
  0
LINE
  8
0
 10
108.781
 20
2.89954
 11
108.702
 21
2.90147
  0
LINE
  8
0
 10
108.702
 20
2.90147
 11
108.624
 21
2.90724
  0
LINE
  8
0
 10
108.624
 20
2.90724
 11
108.546
 21
2.91687
  0
LINE
  8
0
 10
108.546
 20
2.91687
 11
108.468
 21
2.9303
  0
LINE
  8
0
 10
108.468
 20
2.9303
 11
108.392
 21
2.94751
  0
LINE
  8
0
 10
108.392
 20
2.94751
 11
108.316
 21
2.96846
  0
LINE
  8
0
 10
108.316
 20
2.96846
 11
108.242
 21
2.9931
  0
LINE
  8
0
 10
108.242
 20
2.9931
 11
108.168
 21
3.02136
  0
LINE
  8
0
 10
108.168
 20
3.02136
 11
108.096
 21
3.05321
  0
LINE
  8
0
 10
108.096
 20
3.05321
 11
108.026
 21
3.08852
  0
LINE
  8
0
 10
108.026
 20
3.08852
 11
107.958
 21
3.12724
  0
LINE
  8
0
 10
107.958
 20
3.12724
 11
107.892
 21
3.16927
  0
LINE
  8
0
 10
107.892
 20
3.16927
 11
107.827
 21
3.21449
  0
LINE
  8
0
 10
107.827
 20
3.21449
 11
107.765
 21
3.26283
  0
LINE
  8
0
 10
107.765
 20
3.26283
 11
107.706
 21
3.31413
  0
LINE
  8
0
 10
107.706
 20
3.31413
 11
107.649
 21
3.3683
  0
LINE
  8
0
 10
107.649
 20
3.3683
 11
107.595
 21
3.4252
  0
LINE
  8
0
 10
107.595
 20
3.4252
 11
107.544
 21
3.48468
  0
LINE
  8
0
 10
107.544
 20
3.48468
 11
107.495
 21
3.5466
  0
LINE
  8
0
 10
107.495
 20
3.5466
 11
107.45
 21
3.61082
  0
LINE
  8
0
 10
107.45
 20
3.61082
 11
107.408
 21
3.6772
  0
LINE
  8
0
 10
107.408
 20
3.6772
 11
107.369
 21
3.74554
  0
LINE
  8
0
 10
107.369
 20
3.74554
 11
107.334
 21
3.8157
  0
LINE
  8
0
 10
107.334
 20
3.8157
 11
107.302
 21
3.88753
  0
LINE
  8
0
 10
107.302
 20
3.88753
 11
107.274
 21
3.96082
  0
LINE
  8
0
 10
107.274
 20
3.96082
 11
107.249
 21
4.0354
  0
LINE
  8
0
 10
107.249
 20
4.0354
 11
107.228
 21
4.11111
  0
LINE
  8
0
 10
107.228
 20
4.11111
 11
107.211
 21
4.18776
  0
LINE
  8
0
 10
107.211
 20
4.18776
 11
107.198
 21
4.26515
  0
LINE
  8
0
 10
107.198
 20
4.26515
 11
107.188
 21
4.34312
  0
LINE
  8
0
 10
107.188
 20
4.34312
 11
107.182
 21
4.42146
  0
LINE
  8
0
 10
107.182
 20
4.42146
 11
107.18
 21
4.5
  0
LINE
  8
0
 10
107.18
 20
4.5
 11
107.182
 21
4.57852
  0
LINE
  8
0
 10
107.182
 20
4.57852
 11
107.188
 21
4.65686
  0
LINE
  8
0
 10
107.188
 20
4.65686
 11
107.198
 21
4.73483
  0
LINE
  8
0
 10
107.198
 20
4.73483
 11
107.211
 21
4.81223
  0
LINE
  8
0
 10
107.211
 20
4.81223
 11
107.228
 21
4.88887
  0
LINE
  8
0
 10
107.228
 20
4.88887
 11
107.249
 21
4.96458
  0
LINE
  8
0
 10
107.249
 20
4.96458
 11
107.274
 21
5.03917
  0
LINE
  8
0
 10
107.274
 20
5.03917
 11
107.302
 21
5.11246
  0
LINE
  8
0
 10
107.302
 20
5.11246
 11
107.334
 21
5.18428
  0
LINE
  8
0
 10
107.334
 20
5.18428
 11
107.369
 21
5.25444
  0
LINE
  8
0
 10
107.369
 20
5.25444
 11
107.408
 21
5.32278
  0
LINE
  8
0
 10
107.408
 20
5.32278
 11
107.45
 21
5.38916
  0
LINE
  8
0
 10
107.45
 20
5.38916
 11
107.495
 21
5.45338
  0
LINE
  8
0
 10
107.495
 20
5.45338
 11
107.544
 21
5.5153
  0
LINE
  8
0
 10
107.544
 20
5.5153
 11
107.595
 21
5.57478
  0
LINE
  8
0
 10
107.595
 20
5.57478
 11
107.649
 21
5.63168
  0
LINE
  8
0
 10
107.649
 20
5.63168
 11
107.706
 21
5.68585
  0
LINE
  8
0
 10
107.706
 20
5.68585
 11
107.765
 21
5.73715
  0
LINE
  8
0
 10
107.765
 20
5.73715
 11
107.827
 21
5.78549
  0
LINE
  8
0
 10
107.827
 20
5.78549
 11
107.892
 21
5.83072
  0
LINE
  8
0
 10
107.892
 20
5.83072
 11
107.958
 21
5.87274
  0
LINE
  8
0
 10
107.958
 20
5.87274
 11
108.026
 21
5.91147
  0
LINE
  8
0
 10
108.026
 20
5.91147
 11
108.096
 21
5.94678
  0
LINE
  8
0
 10
108.096
 20
5.94678
 11
108.168
 21
5.97862
  0
LINE
  8
0
 10
108.168
 20
5.97862
 11
108.242
 21
6.00688
  0
LINE
  8
0
 10
108.242
 20
6.00688
 11
108.316
 21
6.03152
  0
LINE
  8
0
 10
108.316
 20
6.03152
 11
108.392
 21
6.05247
  0
LINE
  8
0
 10
108.392
 20
6.05247
 11
108.468
 21
6.06969
  0
LINE
  8
0
 10
108.468
 20
6.06969
 11
108.546
 21
6.08311
  0
LINE
  8
0
 10
108.546
 20
6.08311
 11
108.624
 21
6.09274
  0
LINE
  8
0
 10
108.624
 20
6.09274
 11
108.702
 21
6.09851
  0
LINE
  8
0
 10
108.702
 20
6.09851
 11
108.781
 21
6.10045
  0
LINE
  8
0
 10
108.781
 20
6.10045
 11
108.859
 21
6.09851
  0
LINE
  8
0
 10
108.859
 20
6.09851
 11
108.938
 21
6.09274
  0
LINE
  8
0
 10
108.938
 20
6.09274
 11
109.016
 21
6.08311
  0
LINE
  8
0
 10
109.016
 20
6.08311
 11
109.093
 21
6.06969
  0
LINE
  8
0
 10
109.093
 20
6.06969
 11
109.17
 21
6.05247
  0
LINE
  8
0
 10
109.17
 20
6.05247
 11
109.245
 21
6.03152
  0
LINE
  8
0
 10
109.245
 20
6.03152
 11
109.32
 21
6.00688
  0
LINE
  8
0
 10
109.32
 20
6.00688
 11
109.393
 21
5.97862
  0
LINE
  8
0
 10
109.393
 20
5.97862
 11
109.465
 21
5.94678
  0
LINE
  8
0
 10
109.465
 20
5.94678
 11
109.535
 21
5.91147
  0
LINE
  8
0
 10
109.535
 20
5.91147
 11
109.603
 21
5.87274
  0
LINE
  8
0
 10
109.603
 20
5.87274
 11
109.67
 21
5.83072
  0
LINE
  8
0
 10
109.67
 20
5.83072
 11
109.734
 21
5.78549
  0
LINE
  8
0
 10
109.734
 20
5.78549
 11
109.796
 21
5.73715
  0
LINE
  8
0
 10
109.796
 20
5.73715
 11
109.855
 21
5.68585
  0
LINE
  8
0
 10
109.855
 20
5.68585
 11
109.912
 21
5.63168
  0
LINE
  8
0
 10
109.912
 20
5.63168
 11
109.967
 21
5.57478
  0
LINE
  8
0
 10
109.967
 20
5.57478
 11
110.018
 21
5.5153
  0
LINE
  8
0
 10
110.018
 20
5.5153
 11
110.066
 21
5.45338
  0
LINE
  8
0
 10
110.066
 20
5.45338
 11
110.111
 21
5.38916
  0
LINE
  8
0
 10
110.111
 20
5.38916
 11
110.153
 21
5.32278
  0
LINE
  8
0
 10
110.153
 20
5.32278
 11
110.192
 21
5.25444
  0
LINE
  8
0
 10
110.192
 20
5.25444
 11
110.227
 21
5.18428
  0
LINE
  8
0
 10
110.227
 20
5.18428
 11
110.259
 21
5.11246
  0
LINE
  8
0
 10
110.259
 20
5.11246
 11
110.288
 21
5.03917
  0
LINE
  8
0
 10
110.288
 20
5.03917
 11
110.312
 21
4.96458
  0
LINE
  8
0
 10
110.312
 20
4.96458
 11
110.333
 21
4.88887
  0
LINE
  8
0
 10
110.333
 20
4.88887
 11
110.35
 21
4.81223
  0
LINE
  8
0
 10
110.35
 20
4.81223
 11
110.364
 21
4.73483
  0
LINE
  8
0
 10
110.364
 20
4.73483
 11
110.373
 21
4.65686
  0
LINE
  8
0
 10
110.373
 20
4.65686
 11
110.379
 21
4.57852
  0
LINE
  8
0
 10
110.379
 20
4.57852
 11
110.381
 21
4.5
  0
LINE
  8
0
 10
110.381
 20
4.5
 11
110.379
 21
4.42146
  0
LINE
  8
0
 10
110.379
 20
141.756
 11
110.373
 21
141.678
  0
LINE
  8
0
 10
110.373
 20
141.678
 11
110.364
 21
141.6
  0
LINE
  8
0
 10
110.364
 20
141.6
 11
110.35
 21
141.523
  0
LINE
  8
0
 10
110.35
 20
141.523
 11
110.333
 21
141.446
  0
LINE
  8
0
 10
110.333
 20
141.446
 11
110.312
 21
141.37
  0
LINE
  8
0
 10
110.312
 20
141.37
 11
110.288
 21
141.296
  0
LINE
  8
0
 10
110.288
 20
141.296
 11
110.259
 21
141.222
  0
LINE
  8
0
 10
110.259
 20
141.222
 11
110.227
 21
141.151
  0
LINE
  8
0
 10
110.227
 20
141.151
 11
110.192
 21
141.08
  0
LINE
  8
0
 10
110.192
 20
141.08
 11
110.153
 21
141.012
  0
LINE
  8
0
 10
110.153
 20
141.012
 11
110.111
 21
140.946
  0
LINE
  8
0
 10
110.111
 20
140.946
 11
110.066
 21
140.881
  0
LINE
  8
0
 10
110.066
 20
140.881
 11
110.018
 21
140.819
  0
LINE
  8
0
 10
110.018
 20
140.819
 11
109.967
 21
140.76
  0
LINE
  8
0
 10
109.967
 20
140.76
 11
109.912
 21
140.703
  0
LINE
  8
0
 10
109.912
 20
140.703
 11
109.855
 21
140.649
  0
LINE
  8
0
 10
109.855
 20
140.649
 11
109.796
 21
140.598
  0
LINE
  8
0
 10
109.796
 20
140.598
 11
109.734
 21
140.549
  0
LINE
  8
0
 10
109.734
 20
140.549
 11
109.67
 21
140.504
  0
LINE
  8
0
 10
109.67
 20
140.504
 11
109.603
 21
140.462
  0
LINE
  8
0
 10
109.603
 20
140.462
 11
109.535
 21
140.423
  0
LINE
  8
0
 10
109.535
 20
140.423
 11
109.465
 21
140.388
  0
LINE
  8
0
 10
109.465
 20
140.388
 11
109.393
 21
140.356
  0
LINE
  8
0
 10
109.393
 20
140.356
 11
109.32
 21
140.328
  0
LINE
  8
0
 10
109.32
 20
140.328
 11
109.245
 21
140.303
  0
LINE
  8
0
 10
109.245
 20
140.303
 11
109.17
 21
140.282
  0
LINE
  8
0
 10
109.17
 20
140.282
 11
109.093
 21
140.265
  0
LINE
  8
0
 10
109.093
 20
140.265
 11
109.016
 21
140.252
  0
LINE
  8
0
 10
109.016
 20
140.252
 11
108.938
 21
140.242
  0
LINE
  8
0
 10
108.938
 20
140.242
 11
108.859
 21
140.236
  0
LINE
  8
0
 10
108.859
 20
140.236
 11
108.781
 21
140.234
  0
LINE
  8
0
 10
108.781
 20
140.234
 11
108.702
 21
140.236
  0
LINE
  8
0
 10
108.702
 20
140.236
 11
108.624
 21
140.242
  0
LINE
  8
0
 10
108.624
 20
140.242
 11
108.546
 21
140.252
  0
LINE
  8
0
 10
108.546
 20
140.252
 11
108.468
 21
140.265
  0
LINE
  8
0
 10
108.468
 20
140.265
 11
108.392
 21
140.282
  0
LINE
  8
0
 10
108.392
 20
140.282
 11
108.316
 21
140.303
  0
LINE
  8
0
 10
108.316
 20
140.303
 11
108.242
 21
140.328
  0
LINE
  8
0
 10
108.242
 20
140.328
 11
108.168
 21
140.356
  0
LINE
  8
0
 10
108.168
 20
140.356
 11
108.096
 21
140.388
  0
LINE
  8
0
 10
108.096
 20
140.388
 11
108.026
 21
140.423
  0
LINE
  8
0
 10
108.026
 20
140.423
 11
107.958
 21
140.462
  0
LINE
  8
0
 10
107.958
 20
140.462
 11
107.892
 21
140.504
  0
LINE
  8
0
 10
107.892
 20
140.504
 11
107.827
 21
140.549
  0
LINE
  8
0
 10
107.827
 20
140.549
 11
107.765
 21
140.598
  0
LINE
  8
0
 10
107.765
 20
140.598
 11
107.706
 21
140.649
  0
LINE
  8
0
 10
107.706
 20
140.649
 11
107.649
 21
140.703
  0
LINE
  8
0
 10
107.649
 20
140.703
 11
107.595
 21
140.76
  0
LINE
  8
0
 10
107.595
 20
140.76
 11
107.544
 21
140.819
  0
LINE
  8
0
 10
107.544
 20
140.819
 11
107.495
 21
140.881
  0
LINE
  8
0
 10
107.495
 20
140.881
 11
107.45
 21
140.946
  0
LINE
  8
0
 10
107.45
 20
140.946
 11
107.408
 21
141.012
  0
LINE
  8
0
 10
107.408
 20
141.012
 11
107.369
 21
141.08
  0
LINE
  8
0
 10
107.369
 20
141.08
 11
107.334
 21
141.151
  0
LINE
  8
0
 10
107.334
 20
141.151
 11
107.302
 21
141.222
  0
LINE
  8
0
 10
107.302
 20
141.222
 11
107.274
 21
141.296
  0
LINE
  8
0
 10
107.274
 20
141.296
 11
107.249
 21
141.37
  0
LINE
  8
0
 10
107.249
 20
141.37
 11
107.228
 21
141.446
  0
LINE
  8
0
 10
107.228
 20
141.446
 11
107.211
 21
141.523
  0
LINE
  8
0
 10
107.211
 20
141.523
 11
107.198
 21
141.6
  0
LINE
  8
0
 10
107.198
 20
141.6
 11
107.188
 21
141.678
  0
LINE
  8
0
 10
107.188
 20
141.678
 11
107.182
 21
141.756
  0
LINE
  8
0
 10
107.182
 20
141.756
 11
107.18
 21
141.835
  0
LINE
  8
0
 10
107.18
 20
141.835
 11
107.182
 21
141.913
  0
LINE
  8
0
 10
107.182
 20
141.913
 11
107.188
 21
141.992
  0
LINE
  8
0
 10
107.188
 20
141.992
 11
107.198
 21
142.07
  0
LINE
  8
0
 10
107.198
 20
142.07
 11
107.211
 21
142.147
  0
LINE
  8
0
 10
107.211
 20
142.147
 11
107.228
 21
142.224
  0
LINE
  8
0
 10
107.228
 20
142.224
 11
107.249
 21
142.299
  0
LINE
  8
0
 10
107.249
 20
142.299
 11
107.274
 21
142.374
  0
LINE
  8
0
 10
107.274
 20
142.374
 11
107.302
 21
142.447
  0
LINE
  8
0
 10
107.302
 20
142.447
 11
107.334
 21
142.519
  0
LINE
  8
0
 10
107.334
 20
142.519
 11
107.369
 21
142.589
  0
LINE
  8
0
 10
107.369
 20
142.589
 11
107.408
 21
142.658
  0
LINE
  8
0
 10
107.408
 20
142.658
 11
107.45
 21
142.724
  0
LINE
  8
0
 10
107.45
 20
142.724
 11
107.495
 21
142.788
  0
LINE
  8
0
 10
107.495
 20
142.788
 11
107.544
 21
142.85
  0
LINE
  8
0
 10
107.544
 20
142.85
 11
107.595
 21
142.91
  0
LINE
  8
0
 10
107.595
 20
142.91
 11
107.649
 21
142.966
  0
LINE
  8
0
 10
107.649
 20
142.966
 11
107.706
 21
143.021
  0
LINE
  8
0
 10
107.706
 20
143.021
 11
107.765
 21
143.072
  0
LINE
  8
0
 10
107.765
 20
143.072
 11
107.827
 21
143.12
  0
LINE
  8
0
 10
107.827
 20
143.12
 11
107.892
 21
143.166
  0
LINE
  8
0
 10
107.892
 20
143.166
 11
107.958
 21
143.208
  0
LINE
  8
0
 10
107.958
 20
143.208
 11
108.026
 21
143.246
  0
LINE
  8
0
 10
108.026
 20
143.246
 11
108.096
 21
143.282
  0
LINE
  8
0
 10
108.096
 20
143.282
 11
108.168
 21
143.313
  0
LINE
  8
0
 10
108.168
 20
143.313
 11
108.242
 21
143.342
  0
LINE
  8
0
 10
108.242
 20
143.342
 11
108.316
 21
143.366
  0
LINE
  8
0
 10
108.316
 20
143.366
 11
108.392
 21
143.387
  0
LINE
  8
0
 10
108.392
 20
143.387
 11
108.468
 21
143.404
  0
LINE
  8
0
 10
108.468
 20
143.404
 11
108.546
 21
143.418
  0
LINE
  8
0
 10
108.546
 20
143.418
 11
108.624
 21
143.428
  0
LINE
  8
0
 10
108.624
 20
143.428
 11
108.702
 21
143.433
  0
LINE
  8
0
 10
108.702
 20
143.433
 11
108.781
 21
143.435
  0
LINE
  8
0
 10
108.781
 20
143.435
 11
108.859
 21
143.433
  0
LINE
  8
0
 10
108.859
 20
143.433
 11
108.938
 21
143.428
  0
LINE
  8
0
 10
108.938
 20
143.428
 11
109.016
 21
143.418
  0
LINE
  8
0
 10
109.016
 20
143.418
 11
109.093
 21
143.404
  0
LINE
  8
0
 10
109.093
 20
143.404
 11
109.17
 21
143.387
  0
LINE
  8
0
 10
109.17
 20
143.387
 11
109.245
 21
143.366
  0
LINE
  8
0
 10
109.245
 20
143.366
 11
109.32
 21
143.342
  0
LINE
  8
0
 10
109.32
 20
143.342
 11
109.393
 21
143.313
  0
LINE
  8
0
 10
109.393
 20
143.313
 11
109.465
 21
143.282
  0
LINE
  8
0
 10
109.465
 20
143.282
 11
109.535
 21
143.246
  0
LINE
  8
0
 10
109.535
 20
143.246
 11
109.603
 21
143.208
  0
LINE
  8
0
 10
109.603
 20
143.208
 11
109.67
 21
143.166
  0
LINE
  8
0
 10
109.67
 20
143.166
 11
109.734
 21
143.12
  0
LINE
  8
0
 10
109.734
 20
143.12
 11
109.796
 21
143.072
  0
LINE
  8
0
 10
109.796
 20
143.072
 11
109.855
 21
143.021
  0
LINE
  8
0
 10
109.855
 20
143.021
 11
109.912
 21
142.966
  0
LINE
  8
0
 10
109.912
 20
142.966
 11
109.967
 21
142.91
  0
LINE
  8
0
 10
109.967
 20
142.91
 11
110.018
 21
142.85
  0
LINE
  8
0
 10
110.018
 20
142.85
 11
110.066
 21
142.788
  0
LINE
  8
0
 10
110.066
 20
142.788
 11
110.111
 21
142.724
  0
LINE
  8
0
 10
110.111
 20
142.724
 11
110.153
 21
142.658
  0
LINE
  8
0
 10
110.153
 20
142.658
 11
110.192
 21
142.589
  0
LINE
  8
0
 10
110.192
 20
142.589
 11
110.227
 21
142.519
  0
LINE
  8
0
 10
110.227
 20
142.519
 11
110.259
 21
142.447
  0
LINE
  8
0
 10
110.259
 20
142.447
 11
110.288
 21
142.374
  0
LINE
  8
0
 10
110.288
 20
142.374
 11
110.312
 21
142.299
  0
LINE
  8
0
 10
110.312
 20
142.299
 11
110.333
 21
142.224
  0
LINE
  8
0
 10
110.333
 20
142.224
 11
110.35
 21
142.147
  0
LINE
  8
0
 10
110.35
 20
142.147
 11
110.364
 21
142.07
  0
LINE
  8
0
 10
110.364
 20
142.07
 11
110.373
 21
141.992
  0
LINE
  8
0
 10
110.373
 20
141.992
 11
110.379
 21
141.913
  0
LINE
  8
0
 10
110.379
 20
141.913
 11
110.381
 21
141.835
  0
LINE
  8
0
 10
110.381
 20
141.835
 11
110.379
 21
141.756
  0
LINE
  8
0
 10
125.941
 20
13.2648
 11
122.441
 21
9.76479
  0
LINE
  8
0
 10
122.441
 20
9.76479
 11
115.441
 21
9.76479
  0
LINE
  8
0
 10
115.441
 20
9.76479
 11
111.941
 21
13.2648
  0
LINE
  8
0
 10
111.941
 20
13.2648
 11
111.941
 21
117.53
  0
LINE
  8
0
 10
111.941
 20
117.53
 11
125.941
 21
117.53
  0
LINE
  8
0
 10
125.941
 20
117.53
 11
125.941
 21
13.2648
  0
LINE
  8
0
 10
130.699
 20
4.42146
 11
130.693
 21
4.34312
  0
LINE
  8
0
 10
130.693
 20
4.34312
 11
130.684
 21
4.26515
  0
LINE
  8
0
 10
130.684
 20
4.26515
 11
130.67
 21
4.18776
  0
LINE
  8
0
 10
130.67
 20
4.18776
 11
130.653
 21
4.11111
  0
LINE
  8
0
 10
130.653
 20
4.11111
 11
130.632
 21
4.0354
  0
LINE
  8
0
 10
130.632
 20
4.0354
 11
130.608
 21
3.96082
  0
LINE
  8
0
 10
130.608
 20
3.96082
 11
130.579
 21
3.88753
  0
LINE
  8
0
 10
130.579
 20
3.88753
 11
130.547
 21
3.8157
  0
LINE
  8
0
 10
130.547
 20
3.8157
 11
130.512
 21
3.74554
  0
LINE
  8
0
 10
130.512
 20
3.74554
 11
130.473
 21
3.6772
  0
LINE
  8
0
 10
130.473
 20
3.6772
 11
130.431
 21
3.61082
  0
LINE
  8
0
 10
130.431
 20
3.61082
 11
130.386
 21
3.5466
  0
LINE
  8
0
 10
130.386
 20
3.5466
 11
130.338
 21
3.48468
  0
LINE
  8
0
 10
130.338
 20
3.48468
 11
130.287
 21
3.4252
  0
LINE
  8
0
 10
130.287
 20
3.4252
 11
130.232
 21
3.3683
  0
LINE
  8
0
 10
130.232
 20
3.3683
 11
130.175
 21
3.31413
  0
LINE
  8
0
 10
130.175
 20
3.31413
 11
130.116
 21
3.26283
  0
LINE
  8
0
 10
130.116
 20
3.26283
 11
130.054
 21
3.21449
  0
LINE
  8
0
 10
130.054
 20
3.21449
 11
129.99
 21
3.16927
  0
LINE
  8
0
 10
129.99
 20
3.16927
 11
129.923
 21
3.12724
  0
LINE
  8
0
 10
129.923
 20
3.12724
 11
129.855
 21
3.08852
  0
LINE
  8
0
 10
129.855
 20
3.08852
 11
129.785
 21
3.05321
  0
LINE
  8
0
 10
129.785
 20
3.05321
 11
129.713
 21
3.02136
  0
LINE
  8
0
 10
129.713
 20
3.02136
 11
129.64
 21
2.9931
  0
LINE
  8
0
 10
129.64
 20
2.9931
 11
129.565
 21
2.96846
  0
LINE
  8
0
 10
129.565
 20
2.96846
 11
129.49
 21
2.94751
  0
LINE
  8
0
 10
129.49
 20
2.94751
 11
129.413
 21
2.9303
  0
LINE
  8
0
 10
129.413
 20
2.9303
 11
129.336
 21
2.91687
  0
LINE
  8
0
 10
129.336
 20
2.91687
 11
129.258
 21
2.90724
  0
LINE
  8
0
 10
129.258
 20
2.90724
 11
129.179
 21
2.90147
  0
LINE
  8
0
 10
129.179
 20
2.90147
 11
129.101
 21
2.89954
  0
LINE
  8
0
 10
129.101
 20
2.89954
 11
129.022
 21
2.90147
  0
LINE
  8
0
 10
129.022
 20
2.90147
 11
128.944
 21
2.90724
  0
LINE
  8
0
 10
128.944
 20
2.90724
 11
128.866
 21
2.91687
  0
LINE
  8
0
 10
128.866
 20
2.91687
 11
128.788
 21
2.9303
  0
LINE
  8
0
 10
128.788
 20
2.9303
 11
128.712
 21
2.94751
  0
LINE
  8
0
 10
128.712
 20
2.94751
 11
128.636
 21
2.96846
  0
LINE
  8
0
 10
128.636
 20
2.96846
 11
128.562
 21
2.9931
  0
LINE
  8
0
 10
128.562
 20
2.9931
 11
128.488
 21
3.02136
  0
LINE
  8
0
 10
128.488
 20
3.02136
 11
128.416
 21
3.05321
  0
LINE
  8
0
 10
128.416
 20
3.05321
 11
128.346
 21
3.08852
  0
LINE
  8
0
 10
128.346
 20
3.08852
 11
128.278
 21
3.12724
  0
LINE
  8
0
 10
128.278
 20
3.12724
 11
128.212
 21
3.16927
  0
LINE
  8
0
 10
128.212
 20
3.16927
 11
128.147
 21
3.21449
  0
LINE
  8
0
 10
128.147
 20
3.21449
 11
128.085
 21
3.26283
  0
LINE
  8
0
 10
128.085
 20
3.26283
 11
128.026
 21
3.31413
  0
LINE
  8
0
 10
128.026
 20
3.31413
 11
127.969
 21
3.3683
  0
LINE
  8
0
 10
127.969
 20
3.3683
 11
127.915
 21
3.4252
  0
LINE
  8
0
 10
127.915
 20
3.4252
 11
127.864
 21
3.48468
  0
LINE
  8
0
 10
127.864
 20
3.48468
 11
127.815
 21
3.5466
  0
LINE
  8
0
 10
127.815
 20
3.5466
 11
127.77
 21
3.61082
  0
LINE
  8
0
 10
127.77
 20
3.61082
 11
127.728
 21
3.6772
  0
LINE
  8
0
 10
127.728
 20
3.6772
 11
127.689
 21
3.74554
  0
LINE
  8
0
 10
127.689
 20
3.74554
 11
127.654
 21
3.8157
  0
LINE
  8
0
 10
127.654
 20
3.8157
 11
127.622
 21
3.88753
  0
LINE
  8
0
 10
127.622
 20
3.88753
 11
127.594
 21
3.96082
  0
LINE
  8
0
 10
127.594
 20
3.96082
 11
127.569
 21
4.0354
  0
LINE
  8
0
 10
127.569
 20
4.0354
 11
127.548
 21
4.11111
  0
LINE
  8
0
 10
127.548
 20
4.11111
 11
127.531
 21
4.18776
  0
LINE
  8
0
 10
127.531
 20
4.18776
 11
127.518
 21
4.26515
  0
LINE
  8
0
 10
127.518
 20
4.26515
 11
127.508
 21
4.34312
  0
LINE
  8
0
 10
127.508
 20
4.34312
 11
127.502
 21
4.42146
  0
LINE
  8
0
 10
127.502
 20
4.42146
 11
127.5
 21
4.5
  0
LINE
  8
0
 10
127.5
 20
4.5
 11
127.502
 21
4.57852
  0
LINE
  8
0
 10
127.502
 20
4.57852
 11
127.508
 21
4.65686
  0
LINE
  8
0
 10
127.508
 20
4.65686
 11
127.518
 21
4.73483
  0
LINE
  8
0
 10
127.518
 20
4.73483
 11
127.531
 21
4.81223
  0
LINE
  8
0
 10
127.531
 20
4.81223
 11
127.548
 21
4.88887
  0
LINE
  8
0
 10
127.548
 20
4.88887
 11
127.569
 21
4.96458
  0
LINE
  8
0
 10
127.569
 20
4.96458
 11
127.594
 21
5.03917
  0
LINE
  8
0
 10
127.594
 20
5.03917
 11
127.622
 21
5.11246
  0
LINE
  8
0
 10
127.622
 20
5.11246
 11
127.654
 21
5.18428
  0
LINE
  8
0
 10
127.654
 20
5.18428
 11
127.689
 21
5.25444
  0
LINE
  8
0
 10
127.689
 20
5.25444
 11
127.728
 21
5.32278
  0
LINE
  8
0
 10
127.728
 20
5.32278
 11
127.77
 21
5.38916
  0
LINE
  8
0
 10
127.77
 20
5.38916
 11
127.815
 21
5.45338
  0
LINE
  8
0
 10
127.815
 20
5.45338
 11
127.864
 21
5.5153
  0
LINE
  8
0
 10
127.864
 20
5.5153
 11
127.915
 21
5.57478
  0
LINE
  8
0
 10
127.915
 20
5.57478
 11
127.969
 21
5.63168
  0
LINE
  8
0
 10
127.969
 20
5.63168
 11
128.026
 21
5.68585
  0
LINE
  8
0
 10
128.026
 20
5.68585
 11
128.085
 21
5.73715
  0
LINE
  8
0
 10
128.085
 20
5.73715
 11
128.147
 21
5.78549
  0
LINE
  8
0
 10
128.147
 20
5.78549
 11
128.212
 21
5.83072
  0
LINE
  8
0
 10
128.212
 20
5.83072
 11
128.278
 21
5.87274
  0
LINE
  8
0
 10
128.278
 20
5.87274
 11
128.346
 21
5.91147
  0
LINE
  8
0
 10
128.346
 20
5.91147
 11
128.416
 21
5.94678
  0
LINE
  8
0
 10
128.416
 20
5.94678
 11
128.488
 21
5.97862
  0
LINE
  8
0
 10
128.488
 20
5.97862
 11
128.562
 21
6.00688
  0
LINE
  8
0
 10
128.562
 20
6.00688
 11
128.636
 21
6.03152
  0
LINE
  8
0
 10
128.636
 20
6.03152
 11
128.712
 21
6.05247
  0
LINE
  8
0
 10
128.712
 20
6.05247
 11
128.788
 21
6.06969
  0
LINE
  8
0
 10
128.788
 20
6.06969
 11
128.866
 21
6.08311
  0
LINE
  8
0
 10
128.866
 20
6.08311
 11
128.944
 21
6.09274
  0
LINE
  8
0
 10
128.944
 20
6.09274
 11
129.022
 21
6.09851
  0
LINE
  8
0
 10
129.022
 20
6.09851
 11
129.101
 21
6.10045
  0
LINE
  8
0
 10
129.101
 20
6.10045
 11
129.179
 21
6.09851
  0
LINE
  8
0
 10
129.179
 20
6.09851
 11
129.258
 21
6.09274
  0
LINE
  8
0
 10
129.258
 20
6.09274
 11
129.336
 21
6.08311
  0
LINE
  8
0
 10
129.336
 20
6.08311
 11
129.413
 21
6.06969
  0
LINE
  8
0
 10
129.413
 20
6.06969
 11
129.49
 21
6.05247
  0
LINE
  8
0
 10
129.49
 20
6.05247
 11
129.565
 21
6.03152
  0
LINE
  8
0
 10
129.565
 20
6.03152
 11
129.64
 21
6.00688
  0
LINE
  8
0
 10
129.64
 20
6.00688
 11
129.713
 21
5.97862
  0
LINE
  8
0
 10
129.713
 20
5.97862
 11
129.785
 21
5.94678
  0
LINE
  8
0
 10
129.785
 20
5.94678
 11
129.855
 21
5.91147
  0
LINE
  8
0
 10
129.855
 20
5.91147
 11
129.923
 21
5.87274
  0
LINE
  8
0
 10
129.923
 20
5.87274
 11
129.99
 21
5.83072
  0
LINE
  8
0
 10
129.99
 20
5.83072
 11
130.054
 21
5.78549
  0
LINE
  8
0
 10
130.054
 20
5.78549
 11
130.116
 21
5.73715
  0
LINE
  8
0
 10
130.116
 20
5.73715
 11
130.175
 21
5.68585
  0
LINE
  8
0
 10
130.175
 20
5.68585
 11
130.232
 21
5.63168
  0
LINE
  8
0
 10
130.232
 20
5.63168
 11
130.287
 21
5.57478
  0
LINE
  8
0
 10
130.287
 20
5.57478
 11
130.338
 21
5.5153
  0
LINE
  8
0
 10
130.338
 20
5.5153
 11
130.386
 21
5.45338
  0
LINE
  8
0
 10
130.386
 20
5.45338
 11
130.431
 21
5.38916
  0
LINE
  8
0
 10
130.431
 20
5.38916
 11
130.473
 21
5.32278
  0
LINE
  8
0
 10
130.473
 20
5.32278
 11
130.512
 21
5.25444
  0
LINE
  8
0
 10
130.512
 20
5.25444
 11
130.547
 21
5.18428
  0
LINE
  8
0
 10
130.547
 20
5.18428
 11
130.579
 21
5.11246
  0
LINE
  8
0
 10
130.579
 20
5.11246
 11
130.608
 21
5.03917
  0
LINE
  8
0
 10
130.608
 20
5.03917
 11
130.632
 21
4.96458
  0
LINE
  8
0
 10
130.632
 20
4.96458
 11
130.653
 21
4.88887
  0
LINE
  8
0
 10
130.653
 20
4.88887
 11
130.67
 21
4.81223
  0
LINE
  8
0
 10
130.67
 20
4.81223
 11
130.684
 21
4.73483
  0
LINE
  8
0
 10
130.684
 20
4.73483
 11
130.693
 21
4.65686
  0
LINE
  8
0
 10
130.693
 20
4.65686
 11
130.699
 21
4.57852
  0
LINE
  8
0
 10
130.699
 20
4.57852
 11
130.701
 21
4.5
  0
LINE
  8
0
 10
130.701
 20
4.5
 11
130.699
 21
4.42146
  0
LINE
  8
0
 10
130.699
 20
141.756
 11
130.693
 21
141.678
  0
LINE
  8
0
 10
130.693
 20
141.678
 11
130.684
 21
141.6
  0
LINE
  8
0
 10
130.684
 20
141.6
 11
130.67
 21
141.523
  0
LINE
  8
0
 10
130.67
 20
141.523
 11
130.653
 21
141.446
  0
LINE
  8
0
 10
130.653
 20
141.446
 11
130.632
 21
141.37
  0
LINE
  8
0
 10
130.632
 20
141.37
 11
130.608
 21
141.296
  0
LINE
  8
0
 10
130.608
 20
141.296
 11
130.579
 21
141.222
  0
LINE
  8
0
 10
130.579
 20
141.222
 11
130.547
 21
141.151
  0
LINE
  8
0
 10
130.547
 20
141.151
 11
130.512
 21
141.08
  0
LINE
  8
0
 10
130.512
 20
141.08
 11
130.473
 21
141.012
  0
LINE
  8
0
 10
130.473
 20
141.012
 11
130.431
 21
140.946
  0
LINE
  8
0
 10
130.431
 20
140.946
 11
130.386
 21
140.881
  0
LINE
  8
0
 10
130.386
 20
140.881
 11
130.338
 21
140.819
  0
LINE
  8
0
 10
130.338
 20
140.819
 11
130.287
 21
140.76
  0
LINE
  8
0
 10
130.287
 20
140.76
 11
130.232
 21
140.703
  0
LINE
  8
0
 10
130.232
 20
140.703
 11
130.175
 21
140.649
  0
LINE
  8
0
 10
130.175
 20
140.649
 11
130.116
 21
140.598
  0
LINE
  8
0
 10
130.116
 20
140.598
 11
130.054
 21
140.549
  0
LINE
  8
0
 10
130.054
 20
140.549
 11
129.99
 21
140.504
  0
LINE
  8
0
 10
129.99
 20
140.504
 11
129.923
 21
140.462
  0
LINE
  8
0
 10
129.923
 20
140.462
 11
129.855
 21
140.423
  0
LINE
  8
0
 10
129.855
 20
140.423
 11
129.785
 21
140.388
  0
LINE
  8
0
 10
129.785
 20
140.388
 11
129.713
 21
140.356
  0
LINE
  8
0
 10
129.713
 20
140.356
 11
129.64
 21
140.328
  0
LINE
  8
0
 10
129.64
 20
140.328
 11
129.565
 21
140.303
  0
LINE
  8
0
 10
129.565
 20
140.303
 11
129.49
 21
140.282
  0
LINE
  8
0
 10
129.49
 20
140.282
 11
129.413
 21
140.265
  0
LINE
  8
0
 10
129.413
 20
140.265
 11
129.336
 21
140.252
  0
LINE
  8
0
 10
129.336
 20
140.252
 11
129.258
 21
140.242
  0
LINE
  8
0
 10
129.258
 20
140.242
 11
129.179
 21
140.236
  0
LINE
  8
0
 10
129.179
 20
140.236
 11
129.101
 21
140.234
  0
LINE
  8
0
 10
129.101
 20
140.234
 11
129.022
 21
140.236
  0
LINE
  8
0
 10
129.022
 20
140.236
 11
128.944
 21
140.242
  0
LINE
  8
0
 10
128.944
 20
140.242
 11
128.866
 21
140.252
  0
LINE
  8
0
 10
128.866
 20
140.252
 11
128.788
 21
140.265
  0
LINE
  8
0
 10
128.788
 20
140.265
 11
128.712
 21
140.282
  0
LINE
  8
0
 10
128.712
 20
140.282
 11
128.636
 21
140.303
  0
LINE
  8
0
 10
128.636
 20
140.303
 11
128.562
 21
140.328
  0
LINE
  8
0
 10
128.562
 20
140.328
 11
128.488
 21
140.356
  0
LINE
  8
0
 10
128.488
 20
140.356
 11
128.416
 21
140.388
  0
LINE
  8
0
 10
128.416
 20
140.388
 11
128.346
 21
140.423
  0
LINE
  8
0
 10
128.346
 20
140.423
 11
128.278
 21
140.462
  0
LINE
  8
0
 10
128.278
 20
140.462
 11
128.212
 21
140.504
  0
LINE
  8
0
 10
128.212
 20
140.504
 11
128.147
 21
140.549
  0
LINE
  8
0
 10
128.147
 20
140.549
 11
128.085
 21
140.598
  0
LINE
  8
0
 10
128.085
 20
140.598
 11
128.026
 21
140.649
  0
LINE
  8
0
 10
128.026
 20
140.649
 11
127.969
 21
140.703
  0
LINE
  8
0
 10
127.969
 20
140.703
 11
127.915
 21
140.76
  0
LINE
  8
0
 10
127.915
 20
140.76
 11
127.864
 21
140.819
  0
LINE
  8
0
 10
127.864
 20
140.819
 11
127.815
 21
140.881
  0
LINE
  8
0
 10
127.815
 20
140.881
 11
127.77
 21
140.946
  0
LINE
  8
0
 10
127.77
 20
140.946
 11
127.728
 21
141.012
  0
LINE
  8
0
 10
127.728
 20
141.012
 11
127.689
 21
141.08
  0
LINE
  8
0
 10
127.689
 20
141.08
 11
127.654
 21
141.151
  0
LINE
  8
0
 10
127.654
 20
141.151
 11
127.622
 21
141.222
  0
LINE
  8
0
 10
127.622
 20
141.222
 11
127.594
 21
141.296
  0
LINE
  8
0
 10
127.594
 20
141.296
 11
127.569
 21
141.37
  0
LINE
  8
0
 10
127.569
 20
141.37
 11
127.548
 21
141.446
  0
LINE
  8
0
 10
127.548
 20
141.446
 11
127.531
 21
141.523
  0
LINE
  8
0
 10
127.531
 20
141.523
 11
127.518
 21
141.6
  0
LINE
  8
0
 10
127.518
 20
141.6
 11
127.508
 21
141.678
  0
LINE
  8
0
 10
127.508
 20
141.678
 11
127.502
 21
141.756
  0
LINE
  8
0
 10
127.502
 20
141.756
 11
127.5
 21
141.835
  0
LINE
  8
0
 10
127.5
 20
141.835
 11
127.502
 21
141.913
  0
LINE
  8
0
 10
127.502
 20
141.913
 11
127.508
 21
141.992
  0
LINE
  8
0
 10
127.508
 20
141.992
 11
127.518
 21
142.07
  0
LINE
  8
0
 10
127.518
 20
142.07
 11
127.531
 21
142.147
  0
LINE
  8
0
 10
127.531
 20
142.147
 11
127.548
 21
142.224
  0
LINE
  8
0
 10
127.548
 20
142.224
 11
127.569
 21
142.299
  0
LINE
  8
0
 10
127.569
 20
142.299
 11
127.594
 21
142.374
  0
LINE
  8
0
 10
127.594
 20
142.374
 11
127.622
 21
142.447
  0
LINE
  8
0
 10
127.622
 20
142.447
 11
127.654
 21
142.519
  0
LINE
  8
0
 10
127.654
 20
142.519
 11
127.689
 21
142.589
  0
LINE
  8
0
 10
127.689
 20
142.589
 11
127.728
 21
142.658
  0
LINE
  8
0
 10
127.728
 20
142.658
 11
127.77
 21
142.724
  0
LINE
  8
0
 10
127.77
 20
142.724
 11
127.815
 21
142.788
  0
LINE
  8
0
 10
127.815
 20
142.788
 11
127.864
 21
142.85
  0
LINE
  8
0
 10
127.864
 20
142.85
 11
127.915
 21
142.91
  0
LINE
  8
0
 10
127.915
 20
142.91
 11
127.969
 21
142.966
  0
LINE
  8
0
 10
127.969
 20
142.966
 11
128.026
 21
143.021
  0
LINE
  8
0
 10
128.026
 20
143.021
 11
128.085
 21
143.072
  0
LINE
  8
0
 10
128.085
 20
143.072
 11
128.147
 21
143.12
  0
LINE
  8
0
 10
128.147
 20
143.12
 11
128.212
 21
143.166
  0
LINE
  8
0
 10
128.212
 20
143.166
 11
128.278
 21
143.208
  0
LINE
  8
0
 10
128.278
 20
143.208
 11
128.346
 21
143.246
  0
LINE
  8
0
 10
128.346
 20
143.246
 11
128.416
 21
143.282
  0
LINE
  8
0
 10
128.416
 20
143.282
 11
128.488
 21
143.313
  0
LINE
  8
0
 10
128.488
 20
143.313
 11
128.562
 21
143.342
  0
LINE
  8
0
 10
128.562
 20
143.342
 11
128.636
 21
143.366
  0
LINE
  8
0
 10
128.636
 20
143.366
 11
128.712
 21
143.387
  0
LINE
  8
0
 10
128.712
 20
143.387
 11
128.788
 21
143.404
  0
LINE
  8
0
 10
128.788
 20
143.404
 11
128.866
 21
143.418
  0
LINE
  8
0
 10
128.866
 20
143.418
 11
128.944
 21
143.428
  0
LINE
  8
0
 10
128.944
 20
143.428
 11
129.022
 21
143.433
  0
LINE
  8
0
 10
129.022
 20
143.433
 11
129.101
 21
143.435
  0
LINE
  8
0
 10
129.101
 20
143.435
 11
129.179
 21
143.433
  0
LINE
  8
0
 10
129.179
 20
143.433
 11
129.258
 21
143.428
  0
LINE
  8
0
 10
129.258
 20
143.428
 11
129.336
 21
143.418
  0
LINE
  8
0
 10
129.336
 20
143.418
 11
129.413
 21
143.404
  0
LINE
  8
0
 10
129.413
 20
143.404
 11
129.49
 21
143.387
  0
LINE
  8
0
 10
129.49
 20
143.387
 11
129.565
 21
143.366
  0
LINE
  8
0
 10
129.565
 20
143.366
 11
129.64
 21
143.342
  0
LINE
  8
0
 10
129.64
 20
143.342
 11
129.713
 21
143.313
  0
LINE
  8
0
 10
129.713
 20
143.313
 11
129.785
 21
143.282
  0
LINE
  8
0
 10
129.785
 20
143.282
 11
129.855
 21
143.246
  0
LINE
  8
0
 10
129.855
 20
143.246
 11
129.923
 21
143.208
  0
LINE
  8
0
 10
129.923
 20
143.208
 11
129.99
 21
143.166
  0
LINE
  8
0
 10
129.99
 20
143.166
 11
130.054
 21
143.12
  0
LINE
  8
0
 10
130.054
 20
143.12
 11
130.116
 21
143.072
  0
LINE
  8
0
 10
130.116
 20
143.072
 11
130.175
 21
143.021
  0
LINE
  8
0
 10
130.175
 20
143.021
 11
130.232
 21
142.966
  0
LINE
  8
0
 10
130.232
 20
142.966
 11
130.287
 21
142.91
  0
LINE
  8
0
 10
130.287
 20
142.91
 11
130.338
 21
142.85
  0
LINE
  8
0
 10
130.338
 20
142.85
 11
130.386
 21
142.788
  0
LINE
  8
0
 10
130.386
 20
142.788
 11
130.431
 21
142.724
  0
LINE
  8
0
 10
130.431
 20
142.724
 11
130.473
 21
142.658
  0
LINE
  8
0
 10
130.473
 20
142.658
 11
130.512
 21
142.589
  0
LINE
  8
0
 10
130.512
 20
142.589
 11
130.547
 21
142.519
  0
LINE
  8
0
 10
130.547
 20
142.519
 11
130.579
 21
142.447
  0
LINE
  8
0
 10
130.579
 20
142.447
 11
130.608
 21
142.374
  0
LINE
  8
0
 10
130.608
 20
142.374
 11
130.632
 21
142.299
  0
LINE
  8
0
 10
130.632
 20
142.299
 11
130.653
 21
142.224
  0
LINE
  8
0
 10
130.653
 20
142.224
 11
130.67
 21
142.147
  0
LINE
  8
0
 10
130.67
 20
142.147
 11
130.684
 21
142.07
  0
LINE
  8
0
 10
130.684
 20
142.07
 11
130.693
 21
141.992
  0
LINE
  8
0
 10
130.693
 20
141.992
 11
130.699
 21
141.913
  0
LINE
  8
0
 10
130.699
 20
141.913
 11
130.701
 21
141.835
  0
LINE
  8
0
 10
130.701
 20
141.835
 11
130.699
 21
141.756
  0
LINE
  8
0
 10
146.261
 20
13.2648
 11
142.761
 21
9.76479
  0
LINE
  8
0
 10
142.761
 20
9.76479
 11
135.761
 21
9.76479
  0
LINE
  8
0
 10
135.761
 20
9.76479
 11
132.261
 21
13.2648
  0
LINE
  8
0
 10
132.261
 20
13.2648
 11
132.261
 21
117.53
  0
LINE
  8
0
 10
132.261
 20
117.53
 11
146.261
 21
117.53
  0
LINE
  8
0
 10
146.261
 20
117.53
 11
146.261
 21
13.2648
  0
LINE
  8
0
 10
151.099
 20
4.42146
 11
151.093
 21
4.34312
  0
LINE
  8
0
 10
151.093
 20
4.34312
 11
151.083
 21
4.26515
  0
LINE
  8
0
 10
151.083
 20
4.26515
 11
151.07
 21
4.18776
  0
LINE
  8
0
 10
151.07
 20
4.18776
 11
151.052
 21
4.11111
  0
LINE
  8
0
 10
151.052
 20
4.11111
 11
151.032
 21
4.0354
  0
LINE
  8
0
 10
151.032
 20
4.0354
 11
151.007
 21
3.96082
  0
LINE
  8
0
 10
151.007
 20
3.96082
 11
150.979
 21
3.88753
  0
LINE
  8
0
 10
150.979
 20
3.88753
 11
150.947
 21
3.8157
  0
LINE
  8
0
 10
150.947
 20
3.8157
 11
150.911
 21
3.74554
  0
LINE
  8
0
 10
150.911
 20
3.74554
 11
150.873
 21
3.6772
  0
LINE
  8
0
 10
150.873
 20
3.6772
 11
150.831
 21
3.61082
  0
LINE
  8
0
 10
150.831
 20
3.61082
 11
150.785
 21
3.5466
  0
LINE
  8
0
 10
150.785
 20
3.5466
 11
150.737
 21
3.48468
  0
LINE
  8
0
 10
150.737
 20
3.48468
 11
150.686
 21
3.4252
  0
LINE
  8
0
 10
150.686
 20
3.4252
 11
150.632
 21
3.3683
  0
LINE
  8
0
 10
150.632
 20
3.3683
 11
150.575
 21
3.31413
  0
LINE
  8
0
 10
150.575
 20
3.31413
 11
150.515
 21
3.26283
  0
LINE
  8
0
 10
150.515
 20
3.26283
 11
150.453
 21
3.21449
  0
LINE
  8
0
 10
150.453
 20
3.21449
 11
150.389
 21
3.16927
  0
LINE
  8
0
 10
150.389
 20
3.16927
 11
150.323
 21
3.12724
  0
LINE
  8
0
 10
150.323
 20
3.12724
 11
150.254
 21
3.08852
  0
LINE
  8
0
 10
150.254
 20
3.08852
 11
150.184
 21
3.05321
  0
LINE
  8
0
 10
150.184
 20
3.05321
 11
150.112
 21
3.02136
  0
LINE
  8
0
 10
150.112
 20
3.02136
 11
150.039
 21
2.9931
  0
LINE
  8
0
 10
150.039
 20
2.9931
 11
149.965
 21
2.96846
  0
LINE
  8
0
 10
149.965
 20
2.96846
 11
149.889
 21
2.94751
  0
LINE
  8
0
 10
149.889
 20
2.94751
 11
149.812
 21
2.9303
  0
LINE
  8
0
 10
149.812
 20
2.9303
 11
149.735
 21
2.91687
  0
LINE
  8
0
 10
149.735
 20
2.91687
 11
149.657
 21
2.90724
  0
LINE
  8
0
 10
149.657
 20
2.90724
 11
149.579
 21
2.90147
  0
LINE
  8
0
 10
149.579
 20
2.90147
 11
149.5
 21
2.89954
  0
LINE
  8
0
 10
149.5
 20
2.89954
 11
149.421
 21
2.90147
  0
LINE
  8
0
 10
149.421
 20
2.90147
 11
149.343
 21
2.90724
  0
LINE
  8
0
 10
149.343
 20
2.90724
 11
149.265
 21
2.91687
  0
LINE
  8
0
 10
149.265
 20
2.91687
 11
149.188
 21
2.9303
  0
LINE
  8
0
 10
149.188
 20
2.9303
 11
149.111
 21
2.94751
  0
LINE
  8
0
 10
149.111
 20
2.94751
 11
149.035
 21
2.96846
  0
LINE
  8
0
 10
149.035
 20
2.96846
 11
148.961
 21
2.9931
  0
LINE
  8
0
 10
148.961
 20
2.9931
 11
148.888
 21
3.02136
  0
LINE
  8
0
 10
148.888
 20
3.02136
 11
148.816
 21
3.05321
  0
LINE
  8
0
 10
148.816
 20
3.05321
 11
148.746
 21
3.08852
  0
LINE
  8
0
 10
148.746
 20
3.08852
 11
148.677
 21
3.12724
  0
LINE
  8
0
 10
148.677
 20
3.12724
 11
148.611
 21
3.16927
  0
LINE
  8
0
 10
148.611
 20
3.16927
 11
148.547
 21
3.21449
  0
LINE
  8
0
 10
148.547
 20
3.21449
 11
148.485
 21
3.26283
  0
LINE
  8
0
 10
148.485
 20
3.26283
 11
148.425
 21
3.31413
  0
LINE
  8
0
 10
148.425
 20
3.31413
 11
148.368
 21
3.3683
  0
LINE
  8
0
 10
148.368
 20
3.3683
 11
148.314
 21
3.4252
  0
LINE
  8
0
 10
148.314
 20
3.4252
 11
148.263
 21
3.48468
  0
LINE
  8
0
 10
148.263
 20
3.48468
 11
148.215
 21
3.5466
  0
LINE
  8
0
 10
148.215
 20
3.5466
 11
148.169
 21
3.61082
  0
LINE
  8
0
 10
148.169
 20
3.61082
 11
148.127
 21
3.6772
  0
LINE
  8
0
 10
148.127
 20
3.6772
 11
148.089
 21
3.74554
  0
LINE
  8
0
 10
148.089
 20
3.74554
 11
148.053
 21
3.8157
  0
LINE
  8
0
 10
148.053
 20
3.8157
 11
148.021
 21
3.88753
  0
LINE
  8
0
 10
148.021
 20
3.88753
 11
147.993
 21
3.96082
  0
LINE
  8
0
 10
147.993
 20
3.96082
 11
147.968
 21
4.0354
  0
LINE
  8
0
 10
147.968
 20
4.0354
 11
147.948
 21
4.11111
  0
LINE
  8
0
 10
147.948
 20
4.11111
 11
147.93
 21
4.18776
  0
LINE
  8
0
 10
147.93
 20
4.18776
 11
147.917
 21
4.26515
  0
LINE
  8
0
 10
147.917
 20
4.26515
 11
147.907
 21
4.34312
  0
LINE
  8
0
 10
147.907
 20
4.34312
 11
147.901
 21
4.42146
  0
LINE
  8
0
 10
147.901
 20
4.42146
 11
147.9
 21
4.5
  0
LINE
  8
0
 10
147.9
 20
4.5
 11
147.901
 21
4.57852
  0
LINE
  8
0
 10
147.901
 20
4.57852
 11
147.907
 21
4.65686
  0
LINE
  8
0
 10
147.907
 20
4.65686
 11
147.917
 21
4.73483
  0
LINE
  8
0
 10
147.917
 20
4.73483
 11
147.93
 21
4.81223
  0
LINE
  8
0
 10
147.93
 20
4.81223
 11
147.948
 21
4.88887
  0
LINE
  8
0
 10
147.948
 20
4.88887
 11
147.968
 21
4.96458
  0
LINE
  8
0
 10
147.968
 20
4.96458
 11
147.993
 21
5.03917
  0
LINE
  8
0
 10
147.993
 20
5.03917
 11
148.021
 21
5.11246
  0
LINE
  8
0
 10
148.021
 20
5.11246
 11
148.053
 21
5.18428
  0
LINE
  8
0
 10
148.053
 20
5.18428
 11
148.089
 21
5.25444
  0
LINE
  8
0
 10
148.089
 20
5.25444
 11
148.127
 21
5.32278
  0
LINE
  8
0
 10
148.127
 20
5.32278
 11
148.169
 21
5.38916
  0
LINE
  8
0
 10
148.169
 20
5.38916
 11
148.215
 21
5.45338
  0
LINE
  8
0
 10
148.215
 20
5.45338
 11
148.263
 21
5.5153
  0
LINE
  8
0
 10
148.263
 20
5.5153
 11
148.314
 21
5.57478
  0
LINE
  8
0
 10
148.314
 20
5.57478
 11
148.368
 21
5.63168
  0
LINE
  8
0
 10
148.368
 20
5.63168
 11
148.425
 21
5.68585
  0
LINE
  8
0
 10
148.425
 20
5.68585
 11
148.485
 21
5.73715
  0
LINE
  8
0
 10
148.485
 20
5.73715
 11
148.547
 21
5.78549
  0
LINE
  8
0
 10
148.547
 20
5.78549
 11
148.611
 21
5.83072
  0
LINE
  8
0
 10
148.611
 20
5.83072
 11
148.677
 21
5.87274
  0
LINE
  8
0
 10
148.677
 20
5.87274
 11
148.746
 21
5.91147
  0
LINE
  8
0
 10
148.746
 20
5.91147
 11
148.816
 21
5.94678
  0
LINE
  8
0
 10
148.816
 20
5.94678
 11
148.888
 21
5.97862
  0
LINE
  8
0
 10
148.888
 20
5.97862
 11
148.961
 21
6.00688
  0
LINE
  8
0
 10
148.961
 20
6.00688
 11
149.035
 21
6.03152
  0
LINE
  8
0
 10
149.035
 20
6.03152
 11
149.111
 21
6.05247
  0
LINE
  8
0
 10
149.111
 20
6.05247
 11
149.188
 21
6.06969
  0
LINE
  8
0
 10
149.188
 20
6.06969
 11
149.265
 21
6.08311
  0
LINE
  8
0
 10
149.265
 20
6.08311
 11
149.343
 21
6.09274
  0
LINE
  8
0
 10
149.343
 20
6.09274
 11
149.421
 21
6.09851
  0
LINE
  8
0
 10
149.421
 20
6.09851
 11
149.5
 21
6.10045
  0
LINE
  8
0
 10
149.5
 20
6.10045
 11
149.579
 21
6.09851
  0
LINE
  8
0
 10
149.579
 20
6.09851
 11
149.657
 21
6.09274
  0
LINE
  8
0
 10
149.657
 20
6.09274
 11
149.735
 21
6.08311
  0
LINE
  8
0
 10
149.735
 20
6.08311
 11
149.812
 21
6.06969
  0
LINE
  8
0
 10
149.812
 20
6.06969
 11
149.889
 21
6.05247
  0
LINE
  8
0
 10
149.889
 20
6.05247
 11
149.965
 21
6.03152
  0
LINE
  8
0
 10
149.965
 20
6.03152
 11
150.039
 21
6.00688
  0
LINE
  8
0
 10
150.039
 20
6.00688
 11
150.112
 21
5.97862
  0
LINE
  8
0
 10
150.112
 20
5.97862
 11
150.184
 21
5.94678
  0
LINE
  8
0
 10
150.184
 20
5.94678
 11
150.254
 21
5.91147
  0
LINE
  8
0
 10
150.254
 20
5.91147
 11
150.323
 21
5.87274
  0
LINE
  8
0
 10
150.323
 20
5.87274
 11
150.389
 21
5.83072
  0
LINE
  8
0
 10
150.389
 20
5.83072
 11
150.453
 21
5.78549
  0
LINE
  8
0
 10
150.453
 20
5.78549
 11
150.515
 21
5.73715
  0
LINE
  8
0
 10
150.515
 20
5.73715
 11
150.575
 21
5.68585
  0
LINE
  8
0
 10
150.575
 20
5.68585
 11
150.632
 21
5.63168
  0
LINE
  8
0
 10
150.632
 20
5.63168
 11
150.686
 21
5.57478
  0
LINE
  8
0
 10
150.686
 20
5.57478
 11
150.737
 21
5.5153
  0
LINE
  8
0
 10
150.737
 20
5.5153
 11
150.785
 21
5.45338
  0
LINE
  8
0
 10
150.785
 20
5.45338
 11
150.831
 21
5.38916
  0
LINE
  8
0
 10
150.831
 20
5.38916
 11
150.873
 21
5.32278
  0
LINE
  8
0
 10
150.873
 20
5.32278
 11
150.911
 21
5.25444
  0
LINE
  8
0
 10
150.911
 20
5.25444
 11
150.947
 21
5.18428
  0
LINE
  8
0
 10
150.947
 20
5.18428
 11
150.979
 21
5.11246
  0
LINE
  8
0
 10
150.979
 20
5.11246
 11
151.007
 21
5.03917
  0
LINE
  8
0
 10
151.007
 20
5.03917
 11
151.032
 21
4.96458
  0
LINE
  8
0
 10
151.032
 20
4.96458
 11
151.052
 21
4.88887
  0
LINE
  8
0
 10
151.052
 20
4.88887
 11
151.07
 21
4.81223
  0
LINE
  8
0
 10
151.07
 20
4.81223
 11
151.083
 21
4.73483
  0
LINE
  8
0
 10
151.083
 20
4.73483
 11
151.093
 21
4.65686
  0
LINE
  8
0
 10
151.093
 20
4.65686
 11
151.099
 21
4.57852
  0
LINE
  8
0
 10
151.099
 20
4.57852
 11
151.1
 21
4.5
  0
LINE
  8
0
 10
151.1
 20
4.5
 11
151.099
 21
4.42146
  0
LINE
  8
0
 10
151.099
 20
143.421
 11
151.093
 21
143.343
  0
LINE
  8
0
 10
151.093
 20
143.343
 11
151.083
 21
143.265
  0
LINE
  8
0
 10
151.083
 20
143.265
 11
151.07
 21
143.188
  0
LINE
  8
0
 10
151.07
 20
143.188
 11
151.052
 21
143.111
  0
LINE
  8
0
 10
151.052
 20
143.111
 11
151.032
 21
143.035
  0
LINE
  8
0
 10
151.032
 20
143.035
 11
151.007
 21
142.961
  0
LINE
  8
0
 10
151.007
 20
142.961
 11
150.979
 21
142.888
  0
LINE
  8
0
 10
150.979
 20
142.888
 11
150.947
 21
142.816
  0
LINE
  8
0
 10
150.947
 20
142.816
 11
150.911
 21
142.746
  0
LINE
  8
0
 10
150.911
 20
142.746
 11
150.873
 21
142.677
  0
LINE
  8
0
 10
150.873
 20
142.677
 11
150.831
 21
142.611
  0
LINE
  8
0
 10
150.831
 20
142.611
 11
150.785
 21
142.547
  0
LINE
  8
0
 10
150.785
 20
142.547
 11
150.737
 21
142.485
  0
LINE
  8
0
 10
150.737
 20
142.485
 11
150.686
 21
142.425
  0
LINE
  8
0
 10
150.686
 20
142.425
 11
150.632
 21
142.368
  0
LINE
  8
0
 10
150.632
 20
142.368
 11
150.575
 21
142.314
  0
LINE
  8
0
 10
150.575
 20
142.314
 11
150.515
 21
142.263
  0
LINE
  8
0
 10
150.515
 20
142.263
 11
150.453
 21
142.215
  0
LINE
  8
0
 10
150.453
 20
142.215
 11
150.389
 21
142.169
  0
LINE
  8
0
 10
150.389
 20
142.169
 11
150.323
 21
142.127
  0
LINE
  8
0
 10
150.323
 20
142.127
 11
150.254
 21
142.089
  0
LINE
  8
0
 10
150.254
 20
142.089
 11
150.184
 21
142.053
  0
LINE
  8
0
 10
150.184
 20
142.053
 11
150.112
 21
142.021
  0
LINE
  8
0
 10
150.112
 20
142.021
 11
150.039
 21
141.993
  0
LINE
  8
0
 10
150.039
 20
141.993
 11
149.965
 21
141.968
  0
LINE
  8
0
 10
149.965
 20
141.968
 11
149.889
 21
141.948
  0
LINE
  8
0
 10
149.889
 20
141.948
 11
149.812
 21
141.93
  0
LINE
  8
0
 10
149.812
 20
141.93
 11
149.735
 21
141.917
  0
LINE
  8
0
 10
149.735
 20
141.917
 11
149.657
 21
141.907
  0
LINE
  8
0
 10
149.657
 20
141.907
 11
149.579
 21
141.901
  0
LINE
  8
0
 10
149.579
 20
141.901
 11
149.5
 21
141.9
  0
LINE
  8
0
 10
149.5
 20
141.9
 11
149.421
 21
141.901
  0
LINE
  8
0
 10
149.421
 20
141.901
 11
149.343
 21
141.907
  0
LINE
  8
0
 10
149.343
 20
141.907
 11
149.265
 21
141.917
  0
LINE
  8
0
 10
149.265
 20
141.917
 11
149.188
 21
141.93
  0
LINE
  8
0
 10
149.188
 20
141.93
 11
149.111
 21
141.948
  0
LINE
  8
0
 10
149.111
 20
141.948
 11
149.035
 21
141.968
  0
LINE
  8
0
 10
149.035
 20
141.968
 11
148.961
 21
141.993
  0
LINE
  8
0
 10
148.961
 20
141.993
 11
148.888
 21
142.021
  0
LINE
  8
0
 10
148.888
 20
142.021
 11
148.816
 21
142.053
  0
LINE
  8
0
 10
148.816
 20
142.053
 11
148.746
 21
142.089
  0
LINE
  8
0
 10
148.746
 20
142.089
 11
148.677
 21
142.127
  0
LINE
  8
0
 10
148.677
 20
142.127
 11
148.611
 21
142.169
  0
LINE
  8
0
 10
148.611
 20
142.169
 11
148.547
 21
142.215
  0
LINE
  8
0
 10
148.547
 20
142.215
 11
148.485
 21
142.263
  0
LINE
  8
0
 10
148.485
 20
142.263
 11
148.425
 21
142.314
  0
LINE
  8
0
 10
148.425
 20
142.314
 11
148.368
 21
142.368
  0
LINE
  8
0
 10
148.368
 20
142.368
 11
148.314
 21
142.425
  0
LINE
  8
0
 10
148.314
 20
142.425
 11
148.263
 21
142.485
  0
LINE
  8
0
 10
148.263
 20
142.485
 11
148.215
 21
142.547
  0
LINE
  8
0
 10
148.215
 20
142.547
 11
148.169
 21
142.611
  0
LINE
  8
0
 10
148.169
 20
142.611
 11
148.127
 21
142.677
  0
LINE
  8
0
 10
148.127
 20
142.677
 11
148.089
 21
142.746
  0
LINE
  8
0
 10
148.089
 20
142.746
 11
148.053
 21
142.816
  0
LINE
  8
0
 10
148.053
 20
142.816
 11
148.021
 21
142.888
  0
LINE
  8
0
 10
148.021
 20
142.888
 11
147.993
 21
142.961
  0
LINE
  8
0
 10
147.993
 20
142.961
 11
147.968
 21
143.035
  0
LINE
  8
0
 10
147.968
 20
143.035
 11
147.948
 21
143.111
  0
LINE
  8
0
 10
147.948
 20
143.111
 11
147.93
 21
143.188
  0
LINE
  8
0
 10
147.93
 20
143.188
 11
147.917
 21
143.265
  0
LINE
  8
0
 10
147.917
 20
143.265
 11
147.907
 21
143.343
  0
LINE
  8
0
 10
147.907
 20
143.343
 11
147.901
 21
143.421
  0
LINE
  8
0
 10
147.901
 20
143.421
 11
147.9
 21
143.5
  0
LINE
  8
0
 10
147.9
 20
143.5
 11
147.901
 21
143.579
  0
LINE
  8
0
 10
147.901
 20
143.579
 11
147.907
 21
143.657
  0
LINE
  8
0
 10
147.907
 20
143.657
 11
147.917
 21
143.735
  0
LINE
  8
0
 10
147.917
 20
143.735
 11
147.93
 21
143.812
  0
LINE
  8
0
 10
147.93
 20
143.812
 11
147.948
 21
143.889
  0
LINE
  8
0
 10
147.948
 20
143.889
 11
147.968
 21
143.965
  0
LINE
  8
0
 10
147.968
 20
143.965
 11
147.993
 21
144.039
  0
LINE
  8
0
 10
147.993
 20
144.039
 11
148.021
 21
144.112
  0
LINE
  8
0
 10
148.021
 20
144.112
 11
148.053
 21
144.184
  0
LINE
  8
0
 10
148.053
 20
144.184
 11
148.089
 21
144.254
  0
LINE
  8
0
 10
148.089
 20
144.254
 11
148.127
 21
144.323
  0
LINE
  8
0
 10
148.127
 20
144.323
 11
148.169
 21
144.389
  0
LINE
  8
0
 10
148.169
 20
144.389
 11
148.215
 21
144.453
  0
LINE
  8
0
 10
148.215
 20
144.453
 11
148.263
 21
144.515
  0
LINE
  8
0
 10
148.263
 20
144.515
 11
148.314
 21
144.575
  0
LINE
  8
0
 10
148.314
 20
144.575
 11
148.368
 21
144.632
  0
LINE
  8
0
 10
148.368
 20
144.632
 11
148.425
 21
144.686
  0
LINE
  8
0
 10
148.425
 20
144.686
 11
148.485
 21
144.737
  0
LINE
  8
0
 10
148.485
 20
144.737
 11
148.547
 21
144.785
  0
LINE
  8
0
 10
148.547
 20
144.785
 11
148.611
 21
144.831
  0
LINE
  8
0
 10
148.611
 20
144.831
 11
148.677
 21
144.873
  0
LINE
  8
0
 10
148.677
 20
144.873
 11
148.746
 21
144.911
  0
LINE
  8
0
 10
148.746
 20
144.911
 11
148.816
 21
144.947
  0
LINE
  8
0
 10
148.816
 20
144.947
 11
148.888
 21
144.979
  0
LINE
  8
0
 10
148.888
 20
144.979
 11
148.961
 21
145.007
  0
LINE
  8
0
 10
148.961
 20
145.007
 11
149.035
 21
145.032
  0
LINE
  8
0
 10
149.035
 20
145.032
 11
149.111
 21
145.052
  0
LINE
  8
0
 10
149.111
 20
145.052
 11
149.188
 21
145.07
  0
LINE
  8
0
 10
149.188
 20
145.07
 11
149.265
 21
145.083
  0
LINE
  8
0
 10
149.265
 20
145.083
 11
149.343
 21
145.093
  0
LINE
  8
0
 10
149.343
 20
145.093
 11
149.421
 21
145.099
  0
LINE
  8
0
 10
149.421
 20
145.099
 11
149.5
 21
145.1
  0
LINE
  8
0
 10
149.5
 20
145.1
 11
149.579
 21
145.099
  0
LINE
  8
0
 10
149.579
 20
145.099
 11
149.657
 21
145.093
  0
LINE
  8
0
 10
149.657
 20
145.093
 11
149.735
 21
145.083
  0
LINE
  8
0
 10
149.735
 20
145.083
 11
149.812
 21
145.07
  0
LINE
  8
0
 10
149.812
 20
145.07
 11
149.889
 21
145.052
  0
LINE
  8
0
 10
149.889
 20
145.052
 11
149.965
 21
145.032
  0
LINE
  8
0
 10
149.965
 20
145.032
 11
150.039
 21
145.007
  0
LINE
  8
0
 10
150.039
 20
145.007
 11
150.112
 21
144.979
  0
LINE
  8
0
 10
150.112
 20
144.979
 11
150.184
 21
144.947
  0
LINE
  8
0
 10
150.184
 20
144.947
 11
150.254
 21
144.911
  0
LINE
  8
0
 10
150.254
 20
144.911
 11
150.323
 21
144.873
  0
LINE
  8
0
 10
150.323
 20
144.873
 11
150.389
 21
144.831
  0
LINE
  8
0
 10
150.389
 20
144.831
 11
150.453
 21
144.785
  0
LINE
  8
0
 10
150.453
 20
144.785
 11
150.515
 21
144.737
  0
LINE
  8
0
 10
150.515
 20
144.737
 11
150.575
 21
144.686
  0
LINE
  8
0
 10
150.575
 20
144.686
 11
150.632
 21
144.632
  0
LINE
  8
0
 10
150.632
 20
144.632
 11
150.686
 21
144.575
  0
LINE
  8
0
 10
150.686
 20
144.575
 11
150.737
 21
144.515
  0
LINE
  8
0
 10
150.737
 20
144.515
 11
150.785
 21
144.453
  0
LINE
  8
0
 10
150.785
 20
144.453
 11
150.831
 21
144.389
  0
LINE
  8
0
 10
150.831
 20
144.389
 11
150.873
 21
144.323
  0
LINE
  8
0
 10
150.873
 20
144.323
 11
150.911
 21
144.254
  0
LINE
  8
0
 10
150.911
 20
144.254
 11
150.947
 21
144.184
  0
LINE
  8
0
 10
150.947
 20
144.184
 11
150.979
 21
144.112
  0
LINE
  8
0
 10
150.979
 20
144.112
 11
151.007
 21
144.039
  0
LINE
  8
0
 10
151.007
 20
144.039
 11
151.032
 21
143.965
  0
LINE
  8
0
 10
151.032
 20
143.965
 11
151.052
 21
143.889
  0
LINE
  8
0
 10
151.052
 20
143.889
 11
151.07
 21
143.812
  0
LINE
  8
0
 10
151.07
 20
143.812
 11
151.083
 21
143.735
  0
LINE
  8
0
 10
151.083
 20
143.735
 11
151.093
 21
143.657
  0
LINE
  8
0
 10
151.093
 20
143.657
 11
151.099
 21
143.579
  0
LINE
  8
0
 10
151.099
 20
143.579
 11
151.1
 21
143.5
  0
LINE
  8
0
 10
151.1
 20
143.5
 11
151.099
 21
143.421
  0
ENDSEC
  0
SECTION
  2
OBJECTS
  0
DICTIONARY
  0
ENDSEC
  0
EOF
